<?xml version="1.0" encoding="UTF-8" standalone="no"?>
<svg
   xmlns:dc="http://purl.org/dc/elements/1.1/"
   xmlns:cc="http://creativecommons.org/ns#"
   xmlns:rdf="http://www.w3.org/1999/02/22-rdf-syntax-ns#"
   xmlns:svg="http://www.w3.org/2000/svg"
   xmlns="http://www.w3.org/2000/svg"
   xmlns:sodipodi="http://sodipodi.sourceforge.net/DTD/sodipodi-0.dtd"
   xmlns:inkscape="http://www.inkscape.org/namespaces/inkscape"
   version="1.1"
   id="Layer_1"
   x="0px"
   y="0px"
   viewBox="0 0 2560 1600"
   enable-background="new 0 0 2560 1600"
   xml:space="preserve"
   sodipodi:docname="wrapingpaperdesign01.svg"
   inkscape:version="0.92.1 r15371"><metadata
   id="metadata7825"><rdf:RDF><cc:Work
       rdf:about=""><dc:format>image/svg+xml</dc:format><dc:type
         rdf:resource="http://purl.org/dc/dcmitype/StillImage" /></cc:Work></rdf:RDF></metadata><defs
   id="defs7823" /><sodipodi:namedview
   pagecolor="#ffffff"
   bordercolor="#666666"
   borderopacity="1"
   objecttolerance="10"
   gridtolerance="10"
   guidetolerance="10"
   inkscape:pageopacity="0"
   inkscape:pageshadow="2"
   inkscape:window-width="1366"
   inkscape:window-height="706"
   id="namedview7821"
   showgrid="false"
   inkscape:zoom="0.18188599"
   inkscape:cx="641.92192"
   inkscape:cy="1195.4354"
   inkscape:window-x="-8"
   inkscape:window-y="-8"
   inkscape:window-maximized="1"
   inkscape:current-layer="Layer_1" />
<pattern
   width="424.606"
   height="250"
   patternUnits="userSpaceOnUse"
   id="New_Pattern"
   viewBox="68.712 -250.236 424.606 250"
   overflow="visible">
	<g
   id="g7815">
		<rect
   x="68.712"
   y="-250.236"
   fill="none"
   width="424.606"
   height="250"
   id="rect7709" />
		<g
   id="g7725">
			<path
   d="M493.318-6.403c1.647-24.737,13.235-48.136,34.763-54.044c-3.38-12.928-13.968-25.806-34.763-36.904     c-20.794,11.098-31.383,23.977-34.763,36.904C480.083-54.539,491.671-31.14,493.318-6.403z"
   id="path7711" />
			<path
   d="M493.114-0.59c-1.685-0.964-3.399-1.875-5.137-2.73c1.609,1.078,3.255,2.107,4.933,3.083     c0.068-0.039,0.135-0.079,0.203-0.118C493.113-0.433,493.114-0.511,493.114-0.59z"
   id="path7713" />
			<path
   d="M493.523-0.355c-0.068-0.039-0.136-0.079-0.205-0.118c-0.068,0.039-0.137,0.079-0.205,0.118c0,0.079,0,0.158,0,0.236     c0.068,0.039,0.136,0.079,0.205,0.118c0.068-0.039,0.137-0.079,0.205-0.118C493.523-0.197,493.523-0.276,493.523-0.355z"
   id="path7715" />
			<path
   d="M493.522-0.59c-0.007-1.941-0.075-3.881-0.204-5.813c-0.129,1.932-0.197,3.873-0.204,5.813     c0.068,0.039,0.136,0.078,0.204,0.117C493.386-0.512,493.454-0.551,493.522-0.59z"
   id="path7717" />
			<path
   d="M487.977-3.32c-20.599-13.795-35.069-35.529-29.422-57.128c-12.886-3.537-29.333-0.806-49.341,11.653     c-0.786,23.557,5.073,39.167,14.579,48.558C439.673-15.926,465.731-14.262,487.977-3.32z"
   id="path7719" />
			<path
   d="M409.214-48.794c0.613-18.375,5.269-41.586,15.392-70.455c-2.051-0.387-4.136-0.765-6.259-1.134L351.783-5.09     c1.381,1.654,2.751,3.271,4.111,4.854C375.834-23.438,393.607-39.076,409.214-48.794z"
   id="path7721" />
			<path
   d="M562.03-119.249c-0.691-1.97-1.406-3.965-2.148-5.987H426.754c-0.742,2.023-1.457,4.018-2.148,5.987     c30.063,5.668,52.492,13.241,68.712,21.897C509.537-106.008,531.967-113.581,562.03-119.249z"
   id="path7723" />
		</g>
		<g
   id="g7741">
			<path
   d="M68.712-6.403c1.647-24.737,13.235-48.136,34.763-54.044c-3.38-12.928-13.968-25.806-34.763-36.904     C47.918-86.253,37.329-73.375,33.949-60.447C55.477-54.539,67.065-31.14,68.712-6.403z"
   id="path7727" />
			<path
   d="M74.052-3.32c22.247-10.942,48.304-12.606,64.185,3.083c9.506-9.391,15.365-25,14.579-48.558     c-20.008-12.459-36.456-15.19-49.341-11.653C109.122-38.849,94.652-17.115,74.052-3.32z"
   id="path7729" />
			<path
   d="M69.12-0.236c1.677-0.977,3.324-2.006,4.933-3.083c-1.738,0.855-3.452,1.766-5.137,2.73c0,0.078,0.001,0.157,0.001,0.235     C68.984-0.315,69.052-0.276,69.12-0.236z"
   id="path7731" />
			<path
   d="M68.917-0.355c-0.068-0.039-0.136-0.079-0.205-0.118c-0.068,0.039-0.137,0.079-0.205,0.118c0,0.079,0,0.158,0,0.236     C68.575-0.079,68.644-0.039,68.712,0c0.068-0.039,0.137-0.079,0.205-0.118C68.917-0.197,68.917-0.276,68.917-0.355z"
   id="path7733" />
			<path
   d="M68.916-0.59c-0.007-1.941-0.075-3.881-0.204-5.813c-0.129,1.932-0.197,3.873-0.204,5.813     c0.068,0.039,0.136,0.078,0.204,0.117C68.78-0.512,68.848-0.551,68.916-0.59z"
   id="path7735" />
			<path
   d="M137.424-119.249c-0.691-1.97-1.406-3.965-2.148-5.987H2.148c-0.742,2.023-1.457,4.018-2.148,5.987     c30.063,5.668,52.492,13.241,68.712,21.897C84.932-106.008,107.361-113.581,137.424-119.249z"
   id="path7737" />
			<path
   d="M206.136-0.236c1.36-1.583,2.731-3.2,4.111-4.854l-66.564-115.293c-2.123,0.369-4.208,0.747-6.259,1.134     c10.123,28.869,14.779,52.08,15.392,70.455C168.423-39.076,186.196-23.438,206.136-0.236z"
   id="path7739" />
		</g>
		<g
   id="g7757">
			<path
   d="M493.114-249.883c0.007,1.941,0.075,3.881,0.204,5.813c0.129-1.932,0.197-3.873,0.204-5.813     c-0.068-0.039-0.136-0.078-0.204-0.117C493.25-249.961,493.182-249.922,493.114-249.883z"
   id="path7743" />
			<path
   d="M492.91-250.236c-1.677,0.977-3.324,2.006-4.933,3.083c1.738-0.855,3.452-1.766,5.137-2.73     c0-0.078-0.001-0.157-0.001-0.235C493.045-250.157,492.978-250.197,492.91-250.236z"
   id="path7745" />
			<path
   d="M493.523-250.355c-0.068-0.039-0.136-0.079-0.205-0.118c-0.068,0.039-0.137,0.079-0.205,0.118c0,0.079,0,0.158,0,0.236     c0.068,0.039,0.136,0.079,0.205,0.118c0.068-0.039,0.137-0.079,0.205-0.118C493.523-250.197,493.523-250.276,493.523-250.355z"
   id="path7747" />
			<path
   d="M355.894-250.236c-1.36,1.583-2.731,3.2-4.111,4.854l66.564,115.293c2.123-0.369,4.208-0.747,6.259-1.134     c-10.123-28.869-14.779-52.08-15.392-70.455C393.607-211.397,375.834-227.035,355.894-250.236z"
   id="path7749" />
			<path
   d="M424.606-131.224c0.691,1.97,1.406,3.965,2.148,5.987h133.128c0.742-2.023,1.457-4.018,2.148-5.987     c-30.063-5.668-52.492-13.241-68.712-21.898C477.098-144.465,454.669-136.892,424.606-131.224z"
   id="path7751" />
			<path
   d="M493.318-244.07c-1.647,24.737-13.235,48.136-34.763,54.044c3.38,12.928,13.968,25.806,34.763,36.904     c20.794-11.098,31.383-23.977,34.763-36.904C506.552-195.934,494.965-219.333,493.318-244.07z"
   id="path7753" />
			<path
   d="M487.977-247.153c-22.246,10.942-48.304,12.606-64.185-3.083c-9.506,9.391-15.365,25-14.579,48.558     c20.008,12.459,36.456,15.19,49.341,11.653C452.908-211.624,467.378-233.358,487.977-247.153z"
   id="path7755" />
		</g>
		<g
   id="g7797">
			<path
   d="M280.811-124.883c0.007,1.941,0.075,3.881,0.204,5.813c0.129-1.932,0.197-3.873,0.204-5.813     c-0.068-0.039-0.136-0.078-0.204-0.117C280.947-124.961,280.879-124.922,280.811-124.883z"
   id="path7759" />
			<path
   d="M281.22-125.118c0,0.078,0,0.157-0.001,0.235c1.685,0.964,3.399,1.875,5.137,2.73c-1.609-1.078-3.255-2.107-4.933-3.083     C281.355-125.197,281.287-125.157,281.22-125.118z"
   id="path7761" />
			<path
   d="M281.015-131.403c1.647-24.737,13.235-48.136,34.763-54.044c-3.38-12.928-13.968-25.806-34.763-36.904     c-20.794,11.098-31.383,23.977-34.763,36.904C267.78-179.539,279.368-156.14,281.015-131.403z"
   id="path7763" />
			<path
   d="M286.355-128.32c22.247-10.942,48.304-12.606,64.185,3.083c9.506-9.391,15.365-25,14.579-48.558     c-20.008-12.459-36.456-15.19-49.341-11.653C321.425-163.849,306.955-142.115,286.355-128.32z"
   id="path7765" />
			<path
   d="M280.811-125.59c-1.685-0.964-3.399-1.875-5.137-2.73c1.609,1.078,3.255,2.107,4.933,3.083     c0.068-0.039,0.135-0.079,0.203-0.118C280.81-125.433,280.811-125.511,280.811-125.59z"
   id="path7767" />
			<path
   d="M281.423-125.236c1.677-0.977,3.324-2.006,4.933-3.083c-1.738,0.855-3.452,1.766-5.137,2.73     c0,0.078,0.001,0.157,0.001,0.235C281.287-125.315,281.355-125.276,281.423-125.236z"
   id="path7769" />
			<path
   d="M280.607-125.236c-1.677,0.977-3.324,2.006-4.933,3.083c1.738-0.855,3.452-1.766,5.137-2.73     c0-0.078-0.001-0.157-0.001-0.235C280.742-125.157,280.675-125.197,280.607-125.236z"
   id="path7771" />
			<path
   d="M281.22-125.355c-0.068-0.039-0.136-0.079-0.205-0.118c-0.068,0.039-0.137,0.079-0.205,0.118c0,0.079,0,0.158,0,0.236     c0.068,0.039,0.136,0.079,0.205,0.118c0.068-0.039,0.137-0.079,0.205-0.118C281.22-125.197,281.22-125.276,281.22-125.355z"
   id="path7773" />
			<path
   d="M281.219-125.59c-0.007-1.941-0.075-3.881-0.204-5.813c-0.129,1.932-0.197,3.873-0.204,5.813     c0.068,0.039,0.136,0.078,0.204,0.117C281.083-125.512,281.151-125.551,281.219-125.59z"
   id="path7775" />
			<path
   d="M275.674-128.32c-20.599-13.795-35.069-35.529-29.422-57.128c-12.886-3.537-29.333-0.806-49.341,11.653     c-0.786,23.557,5.073,39.167,14.579,48.558C227.371-140.926,253.428-139.262,275.674-128.32z"
   id="path7777" />
			<path
   d="M196.911-173.794c0.613-18.375,5.269-41.586,15.392-70.455c-2.051-0.387-4.136-0.765-6.259-1.134L139.48-130.09     c1.381,1.654,2.751,3.271,4.111,4.854C163.531-148.438,181.304-164.076,196.911-173.794z"
   id="path7779" />
			<path
   d="M143.591-125.236c-1.36,1.583-2.731,3.2-4.111,4.854L206.044-5.09c2.123-0.369,4.208-0.747,6.259-1.134     c-10.123-28.869-14.779-52.08-15.392-70.455C181.304-86.397,163.531-102.035,143.591-125.236z"
   id="path7781" />
			<path
   d="M365.119-76.679c-0.613,18.375-5.269,41.586-15.392,70.455c2.051,0.387,4.136,0.765,6.259,1.134l66.564-115.293     c-1.381-1.654-2.751-3.271-4.111-4.854C398.499-102.035,380.726-86.397,365.119-76.679z"
   id="path7783" />
			<path
   d="M349.727-244.249c-0.691-1.97-1.406-3.965-2.148-5.987H214.451c-0.742,2.023-1.457,4.018-2.148,5.987     c30.063,5.668,52.492,13.241,68.712,21.898C297.235-231.008,319.664-238.581,349.727-244.249z"
   id="path7785" />
			<path
   d="M212.303-6.224c0.691,1.97,1.406,3.965,2.148,5.987h133.128c0.742-2.023,1.457-4.018,2.148-5.987     c-30.063-5.668-52.492-13.241-68.712-21.898C264.795-19.465,242.366-11.892,212.303-6.224z"
   id="path7787" />
			<path
   d="M281.015-119.07c-1.647,24.737-13.235,48.136-34.763,54.044c3.38,12.928,13.968,25.806,34.763,36.904     c20.794-11.098,31.383-23.977,34.763-36.904C294.25-70.934,282.662-94.333,281.015-119.07z"
   id="path7789" />
			<path
   d="M275.674-122.153c-22.247,10.942-48.304,12.606-64.185-3.083c-9.506,9.391-15.365,25-14.579,48.558     c20.008,12.459,36.456,15.19,49.341,11.653C240.605-86.624,255.075-108.358,275.674-122.153z"
   id="path7791" />
			<path
   d="M350.54-125.236c-15.881,15.69-41.938,14.025-64.185,3.083c20.599,13.795,35.069,35.529,29.422,57.127     c12.886,3.537,29.333,0.806,49.341-11.653C365.905-100.236,360.046-115.845,350.54-125.236z"
   id="path7793" />
			<path
   d="M418.439-125.236c1.36-1.583,2.731-3.2,4.111-4.854l-66.564-115.293c-2.123,0.369-4.208,0.747-6.259,1.134     c10.123,28.869,14.779,52.08,15.392,70.455C380.726-164.076,398.499-148.438,418.439-125.236z"
   id="path7795" />
		</g>
		<g
   id="g7813">
			<path
   d="M68.508-249.883c0.007,1.941,0.075,3.881,0.204,5.813c0.129-1.932,0.197-3.873,0.204-5.813     c-0.068-0.039-0.136-0.078-0.204-0.117C68.644-249.961,68.576-249.922,68.508-249.883z"
   id="path7799" />
			<path
   d="M68.917-250.118c0,0.078-0.001,0.157-0.001,0.235c1.685,0.964,3.399,1.875,5.137,2.73     c-1.609-1.078-3.256-2.107-4.933-3.083C69.052-250.197,68.984-250.157,68.917-250.118z"
   id="path7801" />
			<path
   d="M68.917-250.355c-0.068-0.039-0.136-0.079-0.205-0.118c-0.068,0.039-0.137,0.079-0.205,0.118c0,0.079,0,0.158,0,0.236     c0.068,0.039,0.136,0.079,0.205,0.118c0.068-0.039,0.137-0.079,0.205-0.118C68.917-250.197,68.917-250.276,68.917-250.355z"
   id="path7803" />
			<path
   d="M152.816-201.679c-0.613,18.375-5.269,41.586-15.392,70.455c2.051,0.387,4.136,0.765,6.259,1.134l66.564-115.293     c-1.381-1.654-2.751-3.271-4.111-4.854C186.196-227.035,168.423-211.397,152.816-201.679z"
   id="path7805" />
			<path
   d="M0-131.224c0.691,1.97,1.406,3.965,2.148,5.987h133.128c0.742-2.023,1.457-4.018,2.148-5.987     c-30.063-5.668-52.492-13.241-68.712-21.898C52.492-144.465,30.063-136.892,0-131.224z"
   id="path7807" />
			<path
   d="M68.712-244.07c-1.647,24.737-13.235,48.136-34.763,54.044c3.38,12.928,13.968,25.806,34.763,36.904     c20.794-11.098,31.383-23.977,34.763-36.904C81.947-195.934,70.359-219.333,68.712-244.07z"
   id="path7809" />
			<path
   d="M138.237-250.236c-15.881,15.69-41.938,14.025-64.185,3.083c20.599,13.795,35.069,35.529,29.422,57.127     c12.886,3.537,29.333,0.806,49.341-11.653C153.602-225.236,147.743-240.845,138.237-250.236z"
   id="path7811" />
		</g>
	</g>
</pattern>
<rect
   style="opacity:1;fill:#60e0ab;fill-opacity:1;stroke:none;stroke-width:8;stroke-linecap:round;stroke-linejoin:round;stroke-miterlimit:4;stroke-dasharray:none;stroke-dashoffset:0;stroke-opacity:1;paint-order:stroke fill markers"
   id="rect9086"
   width="2781.9624"
   height="1775.8378"
   x="-98.963097"
   y="-76.874634" /><rect
   fill="url(#New_Pattern)"
   width="2560"
   height="1600"
   id="rect7818"
   style="opacity:0.681" />
</svg>