<?xml version="1.0" encoding="UTF-8" standalone="no"?>
<!-- Created with Inkscape (http://www.inkscape.org/) -->

<svg
   width="70mm"
   height="121mm"
   viewBox="0 0 70 121"
   version="1.1"
   id="svg8"
   inkscape:version="1.1 (c68e22c387, 2021-05-23)"
   sodipodi:docname="Back.svg"
   xmlns:inkscape="http://www.inkscape.org/namespaces/inkscape"
   xmlns:sodipodi="http://sodipodi.sourceforge.net/DTD/sodipodi-0.dtd"
   xmlns="http://www.w3.org/2000/svg"
   xmlns:svg="http://www.w3.org/2000/svg"
   xmlns:rdf="http://www.w3.org/1999/02/22-rdf-syntax-ns#"
   xmlns:cc="http://creativecommons.org/ns#"
   xmlns:dc="http://purl.org/dc/elements/1.1/">
  <defs
     id="defs2" />
  <sodipodi:namedview
     id="base"
     pagecolor="#ffffff"
     bordercolor="#666666"
     borderopacity="1.0"
     inkscape:pageopacity="0"
     inkscape:pageshadow="2"
     inkscape:zoom="1.2267045"
     inkscape:cx="132.46874"
     inkscape:cy="228.66143"
     inkscape:document-units="mm"
     inkscape:current-layer="layer1"
     showgrid="false"
     inkscape:window-width="1440"
     inkscape:window-height="821"
     inkscape:window-x="607"
     inkscape:window-y="1341"
     inkscape:window-maximized="1"
     inkscape:pagecheckerboard="0"
     width="70mm" />
  <metadata
     id="metadata5">
    <rdf:RDF>
      <cc:Work
         rdf:about="">
        <dc:format>image/svg+xml</dc:format>
        <dc:type
           rdf:resource="http://purl.org/dc/dcmitype/StillImage" />
      </cc:Work>
    </rdf:RDF>
  </metadata>
  <g
     inkscape:label="Layer 1"
     inkscape:groupmode="layer"
     id="layer1"
     transform="translate(0,-208)">
    <g
       id="g32"
       transform="matrix(0.30129227,0,0,0.3012896,-250.01141,161.13159)">
      <g
         id="g16">
        <path
           d="m 1015.1,291.027 c -0.309,0 -0.56,-0.25 -0.56,-0.56 v -12.596 l -5.678,-9.516 c -0.052,-0.087 -0.08,-0.186 -0.08,-0.287 v -8.679 c 0,-0.31 0.252,-0.561 0.561,-0.561 h 2.189 v -25.533 c -0.4,-0.422 -1.459,-1.576 -2.645,-3.158 v 2.933 c 0,0.209 -0.116,0.4 -0.302,0.497 -0.184,0.097 -0.407,0.082 -0.58,-0.038 -6.032,-4.232 -8.596,-13.275 -7.509,-19.227 0.604,-3.311 2.292,-5.48 4.753,-6.11 1.8,-0.462 3.386,-0.228 4.71,0.695 2.106,1.467 3.003,4.31 3.356,5.948 0.943,-1.417 2.148,-4.445 -0.682,-8.543 -1.993,-2.885 -4.847,-3.951 -7.867,-5.081 -3.903,-1.46 -7.938,-2.969 -9.89,-8.602 -0.921,-2.661 -0.158,-6.15 1.942,-8.892 2.337,-3.049 5.933,-4.643 9.854,-4.359 5.234,0.37 7.977,4.219 8.734,7.401 0.812,3.407 -0.378,6.633 -3.029,8.217 -2.244,1.341 -4.563,1.222 -6.361,-0.323 -1.773,-1.525 -2.498,-4.014 -1.719,-5.92 0.901,-2.214 2.69,-2.824 3.937,-2.68 1.092,0.129 1.887,0.8 2.025,1.709 0.259,1.678 -1.299,2.577 -2.157,2.819 -0.299,0.081 -0.604,-0.09 -0.689,-0.387 -0.084,-0.296 0.088,-0.605 0.384,-0.691 0.063,-0.018 1.528,-0.455 1.356,-1.571 -0.059,-0.392 -0.481,-0.699 -1.05,-0.767 -0.868,-0.106 -2.104,0.359 -2.77,1.99 -0.591,1.449 0.016,3.447 1.413,4.647 1.41,1.212 3.253,1.291 5.057,0.212 2.258,-1.35 3.221,-4.03 2.514,-6.996 -0.67,-2.814 -3.095,-6.216 -7.723,-6.544 -4.851,-0.338 -7.649,2.311 -8.887,3.923 -1.849,2.413 -2.563,5.565 -1.772,7.845 1.779,5.134 5.395,6.486 9.224,7.919 3.05,1.141 6.203,2.319 8.396,5.493 4.479,6.483 -0.16,10.85 -0.208,10.894 -0.155,0.142 -0.379,0.187 -0.576,0.109 -0.198,-0.075 -0.336,-0.255 -0.358,-0.465 0,-0.046 -0.512,-4.593 -3.095,-6.389 -1.046,-0.727 -2.319,-0.905 -3.79,-0.528 -2.013,0.516 -3.408,2.371 -3.93,5.227 -0.973,5.324 1.285,13.314 6.169,17.43 v -3.377 c -1.429,-2.142 -2.8,-4.744 -3.241,-7.308 -0.377,-2.183 -0.087,-3.913 0.859,-5.143 1.144,-1.486 2.821,-1.651 2.894,-1.657 0.154,-0.017 0.311,0.039 0.427,0.145 0.116,0.106 0.182,0.256 0.182,0.413 v 13.189 c 1.768,2.59 3.571,4.449 3.604,4.482 0.102,0.104 0.159,0.245 0.159,0.392 v 25.759 h 2.448 c 0.223,0 0.425,0.133 0.514,0.337 0.09,0.205 0.048,0.442 -0.104,0.605 l -3.008,3.22 c -0.157,0.169 -0.4,0.224 -0.614,0.139 -0.215,-0.085 -0.354,-0.291 -0.354,-0.521 v -2.66 h -1.63 v 7.965 l 5.679,9.516 c 0.052,0.087 0.078,0.186 0.078,0.287 v 12.75 c -10e-4,0.312 -0.25,0.562 -0.56,0.562 z m -2.449,-31.077 v 1.24 l 1.16,-1.24 z m -4.883,-44.229 c -0.44,0.158 -1.039,0.473 -1.505,1.083 -0.739,0.972 -0.951,2.403 -0.633,4.256 0.312,1.813 1.15,3.679 2.138,5.371 z"
           id="path4"
           inkscape:connector-curvature="0"
           style="fill:#ffffff" />
        <path
           d="m 1012.217,201.142 c -0.155,0 -0.309,-0.065 -0.417,-0.187 -0.806,-0.9 -1.768,-1.215 -3.097,-1.65 -1.885,-0.616 -4.231,-1.384 -7.278,-4.208 -1.416,-1.313 -2.117,-2.832 -2.083,-4.518 0.075,-3.708 3.701,-6.85 3.856,-6.981 0.236,-0.201 0.589,-0.172 0.79,0.062 0.2,0.235 0.173,0.589 -0.062,0.79 -0.035,0.028 -3.403,2.953 -3.466,6.155 -0.025,1.351 0.555,2.586 1.725,3.671 2.868,2.657 5.085,3.382 6.866,3.965 0.958,0.314 1.827,0.598 2.604,1.118 v -4.86 c 0,-0.31 0.252,-0.56 0.561,-0.56 0.311,0 0.56,0.25 0.56,0.56 v 6.084 c 0,0.232 -0.142,0.44 -0.359,0.523 -0.064,0.024 -0.133,0.036 -0.2,0.036 z"
           id="path6"
           inkscape:connector-curvature="0"
           style="fill:#ffffff" />
        <path
           d="m 1008.327,188.598 c -0.308,0 -0.56,-0.25 -0.56,-0.56 V 166.77 H 986.5 c -0.309,0 -0.561,-0.25 -0.561,-0.56 0,-0.31 0.252,-0.561 0.561,-0.561 h 21.826 c 0.311,0 0.561,0.251 0.561,0.561 v 21.827 c 0,0.311 -0.249,0.561 -0.56,0.561 z"
           id="path8"
           inkscape:connector-curvature="0"
           style="fill:#ffffff" />
        <path
           d="m 984.34,180.046 c -0.847,0 -1.663,-0.126 -2.412,-0.386 -5.632,-1.951 -7.142,-5.985 -8.602,-9.889 -1.13,-3.021 -2.197,-5.874 -5.081,-7.867 -4.123,-2.848 -7.144,-1.631 -8.552,-0.684 1.638,0.354 4.488,1.247 5.958,3.357 0.922,1.325 1.156,2.91 0.695,4.711 -0.631,2.462 -2.802,4.149 -6.111,4.753 -5.956,1.089 -14.994,-1.477 -19.227,-7.51 -0.12,-0.171 -0.135,-0.395 -0.038,-0.58 0.098,-0.185 0.288,-0.302 0.498,-0.302 h 2.931 c -1.581,-1.185 -2.735,-2.244 -3.156,-2.643 h -21.729 c -0.309,0 -0.561,-0.251 -0.561,-0.561 0,-0.31 0.252,-0.56 0.561,-0.56 h 21.954 c 0.146,0 0.286,0.058 0.392,0.159 0.032,0.033 1.892,1.837 4.481,3.604 h 13.189 c 0.157,0 0.308,0.066 0.413,0.183 0.106,0.116 0.159,0.271 0.145,0.427 -0.006,0.071 -0.171,1.748 -1.657,2.893 -1.23,0.947 -2.958,1.236 -5.144,0.861 -2.563,-0.441 -5.166,-1.814 -7.308,-3.243 h -3.375 c 4.114,4.885 12.109,7.143 17.429,6.171 2.854,-0.521 4.711,-1.917 5.228,-3.931 0.376,-1.471 0.198,-2.746 -0.53,-3.792 -1.804,-2.589 -6.342,-3.088 -6.388,-3.093 -0.21,-0.021 -0.39,-0.16 -0.465,-0.357 -0.076,-0.198 -0.033,-0.421 0.11,-0.577 0.041,-0.048 4.41,-4.688 10.893,-0.208 3.174,2.192 4.353,5.346 5.494,8.396 1.431,3.827 2.783,7.443 7.918,9.222 2.279,0.791 5.432,0.079 7.844,-1.771 1.612,-1.236 4.268,-4.035 3.924,-8.887 -0.327,-4.628 -3.73,-7.052 -6.544,-7.723 -2.965,-0.708 -5.647,0.257 -6.996,2.514 -1.077,1.803 -1.001,3.646 0.211,5.057 1.201,1.396 3.2,2.006 4.648,1.413 1.632,-0.665 2.092,-1.907 1.99,-2.77 -0.067,-0.567 -0.375,-0.99 -0.767,-1.05 -1.125,-0.176 -1.567,1.339 -1.571,1.354 -0.083,0.298 -0.392,0.473 -0.69,0.388 -0.299,-0.084 -0.472,-0.393 -0.389,-0.69 0.243,-0.859 1.146,-2.421 2.82,-2.158 0.909,0.14 1.581,0.935 1.709,2.026 0.147,1.252 -0.465,3.035 -2.68,3.938 -1.908,0.777 -4.396,0.053 -5.92,-1.721 -1.546,-1.799 -1.663,-4.117 -0.323,-6.36 1.583,-2.652 4.808,-3.843 8.218,-3.029 3.182,0.759 7.029,3.501 7.4,8.734 0.279,3.925 -1.312,7.517 -4.36,9.854 -1.966,1.509 -4.321,2.327 -6.477,2.327 z m -36.232,-13.275 c 1.691,0.989 3.56,1.827 5.37,2.14 1.853,0.319 3.286,0.105 4.257,-0.635 0.61,-0.465 0.925,-1.063 1.084,-1.505 z"
           id="path10"
           inkscape:connector-curvature="0"
           style="fill:#ffffff" />
        <path
           d="m 983.844,175.199 c -1.639,0 -3.12,-0.701 -4.401,-2.085 -2.824,-3.046 -3.591,-5.393 -4.208,-7.277 -0.435,-1.33 -0.749,-2.291 -1.651,-3.098 -0.173,-0.154 -0.232,-0.4 -0.149,-0.616 0.083,-0.218 0.291,-0.36 0.522,-0.36 h 6.085 c 0.309,0 0.561,0.25 0.561,0.56 0,0.31 -0.252,0.56 -0.561,0.56 h -4.861 c 0.522,0.778 0.806,1.647 1.119,2.607 0.583,1.78 1.308,3.997 3.965,6.864 1.086,1.171 2.3,1.747 3.675,1.725 3.209,-0.065 6.123,-3.431 6.151,-3.465 0.201,-0.235 0.556,-0.262 0.79,-0.062 0.234,0.201 0.262,0.554 0.061,0.789 -0.131,0.155 -3.271,3.782 -6.979,3.857 -0.041,0 -0.081,0.001 -0.119,0.001 z"
           id="path12"
           inkscape:connector-curvature="0"
           style="fill:#ffffff" />
        <path
           d="m 1012.217,182.881 c -0.309,0 -0.561,-0.25 -0.561,-0.56 v -19.439 h -19.438 c -0.311,0 -0.56,-0.25 -0.56,-0.56 0,-0.31 0.249,-0.56 0.56,-0.56 h 19.999 c 0.311,0 0.56,0.25 0.56,0.56 v 19.999 c 0,0.31 -0.25,0.56 -0.56,0.56 z"
           id="path14"
           inkscape:connector-curvature="0"
           style="fill:#ffffff" />
      </g>
      <g
         id="g30">
        <path
           d="m 833.676,291.027 c -0.311,0 -0.56,-0.25 -0.56,-0.56 v -12.75 c 0,-0.102 0.026,-0.2 0.078,-0.287 l 5.679,-9.516 v -7.965 h -1.63 v 2.66 c 0,0.229 -0.14,0.436 -0.354,0.521 -0.213,0.085 -0.457,0.03 -0.614,-0.139 l -3.008,-3.22 c -0.152,-0.163 -0.194,-0.4 -0.104,-0.605 0.089,-0.204 0.291,-0.337 0.514,-0.337 h 2.448 V 233.07 c 0,-0.146 0.058,-0.287 0.159,-0.392 0.033,-0.033 1.837,-1.893 3.604,-4.482 v -13.189 c 0,-0.157 0.065,-0.307 0.182,-0.413 0.116,-0.105 0.27,-0.161 0.427,-0.145 0.072,0.006 1.75,0.171 2.894,1.657 0.946,1.229 1.236,2.96 0.859,5.143 -0.441,2.563 -1.813,5.166 -3.241,7.308 v 3.377 c 4.884,-4.115 7.142,-12.105 6.169,-17.43 -0.521,-2.855 -1.917,-4.711 -3.93,-5.227 -1.47,-0.377 -2.744,-0.198 -3.79,0.528 -2.583,1.796 -3.09,6.343 -3.095,6.389 -0.022,0.21 -0.16,0.39 -0.358,0.465 -0.195,0.077 -0.421,0.032 -0.576,-0.109 -0.048,-0.044 -4.687,-4.41 -0.209,-10.894 2.193,-3.174 5.347,-4.353 8.396,-5.493 3.829,-1.433 7.444,-2.785 9.224,-7.919 0.79,-2.279 0.076,-5.432 -1.772,-7.845 -1.237,-1.612 -4.041,-4.266 -8.886,-3.923 -4.629,0.328 -7.054,3.729 -7.724,6.544 -0.707,2.966 0.256,5.646 2.514,6.996 1.806,1.079 3.647,1 5.057,-0.212 1.397,-1.2 2.004,-3.198 1.413,-4.646 -0.665,-1.632 -1.91,-2.098 -2.77,-1.991 -0.568,0.067 -0.991,0.375 -1.05,0.767 -0.174,1.128 1.339,1.566 1.354,1.571 0.298,0.083 0.472,0.393 0.388,0.69 -0.083,0.298 -0.39,0.472 -0.69,0.388 -0.858,-0.242 -2.416,-1.142 -2.157,-2.819 0.139,-0.909 0.934,-1.58 2.025,-1.709 1.258,-0.141 3.035,0.467 3.937,2.681 0.779,1.905 0.055,4.394 -1.719,5.919 -1.801,1.544 -4.119,1.663 -6.361,0.323 -2.651,-1.584 -3.841,-4.81 -3.029,-8.217 0.758,-3.183 3.5,-7.031 8.734,-7.401 3.917,-0.284 7.516,1.311 9.854,4.359 2.101,2.741 2.863,6.23 1.942,8.892 -1.952,5.633 -5.986,7.142 -9.89,8.602 -3.021,1.13 -5.874,2.196 -7.867,5.081 -2.83,4.098 -1.625,7.126 -0.682,8.543 0.354,-1.639 1.25,-4.481 3.356,-5.948 1.324,-0.923 2.91,-1.154 4.71,-0.695 2.461,0.63 4.149,2.8 4.753,6.11 1.087,5.951 -1.477,14.994 -7.509,19.227 -0.171,0.12 -0.396,0.135 -0.58,0.038 -0.186,-0.097 -0.302,-0.288 -0.302,-0.497 v -2.933 c -1.186,1.582 -2.244,2.736 -2.645,3.158 v 25.533 h 2.189 c 0.309,0 0.561,0.251 0.561,0.561 v 8.679 c 0,0.102 -0.028,0.2 -0.08,0.287 l -5.678,9.516 v 12.596 c -10e-4,0.308 -0.252,0.558 -0.56,0.558 z m 1.288,-31.077 1.16,1.24 v -1.24 z m 6.044,-44.229 v 10.71 c 0.987,-1.692 1.826,-3.559 2.138,-5.371 0.318,-1.853 0.106,-3.284 -0.633,-4.256 -0.466,-0.611 -1.064,-0.925 -1.505,-1.083 z"
           id="path18"
           inkscape:connector-curvature="0"
           style="fill:#ffffff" />
        <path
           d="m 836.559,201.142 c -0.067,0 -0.136,-0.012 -0.2,-0.036 -0.218,-0.083 -0.359,-0.291 -0.359,-0.523 v -6.084 c 0,-0.31 0.249,-0.56 0.56,-0.56 0.309,0 0.561,0.25 0.561,0.56 v 4.86 c 0.777,-0.521 1.646,-0.804 2.604,-1.118 1.781,-0.583 3.998,-1.308 6.866,-3.965 1.171,-1.086 1.752,-2.322 1.724,-3.674 -0.063,-3.211 -3.43,-6.123 -3.464,-6.152 -0.235,-0.201 -0.264,-0.554 -0.063,-0.789 0.201,-0.235 0.556,-0.264 0.79,-0.063 0.155,0.132 3.781,3.273 3.856,6.981 0.034,1.686 -0.667,3.205 -2.083,4.518 -3.047,2.824 -5.394,3.592 -7.278,4.208 -1.329,0.436 -2.291,0.75 -3.097,1.65 -0.109,0.121 -0.262,0.187 -0.417,0.187 z"
           id="path20"
           inkscape:connector-curvature="0"
           style="fill:#ffffff" />
        <path
           d="m 840.448,188.598 c -0.311,0 -0.561,-0.25 -0.561,-0.56 v -21.827 c 0,-0.31 0.25,-0.561 0.561,-0.561 h 21.826 c 0.309,0 0.561,0.251 0.561,0.561 0,0.31 -0.252,0.56 -0.561,0.56 h -21.267 v 21.268 c 0.001,0.309 -0.251,0.559 -0.559,0.559 z"
           id="path22"
           inkscape:connector-curvature="0"
           style="fill:#ffffff" />
        <path
           d="m 864.436,180.046 c -2.156,0 -4.51,-0.818 -6.479,-2.327 -3.049,-2.337 -4.64,-5.929 -4.36,-9.854 0.371,-5.233 4.219,-7.976 7.4,-8.734 3.409,-0.813 6.634,0.377 8.218,3.029 1.34,2.243 1.223,4.562 -0.323,6.36 -1.524,1.773 -4.012,2.499 -5.92,1.721 -2.215,-0.902 -2.827,-2.686 -2.68,-3.938 0.128,-1.092 0.8,-1.887 1.709,-2.026 1.678,-0.263 2.578,1.299 2.82,2.158 0.083,0.297 -0.09,0.604 -0.388,0.688 -0.293,0.087 -0.605,-0.087 -0.691,-0.384 -0.017,-0.063 -0.449,-1.523 -1.57,-1.355 -0.393,0.06 -0.7,0.482 -0.768,1.05 -0.102,0.862 0.358,2.104 1.99,2.77 1.448,0.59 3.447,-0.017 4.648,-1.413 1.212,-1.41 1.288,-3.254 0.211,-5.057 -1.349,-2.257 -4.028,-3.222 -6.996,-2.514 -2.813,0.671 -6.216,3.095 -6.544,7.723 -0.344,4.852 2.312,7.65 3.924,8.887 2.412,1.85 5.564,2.561 7.844,1.771 5.135,-1.778 6.487,-5.395 7.918,-9.222 1.142,-3.051 2.32,-6.204 5.494,-8.396 6.483,-4.478 10.851,0.16 10.893,0.208 0.143,0.156 0.187,0.379 0.11,0.576 -0.075,0.198 -0.255,0.337 -0.465,0.358 -0.046,0.005 -4.593,0.511 -6.389,3.095 -0.728,1.046 -0.905,2.321 -0.529,3.79 0.517,2.014 2.373,3.409 5.228,3.931 5.321,0.973 13.314,-1.286 17.429,-6.171 h -3.375 c -2.142,1.429 -4.744,2.802 -7.308,3.243 -2.186,0.375 -3.913,0.086 -5.144,-0.861 -1.486,-1.145 -1.651,-2.821 -1.657,-2.893 -0.014,-0.156 0.038,-0.311 0.145,-0.427 0.105,-0.116 0.256,-0.183 0.413,-0.183 h 13.191 c 2.59,-1.767 4.447,-3.57 4.479,-3.603 0.105,-0.103 0.245,-0.16 0.392,-0.16 h 21.954 c 0.309,0 0.561,0.25 0.561,0.56 0,0.31 -0.252,0.561 -0.561,0.561 h -21.729 c -0.421,0.398 -1.574,1.458 -3.156,2.643 h 2.931 c 0.21,0 0.4,0.117 0.498,0.302 0.097,0.186 0.082,0.409 -0.038,0.58 -4.232,6.033 -13.269,8.599 -19.227,7.51 -3.31,-0.604 -5.48,-2.291 -6.111,-4.753 -0.461,-1.801 -0.227,-3.386 0.695,-4.711 1.468,-2.106 4.31,-3.001 5.949,-3.355 -1.416,-0.942 -4.444,-2.148 -8.543,0.682 -2.884,1.993 -3.951,4.847 -5.081,7.867 -1.46,3.903 -2.97,7.938 -8.602,9.889 -0.747,0.259 -1.564,0.385 -2.41,0.385 z m 25.52,-13.275 c 0.159,0.441 0.474,1.04 1.084,1.505 0.971,0.74 2.404,0.954 4.257,0.635 1.813,-0.313 3.681,-1.15 5.372,-2.14 z"
           id="path24"
           inkscape:connector-curvature="0"
           style="fill:#ffffff" />
        <path
           d="m 864.932,175.199 c -0.038,0 -0.078,-0.001 -0.117,-0.001 -3.708,-0.075 -6.849,-3.702 -6.979,-3.857 -0.201,-0.234 -0.174,-0.588 0.061,-0.789 0.234,-0.199 0.588,-0.173 0.79,0.062 0.028,0.034 2.953,3.402 6.155,3.465 1.318,0.029 2.585,-0.554 3.671,-1.725 2.657,-2.867 3.382,-5.084 3.965,-6.864 0.313,-0.96 0.597,-1.829 1.119,-2.607 h -4.861 c -0.309,0 -0.561,-0.25 -0.561,-0.56 0,-0.31 0.252,-0.56 0.561,-0.56 h 6.085 c 0.231,0 0.439,0.143 0.522,0.36 0.083,0.216 0.023,0.462 -0.149,0.616 -0.902,0.807 -1.217,1.768 -1.651,3.098 -0.617,1.885 -1.384,4.231 -4.208,7.277 -1.283,1.384 -2.765,2.085 -4.403,2.085 z"
           id="path26"
           inkscape:connector-curvature="0"
           style="fill:#ffffff" />
        <path
           d="m 836.559,182.881 c -0.311,0 -0.56,-0.25 -0.56,-0.56 v -19.999 c 0,-0.31 0.249,-0.56 0.56,-0.56 h 19.999 c 0.311,0 0.56,0.25 0.56,0.56 0,0.31 -0.249,0.56 -0.56,0.56 H 837.12 v 19.439 c -10e-4,0.31 -0.253,0.56 -0.561,0.56 z"
           id="path28"
           inkscape:connector-curvature="0"
           style="fill:#ffffff" />
      </g>
    </g>
    <g
       id="g62"
       transform="matrix(0.30129227,0,0,0.30129227,-250.01111,168.83749)">
      <g
         id="g46">
        <path
           d="m 842.979,401.606 c -0.291,0 -0.583,-0.01 -0.877,-0.03 -5.234,-0.371 -7.977,-4.219 -8.734,-7.402 -0.812,-3.406 0.378,-6.632 3.029,-8.217 2.245,-1.338 4.563,-1.22 6.361,0.325 1.773,1.523 2.498,4.013 1.719,5.918 -0.902,2.215 -2.684,2.836 -3.937,2.68 -1.092,-0.128 -1.887,-0.8 -2.025,-1.709 -0.259,-1.677 1.299,-2.576 2.157,-2.818 0.297,-0.086 0.604,0.09 0.689,0.387 0.084,0.296 -0.088,0.605 -0.384,0.69 -0.063,0.019 -1.528,0.456 -1.356,1.571 0.059,0.391 0.481,0.699 1.05,0.768 0.859,0.096 2.104,-0.36 2.77,-1.99 0.591,-1.449 -0.016,-3.446 -1.413,-4.647 -1.409,-1.211 -3.251,-1.289 -5.057,-0.211 -2.258,1.348 -3.221,4.028 -2.514,6.995 0.67,2.813 3.095,6.216 7.724,6.543 4.858,0.349 7.648,-2.311 8.886,-3.924 1.849,-2.413 2.563,-5.564 1.772,-7.843 -1.778,-5.135 -5.395,-6.486 -9.223,-7.919 -3.051,-1.141 -6.204,-2.32 -8.396,-5.494 -4.479,-6.482 0.16,-10.849 0.208,-10.892 0.155,-0.143 0.381,-0.185 0.576,-0.111 0.198,0.076 0.336,0.256 0.358,0.467 0.005,0.046 0.512,4.592 3.095,6.388 1.047,0.729 2.323,0.904 3.79,0.528 2.013,-0.517 3.408,-2.372 3.93,-5.228 0.973,-5.324 -1.285,-13.314 -6.169,-17.429 v 3.377 c 1.429,2.142 2.8,4.744 3.241,7.308 0.377,2.183 0.087,3.912 -0.859,5.142 -1.144,1.487 -2.821,1.651 -2.894,1.658 -0.157,0.012 -0.311,-0.04 -0.427,-0.145 -0.116,-0.106 -0.182,-0.256 -0.182,-0.413 v -13.191 c -1.768,-2.589 -3.571,-4.447 -3.604,-4.481 -0.102,-0.104 -0.159,-0.245 -0.159,-0.392 v -25.759 h -2.448 c -0.223,0 -0.425,-0.132 -0.514,-0.337 -0.09,-0.204 -0.048,-0.442 0.104,-0.605 l 3.008,-3.22 c 0.157,-0.167 0.401,-0.222 0.614,-0.138 0.215,0.084 0.354,0.291 0.354,0.521 v 2.659 h 1.63 v -7.965 l -5.679,-9.517 c -0.052,-0.087 -0.078,-0.186 -0.078,-0.287 v -12.749 c 0,-0.31 0.249,-0.561 0.56,-0.561 0.309,0 0.56,0.251 0.56,0.561 v 12.596 l 5.678,9.517 c 0.052,0.086 0.08,0.186 0.08,0.286 v 8.68 c 0,0.31 -0.252,0.56 -0.561,0.56 h -2.189 v 25.534 c 0.399,0.421 1.459,1.575 2.645,3.158 v -2.934 c 0,-0.209 0.116,-0.4 0.302,-0.496 0.184,-0.098 0.407,-0.082 0.58,0.038 6.032,4.232 8.595,13.274 7.509,19.226 -0.604,3.311 -2.292,5.48 -4.753,6.111 -1.802,0.46 -3.386,0.227 -4.71,-0.696 -2.106,-1.466 -3.003,-4.309 -3.356,-5.948 -0.943,1.418 -2.148,4.445 0.682,8.543 1.993,2.885 4.848,3.952 7.868,5.082 3.902,1.46 7.937,2.97 9.889,8.601 0.921,2.661 0.158,6.15 -1.942,8.892 -2.163,2.818 -5.399,4.388 -8.978,4.388 z m -1.971,-47.102 v 10.713 c 0.44,-0.16 1.039,-0.474 1.505,-1.085 0.739,-0.972 0.951,-2.403 0.633,-4.255 -0.312,-1.814 -1.151,-3.68 -2.138,-5.373 z m -6.044,-33.519 h 1.16 v -1.239 z"
           id="path34"
           inkscape:connector-curvature="0"
           style="fill:#ffffff" />
        <path
           d="m 845.214,397.473 c -0.157,0 -0.314,-0.066 -0.427,-0.196 -0.2,-0.234 -0.173,-0.588 0.062,-0.789 0.035,-0.029 3.403,-2.953 3.466,-6.156 0.025,-1.35 -0.555,-2.584 -1.725,-3.669 -2.868,-2.658 -5.083,-3.383 -6.865,-3.966 -0.959,-0.314 -1.828,-0.599 -2.605,-1.119 v 4.861 c 0,0.31 -0.252,0.561 -0.561,0.561 -0.311,0 -0.56,-0.251 -0.56,-0.561 v -6.085 c 0,-0.231 0.142,-0.44 0.359,-0.522 0.216,-0.083 0.463,-0.024 0.617,0.149 0.806,0.901 1.768,1.215 3.099,1.65 1.883,0.617 4.229,1.385 7.276,4.208 1.416,1.313 2.117,2.833 2.083,4.519 -0.075,3.707 -3.701,6.85 -3.856,6.98 -0.105,0.091 -0.234,0.135 -0.363,0.135 z"
           id="path36"
           inkscape:connector-curvature="0"
           style="fill:#ffffff" />
        <path
           d="m 862.274,415.285 h -21.826 c -0.311,0 -0.561,-0.251 -0.561,-0.561 v -21.827 c 0,-0.31 0.25,-0.56 0.561,-0.56 0.308,0 0.56,0.25 0.56,0.56 v 21.268 h 21.267 c 0.309,0 0.561,0.25 0.561,0.56 0,0.31 -0.253,0.56 -0.562,0.56 z"
           id="path38"
           inkscape:connector-curvature="0"
           style="fill:#ffffff" />
        <path
           d="m 863.095,422.057 c -0.682,0 -1.385,-0.082 -2.098,-0.252 -3.182,-0.758 -7.029,-3.5 -7.4,-8.733 -0.279,-3.925 1.312,-7.517 4.36,-9.854 2.739,-2.102 6.23,-2.862 8.891,-1.942 5.632,1.951 7.142,5.986 8.602,9.889 1.13,3.021 2.197,5.874 5.081,7.867 4.098,2.831 7.126,1.624 8.543,0.682 -1.639,-0.354 -4.481,-1.249 -5.949,-3.356 -0.922,-1.324 -1.156,-2.909 -0.695,-4.709 0.631,-2.462 2.802,-4.149 6.111,-4.754 5.954,-1.083 14.994,1.476 19.227,7.51 0.12,0.171 0.135,0.395 0.038,0.58 -0.098,0.186 -0.288,0.302 -0.498,0.302 h -2.933 c 1.582,1.186 2.737,2.245 3.158,2.645 h 21.729 c 0.309,0 0.561,0.25 0.561,0.56 0,0.31 -0.252,0.56 -0.561,0.56 h -21.954 c -0.146,0 -0.286,-0.058 -0.392,-0.159 -0.032,-0.033 -1.892,-1.838 -4.482,-3.604 h -13.188 c -0.157,0 -0.308,-0.066 -0.413,-0.182 -0.106,-0.116 -0.158,-0.271 -0.145,-0.428 0.006,-0.071 0.171,-1.749 1.657,-2.893 1.23,-0.945 2.96,-1.235 5.144,-0.861 2.563,0.442 5.165,1.814 7.307,3.243 h 3.376 c -4.114,-4.885 -12.107,-7.143 -17.429,-6.17 -2.854,0.521 -4.711,1.917 -5.228,3.93 -0.376,1.472 -0.198,2.746 0.53,3.792 1.803,2.589 6.342,3.087 6.388,3.093 0.21,0.021 0.39,0.16 0.465,0.357 0.076,0.198 0.033,0.421 -0.11,0.578 -0.042,0.047 -4.411,4.686 -10.893,0.207 -3.174,-2.192 -4.353,-5.346 -5.494,-8.396 -1.431,-3.828 -2.783,-7.444 -7.918,-9.223 -2.28,-0.788 -5.432,-0.077 -7.844,1.771 -1.612,1.237 -4.268,4.035 -3.924,8.887 0.328,4.628 3.73,7.054 6.544,7.724 2.968,0.706 5.647,-0.256 6.996,-2.515 1.077,-1.802 1.001,-3.646 -0.212,-5.057 -1.2,-1.396 -3.199,-2.004 -4.647,-1.413 -1.632,0.666 -2.092,1.908 -1.99,2.771 0.067,0.567 0.375,0.989 0.767,1.05 1.121,0.183 1.567,-1.339 1.571,-1.355 0.083,-0.296 0.392,-0.468 0.69,-0.387 0.299,0.084 0.472,0.393 0.389,0.691 -0.243,0.858 -1.146,2.419 -2.82,2.157 -0.909,-0.14 -1.58,-0.935 -1.709,-2.025 -0.147,-1.252 0.465,-3.035 2.68,-3.938 1.908,-0.777 4.396,-0.053 5.92,1.721 1.546,1.799 1.664,4.117 0.323,6.361 -1.255,2.095 -3.536,3.278 -6.122,3.278 z m 26.858,-7.892 h 10.713 c -1.692,-0.989 -3.559,-1.826 -5.369,-2.139 -1.861,-0.322 -3.299,-0.104 -4.27,0.645 -0.61,0.468 -0.919,1.058 -1.074,1.494 z"
           id="path40"
           inkscape:connector-curvature="0"
           style="fill:#ffffff" />
        <path
           d="m 874.819,419.174 h -6.085 c -0.309,0 -0.561,-0.25 -0.561,-0.56 0,-0.31 0.252,-0.561 0.561,-0.561 h 4.861 c -0.521,-0.778 -0.806,-1.646 -1.119,-2.607 -0.583,-1.78 -1.308,-3.997 -3.965,-6.863 -1.086,-1.17 -2.353,-1.712 -3.671,-1.725 -3.202,0.063 -6.127,3.431 -6.155,3.465 -0.202,0.234 -0.556,0.26 -0.79,0.061 -0.234,-0.201 -0.262,-0.554 -0.061,-0.789 0.131,-0.154 3.271,-3.781 6.979,-3.856 1.685,0.001 3.206,0.667 4.519,2.083 2.824,3.047 3.591,5.394 4.208,7.277 0.435,1.33 0.749,2.291 1.651,3.098 0.173,0.155 0.232,0.4 0.149,0.618 -0.081,0.215 -0.289,0.359 -0.521,0.359 z"
           id="path42"
           inkscape:connector-curvature="0"
           style="fill:#ffffff" />
        <path
           d="m 856.558,419.174 h -19.999 c -0.311,0 -0.56,-0.25 -0.56,-0.56 v -19.999 c 0,-0.31 0.249,-0.56 0.56,-0.56 0.309,0 0.561,0.25 0.561,0.56 v 19.438 h 19.438 c 0.311,0 0.56,0.251 0.56,0.561 0,0.31 -0.25,0.56 -0.56,0.56 z"
           id="path44"
           inkscape:connector-curvature="0"
           style="fill:#ffffff" />
      </g>
      <g
         id="g60">
        <path
           d="m 1005.797,401.606 c -3.579,0 -6.814,-1.57 -8.977,-4.391 -2.101,-2.741 -2.863,-6.23 -1.942,-8.892 1.952,-5.631 5.986,-7.141 9.889,-8.601 3.021,-1.13 5.875,-2.197 7.868,-5.082 2.848,-4.122 1.632,-7.143 0.683,-8.551 -0.353,1.638 -1.247,4.486 -3.357,5.956 -1.324,0.923 -2.907,1.156 -4.71,0.696 -2.461,-0.631 -4.149,-2.801 -4.753,-6.111 -1.086,-5.951 1.477,-14.993 7.509,-19.226 0.171,-0.12 0.396,-0.136 0.58,-0.038 0.186,0.096 0.302,0.287 0.302,0.496 v 2.934 c 1.186,-1.583 2.245,-2.737 2.645,-3.158 v -25.534 h -2.189 c -0.309,0 -0.561,-0.25 -0.561,-0.56 v -8.68 c 0,-0.101 0.028,-0.2 0.08,-0.286 l 5.678,-9.517 v -12.596 c 0,-0.31 0.251,-0.561 0.56,-0.561 0.311,0 0.56,0.251 0.56,0.561 v 12.749 c 0,0.102 -0.026,0.2 -0.078,0.287 l -5.679,9.517 v 7.965 h 1.63 v -2.659 c 0,-0.229 0.14,-0.437 0.354,-0.521 0.214,-0.084 0.457,-0.029 0.614,0.138 l 3.008,3.22 c 0.152,0.163 0.194,0.401 0.104,0.605 -0.089,0.205 -0.291,0.337 -0.514,0.337 h -2.448 v 25.759 c 0,0.146 -0.058,0.287 -0.159,0.392 -0.033,0.034 -1.837,1.894 -3.604,4.483 v 13.189 c 0,0.157 -0.065,0.307 -0.182,0.413 -0.116,0.104 -0.272,0.156 -0.427,0.145 -0.072,-0.007 -1.75,-0.171 -2.894,-1.658 -0.946,-1.229 -1.236,-2.959 -0.859,-5.142 0.441,-2.563 1.813,-5.166 3.241,-7.308 v -3.377 c -4.884,4.114 -7.142,12.104 -6.169,17.429 0.521,2.855 1.917,4.711 3.93,5.228 1.471,0.376 2.747,0.197 3.792,-0.529 2.588,-1.804 3.088,-6.341 3.092,-6.387 0.022,-0.211 0.161,-0.391 0.358,-0.467 0.196,-0.074 0.421,-0.032 0.577,0.111 0.048,0.043 4.687,4.409 0.209,10.892 -2.193,3.174 -5.347,4.354 -8.397,5.494 -3.828,1.433 -7.444,2.784 -9.223,7.919 -0.79,2.278 -0.076,5.43 1.772,7.843 1.237,1.613 4.03,4.277 8.887,3.924 4.628,-0.327 7.053,-3.729 7.723,-6.543 0.707,-2.967 -0.256,-5.647 -2.514,-6.995 -1.804,-1.078 -3.646,-1 -5.057,0.211 -1.397,1.201 -2.004,3.198 -1.413,4.647 0.665,1.63 1.901,2.086 2.77,1.99 0.568,-0.068 0.991,-0.377 1.05,-0.768 0.174,-1.127 -1.339,-1.565 -1.354,-1.569 -0.298,-0.085 -0.472,-0.394 -0.388,-0.691 0.083,-0.297 0.394,-0.47 0.69,-0.388 0.858,0.242 2.416,1.142 2.157,2.818 -0.139,0.909 -0.934,1.581 -2.025,1.709 -1.254,0.15 -3.035,-0.465 -3.937,-2.68 -0.779,-1.905 -0.055,-4.395 1.719,-5.918 1.798,-1.545 4.117,-1.663 6.361,-0.325 2.651,1.585 3.841,4.811 3.029,8.217 -0.758,3.184 -3.5,7.031 -8.734,7.402 -0.293,0.024 -0.586,0.033 -0.877,0.033 z m 1.971,-47.1 c -0.987,1.692 -1.826,3.56 -2.138,5.371 -0.32,1.861 -0.104,3.298 0.644,4.269 0.469,0.609 1.059,0.919 1.494,1.074 z m 4.883,-33.521 h 1.16 l -1.16,-1.239 z"
           id="path48"
           inkscape:connector-curvature="0"
           style="fill:#ffffff" />
        <path
           d="m 1003.562,397.473 c -0.129,0 -0.258,-0.044 -0.363,-0.135 -0.155,-0.131 -3.781,-3.273 -3.856,-6.98 -0.034,-1.686 0.667,-3.205 2.083,-4.519 3.047,-2.823 5.394,-3.591 7.276,-4.208 1.331,-0.436 2.293,-0.749 3.099,-1.65 0.154,-0.174 0.401,-0.232 0.617,-0.149 0.218,0.082 0.359,0.291 0.359,0.522 v 6.085 c 0,0.31 -0.249,0.561 -0.56,0.561 -0.309,0 -0.561,-0.251 -0.561,-0.561 v -4.861 c -0.777,0.521 -1.646,0.805 -2.605,1.119 -1.782,0.583 -3.997,1.308 -6.865,3.966 -1.171,1.085 -1.752,2.321 -1.724,3.673 0.063,3.21 3.43,6.123 3.464,6.152 0.235,0.2 0.264,0.555 0.063,0.789 -0.113,0.129 -0.269,0.196 -0.427,0.196 z"
           id="path50"
           inkscape:connector-curvature="0"
           style="fill:#ffffff" />
        <path
           d="m 1008.327,415.285 h -21.826 c -0.309,0 -0.561,-0.251 -0.561,-0.561 0,-0.31 0.252,-0.56 0.561,-0.56 h 21.267 v -21.268 c 0,-0.31 0.252,-0.56 0.56,-0.56 0.311,0 0.561,0.25 0.561,0.56 v 21.827 c -10e-4,0.311 -0.251,0.562 -0.562,0.562 z"
           id="path52"
           inkscape:connector-curvature="0"
           style="fill:#ffffff" />
        <path
           d="m 985.681,422.057 c -2.586,0 -4.867,-1.183 -6.12,-3.28 -1.341,-2.244 -1.223,-4.563 0.323,-6.361 1.524,-1.772 4.014,-2.498 5.92,-1.721 2.215,0.903 2.827,2.687 2.68,3.938 -0.129,1.091 -0.8,1.886 -1.709,2.025 -1.677,0.26 -2.577,-1.298 -2.82,-2.157 -0.083,-0.298 0.09,-0.605 0.388,-0.689 0.293,-0.086 0.605,0.087 0.691,0.384 0.018,0.063 0.452,1.527 1.57,1.356 0.393,-0.061 0.7,-0.482 0.768,-1.05 0.102,-0.862 -0.358,-2.104 -1.99,-2.771 -1.45,-0.591 -3.447,0.017 -4.647,1.413 -1.213,1.411 -1.289,3.255 -0.212,5.057 1.349,2.259 4.029,3.221 6.996,2.515 2.813,-0.67 6.217,-3.096 6.544,-7.724 0.344,-4.852 -2.312,-7.649 -3.924,-8.887 -2.412,-1.849 -5.564,-2.56 -7.844,-1.771 -5.135,1.778 -6.487,5.395 -7.918,9.223 -1.142,3.05 -2.32,6.203 -5.494,8.396 -6.482,4.478 -10.849,-0.16 -10.893,-0.207 -0.143,-0.157 -0.187,-0.38 -0.11,-0.578 0.075,-0.196 0.255,-0.336 0.465,-0.357 0.046,-0.006 4.593,-0.512 6.389,-3.095 0.728,-1.046 0.905,-2.32 0.529,-3.79 -0.517,-2.013 -2.373,-3.408 -5.228,-3.93 -5.32,-0.972 -13.314,1.285 -17.429,6.17 h 3.376 c 2.142,-1.429 4.744,-2.801 7.307,-3.243 2.184,-0.375 3.913,-0.084 5.144,0.861 1.486,1.144 1.651,2.821 1.657,2.893 0.015,0.156 -0.038,0.312 -0.145,0.428 -0.105,0.115 -0.256,0.182 -0.413,0.182 h -13.188 c -2.591,1.767 -4.45,3.571 -4.482,3.604 -0.105,0.102 -0.245,0.159 -0.392,0.159 h -21.954 c -0.309,0 -0.561,-0.25 -0.561,-0.56 0,-0.31 0.252,-0.56 0.561,-0.56 h 21.729 c 0.421,-0.399 1.576,-1.459 3.158,-2.645 h -2.933 c -0.21,0 -0.4,-0.116 -0.498,-0.302 -0.097,-0.186 -0.082,-0.409 0.038,-0.58 4.232,-6.034 13.272,-8.598 19.227,-7.51 3.31,0.604 5.48,2.292 6.111,4.754 0.461,1.8 0.227,3.385 -0.695,4.709 -1.468,2.107 -4.311,3.002 -5.949,3.356 1.417,0.944 4.445,2.15 8.543,-0.682 2.884,-1.993 3.951,-4.847 5.081,-7.867 1.46,-3.902 2.97,-7.938 8.602,-9.889 2.661,-0.921 6.151,-0.159 8.891,1.942 3.049,2.337 4.64,5.929 4.36,9.854 -0.371,5.233 -4.219,7.976 -7.4,8.733 -0.716,0.172 -1.419,0.254 -2.1,0.254 z m -37.572,-7.892 h 10.71 c -0.159,-0.442 -0.474,-1.04 -1.084,-1.505 -0.973,-0.739 -2.401,-0.955 -4.257,-0.634 -1.81,0.313 -3.676,1.15 -5.369,2.139 z"
           id="path54"
           inkscape:connector-curvature="0"
           style="fill:#ffffff" />
        <path
           d="m 980.041,419.174 h -6.085 c -0.231,0 -0.439,-0.144 -0.522,-0.359 -0.083,-0.218 -0.023,-0.463 0.149,-0.618 0.902,-0.807 1.217,-1.768 1.651,-3.098 0.617,-1.884 1.384,-4.23 4.208,-7.277 1.313,-1.416 2.846,-2.084 4.519,-2.083 3.708,0.075 6.849,3.702 6.979,3.856 0.201,0.235 0.174,0.588 -0.061,0.789 -0.234,0.199 -0.587,0.174 -0.79,-0.061 -0.028,-0.034 -2.953,-3.402 -6.155,-3.465 -1.354,-0.021 -2.586,0.555 -3.671,1.725 -2.657,2.866 -3.382,5.083 -3.965,6.863 -0.313,0.961 -0.599,1.829 -1.119,2.607 h 4.861 c 0.309,0 0.561,0.251 0.561,0.561 0,0.31 -0.251,0.56 -0.56,0.56 z"
           id="path56"
           inkscape:connector-curvature="0"
           style="fill:#ffffff" />
        <path
           d="m 1012.217,419.174 h -19.999 c -0.311,0 -0.56,-0.25 -0.56,-0.56 0,-0.31 0.249,-0.561 0.56,-0.561 h 19.438 v -19.438 c 0,-0.31 0.252,-0.56 0.561,-0.56 0.311,0 0.56,0.25 0.56,0.56 v 19.999 c 0,0.31 -0.25,0.56 -0.56,0.56 z"
           id="path58"
           inkscape:connector-curvature="0"
           style="fill:#ffffff" />
      </g>
    </g>
    <text
       xml:space="preserve"
       style="font-style:normal;font-variant:normal;font-weight:500;font-stretch:normal;font-size:5.64444px;line-height:1.25;font-family:'TeX Gyre Chorus';-inkscape-font-specification:'TeX Gyre Chorus, Medium';font-variant-ligatures:normal;font-variant-caps:normal;font-variant-numeric:normal;font-feature-settings:normal;text-align:center;letter-spacing:0px;word-spacing:0px;writing-mode:lr-tb;text-anchor:middle;fill:#fefefe;fill-opacity:1;stroke:none;stroke-width:0.264583"
       x="29.394672"
       y="221.35654"
       id="text1054"><tspan
         sodipodi:role="line"
         id="tspan1058"
         x="29.394672"
         y="221.35654">ACE OF</tspan></text>
    <text
       xml:space="preserve"
       style="font-style:normal;font-variant:normal;font-weight:500;font-stretch:normal;font-size:5.64444px;line-height:1.25;font-family:'TeX Gyre Chorus';-inkscape-font-specification:'TeX Gyre Chorus, Medium';font-variant-ligatures:normal;font-variant-caps:normal;font-variant-numeric:normal;font-feature-settings:normal;text-align:center;letter-spacing:0px;word-spacing:0px;writing-mode:lr-tb;text-anchor:middle;fill:#ffffff;fill-opacity:1;stroke:none;stroke-width:0.264583"
       x="28.04563"
       y="283.07996"
       id="text1062"><tspan
         sodipodi:role="line"
         id="tspan1064"
         x="28.04563"
         y="283.07996">WANDS</tspan></text>
    <path
       d="m 66.363014,324.52285 c -0.36946,0.18044 -0.669956,0.48116 -0.848494,0.8509 -0.178537,-0.36974 -0.480803,-0.67046 -0.848493,-0.8509 0.36769,-0.17867 0.669956,-0.47939 0.848493,-0.84913 0.178538,0.36974 0.479034,0.67046 0.848494,0.84913 z m 0.38888,-104.82949 v 97.55182 c -4.656055,0.0938 -8.426501,3.86702 -8.520193,8.5266 H 11.76831 c -0.0937,-4.65958 -3.86414,-8.43284 -8.5202,-8.5266 v -97.55182 c 4.65606,-0.092 8.42652,-3.86529 8.5202,-8.52487 h 46.463391 c 0.09369,4.65958 3.864138,8.43288 8.520193,8.52487 z m -6.769628,-0.23503 -3.495887,4.15401 c -0.03262,0.0388 -0.04803,0.0881 -0.04372,0.13859 0.0043,0.0505 0.02771,0.0967 0.06711,0.12935 0.02462,0.0209 0.05293,0.0352 0.08495,0.0413 0.06769,0.0136 0.137884,-0.0111 0.182831,-0.0641 l 3.495261,-4.15397 c 0.03325,-0.0388 0.04864,-0.0881 0.04432,-0.13924 -0.0043,-0.0505 -0.02831,-0.0961 -0.06706,-0.12875 -0.03573,-0.0302 -0.07882,-0.0449 -0.12252,-0.0449 -0.05418,0 -0.10774,0.0234 -0.145285,0.0678 z m -1.571165,25.52996 c -0.130526,0.0261 -0.130526,0.21283 0,0.23892 l 1.275869,0.25481 c 0.01532,0.003 0.02727,0.015 0.03034,0.0303 l 0.254621,1.27688 c 0.02607,0.1306 0.212674,0.1306 0.238718,0 l 0.254643,-1.27688 c 0.0031,-0.0153 0.01502,-0.0273 0.03032,-0.0303 l 1.27589,-0.25481 c 0.130526,-0.0261 0.130526,-0.21284 0,-0.23892 l -1.27589,-0.25482 c -0.0153,-0.003 -0.02725,-0.015 -0.03032,-0.0303 l -0.254643,-1.27688 c -0.02604,-0.1306 -0.212651,-0.1306 -0.238718,0 l -0.254621,1.27688 c -0.0031,0.0153 -0.01502,0.0273 -0.03034,0.0303 z m 0.526332,-4.42908 c 0.341236,0 0.341798,-0.53071 0,-0.53071 -0.341235,0 -0.341796,0.53071 0,0.53071 z m 4.572311,13.951 c -0.0072,-0.001 -0.01293,-0.007 -0.01437,-0.0144 l -0.120707,-0.60533 c -0.01237,-0.0619 -0.100835,-0.0619 -0.113177,0 l -0.12073,0.60533 c -0.0014,0.007 -0.0071,0.0129 -0.01437,0.0144 l -0.604834,0.1208 c -0.06189,0.0124 -0.06189,0.10089 0,0.11324 l 0.604834,0.12084 c 0.0072,0.001 0.01295,0.007 0.01437,0.0144 l 0.12073,0.60529 c 0.01234,0.0619 0.100812,0.0619 0.113177,0 l 0.120707,-0.60529 c 0.0015,-0.007 0.0071,-0.013 0.01437,-0.0144 l 0.604855,-0.12084 c 0.06187,-0.0124 0.06187,-0.10088 0,-0.11324 z m 0.395137,-11.91837 c 0.341236,0 0.341797,-0.5307 0,-0.5307 -0.341235,0 -0.341796,0.5307 0,0.5307 z m -1.718349,41.76858 c -0.007,-10e-4 -0.01243,-0.007 -0.01381,-0.0138 l -0.11622,-0.5827 c -0.01189,-0.0596 -0.09706,-0.0596 -0.108947,0 l -0.116198,0.5827 c -0.0014,0.007 -0.0069,0.0124 -0.01386,0.0138 l -0.582263,0.11626 c -0.05956,0.0119 -0.05956,0.0971 0,0.10905 l 0.582263,0.11631 c 0.007,10e-4 0.01245,0.007 0.01386,0.0138 l 0.116198,0.5827 c 0.01189,0.0596 0.09706,0.0596 0.108947,0 l 0.11622,-0.5827 c 0.0014,-0.007 0.0068,-0.0124 0.01381,-0.0138 l 0.582263,-0.11631 c 0.05958,-0.0119 0.05958,-0.0971 0,-0.10905 z m -0.317155,5.99233 c -0.341235,0 -0.341796,0.5307 0,0.5307 0.341236,0 0.341798,-0.5307 0,-0.5307 z m 0,-58.18116 c -0.341235,0 -0.341796,0.5307 0,0.5307 0.341236,0 0.341798,-0.5307 0,-0.5307 z m -2.126908,18.50633 c -0.341236,0 -0.341797,0.5307 0,0.5307 0.341236,0 0.341797,-0.5307 0,-0.5307 z m -1.450694,42.01725 -0.209438,1.05026 c -0.0025,0.0126 -0.01234,0.0224 -0.02495,0.0249 l -1.049471,0.20964 c -0.107329,0.0214 -0.107329,0.17505 0,0.19651 l 1.049471,0.20959 c 0.0126,0.003 0.02242,0.0124 0.02495,0.0249 l 0.209438,1.05026 c 0.02145,0.10741 0.174933,0.10741 0.19636,0 l 0.209459,-1.05026 c 0.0025,-0.0126 0.01234,-0.0225 0.02492,-0.0249 l 1.049471,-0.20959 c 0.107351,-0.0215 0.107351,-0.17509 0,-0.19651 l -1.049471,-0.20964 c -0.01258,-0.003 -0.02242,-0.0124 -0.02492,-0.0249 l -0.209459,-1.05026 c -0.02143,-0.10741 -0.174912,-0.10741 -0.19636,0 z m -0.613941,14.10523 c -0.341235,0 -0.341796,0.5307 0,0.5307 0.341236,0 0.341797,-0.5307 0,-0.5307 z m -1.245162,-72.53917 c -0.341236,0 -0.341798,0.5307 0,0.5307 0.341235,0 0.341796,-0.5307 0,-0.5307 z m 2.629914,-15.70481 -2.492505,2.51038 c -0.07386,0.0745 -0.07386,0.1953 6.25e-4,0.26924 0.02648,0.0265 0.05973,0.0443 0.09665,0.0517 0.06279,0.0123 0.127419,-0.007 0.172366,-0.053 l 2.493111,-2.50978 c 0.07386,-0.0745 0.07324,-0.1953 -6.05e-4,-0.26919 -0.03755,-0.037 -0.08618,-0.0548 -0.134215,-0.0548 -0.04924,0 -0.09788,0.0185 -0.135425,0.0554 z m -0.957851,-1.04296 -4.161937,3.48558 c -0.0388,0.032 -0.0628,0.0782 -0.06711,0.12875 -0.0043,0.0505 0.01107,0.0998 0.04372,0.13923 0.02769,0.0332 0.06523,0.056 0.108322,0.0641 0.05664,0.0117 0.11512,-0.003 0.15944,-0.0406 l 4.16196,-3.48498 c 0.0388,-0.0326 0.0628,-0.0782 0.06711,-0.12939 0.0049,-0.0505 -0.01109,-0.0998 -0.04371,-0.13859 -0.03755,-0.045 -0.0911,-0.0684 -0.145889,-0.0684 -0.04309,0 -0.08618,0.0148 -0.121895,0.0443 z m -2.760441,84.97832 c 0.341236,0 0.341797,-0.53071 0,-0.53071 -0.341236,0 -0.341796,0.53071 0,0.53071 z m 0.01316,-74.74136 c 0.06189,-0.0124 0.06189,-0.1009 0,-0.11324 l -0.604856,-0.12085 c -0.0072,-0.001 -0.01293,-0.007 -0.01437,-0.0143 L 54.6175,226.89667 c -0.01234,-0.0619 -0.100812,-0.0619 -0.113156,0 l -0.120707,0.60533 c -0.0015,0.007 -0.0071,0.0129 -0.01437,0.0143 l -0.604876,0.12084 c -0.06187,0.0124 -0.06187,0.10089 0,0.11324 l 0.604876,0.1208 c 0.0072,10e-4 0.0129,0.007 0.01437,0.0144 l 0.120707,0.60533 c 0.01234,0.0619 0.100813,0.0619 0.113156,0 l 0.12073,-0.60533 c 0.0015,-0.007 0.0071,-0.0129 0.01437,-0.0144 z m 1.943322,-11.35326 -6.07641,4.03019 c -0.04247,0.0284 -0.0714,0.0708 -0.08189,0.12076 -0.0098,0.0499 0,0.10102 0.02833,0.14291 0.02771,0.0431 0.0708,0.0721 0.12129,0.0819 0.04922,0.01 0.09971,0 0.142178,-0.0284 l 6.076432,-4.03019 c 0.04246,-0.0283 0.0714,-0.0708 0.08124,-0.12071 0.01046,-0.0499 6.26e-4,-0.10107 -0.02771,-0.14292 -0.02769,-0.0425 -0.0708,-0.0715 -0.120643,-0.0813 -0.01293,-0.003 -0.02587,-0.004 -0.03817,-0.004 -0.03694,0 -0.07326,0.011 -0.104654,0.032 z m -0.697447,-1.21727 -4.822465,2.48944 c -0.09358,0.048 -0.129899,0.16325 -0.08189,0.25628 0.0265,0.0517 0.07449,0.0881 0.131756,0.0998 0.04246,0.008 0.08556,0.003 0.124333,-0.0179 l 4.823091,-2.48943 c 0.09296,-0.0481 0.1299,-0.16326 0.08187,-0.25628 -0.03383,-0.0653 -0.100942,-0.10288 -0.169885,-0.10288 -0.02894,0 -0.0591,0.007 -0.08681,0.0209 z m -0.534317,-1.2703 -3.277991,1.32761 c -0.09725,0.0394 -0.144638,0.1509 -0.105258,0.24764 0.02402,0.0597 0.07632,0.10288 0.13974,0.1158 0.03632,0.007 0.07386,0.003 0.108343,-0.0104 l 3.27797,-1.32757 c 0.09663,-0.0395 0.144056,-0.15035 0.104654,-0.24765 -0.0394,-0.0974 -0.150831,-0.14416 -0.247458,-0.10538 z m -5.734764,0.68134 c 0.02091,0.0659 0.07632,0.11523 0.14466,0.12875 0.03137,0.007 0.06339,0.005 0.09417,-0.005 l 5.174598,-1.63625 c 0.04864,-0.0154 0.08804,-0.0487 0.111428,-0.0942 0.01416,-0.0277 0.02153,-0.0573 0.02153,-0.0875 0,-0.019 -0.0031,-0.0382 -0.0086,-0.0573 -0.01537,-0.0487 -0.04862,-0.0881 -0.09417,-0.11207 -0.02708,-0.0142 -0.05725,-0.021 -0.08679,-0.021 -0.01972,0 -0.0388,0.003 -0.05787,0.009 l -5.174597,1.63685 c -0.04864,0.0154 -0.08804,0.0487 -0.11143,0.0936 -0.02337,0.0449 -0.02831,0.0967 -0.0129,0.14537 z m -0.27046,57.40203 c 0.261958,0.0234 0.492995,-0.16973 0.516364,-0.4311 0.02376,-0.26216 -0.169215,-0.49334 -0.430764,-0.51675 -0.261548,-0.0237 -0.493016,0.16938 -0.516384,0.43111 -0.0011,0.0143 -0.002,0.0289 -0.002,0.0432 0,0.24354 0.185895,0.45093 0.43277,0.47356 z m -0.354269,1.89888 c -0.252442,-0.073 -0.515608,0.0729 -0.58852,0.3256 -0.01269,0.044 -0.0186,0.088 -0.0186,0.13168 0,0.207 0.13551,0.39733 0.344343,0.45728 0.252053,0.0725 0.515587,-0.073 0.58852,-0.32564 0.0725,-0.25261 -0.07334,-0.51636 -0.325743,-0.58892 z m 1.105575,-44.5856 c -0.341236,0 -0.341797,0.5307 0,0.5307 0.341236,0 0.341797,-0.5307 0,-0.5307 z m -0.766367,38.85965 c -0.245343,0.0242 -0.4288,0.23123 -0.4288,0.47313 0,0.0155 8.02e-4,0.0313 0.0024,0.0472 0.02574,0.26171 0.258743,0.45252 0.519924,0.4267 0.261548,-0.0258 0.452147,-0.25853 0.426426,-0.51991 -0.02581,-0.26176 -0.258419,-0.45291 -0.519945,-0.42713 z m -0.983616,-2.35136 c 0,0.0448 0.0063,0.0908 0.01981,0.136 h 4.31e-4 c 0.07488,0.25188 0.339596,0.395 0.591283,0.32007 0.251989,-0.0754 0.395073,-0.34028 0.319765,-0.59211 -0.0749,-0.25183 -0.340027,-0.3954 -0.591649,-0.32003 -0.206071,0.0614 -0.339639,0.25066 -0.33964,0.45607 z m -2.341826,-27.25794 c 0.341236,0 0.341797,-0.5307 0,-0.5307 -0.341236,0 -0.341797,0.5307 0,0.5307 z m -3.602591,-6.1051 0.84612,0.16901 c 0.01014,0.002 0.01808,0.01 0.02011,0.02 l 0.16887,0.84676 c 0.01726,0.0866 0.141012,0.0866 0.158296,0 l 0.168871,-0.84676 c 0.002,-0.0101 0.0099,-0.018 0.02009,-0.02 l 0.846099,-0.16901 c 0.08657,-0.0173 0.08657,-0.14114 0,-0.15841 l -0.846099,-0.169 c -0.01014,-0.002 -0.01806,-0.01 -0.02009,-0.0201 l -0.168871,-0.84676 c -0.01728,-0.0866 -0.141034,-0.0866 -0.158296,0 l -0.16887,0.84676 c -0.002,0.0102 -0.01,0.0181 -0.02011,0.0201 l -0.84612,0.169 c -0.08653,0.0172 -0.08653,0.14114 0,0.15841 z m -0.336834,45.40856 -2.007927,-2.34475 -2.007927,-2.34471 -0.335021,0.33532 -0.335022,0.33527 2.342949,2.00944 z m -2.282551,6.42397 c -0.0872,-0.24826 -0.358649,-0.37834 -0.606323,-0.2911 -0.195799,0.0686 -0.317845,0.25266 -0.317845,0.44895 0,0.0523 0.0088,0.10547 0.02697,0.15781 0.08718,0.24791 0.358628,0.37838 0.606301,0.29109 0.247695,-0.0872 0.378091,-0.3589 0.290894,-0.60675 z m -2.403346,-17.92242 0.335022,0.33528 0.335021,0.33527 2.007927,-2.34471 2.007927,-2.34471 -2.342948,2.00943 z m 1.673769,-10.10402 c 0.248882,0.0848 0.519126,-0.048 0.603561,-0.2967 0.0848,-0.24903 -0.04794,-0.51948 -0.29644,-0.60439 -0.248471,-0.0849 -0.518737,0.0484 -0.603517,0.29706 -0.01746,0.0508 -0.02579,0.10269 -0.02579,0.15349 0,0.19828 0.124419,0.38308 0.322182,0.45054 z m -0.378782,3.77711 -1.441286,2.73038 -1.441287,2.73039 0.434669,0.18864 0.434669,0.18865 1.006618,-2.91903 z m -0.135208,-3.88983 c 0,-1.33574 -0.619377,-2.5261 -1.585622,-3.30134 -0.723621,0.58055 -1.64151,0.92856 -2.641093,0.92856 -0.999583,0 -1.91744,-0.34801 -2.641061,-0.92856 -0.966256,0.77524 -1.585622,1.9656 -1.585622,3.30134 0,2.30403 1.840837,4.17768 4.130941,4.22864 l -0.141142,1.83435 -0.236885,3.07883 h 0.473769 0.473812 l -0.236907,-3.07883 -0.141141,-1.83435 c 2.290082,-0.051 4.130951,-1.92461 4.130951,-4.22864 z m -8.255257,3.75162 0.910088,2.9506 0.910066,2.95061 0.440668,-0.17422 0.440657,-0.17423 -1.350756,-2.77634 z m 0.147788,10.20025 c 0,2.14487 1.737478,3.88365 3.880754,3.88365 2.143308,0 3.880776,-1.73878 3.880776,-3.88365 0,-2.14488 -1.737468,-3.88365 -3.880776,-3.88365 -2.143276,0 -3.880754,1.73877 -3.880754,3.88365 z m 6.089163,4.30836 -0.440646,0.17423 -0.440667,0.17422 1.350723,2.77638 1.350745,2.77638 -0.910078,-2.9506 z m -5.563704,2.84398 -1.006607,2.91903 1.441287,-2.73039 1.441308,-2.73038 -0.434691,-0.18865 -0.43469,-0.18865 z m -0.871388,6.8992 c 0,1.33574 0.619366,2.52611 1.585622,3.30134 0.723621,-0.58054 1.641478,-0.92856 2.641061,-0.92856 0.999583,0 1.917472,0.34802 2.641093,0.92856 0.966245,-0.77523 1.585622,-1.9656 1.585622,-3.30134 0,-2.3064 -1.844581,-4.18143 -4.1379,-4.22877 l 0.14809,-1.92457 0.236907,-3.07883 h -0.473812 -0.473769 l 0.236885,3.07883 0.148069,1.92457 c -2.293298,0.0473 -4.137868,1.92237 -4.137868,4.22877 z m 14.285825,-9.68168 -2.728333,-1.44236 -2.728333,-1.44238 -0.188506,0.435 -0.188485,0.43499 2.916818,1.00738 z m -5.410489,-5.69329 2.774294,-1.35172 2.774295,-1.35176 -2.948386,0.91072 -2.948387,0.91081 0.174092,0.44095 z m 5.577504,-9.80706 c 0.1712,-0.19949 0.148586,-0.49974 -0.05032,-0.67102 -0.199339,-0.17171 -0.49936,-0.14913 -0.67095,0.0504 -0.07725,0.0896 -0.114902,0.20026 -0.114902,0.31013 0,0.13367 0.05589,0.26686 0.165266,0.36089 0.199338,0.17133 0.499295,0.14913 0.670906,-0.0504 z m -3.185767,-1.97342 c 0,0.16499 0.08599,0.32522 0.239365,0.41328 0.227865,0.13086 0.518349,0.0515 0.648724,-0.17613 0.130763,-0.22842 0.0519,-0.51912 -0.17597,-0.64959 -0.227864,-0.13087 -0.518348,-0.052 -0.649133,0.17607 -0.04279,0.0746 -0.06299,0.15587 -0.06299,0.23637 z m -0.904553,-27.42123 c 0.62626,0 0.627296,-0.97394 0,-0.97394 -0.626262,0 -0.627297,0.97394 0,0.97394 z m -8.188462,-13.91252 c 0,0.11082 0.08961,0.20143 0.20128,0.20143 0.892006,0 1.619036,0.72665 1.619036,1.62026 0,0.11083 0.08959,0.20144 0.201281,0.20144 0.110739,0 0.201281,-0.0906 0.201281,-0.20144 0,-0.89361 0.726102,-1.62026 1.619025,-1.62026 0.11076,0 0.201302,-0.0906 0.201302,-0.20143 0,-0.11177 -0.09054,-0.201 -0.201302,-0.201 -0.892923,0 -1.619025,-0.72708 -1.619025,-1.6207 0,-0.11173 -0.09054,-0.20143 -0.201281,-0.20143 -0.111688,0 -0.201281,0.0897 -0.201281,0.20143 0,0.89362 -0.72703,1.6207 -1.619036,1.6207 -0.111666,0 -0.20128,0.0892 -0.20128,0.201 z m 2.052626,19.55689 c -0.913918,0 -1.654802,0.74142 -1.654802,1.65606 0,0.91461 0.740884,1.65607 1.654802,1.65607 0.91394,0 1.654845,-0.74146 1.654845,-1.65607 0,-0.91464 -0.740905,-1.65606 -1.654845,-1.65606 z m -3.264635,-5.57276 c 0.341236,0 0.341797,-0.5307 0,-0.5307 -0.341236,0 -0.341796,0.5307 0,0.5307 z m -0.962048,9.90336 c 0,2.33612 1.892366,4.22986 4.226683,4.22986 2.334339,0 4.226715,-1.89374 4.226715,-4.22986 0,-0.35125 -0.04355,-0.69218 -0.12416,-1.01847 -0.455643,1.84394 -2.119183,3.21138 -4.102555,3.21138 -1.983349,0 -3.646891,-1.36744 -4.102511,-3.21138 -0.08063,0.32629 -0.124172,0.66722 -0.124172,1.01847 z m -1.966907,-4.22393 c 0.341236,0 0.341797,-0.5307 0,-0.5307 -0.341236,0 -0.341797,0.5307 0,0.5307 z m -0.494073,9.85292 c 0,3.69626 2.994175,6.69269 6.687663,6.69269 3.693521,0 6.687696,-2.99643 6.687696,-6.69269 0,-1.024 -0.230626,-1.99384 -0.64143,-2.86159 -1.072042,2.26451 -3.375978,3.83109 -6.046266,3.83109 -2.670266,0 -4.974223,-1.56658 -6.046255,-3.83109 -0.410803,0.86775 -0.641408,1.83759 -0.641408,2.86159 z m -0.129016,11.21207 c 0,0.067 0.01384,0.13488 0.04395,0.19949 0.110178,0.23875 0.392732,0.34266 0.63089,0.2324 0.238588,-0.11026 0.342422,-0.39341 0.232245,-0.63176 -0.110179,-0.23875 -0.392733,-0.34266 -0.631278,-0.2324 -0.173574,0.0805 -0.275811,0.25265 -0.275811,0.43227 z m -0.936132,5.95511 2.007927,2.34471 2.007916,2.34471 0.335022,-0.33527 0.335032,-0.33528 -2.34296,-2.00944 z m -3.645391,18.29232 c 0,0.11855 0.04399,0.23711 0.132349,0.32914 0.181892,0.18999 0.483101,0.19595 0.672535,0.0143 0.189391,-0.18209 0.195735,-0.48345 0.01386,-0.67305 -0.181892,-0.18956 -0.48268,-0.1959 -0.672492,-0.0138 -0.0971,0.0932 -0.146245,0.21814 -0.146245,0.34348 z m 0.07727,-20.55674 c 0.19061,0.18044 0.491808,0.17249 0.672503,-0.0183 0.180295,-0.19075 0.172409,-0.49213 -0.01823,-0.673 -0.19061,-0.18087 -0.491808,-0.1725 -0.672502,0.0183 -0.08719,0.092 -0.130386,0.20981 -0.130386,0.32763 0,0.12607 0.04993,0.25179 0.148608,0.34542 z m 3.433321,10.26014 3.076528,0.23711 v -0.47417 -0.47417 l -3.076528,0.23711 -3.076527,0.23706 z m -2.30961,3.79451 2.948376,-0.91076 2.948386,-0.9108 -0.174081,-0.44096 -0.174092,-0.44095 -2.774295,1.35175 z m 5.971767,-6.38203 -2.91685,-1.00737 -2.916839,-1.00737 2.728355,1.44241 2.728344,1.44233 0.188495,-0.435 z m -5.076363,-9.91178 c 0,0.096 0.0289,0.19314 0.08916,0.27718 0.153366,0.2134 0.450583,0.26216 0.663785,0.10866 0.213202,-0.15344 0.261925,-0.45088 0.108559,-0.66428 -0.153334,-0.21335 -0.450172,-0.26172 -0.663785,-0.10866 -0.129188,0.0932 -0.19772,0.23879 -0.197719,0.3871 z m -0.658218,-31.45449 c 0.341236,0 0.341797,-0.5307 0,-0.5307 -0.341236,0 -0.341797,0.5307 0,0.5307 z m -3.904543,8.29118 c 0.341236,0 0.341796,-0.5307 0,-0.5307 -0.341236,0 -0.341797,0.5307 0,0.5307 z m -0.688093,29.88864 c 0,0.18956 0.113749,0.36883 0.300787,0.4426 0.244114,0.0967 0.520323,-0.0226 0.617037,-0.26691 0.09706,-0.24432 -0.0226,-0.52111 -0.266717,-0.61785 -0.244511,-0.0968 -0.520711,0.023 -0.617435,0.26729 -0.02259,0.0575 -0.03367,0.11656 -0.03367,0.17487 z m -0.79854,2.76662 c 0,0.22445 0.159332,0.42433 0.387585,0.46713 0.258366,0.0488 0.506869,-0.12132 0.555204,-0.3795 0.04876,-0.25861 -0.121247,-0.50725 -0.379267,-0.55562 -0.257977,-0.0488 -0.506858,0.12136 -0.555193,0.3795 -0.0055,0.0298 -0.0083,0.0595 -0.0083,0.0885 z m 0.212436,2.39101 c -0.262346,6.7e-4 -0.474394,0.21374 -0.474394,0.47589 0,4.3e-4 0,6.7e-4 0,0.001 8.02e-4,0.26254 0.214011,0.47512 0.476757,0.47469 0.262735,-6.7e-4 0.47516,-0.21452 0.47434,-0.4775 -8.02e-4,-0.26293 -0.213979,-0.47512 -0.476703,-0.47468 z m -5.772903,-56.8253 c 0,0.0302 0.007,0.0598 0.0216,0.0875 0.0234,0.0456 0.0628,0.0788 0.11142,0.0942 l 5.174594,1.63625 c 0.03078,0.01 0.06279,0.0116 0.09417,0.005 0.06834,-0.0135 0.12375,-0.0628 0.14467,-0.12875 0.01539,-0.0486 0.01046,-0.10042 -0.01293,-0.14537 -0.02339,-0.045 -0.06279,-0.0783 -0.111418,-0.0936 l -5.174596,-1.63685 c -0.0191,-0.005 -0.0382,-0.009 -0.0579,-0.009 -0.0296,0 -0.0597,0.007 -0.0868,0.021 -0.0456,0.024 -0.0788,0.0634 -0.0942,0.11207 -0.006,0.0191 -0.009,0.0382 -0.009,0.0573 z m -0.33117,1.3658 3.27797,1.32757 c 0.03448,0.0141 0.07202,0.0178 0.108343,0.0104 0.06341,-0.0129 0.115734,-0.056 0.139739,-0.11579 0.03939,-0.0967 -0.008,-0.20825 -0.105257,-0.24765 l -3.277985,-1.32761 c -0.0966,-0.0388 -0.20807,0.008 -0.24746,0.10538 -0.0394,0.0973 0.008,0.20817 0.10465,0.24764 z m -0.56634,1.25549 4.823081,2.48943 c 0.03879,0.0203 0.08188,0.0259 0.124354,0.0179 0.05726,-0.0116 0.105258,-0.048 0.131735,-0.0998 0.04802,-0.093 0.01169,-0.20825 -0.08188,-0.25628 l -4.82246,-2.48943 c -0.0277,-0.0142 -0.0579,-0.0209 -0.0868,-0.0209 -0.0689,0 -0.13604,0.0376 -0.16989,0.10287 -0.048,0.093 -0.0111,0.20822 0.0819,0.25628 z m -0.81379,1.07562 c 0.01,0.0499 0.0388,0.0924 0.0812,0.12071 l 6.076429,4.03019 c 0.04246,0.0283 0.09296,0.0382 0.142189,0.0283 0.05048,-0.01 0.09357,-0.0388 0.121279,-0.0819 0.02832,-0.0419 0.03816,-0.093 0.02832,-0.14291 -0.01046,-0.0499 -0.03941,-0.0924 -0.08188,-0.12076 l -6.076427,-4.03019 c -0.0314,-0.0209 -0.0677,-0.032 -0.10464,-0.032 -0.0123,0 -0.0252,0.001 -0.0382,0.004 -0.0499,0.01 -0.093,0.0388 -0.12065,0.0813 -0.0283,0.0418 -0.0382,0.093 -0.0277,0.14291 z m 3.845037,26.10899 c 0,0.34148 0.530303,0.34205 0.530303,0 0,-0.3415 -0.530303,-0.34206 -0.530303,0 z M 11.58378,217.67606 c 0.004,0.0511 0.0283,0.0967 0.0671,0.1294 l 4.16196,3.48498 c 0.04432,0.0376 0.102797,0.0524 0.159429,0.0406 0.0431,-0.008 0.08065,-0.0308 0.108344,-0.064 0.03264,-0.0395 0.04802,-0.0887 0.04371,-0.13924 -0.0043,-0.0506 -0.02832,-0.0967 -0.0671,-0.12875 l -4.161943,-3.48558 c -0.0357,-0.0296 -0.0788,-0.0443 -0.1219,-0.0443 -0.0548,0 -0.10834,0.0234 -0.1459,0.0684 -0.0326,0.0388 -0.0486,0.0881 -0.0437,0.13859 z m 1.17881,80.84202 c -0.10082,0.0201 -0.10082,0.16437 0,0.1845 l 0.98561,0.1969 c 0.0118,0.002 0.0211,0.0116 0.0234,0.0234 l 0.1967,0.98634 c 0.0201,0.10093 0.16429,0.10093 0.18441,0 l 0.19671,-0.98634 c 0.002,-0.0118 0.0116,-0.0211 0.0234,-0.0234 l 0.9856,-0.1969 c 0.10082,-0.0201 0.10082,-0.16438 0,-0.1845 l -0.9856,-0.19685 c -0.0118,-0.003 -0.0211,-0.0116 -0.0234,-0.0235 l -0.19671,-0.98634 c -0.0201,-0.10089 -0.16427,-0.10089 -0.18441,0 l -0.1967,0.98634 c -0.002,0.0118 -0.0116,0.0211 -0.0234,0.0235 z m 0.77137,-64.05097 0.60486,0.1208 c 0.007,0.001 0.0129,0.007 0.0144,0.0144 l 0.12072,0.60533 c 0.0124,0.0619 0.10082,0.0619 0.11316,0 l 0.12073,-0.60533 c 10e-4,-0.007 0.007,-0.0129 0.0144,-0.0144 l 0.60486,-0.1208 c 0.0619,-0.0124 0.0619,-0.10089 0,-0.11324 l -0.60486,-0.12084 c -0.007,-0.001 -0.0129,-0.007 -0.0144,-0.0143 L 14.3871,233.6134 c -0.0123,-0.0619 -0.10081,-0.0619 -0.11316,0 l -0.12072,0.60533 c -10e-4,0.007 -0.007,0.0129 -0.0144,0.0143 l -0.60486,0.12084 c -0.0619,0.0124 -0.0619,0.10089 0,0.11324 z m 1.90011,70.0148 c 0.34124,0 0.3418,-0.53071 0,-0.53071 -0.34123,0 -0.34179,0.53071 0,0.53071 z m -4.76689,-85.6569 2.4931,2.50978 c 0.0449,0.0455 0.10958,0.0653 0.17237,0.053 0.0369,-0.007 0.0702,-0.0253 0.0966,-0.0517 0.0745,-0.0739 0.0745,-0.19469 6.3e-4,-0.26924 l -2.49252,-2.51038 c -0.0375,-0.037 -0.0862,-0.0554 -0.13542,-0.0554 -0.048,0 -0.0966,0.0179 -0.13419,0.0548 -0.0739,0.0739 -0.0745,0.19465 -6.1e-4,0.26919 z m -0.98432,0.73926 c -0.004,0.0512 0.0111,0.10042 0.0443,0.13924 l 3.49528,4.15397 c 0.0449,0.053 0.11512,0.0776 0.18282,0.0641 0.032,-0.006 0.0603,-0.0203 0.085,-0.0413 0.0394,-0.0326 0.0628,-0.0789 0.0671,-0.12935 0.004,-0.0505 -0.0111,-0.0998 -0.0437,-0.13859 l -3.4959,-4.15401 c -0.0375,-0.0443 -0.0911,-0.0678 -0.14528,-0.0678 -0.0437,0 -0.0868,0.0148 -0.12251,0.0449 -0.0387,0.0326 -0.0628,0.0783 -0.0671,0.12874 z M 8.56189,220.383 c -0.01,0.0499 6.1e-4,0.10041 0.0289,0.14291 l 4.061,6.05884 c 0.0425,0.0641 0.11941,0.0954 0.19513,0.0807 0.0246,-0.005 0.0474,-0.0148 0.0683,-0.0289 0.0425,-0.0284 0.0714,-0.0715 0.0806,-0.12136 0.01,-0.0499 0,-0.10041 -0.0283,-0.14295 l -4.061,-6.05876 c -0.0283,-0.0419 -0.0714,-0.0709 -0.12126,-0.0808 -0.0123,-0.003 -0.0247,-0.003 -0.037,-0.003 -0.0375,0 -0.0738,0.0111 -0.10587,0.0326 -0.0419,0.0283 -0.0708,0.0715 -0.0806,0.12136 z m 3.54413,21.88726 c 0.10735,-0.0215 0.10735,-0.17509 0,-0.19651 l -1.04946,-0.20964 c -0.0126,-0.003 -0.0224,-0.0124 -0.0249,-0.0249 l -0.20946,-1.05026 c -0.0214,-0.10741 -0.17493,-0.10741 -0.19635,0 l -0.20946,1.05026 c -0.003,0.0126 -0.0124,0.0224 -0.0249,0.0249 l -1.04946,0.20964 c -0.10735,0.0214 -0.10735,0.17504 0,0.19651 l 1.04946,0.20959 c 0.0126,0.003 0.0225,0.0124 0.0249,0.0249 l 0.20946,1.05026 c 0.0214,0.10741 0.17492,0.10741 0.19635,0 l 0.20946,-1.05026 c 0.003,-0.0126 0.0123,-0.0225 0.0249,-0.0249 z m -1.0021,51.12426 c -0.34123,0 -0.34179,0.5307 0,0.5307 0.34124,0 0.3418,-0.5307 0,-0.5307 z M 9.93191,253.03234 c -0.49886,0 -0.49969,0.77588 0,0.77588 0.49886,0 0.49968,-0.77588 0,-0.77588 z m -2.5341,-31.82197 2.50297,4.81872 c 0.0387,0.0751 0.12311,0.11579 0.2056,0.0992 0.0172,-0.003 0.0345,-0.009 0.0504,-0.0179 0.093,-0.0487 0.1299,-0.16386 0.0813,-0.25689 L 7.7351,221.03477 c -0.048,-0.0924 -0.16312,-0.12874 -0.25606,-0.0807 -0.0936,0.048 -0.12991,0.16325 -0.0813,0.25628 z m 0.3827,76.97857 c 0.34123,0 0.34179,-0.5307 0,-0.5307 -0.34124,0 -0.3418,0.5307 0,0.5307 z m 0.20236,-51.57231 c 0.34123,0 0.34179,-0.5307 0,-0.5307 -0.34124,0 -0.3418,0.5307 0,0.5307 z m -1.06334,58.12156 c -0.0619,0.0124 -0.0619,0.10089 0,0.11324 l 0.60486,0.12079 c 0.007,0.001 0.0129,0.007 0.0144,0.0144 l 0.12072,0.60534 c 0.0124,0.0619 0.10081,0.0619 0.11317,0 l 0.12071,-0.60534 c 10e-4,-0.007 0.007,-0.0129 0.0144,-0.0144 l 0.60485,-0.12079 c 0.0619,-0.0124 0.0619,-0.10089 0,-0.11324 l -0.60485,-0.12085 c -0.007,-0.001 -0.013,-0.007 -0.0144,-0.0143 l -0.12071,-0.60536 c -0.0124,-0.0619 -0.10081,-0.0619 -0.11317,0 l -0.12072,0.60533 c -10e-4,0.007 -0.007,0.0129 -0.0144,0.0143 z m -0.68639,-83.01838 1.37953,3.25829 c 0.0351,0.0825 0.12433,0.12995 0.21236,0.11211 0.0123,-0.003 0.0252,-0.006 0.0375,-0.0111 0.096,-0.0413 0.14157,-0.15276 0.10035,-0.2495 l -1.37954,-3.25889 c -0.0412,-0.0961 -0.15267,-0.14105 -0.24993,-0.10101 -0.096,0.0413 -0.14156,0.15341 -0.10033,0.2501 z m -1.32721,0.49348 1.65161,5.17291 c 0.0289,0.0924 0.12251,0.14784 0.21793,0.12875 0.007,-0.001 0.0142,-0.003 0.0209,-0.005 0.0486,-0.0155 0.088,-0.0487 0.11143,-0.0936 0.0228,-0.0456 0.0271,-0.0967 0.0117,-0.14541 l -1.65097,-5.17353 c -0.0154,-0.0481 -0.0492,-0.0881 -0.0942,-0.1109 -0.0277,-0.0142 -0.0572,-0.0215 -0.0868,-0.0215 -0.0197,0 -0.0394,0.003 -0.0585,0.009 -0.048,0.0155 -0.0874,0.0487 -0.11079,0.0943 -0.0234,0.0449 -0.0277,0.0967 -0.0123,0.14538 z m 1.6987,67.06 c 0.34124,0 0.3418,-0.5307 0,-0.5307 -0.34124,0 -0.3418,0.5307 0,0.5307 z M 6.3693,234.4187 c 0,-0.3415 -0.5303,-0.34206 -0.5303,0 0,0.34149 0.5303,0.34205 0.5303,0 z m -1.10078,80.48445 1.65097,-5.17356 c 0.0154,-0.0486 0.0111,-0.0998 -0.0117,-0.14538 -0.0234,-0.045 -0.0628,-0.0782 -0.11143,-0.0936 -0.007,-0.003 -0.0142,-0.004 -0.0209,-0.005 -0.0954,-0.0191 -0.18899,0.0363 -0.21793,0.12874 l -1.65161,5.17292 c -0.0154,0.0487 -0.0111,0.10045 0.0123,0.14537 0.0234,0.0456 0.0628,0.0789 0.11079,0.0943 0.0191,0.006 0.0388,0.009 0.0585,0.009 0.0295,0 0.0591,-0.007 0.0868,-0.0215 0.045,-0.0228 0.0788,-0.0629 0.0942,-0.11091 z m 1.31487,0.52612 1.37954,-3.25888 c 0.0412,-0.0967 -0.005,-0.20821 -0.10035,-0.2495 -0.0123,-0.005 -0.0252,-0.009 -0.0375,-0.0111 -0.088,-0.0179 -0.17728,0.0295 -0.21236,0.11212 l -1.37953,3.25828 c -0.0412,0.0967 0.004,0.20882 0.10033,0.25011 0.0973,0.0401 0.2087,-0.005 0.24993,-0.10102 z m 1.15175,0.53597 2.50297,-4.81872 c 0.0486,-0.093 0.0117,-0.20822 -0.0813,-0.25689 -0.016,-0.009 -0.0333,-0.0148 -0.0504,-0.0179 -0.0825,-0.0166 -0.16683,0.024 -0.2056,0.0992 l -2.50297,4.81872 c -0.0486,0.093 -0.0123,0.20826 0.0813,0.25628 0.0929,0.048 0.20806,0.0117 0.25606,-0.0807 z m 5.23246,-5.33742 c 0.0283,-0.0425 0.0382,-0.093 0.0283,-0.14296 -0.009,-0.0499 -0.0382,-0.093 -0.0806,-0.12135 -0.0209,-0.0142 -0.0437,-0.024 -0.0683,-0.029 -0.0757,-0.0148 -0.15266,0.0166 -0.19513,0.0807 l -4.061,6.05883 c -0.0283,0.0425 -0.0388,0.093 -0.0289,0.14292 0.01,0.0499 0.0388,0.093 0.0807,0.12136 0.032,0.0215 0.0683,0.0326 0.10586,0.0326 0.0123,0 0.0247,-10e-4 0.0369,-0.004 0.0498,-0.01 0.093,-0.0388 0.12127,-0.0807 z m -2.94987,6.91385 3.4959,-4.15401 c 0.0326,-0.0388 0.048,-0.0881 0.0437,-0.13859 -0.004,-0.0505 -0.0277,-0.0967 -0.0671,-0.12935 -0.0246,-0.021 -0.0529,-0.0352 -0.085,-0.0413 -0.0677,-0.0136 -0.13789,0.0111 -0.18282,0.0641 l -3.49528,4.15397 c -0.0333,0.0388 -0.0486,0.0881 -0.0443,0.13924 0.004,0.0505 0.0283,0.0961 0.0671,0.12875 0.0357,0.0302 0.0788,0.0449 0.12252,0.0449 0.0542,0 0.10772,-0.0234 0.14527,-0.0678 z m 0.91967,0.90191 2.49252,-2.51038 c 0.0738,-0.0745 0.0738,-0.1953 -6.3e-4,-0.26924 -0.0265,-0.0265 -0.0597,-0.0443 -0.0966,-0.0518 -0.0628,-0.0123 -0.12743,0.007 -0.17237,0.053 l -2.4931,2.50978 c -0.0739,0.0745 -0.0733,0.1953 6.1e-4,0.26919 0.0375,0.037 0.0862,0.0548 0.13419,0.0548 0.0493,0 0.0979,-0.0185 0.13542,-0.0554 z m 0.95787,1.04296 4.161942,-3.48558 c 0.03878,-0.032 0.06278,-0.0783 0.0671,-0.12875 0.0043,-0.0505 -0.01107,-0.0998 -0.04371,-0.13923 -0.02769,-0.0332 -0.06524,-0.056 -0.108343,-0.0641 -0.05663,-0.0117 -0.115109,0.003 -0.15943,0.0406 l -4.161959,3.48498 c -0.0388,0.0326 -0.0628,0.0782 -0.0671,0.12935 -0.005,0.0505 0.0111,0.0998 0.0437,0.13863 0.0376,0.045 0.0911,0.0684 0.1459,0.0684 0.0431,0 0.0862,-0.0148 0.12189,-0.0443 z m 0.80394,1.1163 6.07642,-4.03019 c 0.04246,-0.0283 0.07141,-0.0708 0.08188,-0.12076 0.0098,-0.0499 0,-0.10102 -0.02832,-0.14291 -0.02771,-0.0431 -0.0708,-0.0721 -0.121279,-0.0819 -0.04923,-0.01 -0.09972,0 -0.142189,0.0283 l -6.076432,4.03015 c -0.0425,0.0284 -0.0714,0.0709 -0.0812,0.12075 -0.0105,0.0499 -6.3e-4,0.10102 0.0277,0.14292 0.0277,0.0425 0.0708,0.0715 0.12066,0.0813 0.0129,0.003 0.0259,0.004 0.0382,0.004 0.0369,0 0.0733,-0.0111 0.10465,-0.032 z m 0.69746,1.21727 4.822461,-2.48944 c 0.09357,-0.048 0.1299,-0.16325 0.08188,-0.25628 -0.02648,-0.0518 -0.07448,-0.0881 -0.131735,-0.0998 -0.04248,-0.008 -0.08557,-0.003 -0.124354,0.0178 l -4.823082,2.48943 c -0.0929,0.0481 -0.1299,0.16326 -0.0819,0.25628 0.0339,0.0653 0.10096,0.10288 0.16989,0.10288 0.0289,0 0.0591,-0.007 0.0868,-0.0209 z m 0.53432,1.2703 3.277985,-1.32761 c 0.09724,-0.0394 0.144649,-0.1509 0.105258,-0.24764 -0.02401,-0.0597 -0.07633,-0.10288 -0.13974,-0.1158 -0.03632,-0.007 -0.07386,-0.003 -0.108343,0.0104 l -3.27797,1.32757 c -0.0966,0.0394 -0.14404,0.15035 -0.10465,0.24765 0.0394,0.0974 0.15082,0.14416 0.24746,0.10538 z m 5.734769,-0.68134 c -0.02092,-0.0659 -0.07633,-0.11523 -0.144671,-0.12879 -0.03137,-0.007 -0.06338,-0.005 -0.09417,0.005 l -5.174598,1.63625 c -0.0486,0.0154 -0.088,0.0487 -0.11142,0.0942 -0.0142,0.0277 -0.0216,0.0573 -0.0216,0.0875 0,0.019 0.003,0.0382 0.009,0.0572 0.0154,0.0487 0.0486,0.0881 0.0942,0.11212 0.0271,0.0142 0.0572,0.021 0.0868,0.021 0.0197,0 0.0388,-0.003 0.0579,-0.009 l 5.174602,-1.63685 c 0.04862,-0.0154 0.08803,-0.0487 0.111418,-0.0936 0.02338,-0.0449 0.02831,-0.0967 0.01293,-0.14537 z m 0.598975,-48.87855 c 0.257599,-0.0503 0.425638,-0.3002 0.375318,-0.55834 -0.05034,-0.25779 -0.3,-0.42597 -0.557977,-0.37561 -0.226699,0.0445 -0.384403,0.24354 -0.384403,0.4664 0,0.0301 0.0031,0.061 0.0091,0.092 0.05034,0.25779 0.3,0.42596 0.557966,0.37556 z m 0.397187,35.15083 c -0.341235,0 -0.341796,0.53071 0,0.53071 0.341236,0 0.341797,-0.53071 0,-0.53071 z m 0.771493,-33.03622 h 3.88e-4 c -0.09865,-0.24385 -0.375664,-0.36132 -0.619399,-0.26251 -0.185064,0.075 -0.297217,0.25301 -0.297217,0.44096 0,0.0595 0.0111,0.12019 0.03486,0.1785 0.0987,0.2435 0.375707,0.36127 0.619399,0.26254 0.243347,-0.0984 0.360645,-0.37599 0.261969,-0.61949 z m 0.355887,-13.6442 c 0,0.15704 0.07766,0.31053 0.219547,0.40135 0.221121,0.14158 0.515564,0.0765 0.656621,-0.14476 0.141487,-0.22126 0.07689,-0.51559 -0.144617,-0.65712 -0.221143,-0.14161 -0.515187,-0.077 -0.656675,0.14473 -0.05073,0.0793 -0.07488,0.16817 -0.07488,0.2558 z m 0.931278,16.11774 c -0.142685,-0.22048 -0.437118,-0.28315 -0.657485,-0.14041 -0.140667,0.0912 -0.21714,0.24393 -0.21714,0.39975 0,0.0889 0.02495,0.17851 0.07689,0.25858 0.142652,0.22052 0.437085,0.28318 0.657441,0.1404 0.220323,-0.14312 0.28332,-0.43784 0.14029,-0.65832 z m 0.318503,-47.94093 0.846109,0.169 c 0.01014,0.002 0.01807,0.01 0.0201,0.0201 l 0.16887,0.84671 c 0.01727,0.0866 0.141023,0.0866 0.158297,0 l 0.16887,-0.84671 c 0.002,-0.0102 0.01,-0.0181 0.02011,-0.0201 l 0.846097,-0.169 c 0.08655,-0.0173 0.08655,-0.14114 0,-0.15841 l -0.846097,-0.169 c -0.01015,-0.002 -0.01809,-0.01 -0.02011,-0.0201 l -0.168873,-0.84676 c -0.01727,-0.0866 -0.141023,-0.0866 -0.158297,0 l -0.16887,0.84676 c -0.002,0.0102 -0.01,0.0181 -0.0201,0.0201 l -0.846109,0.169 c -0.08655,0.0172 -0.08655,0.1411 0,0.15841 z m 1.886238,73.39841 -0.604856,-0.12084 c -0.0072,-10e-4 -0.01293,-0.007 -0.01437,-0.0143 l -0.120718,-0.60533 c -0.01235,-0.0619 -0.100813,-0.0619 -0.113167,0 l -0.120718,0.60533 c -0.0015,0.007 -0.0071,0.0129 -0.01437,0.0143 l -0.604856,0.12084 c -0.06187,0.0124 -0.06187,0.1009 0,0.11324 l 0.604856,0.12085 c 0.0072,10e-4 0.01293,0.007 0.01437,0.0144 l 0.120718,0.60533 c 0.01235,0.0619 0.100813,0.0619 0.113167,0 l 0.120718,-0.60533 c 0.0015,-0.007 0.0071,-0.0129 0.01437,-0.0144 l 0.604856,-0.12085 c 0.06187,-0.0124 0.06187,-0.10088 0,-0.11324 z M 26.56301,282.127 c -0.21441,-0.15189 -0.511228,-0.10154 -0.663019,0.11303 -0.05943,0.0837 -0.08757,0.17966 -0.08757,0.27481 0,0.14913 0.06973,0.29584 0.200535,0.3887 0.213979,0.15189 0.510818,0.1011 0.662987,-0.11307 0.15178,-0.21457 0.101028,-0.51157 -0.112929,-0.66347 z m 0.715206,-4.26695 2.342937,-2.00943 2.34296,-2.00944 -0.335032,-0.33527 -0.335022,-0.33532 -2.007916,2.34471 z m 1.029242,6.08886 c 0,0.18122 0.103834,0.35415 0.279371,0.43349 0.238977,0.10862 0.520745,0.003 0.629304,-0.2368 0.108591,-0.2391 0.0024,-0.52112 -0.23696,-0.62978 -0.238977,-0.10866 -0.520701,-0.002 -0.629303,0.23676 -0.02895,0.0639 -0.04241,0.13047 -0.04241,0.19633 z m 2.024024,24.71594 c -0.703661,0 -0.704815,1.09436 0,1.09436 0.703661,0 0.704816,-1.09436 0,-1.09436 z m 6.690123,12.67617 c 0,-0.11083 -0.09054,-0.20144 -0.201301,-0.20144 -0.892923,0 -1.619025,-0.72665 -1.619025,-1.62026 0,-0.11082 -0.09054,-0.20143 -0.201281,-0.20143 -0.111688,0 -0.201281,0.0906 -0.201281,0.20143 0,0.89361 -0.72703,1.62026 -1.619036,1.62026 -0.111666,0 -0.20128,0.0906 -0.20128,0.20144 0,0.11177 0.08961,0.20095 0.20128,0.20095 0.892006,0 1.619036,0.72713 1.619036,1.62075 0,0.11172 0.08959,0.20142 0.201281,0.20142 0.110739,0 0.201281,-0.0897 0.201281,-0.20142 0,-0.89362 0.726102,-1.62075 1.619025,-1.62075 0.11076,0 0.201301,-0.0892 0.201301,-0.20095 z m -1.990578,-16.26384 c 0.91394,0 1.654845,-0.74142 1.654845,-1.65607 0,-0.91465 -0.740905,-1.65607 -1.654845,-1.65607 -0.913918,0 -1.654802,0.74142 -1.654802,1.65607 0,0.91465 0.740884,1.65607 1.654802,1.65607 z m 4.226715,-4.33061 c 0,-2.33612 -1.892376,-4.2299 -4.226715,-4.2299 -2.334317,0 -4.226683,1.89378 -4.226683,4.2299 0,0.35121 0.04355,0.69218 0.124172,1.01847 0.45562,-1.84398 2.119162,-3.21137 4.102511,-3.21137 1.983372,0 3.646912,1.36739 4.102555,3.21137 0.08062,-0.32629 0.12416,-0.66726 0.12416,-1.01847 z m 1.819551,-2.7674 c 0.410804,-0.86774 0.64143,-1.83759 0.64143,-2.86159 0,-3.69626 -2.994175,-6.69269 -6.687696,-6.69269 -3.693488,0 -6.687663,2.99643 -6.687663,6.69269 0,1.024 0.230605,1.99385 0.641408,2.86159 1.072032,-2.26451 3.375989,-3.83113 6.046255,-3.83113 2.670288,0 4.974224,1.56662 6.046266,3.83113 z m 0.407006,7.12949 c -0.341236,0 -0.341797,0.5307 0,0.5307 0.341236,0 0.341797,-0.5307 0,-0.5307 z m 1.589333,-22.11793 c -0.132359,-0.22682 -0.423642,-0.30335 -0.650708,-0.17051 h 3.88e-4 c -0.151392,0.0888 -0.235805,0.24787 -0.235805,0.41125 0,0.0817 0.02104,0.1642 0.06541,0.23995 0.132359,0.22687 0.423621,0.30302 0.65032,0.17051 0.226656,-0.13285 0.303129,-0.42433 0.170402,-0.6512 z m 2.282228,-1.75605 c -0.172797,-0.19754 -0.473185,-0.21775 -0.670905,-0.0448 -0.107395,0.0944 -0.162505,0.22604 -0.162505,0.35851 0,0.11147 0.03884,0.22285 0.117687,0.31328 0.173186,0.19755 0.473574,0.21776 0.671337,0.0448 0.197353,-0.17332 0.217551,-0.47395 0.04439,-0.6718 z m 0.639337,-11.13329 -3.076538,-0.23706 -3.076538,-0.23711 v 0.47417 0.47417 l 3.076538,-0.23711 z m 0.419932,-9.36917 c 0,0.10353 0.03368,0.20822 0.103057,0.29546 0.163281,0.20583 0.462461,0.24039 0.668122,0.077 0.205682,-0.16338 0.240164,-0.46281 0.0769,-0.66865 -0.163281,-0.20579 -0.462483,-0.2403 -0.668187,-0.0769 -0.118463,0.0939 -0.179896,0.23275 -0.179896,0.37315 z m 0.85201,18.34817 c -0.206847,-0.16183 -0.505661,-0.12494 -0.667323,0.0825 -0.06778,0.0868 -0.100684,0.18999 -0.100684,0.2923 0,0.14153 0.06301,0.28155 0.183112,0.37557 0.207279,0.1614 0.506071,0.12495 0.667755,-0.0825 0.161275,-0.2074 0.12442,-0.50639 -0.08286,-0.66783 z m 0.769647,-15.71362 c 0.121614,0.23284 0.408949,0.32323 0.641949,0.20152 0.232611,-0.12179 0.32298,-0.40891 0.201323,-0.64213 -0.121657,-0.23278 -0.408948,-0.32318 -0.641559,-0.20147 -0.162915,0.0849 -0.255615,0.25066 -0.255615,0.42199 0,0.0745 0.01739,0.14991 0.0539,0.22009 z m 0.907855,13.87659 c 0.119694,-0.23395 0.02697,-0.52068 -0.207235,-0.64005 -0.233842,-0.11981 -0.520313,-0.0269 -0.63964,0.20739 -0.03526,0.0694 -0.05229,0.14317 -0.05229,0.21577 0,0.17331 0.09509,0.34028 0.259563,0.42433 0.23382,0.11976 0.520334,0.0266 0.639596,-0.20744 z m 0.257146,30.78761 c -0.588779,0 -0.589729,0.91573 0,0.91573 0.588801,0 0.589772,-0.91573 0,-0.91573 z m 1.122319,-7.03287 c 0.0072,10e-4 0.0129,0.007 0.01437,0.0144 l 0.120707,0.60533 c 0.01235,0.0619 0.100814,0.0619 0.113178,0 l 0.120729,-0.60533 c 0.0014,-0.007 0.0071,-0.0129 0.01437,-0.0144 l 0.604833,-0.1208 c 0.06189,-0.0124 0.06189,-0.10089 0,-0.11324 l -0.604833,-0.12084 c -0.0073,-10e-4 -0.01295,-0.007 -0.01437,-0.0144 l -0.120729,-0.60533 c -0.01237,-0.0619 -0.100834,-0.0619 -0.113178,0 l -0.120707,0.60533 c -0.0015,0.007 -0.0071,0.0129 -0.01437,0.0144 l -0.604877,0.12084 c -0.06186,0.0124 -0.06186,0.10088 0,0.11324 z m 5.55653,23.10509 c 0,-0.0301 -0.0074,-0.0598 -0.02153,-0.0875 -0.02339,-0.0456 -0.06279,-0.0789 -0.111428,-0.0942 l -5.174598,-1.63625 c -0.03077,-0.01 -0.06279,-0.0116 -0.09417,-0.005 -0.06834,0.0136 -0.123751,0.0629 -0.14466,0.12879 -0.01541,0.0486 -0.01046,0.10042 0.0129,0.14537 0.02339,0.045 0.06279,0.0783 0.111429,0.0936 l 5.174598,1.63685 c 0.01907,0.005 0.03815,0.009 0.05787,0.009 0.02954,0 0.05971,-0.007 0.08679,-0.021 0.04555,-0.024 0.0788,-0.0634 0.09417,-0.11212 0.0055,-0.019 0.0086,-0.0382 0.0086,-0.0572 z m 0.331181,-1.3658 -3.277971,-1.32757 c -0.03448,-0.0141 -0.07203,-0.0179 -0.108343,-0.0104 -0.06342,0.0129 -0.115723,0.0561 -0.139739,0.11579 -0.03938,0.0967 0.008,0.20825 0.105257,0.24765 l 3.277992,1.32761 c 0.09663,0.0388 0.208055,-0.008 0.247457,-0.10538 0.0394,-0.0973 -0.008,-0.20817 -0.104653,-0.24764 z m 0.566338,-1.25549 -4.823091,-2.48943 c -0.03878,-0.0203 -0.08187,-0.0259 -0.124333,-0.0179 -0.05727,0.0116 -0.105257,0.048 -0.131755,0.0998 -0.04801,0.093 -0.01169,0.20825 0.08189,0.25628 l 4.822465,2.48943 c 0.02771,0.0142 0.05787,0.0209 0.08681,0.0209 0.06894,0 0.13605,-0.0376 0.169884,-0.10287 0.04803,-0.093 0.01109,-0.20822 -0.08187,-0.25628 z m 0.813796,-1.07562 c -0.0098,-0.0499 -0.03878,-0.0924 -0.08124,-0.12075 l -6.076432,-4.03015 c -0.04246,-0.0283 -0.09296,-0.0382 -0.142178,-0.0283 -0.0505,0.01 -0.09358,0.0388 -0.12129,0.0819 -0.02833,0.0419 -0.03818,0.093 -0.02833,0.14291 0.01049,0.0499 0.03942,0.0924 0.08189,0.12076 l 6.07641,4.03019 c 0.03139,0.0209 0.06771,0.032 0.104654,0.032 0.0123,0 0.02525,-10e-4 0.03818,-0.004 0.04985,-0.01 0.09296,-0.0388 0.120643,-0.0813 0.02833,-0.0419 0.03818,-0.093 0.02771,-0.14291 z m 0.824283,-1.08239 c -0.0043,-0.0512 -0.02831,-0.0967 -0.06711,-0.12935 l -4.16196,-3.48498 c -0.04432,-0.0376 -0.102797,-0.0523 -0.15944,-0.0406 -0.04309,0.008 -0.08064,0.0308 -0.108322,0.0641 -0.03265,0.0394 -0.04803,0.0887 -0.04372,0.13924 0.0043,0.0505 0.02831,0.0967 0.06711,0.12874 l 4.161938,3.48559 c 0.03571,0.0296 0.0788,0.0443 0.121894,0.0443 0.05478,0 0.108345,-0.0234 0.14589,-0.0684 0.03262,-0.0388 0.04864,-0.0881 0.04371,-0.13863 z m 0.916594,-1.1489 -2.493111,-2.50978 c -0.04495,-0.0456 -0.109573,-0.0653 -0.172366,-0.053 -0.03692,0.007 -0.07017,0.0253 -0.09665,0.0518 -0.07449,0.0739 -0.07449,0.19469 -6.25e-4,0.26924 l 2.492505,2.51038 c 0.03755,0.037 0.08618,0.0554 0.135425,0.0554 0.04803,0 0.09667,-0.0179 0.134215,-0.0548 0.07384,-0.0739 0.07447,-0.19465 6.05e-4,-0.26919 z m 0.984306,-0.73926 c 0.0043,-0.0512 -0.01107,-0.10042 -0.04432,-0.13924 l -3.495261,-4.15397 c -0.04495,-0.053 -0.115141,-0.0777 -0.182831,-0.0641 -0.03202,0.006 -0.06034,0.0203 -0.08495,0.0413 -0.0394,0.0326 -0.06279,0.0789 -0.06711,0.12935 -0.0043,0.0505 0.01109,0.0998 0.04372,0.13859 l 3.495887,4.15401 c 0.03755,0.0443 0.0911,0.0678 0.145285,0.0678 0.04369,0 0.08679,-0.0148 0.12252,-0.0449 0.03876,-0.0326 0.0628,-0.0783 0.06706,-0.12874 z m 1.120981,-0.81873 c 0.0099,-0.0499 -6.04e-4,-0.10041 -0.02892,-0.14291 l -4.061018,-6.05884 c -0.04246,-0.0641 -0.119413,-0.0954 -0.19513,-0.0807 -0.02464,0.005 -0.04741,0.0148 -0.06834,0.029 -0.04249,0.0283 -0.0714,0.0715 -0.08064,0.12136 -0.0098,0.0499 0,0.10041 0.02831,0.14295 l 4.060996,6.05876 c 0.02833,0.0419 0.07142,0.0709 0.121269,0.0807 0.01232,0.003 0.02464,0.004 0.03694,0.004 0.03755,0 0.07386,-0.0111 0.105862,-0.0326 0.04188,-0.0283 0.07082,-0.0715 0.08066,-0.12135 z m 1.164073,-0.82737 -2.502971,-4.81872 c -0.03878,-0.0751 -0.123103,-0.11579 -0.205597,-0.0992 -0.01724,0.003 -0.03446,0.009 -0.05047,0.0179 -0.09296,0.0487 -0.1299,0.16386 -0.08126,0.25689 l 2.502972,4.81873 c 0.04799,0.0924 0.16313,0.1287 0.256066,0.0807 0.09358,-0.048 0.129901,-0.16325 0.08126,-0.25628 z m 1.164677,-0.50944 -1.37953,-3.25829 c -0.03509,-0.0825 -0.124333,-0.12995 -0.212372,-0.11211 -0.0123,0.003 -0.02523,0.006 -0.03755,0.0111 -0.09602,0.0413 -0.141574,0.15276 -0.100338,0.2495 l 1.379531,3.25889 c 0.04124,0.0961 0.152664,0.14105 0.249916,0.10101 0.09602,-0.0413 0.141574,-0.15341 0.100339,-0.2501 z m 1.327203,-0.49348 -1.651608,-5.17291 c -0.02893,-0.0924 -0.12252,-0.14788 -0.217938,-0.12875 -0.0067,10e-4 -0.01416,0.003 -0.02088,0.005 -0.04864,0.0154 -0.08804,0.0487 -0.11143,0.0936 -0.02279,0.0456 -0.0271,0.0967 -0.0117,0.14537 l 1.650982,5.17357 c 0.01539,0.0481 0.04924,0.0881 0.09417,0.1109 0.02771,0.0142 0.05727,0.0215 0.08681,0.0215 0.0197,0 0.03941,-0.003 0.0585,-0.009 0.04799,-0.0155 0.08739,-0.0487 0.110782,-0.0943 0.02339,-0.0449 0.02771,-0.0967 0.01232,-0.14538 z m -0.362577,-92.68986 -1.650982,5.17352 c -0.01541,0.0487 -0.01109,0.0998 0.0117,0.14542 0.02339,0.0449 0.0628,0.0782 0.11143,0.0936 0.0067,0.003 0.01416,0.004 0.02088,0.005 0.09542,0.0191 0.189002,-0.0363 0.217938,-0.12874 l 1.651608,-5.17292 c 0.01539,-0.0487 0.01107,-0.10045 -0.01232,-0.14537 -0.02339,-0.0456 -0.0628,-0.0789 -0.110782,-0.0943 -0.0191,-0.006 -0.0388,-0.009 -0.0585,-0.009 -0.02954,0 -0.0591,0.007 -0.08681,0.0215 -0.04492,0.0228 -0.07878,0.0628 -0.09417,0.11091 z m -1.314882,-0.52612 -1.37953,3.25888 c -0.04124,0.0967 0.0043,0.20821 0.100339,0.2495 0.01232,0.005 0.02525,0.009 0.03755,0.0111 0.08804,0.0179 0.177286,-0.0296 0.212371,-0.11212 l 1.37953,-3.25828 c 0.04124,-0.0967 -0.0043,-0.20882 -0.100338,-0.25011 -0.09725,-0.04 -0.208681,0.005 -0.249917,0.10102 z m -1.151751,-0.53597 -2.502972,4.81872 c -0.04864,0.093 -0.0117,0.20822 0.08126,0.25689 0.01601,0.009 0.03323,0.0148 0.05047,0.0179 0.08249,0.0166 0.166821,-0.024 0.205597,-0.0992 l 2.502971,-4.81872 c 0.04864,-0.093 0.01232,-0.20826 -0.08126,-0.25628 -0.09294,-0.0481 -0.208077,-0.0117 -0.256067,0.0807 z m -1.171474,-0.72134 -4.060996,6.05876 c -0.02831,0.0425 -0.03815,0.093 -0.02831,0.14296 0.0092,0.0499 0.03815,0.093 0.08064,0.12135 0.02093,0.0142 0.04369,0.024 0.06834,0.0289 0.07572,0.0148 0.152664,-0.0166 0.19513,-0.0807 l 4.061017,-6.05883 c 0.02831,-0.0425 0.03878,-0.093 0.02892,-0.14292 -0.0098,-0.0499 -0.03878,-0.093 -0.08066,-0.12136 -0.032,-0.0215 -0.06832,-0.0326 -0.105863,-0.0326 -0.0123,0 -0.02462,0.001 -0.03694,0.003 -0.04985,0.01 -0.09294,0.0388 -0.121268,0.0808 z M 34.999998,216.6014 c 0.198065,-0.40977 0.530778,-0.74409 0.941171,-0.94233 -0.410393,-0.19915 -0.743106,-0.53208 -0.941171,-0.94281 -0.198993,0.41073 -0.532159,0.74366 -0.942552,0.94281 0.410393,0.19824 0.743559,0.53256 0.942552,0.94233 z m 0,103.79724 c -0.198993,0.40977 -0.532159,0.74414 -0.942552,0.94238 0.410393,0.19914 0.743559,0.53208 0.942552,0.94281 0.198065,-0.41073 0.530778,-0.74367 0.941171,-0.94281 -0.410393,-0.19824 -0.743106,-0.53261 -0.941171,-0.94238 z M 4.48548,323.67372 c -0.17854,0.36974 -0.47903,0.67046 -0.84848,0.84913 0.36945,0.18044 0.66994,0.48116 0.84848,0.8509 0.17854,-0.36974 0.48082,-0.67046 0.84848,-0.8509 -0.36766,-0.17867 -0.66994,-0.47939 -0.84848,-0.84913 z M 65.51452,213.32671 c 0.178538,-0.37151 0.479034,-0.67046 0.848494,-0.84913 -0.36946,-0.18044 -0.669956,-0.48117 -0.848494,-0.8509 -0.178537,0.36973 -0.480803,0.67046 -0.848493,0.8509 0.36769,0.17867 0.669956,0.47762 0.848493,0.84913 z M 70,212.85924 V 324.14076 C 70,326.82441 67.826095,329 65.144413,329 H 4.85559 C 2.17392,329 0,326.82441 0,324.14076 V 212.85924 C 0,210.17554 2.17392,208 4.85559,208 H 65.144413 C 67.826095,208 70,210.17554 70,212.85924 Z m -6.127659,-0.56388 c -0.09898,0 -0.180306,0.0814 -0.180306,0.18222 0,0.099 0.08133,0.18044 0.180306,0.18044 0.806072,0 1.460103,0.65453 1.460103,1.4612 0,0.0991 0.08131,0.18044 0.182076,0.18044 0.10077,0 0.180307,-0.0814 0.180307,-0.18044 0,-0.80667 0.655801,-1.4612 1.460103,-1.4612 0.100769,0 0.182077,-0.0814 0.182077,-0.18044 0,-0.10085 -0.08131,-0.18222 -0.182077,-0.18222 -0.804302,0 -1.460103,-0.65629 -1.460103,-1.4612 0,-0.10084 -0.07954,-0.18044 -0.180307,-0.18044 -0.10077,0 -0.182076,0.0796 -0.182076,0.18044 0,0.80491 -0.654031,1.4612 -1.460103,1.4612 z M 2.66301,212.47758 c 0,0.099 0.0813,0.18044 0.18207,0.18044 0.80429,0 1.46011,0.65453 1.46011,1.4612 0,0.0991 0.0795,0.18044 0.18029,0.18044 0.10076,0 0.18208,-0.0814 0.18208,-0.18044 0,-0.80667 0.65404,-1.4612 1.4601,-1.4612 0.099,0 0.1803,-0.0814 0.1803,-0.18044 0,-0.10085 -0.0813,-0.18222 -0.1803,-0.18222 -0.80606,0 -1.4601,-0.65629 -1.4601,-1.4612 0,-0.10084 -0.0813,-0.18044 -0.18208,-0.18044 -0.10076,0 -0.18029,0.0796 -0.18029,0.18044 0,0.80491 -0.65582,1.4612 -1.46011,1.4612 -0.10075,0 -0.18207,0.0814 -0.18207,0.18222 z m -0.67336,1.29795 c 0.23924,1.58981 1.61047,2.81015 3.26723,2.81015 1.82403,0 3.30329,-1.48167 3.30329,-3.30704 0,-1.65801 -1.21817,-3.03024 -2.80675,-3.26968 0.9686,0.45055 1.64134,1.43274 1.64134,2.57327 0,1.56533 -1.26961,2.83589 -2.83377,2.83589 -1.13969,0 -2.12114,-0.67327 -2.57134,-1.64259 z m 4.13801,110.92953 c 0.099,0 0.1803,-0.0814 0.1803,-0.18221 0,-0.099 -0.0813,-0.1804 -0.1803,-0.1804 -0.80606,0 -1.4601,-0.65633 -1.4601,-1.46124 0,-0.1008 -0.0813,-0.18217 -0.18208,-0.18217 -0.10076,0 -0.18029,0.0814 -0.18029,0.18217 0,0.80491 -0.65582,1.46124 -1.46011,1.46124 -0.10075,0 -0.18207,0.0814 -0.18207,0.1804 0,0.10084 0.0813,0.18221 0.18207,0.18221 0.80429,0 1.46011,0.6563 1.46011,1.4612 0,0.0991 0.0795,0.18045 0.18029,0.18045 0.10076,0 0.18208,-0.0796 0.18208,-0.18045 0,-0.8049 0.65404,-1.4612 1.4601,-1.4612 z m 2.43251,-0.98375 c 0,-1.82532 -1.47926,-3.30699 -3.30329,-3.30699 -1.65676,0 -3.02799,1.22034 -3.26723,2.81015 0.4502,-0.96932 1.43165,-1.64259 2.57134,-1.64259 1.56416,0 2.83377,1.27056 2.83377,2.83589 0,1.14053 -0.67274,2.12272 -1.64134,2.57327 1.58858,-0.23944 2.80675,-1.61167 2.80675,-3.26973 z m 58.368489,-6.1241 h 0.176772 v -98.25588 h -0.176772 c -4.603035,0 -8.345192,-3.74501 -8.345192,-8.34974 v -0.1769 H 11.41655 v 0.1769 c 0,4.60473 -3.74217,8.34974 -8.34521,8.34974 H 2.89458 v 98.25588 h 0.17676 c 4.60304,0 8.34521,3.74674 8.34521,8.35147 v 0.1769 h 47.166917 v -0.1769 c 0,-4.60473 3.742157,-8.35147 8.345192,-8.35147 z m 0.408348,6.92564 c 0,-0.099 -0.08131,-0.1804 -0.182077,-0.1804 -0.804302,0 -1.460103,-0.65633 -1.460103,-1.46124 0,-0.1008 -0.07954,-0.18217 -0.180307,-0.18217 -0.10077,0 -0.182076,0.0814 -0.182076,0.18217 0,0.80491 -0.654031,1.46124 -1.460103,1.46124 -0.09898,0 -0.180306,0.0814 -0.180306,0.1804 0,0.10084 0.08133,0.18221 0.180306,0.18221 0.806072,0 1.460103,0.6563 1.460103,1.4612 0,0.10085 0.08131,0.18045 0.182076,0.18045 0.10077,0 0.180307,-0.0814 0.180307,-0.18045 0,-0.8049 0.655801,-1.4612 1.460103,-1.4612 0.100769,0 0.182077,-0.0814 0.182077,-0.18221 z m 0.673343,-1.29838 c -0.239239,-1.58981 -1.610481,-2.81015 -3.267246,-2.81015 -1.823996,0 -3.30326,1.48167 -3.30326,3.30699 0,1.65806 1.218169,3.03029 2.806748,3.26973 -0.968597,-0.45055 -1.641358,-1.43274 -1.641358,-2.57327 0,-1.56533 1.269611,-2.83589 2.833763,-2.83589 1.139711,0 2.121148,0.67327 2.571353,1.64259 z m 0,-109.44894 c -0.450205,0.96932 -1.431642,1.64259 -2.571353,1.64259 -1.564152,0 -2.833763,-1.27056 -2.833763,-2.83589 0,-1.14053 0.672761,-2.12272 1.641358,-2.57327 -1.588579,0.23944 -2.806748,1.61167 -2.806748,3.26968 0,1.82537 1.479264,3.30704 3.30326,3.30704 1.656765,0 3.028007,-1.22034 3.267246,-2.81015 z M 4.48548,213.32671 c 0.17854,-0.37151 0.48082,-0.67046 0.84848,-0.84913 -0.36766,-0.18044 -0.66994,-0.48117 -0.84848,-0.8509 -0.17854,0.36973 -0.47903,0.67046 -0.84848,0.8509 0.36945,0.17867 0.66994,0.47762 0.84848,0.84913 z"
       id="path250"
       style="stroke-width:0.176834" />
  </g>
  <style
     type="text/css"
     id="style62">
	.st0{fill:#FFFFFF;}
</style>
</svg>
