<?xml version="1.0" encoding="UTF-8" standalone="no"?>
<svg
   xmlns:dc="http://purl.org/dc/elements/1.1/"
   xmlns:cc="http://creativecommons.org/ns#"
   xmlns:rdf="http://www.w3.org/1999/02/22-rdf-syntax-ns#"
   xmlns:svg="http://www.w3.org/2000/svg"
   xmlns="http://www.w3.org/2000/svg"
   xmlns:sodipodi="http://sodipodi.sourceforge.net/DTD/sodipodi-0.dtd"
   xmlns:inkscape="http://www.inkscape.org/namespaces/inkscape"
   version="1.1"
   id="Layer_1"
   x="0px"
   y="0px"
   viewBox="0 0 2560 1600"
   enable-background="new 0 0 2560 1600"
   xml:space="preserve"
   sodipodi:docname="wrapingpaperdesign02.svg"
   inkscape:version="0.92.1 r15371"><metadata
   id="metadata9148"><rdf:RDF><cc:Work
       rdf:about=""><dc:format>image/svg+xml</dc:format><dc:type
         rdf:resource="http://purl.org/dc/dcmitype/StillImage" /></cc:Work></rdf:RDF></metadata><defs
   id="defs9146" /><sodipodi:namedview
   pagecolor="#ffffff"
   bordercolor="#666666"
   borderopacity="1"
   objecttolerance="10"
   gridtolerance="10"
   guidetolerance="10"
   inkscape:pageopacity="0"
   inkscape:pageshadow="2"
   inkscape:window-width="1366"
   inkscape:window-height="706"
   id="namedview9144"
   showgrid="false"
   inkscape:zoom="0.13007812"
   inkscape:cx="1280"
   inkscape:cy="800"
   inkscape:window-x="-8"
   inkscape:window-y="-8"
   inkscape:window-maximized="1"
   inkscape:current-layer="Layer_1" />
<pattern
   width="424.606"
   height="250"
   patternUnits="userSpaceOnUse"
   id="New_Pattern"
   viewBox="66.564 -282.726 424.606 250"
   overflow="visible">
	<g
   id="g9138">
		<rect
   x="66.564"
   y="-282.726"
   fill="none"
   width="424.606"
   height="250"
   id="rect9088" />
		<g
   id="g9096">
			<path
   d="M424.606-157.726c31.987,36.833,53.397,68.038,66.564,92.274c13.167-24.236,34.577-55.441,66.564-92.274H424.606z"
   id="path9090" />
			<path
   d="M349.635-37.58c47.892-9.286,85.621-12.224,113.194-11.509c-14.405-23.521-30.725-57.665-46.629-103.783L349.635-37.58z"
   id="path9092" />
			<path
   d="M513.504-39.716c1.959-2.912,3.964-6.037,6.007-9.373c-3.911,0.101-7.619,0.275-11.121,0.516     c-0.17-8.484-4.675-11.085-12.107-6.99c-1.542-3.153-3.246-6.452-5.113-9.889c-1.868,3.437-3.571,6.736-5.113,9.889     c-7.432-4.095-11.938-1.493-12.107,6.99c-3.502-0.241-7.21-0.415-11.121-0.516c2.043,3.336,4.048,6.46,6.007,9.373     c-7.262,4.389-7.262,9.591,0,13.98c-1.959,2.912-3.964,6.037-6.007,9.373c3.911-0.101,7.619-0.275,11.121-0.516     c0.17,8.484,4.675,11.085,12.107,6.99c1.542,3.153,3.246,6.452,5.113,9.889c1.868-3.437,3.571-6.736,5.113-9.889     c7.432,4.095,11.938,1.493,12.107-6.99c3.502,0.241,7.21,0.415,11.121,0.516c-2.043-3.336-4.048-6.46-6.007-9.373     C520.766-30.125,520.766-35.327,513.504-39.716z"
   id="path9094" />
		</g>
		<g
   id="g9104">
			<path
   d="M0-157.726c31.987,36.833,53.397,68.038,66.564,92.274c13.167-24.236,34.577-55.441,66.564-92.274H0z"
   id="path9098" />
			<path
   d="M88.899-39.716c1.959-2.912,3.964-6.037,6.007-9.373c-3.911,0.101-7.619,0.275-11.121,0.516     c-0.17-8.484-4.675-11.085-12.107-6.99c-1.542-3.153-3.246-6.452-5.113-9.889c-1.868,3.437-3.571,6.736-5.113,9.889     c-7.432-4.095-11.937-1.493-12.107,6.99c-3.502-0.241-7.21-0.415-11.121-0.516c2.043,3.336,4.048,6.46,6.007,9.373     c-7.262,4.389-7.262,9.591,0,13.98c-1.959,2.912-3.964,6.037-6.007,9.373c3.911-0.101,7.619-0.275,11.121-0.516     c0.17,8.484,4.675,11.085,12.107,6.99C62.993-6.736,64.697-3.437,66.564,0c1.868-3.437,3.571-6.736,5.113-9.889     c7.432,4.095,11.937,1.493,12.107-6.99c3.502,0.241,7.21,0.415,11.121,0.516c-2.043-3.336-4.048-6.46-6.007-9.373     C96.161-30.125,96.161-35.327,88.899-39.716z"
   id="path9100" />
			<path
   d="M208.1-37.58l-66.564-115.293c-15.904,46.118-32.225,80.262-46.629,103.783C122.478-49.804,160.208-46.865,208.1-37.58z"
   id="path9102" />
		</g>
		<g
   id="g9112">
			<path
   d="M349.635-277.872l66.564,115.293c15.904-46.118,32.224-80.262,46.629-103.783     C435.256-265.648,397.526-268.587,349.635-277.872z"
   id="path9106" />
			<path
   d="M557.734-157.726c-31.987-36.833-53.397-68.038-66.564-92.274c-13.167,24.236-34.577,55.441-66.564,92.274H557.734z"
   id="path9108" />
			<path
   d="M513.504-289.716c1.959-2.912,3.964-6.037,6.007-9.373c-3.911,0.101-7.619,0.275-11.121,0.516     c-0.17-8.484-4.675-11.085-12.107-6.99c-1.542-3.153-3.246-6.452-5.113-9.889c-1.868,3.437-3.571,6.736-5.113,9.889     c-7.432-4.095-11.938-1.493-12.107,6.99c-3.502-0.241-7.21-0.415-11.121-0.516c2.043,3.336,4.048,6.46,6.007,9.373     c-7.262,4.389-7.262,9.591,0,13.98c-1.959,2.912-3.964,6.037-6.007,9.373c3.911-0.101,7.619-0.275,11.121-0.516     c0.17,8.484,4.675,11.085,12.107,6.99c1.542,3.153,3.246,6.452,5.113,9.889c1.868-3.437,3.571-6.736,5.113-9.889     c7.432,4.095,11.938,1.493,12.107-6.99c3.502,0.241,7.21,0.415,11.121,0.516c-2.043-3.336-4.048-6.46-6.007-9.373     C520.766-280.125,520.766-285.327,513.504-289.716z"
   id="path9110" />
		</g>
		<g
   id="g9128">
			<path
   d="M137.332-152.872L203.896-37.58c15.904-46.118,32.224-80.262,46.629-103.783     C222.953-140.649,185.224-143.587,137.332-152.872z"
   id="path9114" />
			<path
   d="M345.431-32.726c-31.987-36.833-53.397-68.038-66.564-92.274c-13.167,24.236-34.577,55.441-66.564,92.274H345.431z"
   id="path9116" />
			<path
   d="M212.303-282.726c31.987,36.833,53.397,68.038,66.564,92.274c13.167-24.236,34.577-55.441,66.564-92.274H212.303z"
   id="path9118" />
			<path
   d="M137.332-162.58c47.892-9.286,85.621-12.224,113.194-11.509c-14.405-23.521-30.725-57.665-46.629-103.783L137.332-162.58     z"
   id="path9120" />
			<path
   d="M307.209-141.363c14.405,23.521,30.725,57.665,46.629,103.783l66.564-115.293     C372.511-143.587,334.781-140.649,307.209-141.363z"
   id="path9122" />
			<path
   d="M301.201-164.716c1.959-2.912,3.964-6.037,6.007-9.373c-3.911,0.101-7.619,0.275-11.121,0.516     c-0.17-8.484-4.675-11.085-12.107-6.99c-1.543-3.153-3.246-6.452-5.113-9.889c-1.868,3.437-3.571,6.736-5.113,9.889     c-7.432-4.095-11.937-1.493-12.107,6.99c-3.502-0.241-7.21-0.415-11.121-0.516c2.043,3.336,4.048,6.46,6.007,9.373     c-7.262,4.389-7.262,9.591,0,13.98c-1.959,2.912-3.964,6.037-6.007,9.373c3.911-0.101,7.619-0.275,11.121-0.516     c0.17,8.484,4.675,11.085,12.107,6.99c1.543,3.153,3.246,6.452,5.113,9.889c1.868-3.437,3.571-6.736,5.113-9.889     c7.432,4.095,11.937,1.493,12.107-6.99c3.502,0.241,7.21,0.415,11.121,0.516c-2.043-3.336-4.048-6.46-6.007-9.373     C308.464-155.125,308.464-160.327,301.201-164.716z"
   id="path9124" />
			<path
   d="M420.402-162.58l-66.564-115.293c-15.904,46.118-32.225,80.262-46.629,103.783     C334.781-174.804,372.511-171.865,420.402-162.58z"
   id="path9126" />
		</g>
		<g
   id="g9136">
			<path
   d="M133.128-157.726C101.141-194.559,79.732-225.764,66.564-250C53.397-225.764,31.987-194.559,0-157.726H133.128z"
   id="path9130" />
			<path
   d="M94.906-266.363c14.405,23.521,30.725,57.665,46.629,103.783L208.1-277.872     C160.208-268.587,122.478-265.648,94.906-266.363z"
   id="path9132" />
			<path
   d="M88.899-289.716c1.959-2.912,3.964-6.037,6.007-9.373c-3.911,0.101-7.619,0.275-11.121,0.516     c-0.17-8.484-4.675-11.085-12.107-6.99c-1.542-3.153-3.246-6.452-5.113-9.889c-1.868,3.437-3.571,6.736-5.113,9.889     c-7.432-4.095-11.937-1.493-12.107,6.99c-3.502-0.241-7.21-0.415-11.121-0.516c2.043,3.336,4.048,6.46,6.007,9.373     c-7.262,4.389-7.262,9.591,0,13.98c-1.959,2.912-3.964,6.037-6.007,9.373c3.911-0.101,7.619-0.275,11.121-0.516     c0.17,8.484,4.675,11.085,12.107,6.99c1.542,3.153,3.246,6.452,5.113,9.889c1.868-3.437,3.571-6.736,5.113-9.889     c7.432,4.095,11.937,1.493,12.107-6.99c3.502,0.241,7.21,0.415,11.121,0.516c-2.043-3.336-4.048-6.46-6.007-9.373     C96.161-280.125,96.161-285.327,88.899-289.716z"
   id="path9134" />
		</g>
	</g>
</pattern>
<rect
   style="opacity:1;fill:#de5050;fill-opacity:1;stroke:none;stroke-width:8;stroke-linecap:round;stroke-linejoin:round;stroke-miterlimit:4;stroke-dasharray:none;stroke-dashoffset:0;stroke-opacity:1;paint-order:stroke fill markers"
   id="rect9693"
   width="2775.2554"
   height="1752.7928"
   x="-92.252251"
   y="-60.540539" /><rect
   fill="url(#New_Pattern)"
   width="2560"
   height="1600"
   id="rect9141"
   style="opacity:0.568" />
</svg>