<?xml version="1.0" encoding="UTF-8" standalone="no"?>
<svg
   xmlns:dc="http://purl.org/dc/elements/1.1/"
   xmlns:cc="http://creativecommons.org/ns#"
   xmlns:rdf="http://www.w3.org/1999/02/22-rdf-syntax-ns#"
   xmlns:svg="http://www.w3.org/2000/svg"
   xmlns="http://www.w3.org/2000/svg"
   xmlns:sodipodi="http://sodipodi.sourceforge.net/DTD/sodipodi-0.dtd"
   xmlns:inkscape="http://www.inkscape.org/namespaces/inkscape"
   version="1.1"
   id="Layer_1"
   x="0px"
   y="0px"
   viewBox="0 0 2560 1600"
   enable-background="new 0 0 2560 1600"
   xml:space="preserve"
   inkscape:version="0.91 r13725"
   sodipodi:docname="wrappingpaper03.svg"><metadata
     id="metadata12191"><rdf:RDF><cc:Work
         rdf:about=""><dc:format>image/svg+xml</dc:format><dc:type
           rdf:resource="http://purl.org/dc/dcmitype/StillImage" /><dc:title></dc:title><dc:creator><cc:Agent><dc:title>j4p4n</dc:title></cc:Agent></dc:creator><cc:license
           rdf:resource="http://creativecommons.org/publicdomain/zero/1.0/" /></cc:Work><cc:License
         rdf:about="http://creativecommons.org/publicdomain/zero/1.0/"><cc:permits
           rdf:resource="http://creativecommons.org/ns#Reproduction" /><cc:permits
           rdf:resource="http://creativecommons.org/ns#Distribution" /><cc:permits
           rdf:resource="http://creativecommons.org/ns#DerivativeWorks" /></cc:License></rdf:RDF></metadata><defs
     id="defs12189" /><sodipodi:namedview
     pagecolor="#ffffff"
     bordercolor="#666666"
     borderopacity="1"
     objecttolerance="10"
     gridtolerance="10"
     guidetolerance="10"
     inkscape:pageopacity="0"
     inkscape:pageshadow="2"
     inkscape:window-width="1916"
     inkscape:window-height="1035"
     id="namedview12187"
     showgrid="false"
     inkscape:zoom="0.33345764"
     inkscape:cx="1280"
     inkscape:cy="800"
     inkscape:window-x="4"
     inkscape:window-y="1"
     inkscape:window-maximized="1"
     inkscape:current-layer="Layer_1" /><pattern
     width="259.399"
     height="345"
     patternUnits="userSpaceOnUse"
     id="New_Pattern"
     viewBox="79.859 -437.213 259.399 345"
     overflow="visible"><g
       id="g12049"><rect
         x="79.859"
         y="-437.213"
         fill="none"
         width="259.399"
         height="345"
         id="rect12051" /><g
         id="g12053"><polygon
           points="251.074,-143.127 246.034,-164.001 263.096,-147.768 263.633,-145.544 255.26,-140.71 255.26,-131.041      253.065,-130.394 230.476,-137.054    "
           id="polygon12055" /><polygon
           points="339.258,-194.04 354.816,-208.842 349.289,-185.949 347.632,-184.372 339.258,-189.206 330.885,-184.372      329.227,-185.949 323.7,-208.842    "
           id="polygon12057" /><polygon
           points="255.26,-80.334 249.564,-78.654 226.161,-85.554 248.749,-92.213 226.161,-98.873 249.564,-105.773      255.26,-104.093    "
           id="polygon12059" /><polygon
           points="286.971,-159.018 282.668,-163.112 276.942,-186.829 294.004,-170.597 288.477,-193.488 306.154,-176.671      307.547,-170.898    "
           id="polygon12061" /><polygon
           points="276.001,-80.334 281.698,-78.654 305.101,-85.554 282.513,-92.213 305.101,-98.873 281.698,-105.773      276.001,-104.093    "
           id="polygon12063" /><polygon
           points="297.342,-141.056 298.735,-135.283 316.412,-118.465 310.885,-141.357 327.947,-125.124 322.221,-148.842      317.918,-152.935    "
           id="polygon12065" /><polygon
           points="274.841,-129.405 274.112,-132.423 282.478,-137.253 272.622,-138.759 276.246,-148.047 267.88,-143.217      263.096,-147.768 252.451,-191.86 282.668,-163.112 286.599,-146.829 298.735,-135.283 304.254,-112.423 281.698,-105.773      265.631,-110.51 249.564,-105.773 209.559,-117.567 253.065,-130.394 259.399,-128.527 259.399,-118.867 265.631,-126.65      271.862,-118.867 271.862,-128.527    "
           id="polygon12067" /><polygon
           points="339.258,-166.596 341.508,-168.737 349.874,-163.907 346.249,-173.195 356.105,-174.7 347.74,-179.53      349.289,-185.949 382.151,-217.213 372.363,-176.671 360.227,-165.125 356.296,-148.842 339.258,-132.632 322.221,-148.842      318.29,-165.125 306.154,-176.671 296.365,-217.213 329.227,-185.949 330.777,-179.53 322.411,-174.7 332.267,-173.195      328.643,-163.907 337.008,-168.737    "
           id="polygon12069" /><path
           d="M404.404-132.423l1.525-6.315l4.707-4.478l8.481,4.897v9.793l-6.232,1.837l-6.232-1.837v-2.598L404.404-132.423z      M406.654-55.9l6.232-1.837l6.232,1.837v9.793l-8.481,4.897l-4.707-4.478l-1.525-6.315l2.25-1.299V-55.9z M341.508-15.69     l4.707,4.478l1.525,6.315L339.258,0l-8.481-4.897l1.525-6.315l4.707-4.478l2.25,1.299L341.508-15.69z M274.112-52.003     l-1.525,6.315l-4.707,4.478l-8.481-4.897V-55.9l6.232-1.837l6.232,1.837v2.598L274.112-52.003z M271.862-128.527l-6.232,1.837     l-6.232-1.837v-9.793l8.481-4.897l4.707,4.478l1.525,6.315l-2.25,1.299V-128.527z M337.008-168.737l-4.707-4.478l-1.525-6.315     l8.481-4.897l8.481,4.897l-1.525,6.315l-4.707,4.478l-2.25-1.299L337.008-168.737z M416.767-137.713l-2.006,1.908l2.656-0.783     l-0.86-0.254L416.767-137.713z M417.416-47.839l-2.656-0.783l2.006,1.908l-0.21-0.872L417.416-47.839z M339.908-2.339     l-0.65-2.691l-0.65,2.691l0.65-0.618L339.908-2.339z M261.75-46.714l2.006-1.908l-2.656,0.783l0.86,0.254L261.75-46.714z      M261.1-136.588l2.656,0.783l-2.006-1.908l0.21,0.872L261.1-136.588z M338.609-182.087l0.65,2.691l0.65-2.691l-0.65,0.618     L338.609-182.087z"
           id="path12071" /></g><g
         id="g12073"><polygon
           points="168.044,-143.127 188.641,-137.054 166.052,-130.394 163.857,-131.041 163.857,-140.71 155.484,-145.544      156.021,-147.768 173.083,-164.001    "
           id="polygon12075" /><polygon
           points="79.859,-194.04 95.417,-208.842 89.89,-185.949 88.232,-184.372 79.859,-189.206 71.486,-184.372      69.828,-185.949 64.301,-208.842    "
           id="polygon12077" /><polygon
           points="163.857,-104.093 169.554,-105.773 192.957,-98.873 170.368,-92.213 192.957,-85.554 169.554,-78.654      163.857,-80.334    "
           id="polygon12079" /><polygon
           points="111.57,-170.898 112.964,-176.671 130.641,-193.488 125.114,-170.597 142.175,-186.829 136.449,-163.112      132.146,-159.018    "
           id="polygon12081" /><polygon
           points="143.116,-104.093 137.42,-105.773 114.017,-98.873 136.605,-92.213 114.017,-85.554 137.42,-78.654      143.116,-80.334    "
           id="polygon12083" /><polygon
           points="101.199,-152.935 96.897,-148.842 91.171,-125.124 108.232,-141.357 102.705,-118.465 120.382,-135.283      121.776,-141.056    "
           id="polygon12085" /><polygon
           points="144.277,-129.405 147.255,-128.527 147.255,-118.867 153.487,-126.65 159.718,-118.867 159.718,-128.527      166.052,-130.394 209.559,-117.567 169.554,-105.773 153.487,-110.51 137.42,-105.773 114.863,-112.423 120.382,-135.283      132.518,-146.829 136.449,-163.112 166.666,-191.86 156.021,-147.768 151.237,-143.217 142.871,-148.047 146.495,-138.759      136.64,-137.253 145.005,-132.423    "
           id="polygon12087" /><polygon
           points="79.859,-166.596 82.109,-168.737 90.474,-163.907 86.85,-173.195 96.706,-174.7 88.34,-179.53 89.89,-185.949      122.752,-217.213 112.964,-176.671 100.828,-165.125 96.897,-148.842 79.859,-132.632 62.822,-148.842 58.89,-165.125      46.754,-176.671 36.966,-217.213 69.828,-185.949 71.378,-179.53 63.012,-174.7 72.868,-173.195 69.244,-163.907      77.609,-168.737    "
           id="polygon12089" /><path
           d="M145.005-132.423l1.525-6.315l4.707-4.478l8.481,4.897v9.793l-6.232,1.837l-6.232-1.837v-2.598L145.005-132.423z      M147.255-55.9l6.232-1.837l6.232,1.837v9.793l-8.481,4.897l-4.707-4.478l-1.525-6.315l2.25-1.299V-55.9z M82.109-15.69     l4.707,4.478l1.525,6.315L79.859,0l-8.481-4.897l1.525-6.315l4.707-4.478l2.25,1.299L82.109-15.69z M14.713-52.003l-1.525,6.315     L8.481-41.21L0-46.107V-55.9l6.232-1.837l6.232,1.837v2.598L14.713-52.003z M12.463-128.527l-6.232,1.837L0-128.527v-9.793     l8.481-4.897l4.707,4.478l1.525,6.315l-2.25,1.299V-128.527z M77.609-168.737l-4.707-4.478l-1.525-6.315l8.481-4.897l8.481,4.897     l-1.525,6.315l-4.707,4.478l-2.25-1.299L77.609-168.737z M157.367-137.713l-2.006,1.908l2.656-0.783l-0.86-0.254L157.367-137.713     z M158.017-47.839l-2.656-0.783l2.006,1.908l-0.21-0.872L158.017-47.839z M80.509-2.339l-0.65-2.691l-0.65,2.691l0.65-0.618     L80.509-2.339z M2.351-46.714l2.006-1.908l-2.656,0.783l0.86,0.254L2.351-46.714z M1.701-136.588l2.656,0.783l-2.006-1.908     l0.21,0.872L1.701-136.588z M79.209-182.087l0.65,2.691l0.65-2.691l-0.65,0.618L79.209-182.087z"
           id="path12091" /></g><g
         id="g12093"><polygon
           points="297.743,-315.627 318.341,-309.554 295.751,-302.894 293.557,-303.541 293.557,-313.21 285.183,-318.044      285.72,-320.268 302.783,-336.501    "
           id="polygon12095" /><polygon
           points="297.743,-213.8 302.783,-192.925 285.72,-209.159 285.183,-211.383 293.557,-216.217 293.557,-225.886      295.751,-226.533 318.341,-219.873    "
           id="polygon12097" /><polygon
           points="209.559,-162.887 194.001,-148.085 199.528,-170.978 201.185,-172.555 209.559,-167.721 217.932,-172.555      219.59,-170.978 225.117,-148.085    "
           id="polygon12099" /><polygon
           points="121.374,-213.8 100.776,-219.873 123.366,-226.533 125.561,-225.886 125.561,-216.217 133.934,-211.383      133.397,-209.159 116.334,-192.925    "
           id="polygon12101" /><polygon
           points="121.374,-315.627 116.334,-336.501 133.397,-320.268 133.934,-318.044 125.561,-313.21 125.561,-303.541      123.366,-302.894 100.776,-309.554    "
           id="polygon12103" /><polygon
           points="209.559,-366.54 225.117,-381.342 219.59,-358.449 217.932,-356.872 209.559,-361.706 201.185,-356.872      199.528,-358.449 194.001,-381.342    "
           id="polygon12105" /><polygon
           points="293.557,-276.593 299.253,-278.273 322.656,-271.373 300.068,-264.713 322.656,-258.054 299.253,-251.154      293.557,-252.834    "
           id="polygon12107" /><polygon
           points="261.846,-197.909 266.149,-193.815 271.875,-170.098 254.813,-186.33 260.34,-163.438 242.663,-180.256      241.269,-186.029    "
           id="polygon12109" /><polygon
           points="177.848,-186.029 176.454,-180.256 158.777,-163.438 164.304,-186.33 147.243,-170.098 152.969,-193.815      157.271,-197.909    "
           id="polygon12111" /><polygon
           points="125.561,-252.834 119.864,-251.154 96.461,-258.054 119.049,-264.713 96.461,-271.373 119.864,-278.273      125.561,-276.593    "
           id="polygon12113" /><polygon
           points="157.271,-331.518 152.969,-335.612 147.243,-359.329 164.304,-343.097 158.777,-365.988 176.454,-349.171      177.848,-343.398    "
           id="polygon12115" /><polygon
           points="241.269,-343.398 242.663,-349.171 260.34,-365.988 254.813,-343.097 271.875,-359.329 266.149,-335.612      261.846,-331.518    "
           id="polygon12117" /><polygon
           points="272.816,-276.593 267.119,-278.273 243.716,-271.373 266.304,-264.713 243.716,-258.054 267.119,-251.154      272.816,-252.834    "
           id="polygon12119" /><polygon
           points="251.475,-215.871 250.082,-221.644 232.405,-238.462 237.932,-215.57 220.87,-231.802 226.596,-208.085      230.899,-203.991    "
           id="polygon12121" /><polygon
           points="188.218,-203.991 192.521,-208.085 198.247,-231.802 181.186,-215.57 186.713,-238.462 169.036,-221.644      167.642,-215.871    "
           id="polygon12123" /><polygon
           points="146.302,-252.834 151.998,-251.154 175.401,-258.054 152.813,-264.713 175.401,-271.373 151.998,-278.273      146.302,-276.593    "
           id="polygon12125" /><polygon
           points="167.642,-313.556 169.036,-307.783 186.713,-290.965 181.186,-313.857 198.247,-297.624 192.521,-321.342      188.218,-325.435    "
           id="polygon12127" /><polygon
           points="230.899,-325.435 226.596,-321.342 220.87,-297.624 237.932,-313.857 232.405,-290.965 250.082,-307.783      251.475,-313.556    "
           id="polygon12129" /><polygon
           points="273.976,-301.905 276.955,-301.027 276.955,-291.367 283.186,-299.15 289.418,-291.367 289.418,-301.027      295.751,-302.894 339.258,-290.067 299.253,-278.273 283.186,-283.01 267.119,-278.273 244.563,-284.923 250.082,-307.783      262.217,-319.329 266.149,-335.612 296.365,-364.36 285.72,-320.268 280.936,-315.717 272.571,-320.547 276.195,-311.259      266.339,-309.753 274.705,-304.923    "
           id="polygon12131" /><polygon
           points="273.976,-227.522 274.705,-224.503 266.339,-219.673 276.195,-218.168 272.571,-208.88 280.936,-213.71      285.72,-209.159 296.365,-165.067 266.149,-193.815 262.217,-210.098 250.082,-221.644 244.563,-244.504 267.119,-251.154      283.186,-246.417 299.253,-251.154 339.258,-239.36 295.751,-226.533 289.418,-228.4 289.418,-238.06 283.186,-230.277      276.955,-238.06 276.955,-228.4    "
           id="polygon12133" /><polygon
           points="209.559,-190.33 207.309,-188.19 198.943,-193.02 202.567,-183.732 192.712,-182.227 201.077,-177.397      199.528,-170.978 166.666,-139.713 176.454,-180.256 188.59,-191.802 192.521,-208.085 209.559,-224.294 226.596,-208.085      230.527,-191.802 242.663,-180.256 252.451,-139.713 219.59,-170.978 218.04,-177.397 226.406,-182.227 216.55,-183.732      220.174,-193.02 211.808,-188.19    "
           id="polygon12135" /><polygon
           points="145.141,-227.522 142.163,-228.4 142.163,-238.06 135.931,-230.277 129.7,-238.06 129.7,-228.4      123.366,-226.533 79.859,-239.36 119.864,-251.154 135.931,-246.417 151.998,-251.154 174.555,-244.504 169.036,-221.644      156.9,-210.098 152.969,-193.815 122.752,-165.067 133.397,-209.159 138.181,-213.71 146.546,-208.88 142.922,-218.168      152.778,-219.673 144.412,-224.503    "
           id="polygon12137" /><polygon
           points="145.141,-301.905 144.412,-304.923 152.778,-309.753 142.922,-311.259 146.546,-320.547 138.181,-315.717      133.397,-320.268 122.752,-364.36 152.969,-335.612 156.9,-319.329 169.036,-307.783 174.555,-284.923 151.998,-278.273      135.931,-283.01 119.864,-278.273 79.859,-290.067 123.366,-302.894 129.7,-301.027 129.7,-291.367 135.931,-299.15      142.163,-291.367 142.163,-301.027    "
           id="polygon12139" /><polygon
           points="209.559,-339.096 211.808,-341.237 220.174,-336.407 216.55,-345.695 226.406,-347.2 218.04,-352.03      219.59,-358.449 252.451,-389.713 242.663,-349.171 230.527,-337.625 226.596,-321.342 209.559,-305.132 192.521,-321.342      188.59,-337.625 176.454,-349.171 166.666,-389.713 199.528,-358.449 201.077,-352.03 192.712,-347.2 202.567,-345.695      198.943,-336.407 207.309,-341.237    "
           id="polygon12141" /><path
           d="M274.705-304.923l1.525-6.315l4.707-4.478l8.481,4.897v9.793l-6.232,1.837l-6.232-1.837v-2.598L274.705-304.923z      M276.955-228.4l6.232-1.837l6.232,1.837v9.793l-8.481,4.897l-4.707-4.478l-1.525-6.315l2.25-1.299V-228.4z M211.808-188.19     l4.707,4.478l1.525,6.315l-8.481,4.897l-8.481-4.897l1.525-6.315l4.707-4.478l2.25,1.299L211.808-188.19z M144.412-224.503     l-1.525,6.315l-4.707,4.478l-8.481-4.897v-9.793l6.232-1.837l6.232,1.837v2.598L144.412-224.503z M142.163-301.027l-6.232,1.837     l-6.232-1.837v-9.793l8.481-4.897l4.707,4.478l1.525,6.315l-2.25,1.299V-301.027z M207.309-341.237l-4.707-4.478l-1.525-6.315     l8.481-4.897l8.481,4.897l-1.525,6.315l-4.707,4.478l-2.25-1.299L207.309-341.237z M287.067-310.213l-2.006,1.908l2.656-0.783     l-0.86-0.254L287.067-310.213z M287.717-220.339l-2.656-0.783l2.006,1.908l-0.21-0.872L287.717-220.339z M210.208-174.839     l-0.65-2.691l-0.65,2.691l0.65-0.618L210.208-174.839z M132.05-219.214l2.006-1.908l-2.656,0.783l0.86,0.254L132.05-219.214z      M131.401-309.088l2.656,0.783l-2.006-1.908l0.21,0.872L131.401-309.088z M208.909-354.587l0.65,2.691l0.65-2.691l-0.65,0.618     L208.909-354.587z"
           id="path12143" /></g><g
         id="g12145"><polygon
           points="339.258,-335.387 323.7,-320.585 329.227,-343.478 330.885,-345.055 339.258,-340.221 347.632,-345.055      349.289,-343.478 354.816,-320.585    "
           id="polygon12147" /><polygon
           points="251.074,-386.3 230.476,-392.373 253.065,-399.033 255.26,-398.386 255.26,-388.717 263.633,-383.883      263.096,-381.659 246.034,-365.425    "
           id="polygon12149" /><polygon
           points="307.547,-358.529 306.154,-352.756 288.477,-335.938 294.004,-358.83 276.942,-342.598 282.668,-366.315      286.971,-370.409    "
           id="polygon12151" /><polygon
           points="255.26,-425.334 249.564,-423.654 226.161,-430.554 248.749,-437.213 226.161,-443.873 249.564,-450.773      255.26,-449.093    "
           id="polygon12153" /><polygon
           points="317.918,-376.491 322.221,-380.585 327.947,-404.302 310.885,-388.07 316.412,-410.962 298.735,-394.144      297.342,-388.371    "
           id="polygon12155" /><polygon
           points="276.001,-425.334 281.698,-423.654 305.101,-430.554 282.513,-437.213 305.101,-443.873 281.698,-450.773      276.001,-449.093    "
           id="polygon12157" /><polygon
           points="339.258,-362.83 337.008,-360.69 328.643,-365.52 332.267,-356.232 322.411,-354.727 330.777,-349.897      329.227,-343.478 296.365,-312.213 306.154,-352.756 318.29,-364.302 322.221,-380.585 339.258,-396.794 356.296,-380.585      360.227,-364.302 372.363,-352.756 382.151,-312.213 349.289,-343.478 347.74,-349.897 356.105,-354.727 346.249,-356.232      349.874,-365.52 341.508,-360.69    "
           id="polygon12159" /><polygon
           points="274.841,-400.022 271.862,-400.9 271.862,-410.56 265.631,-402.777 259.399,-410.56 259.399,-400.9      253.065,-399.033 209.559,-411.86 249.564,-423.654 265.631,-418.917 281.698,-423.654 304.254,-417.004 298.735,-394.144      286.599,-382.598 282.668,-366.315 252.451,-337.567 263.096,-381.659 267.88,-386.21 276.246,-381.38 272.622,-390.668      282.478,-392.173 274.112,-397.003    "
           id="polygon12161" /><path
           d="M404.404-477.423l1.525-6.315l4.707-4.478l8.481,4.897v9.793l-6.232,1.837l-6.232-1.837v-2.598L404.404-477.423z      M406.654-400.9l6.232-1.837l6.232,1.837v9.793l-8.481,4.897l-4.707-4.478l-1.525-6.315l2.25-1.299V-400.9z M341.508-360.69     l4.707,4.478l1.525,6.315L339.258-345l-8.481-4.897l1.525-6.315l4.707-4.478l2.25,1.299L341.508-360.69z M274.112-397.003     l-1.525,6.315l-4.707,4.478l-8.481-4.897v-9.793l6.232-1.837l6.232,1.837v2.598L274.112-397.003z M271.862-473.527l-6.232,1.837     l-6.232-1.837v-9.793l8.481-4.897l4.707,4.478l1.525,6.315l-2.25,1.299V-473.527z M337.008-513.737l-4.707-4.478l-1.525-6.315     l8.481-4.897l8.481,4.897l-1.525,6.315l-4.707,4.478l-2.25-1.299L337.008-513.737z M416.767-482.713l-2.006,1.908l2.656-0.783     l-0.86-0.254L416.767-482.713z M417.416-392.839l-2.656-0.783l2.006,1.908l-0.21-0.872L417.416-392.839z M339.908-347.339     l-0.65-2.691l-0.65,2.691l0.65-0.618L339.908-347.339z M261.75-391.714l2.006-1.908l-2.656,0.783l0.86,0.254L261.75-391.714z      M261.1-481.588l2.656,0.783l-2.006-1.908l0.21,0.872L261.1-481.588z M338.609-527.087l0.65,2.691l0.65-2.691l-0.65,0.618     L338.609-527.087z"
           id="path12163" /></g><g
         id="g12165"><polygon
           points="168.044,-386.3 173.083,-365.425 156.021,-381.659 155.484,-383.883 163.857,-388.717 163.857,-398.386      166.052,-399.033 188.641,-392.373    "
           id="polygon12167" /><polygon
           points="79.859,-335.387 64.301,-320.585 69.828,-343.478 71.486,-345.055 79.859,-340.221 88.232,-345.055      89.89,-343.478 95.417,-320.585    "
           id="polygon12169" /><polygon
           points="163.857,-449.093 169.554,-450.773 192.957,-443.873 170.368,-437.213 192.957,-430.554 169.554,-423.654      163.857,-425.334    "
           id="polygon12171" /><polygon
           points="132.146,-370.409 136.449,-366.315 142.175,-342.598 125.114,-358.83 130.641,-335.938 112.964,-352.756      111.57,-358.529    "
           id="polygon12173" /><polygon
           points="143.116,-449.093 137.42,-450.773 114.017,-443.873 136.605,-437.213 114.017,-430.554 137.42,-423.654      143.116,-425.334    "
           id="polygon12175" /><polygon
           points="121.776,-388.371 120.382,-394.144 102.705,-410.962 108.232,-388.07 91.171,-404.302 96.897,-380.585      101.199,-376.491    "
           id="polygon12177" /><polygon
           points="144.277,-400.022 145.005,-397.003 136.64,-392.173 146.495,-390.668 142.871,-381.38 151.237,-386.21      156.021,-381.659 166.666,-337.567 136.449,-366.315 132.518,-382.598 120.382,-394.144 114.863,-417.004 137.42,-423.654      153.487,-418.917 169.554,-423.654 209.559,-411.86 166.052,-399.033 159.718,-400.9 159.718,-410.56 153.487,-402.777      147.255,-410.56 147.255,-400.9    "
           id="polygon12179" /><polygon
           points="79.859,-362.83 77.609,-360.69 69.244,-365.52 72.868,-356.232 63.012,-354.727 71.378,-349.897      69.828,-343.478 36.966,-312.213 46.754,-352.756 58.89,-364.302 62.822,-380.585 79.859,-396.794 96.897,-380.585      100.828,-364.302 112.964,-352.756 122.752,-312.213 89.89,-343.478 88.34,-349.897 96.706,-354.727 86.85,-356.232      90.474,-365.52 82.109,-360.69    "
           id="polygon12181" /><path
           d="M145.005-477.423l1.525-6.315l4.707-4.478l8.481,4.897v9.793l-6.232,1.837l-6.232-1.837v-2.598L145.005-477.423z      M147.255-400.9l6.232-1.837l6.232,1.837v9.793l-8.481,4.897l-4.707-4.478l-1.525-6.315l2.25-1.299V-400.9z M82.109-360.69     l4.707,4.478l1.525,6.315L79.859-345l-8.481-4.897l1.525-6.315l4.707-4.478l2.25,1.299L82.109-360.69z M14.713-397.003     l-1.525,6.315l-4.707,4.478L0-391.107v-9.793l6.232-1.837l6.232,1.837v2.598L14.713-397.003z M12.463-473.527l-6.232,1.837     L0-473.527v-9.793l8.481-4.897l4.707,4.478l1.525,6.315l-2.25,1.299V-473.527z M77.609-513.737l-4.707-4.478l-1.525-6.315     l8.481-4.897l8.481,4.897l-1.525,6.315l-4.707,4.478l-2.25-1.299L77.609-513.737z M157.367-482.713l-2.006,1.908l2.656-0.783     l-0.86-0.254L157.367-482.713z M158.017-392.839l-2.656-0.783l2.006,1.908l-0.21-0.872L158.017-392.839z M80.509-347.339     l-0.65-2.691l-0.65,2.691l0.65-0.618L80.509-347.339z M2.351-391.714l2.006-1.908l-2.656,0.783l0.86,0.254L2.351-391.714z      M1.701-481.588l2.656,0.783l-2.006-1.908l0.21,0.872L1.701-481.588z M79.209-527.087l0.65,2.691l0.65-2.691l-0.65,0.618     L79.209-527.087z"
           id="path12183" /></g></g></pattern><rect
     style="opacity:1;fill:#f5b88e;fill-opacity:1;fill-rule:evenodd;stroke:none;stroke-width:3;stroke-linecap:round;stroke-linejoin:round;stroke-miterlimit:4;stroke-dasharray:none;stroke-opacity:1"
     id="rect12733"
     width="2774.8904"
     height="1821.8978"
     x="-121.45985"
     y="-119.12408" /><rect
     width="2560"
     height="1600"
     id="rect12185"
     fill="url(#New_Pattern)"
     style="opacity:0.34" /></svg>