<?xml version="1.0" encoding="UTF-8" standalone="no"?>
<!-- Created with Inkscape (http://www.inkscape.org/) -->

<svg
   id="svg2"
   sodipodi:docname="cup.svg"
   inkscape:export-filename="C:\Dokumente und Einstellungen\spktkpkt\Desktop\wine.png"
   viewBox="0 0 132.58 385.92"
   sodipodi:version="0.32"
   inkscape:export-xdpi="90"
   version="1.0"
   inkscape:output_extension="org.inkscape.output.svg.inkscape"
   inkscape:export-ydpi="90"
   inkscape:version="1.1 (c68e22c387, 2021-05-23)"
   xmlns:inkscape="http://www.inkscape.org/namespaces/inkscape"
   xmlns:sodipodi="http://sodipodi.sourceforge.net/DTD/sodipodi-0.dtd"
   xmlns="http://www.w3.org/2000/svg"
   xmlns:svg="http://www.w3.org/2000/svg"
   xmlns:rdf="http://www.w3.org/1999/02/22-rdf-syntax-ns#"
   xmlns:cc="http://creativecommons.org/ns#"
   xmlns:dc="http://purl.org/dc/elements/1.1/">
  <defs
     id="defs8" />
  <sodipodi:namedview
     id="base"
     inkscape:showpageshadow="false"
     inkscape:zoom="0.6"
     height="1052.3622px"
     borderopacity="1.0"
     inkscape:current-layer="layer4"
     inkscape:cx="247.5"
     inkscape:cy="149.16667"
     borderlayer="true"
     inkscape:grid-points="true"
     inkscape:window-maximized="1"
     showgrid="false"
     width="744.09449px"
     units="mm"
     showguides="true"
     bordercolor="#666666"
     inkscape:window-x="607"
     inkscape:guide-bbox="true"
     inkscape:window-y="1341"
     inkscape:window-width="1440"
     inkscape:pageopacity="0.0"
     inkscape:pageshadow="2"
     pagecolor="#ffffff"
     gridtolerance="6.7"
     inkscape:document-units="mm"
     inkscape:window-height="821"
     inkscape:pagecheckerboard="0" />
  <g
     id="layer4"
     inkscape:label="wein"
     inkscape:groupmode="layer"
     transform="translate(146.34 -283.16)">
    <path
       id="path4873"
       style="fill-rule:evenodd;color:#000000;fill:#ff0000"
       d="m-138.62 283.16s-7.7185 64.209-7.7185 113c0 43.333 24.348 73.509 66.292 73.509 40.875-0.00001 66.292-30.177 66.292-73.509 0-48.795-7.7185-113-7.7185-113h-117.15zm3.3079 3.1408h110.53c0 0.00001 7.2841 67.416 7.2841 109.16 0 37.072-28.021 55.533-62.55 55.533-34.529 0.00001-62.55-18.461-62.55-55.533 0-41.746 7.2841-109.16 7.2841-109.16zm40.764 185.38c2.5041 2.437 4.6962 4.9581 6.1815 7.8521 0.0436 0.085 0.0579 0.18169 0.10024 0.2673 0.96772 2.2735 1.5784 4.7349 1.9046 7.3509v164.66c-4.875 6.4626-11.191 10.186-18.21 12.296-13.39 2.8334-30.406 1.3132-39.862 2.2053-0.0109-0.00018-0.0225 0.00017-0.0334 0 0 0-0.30073 2.7733-0.30072 2.7733h129.34l-0.30072-2.7733c-0.0109 0.00017-0.0225-0.00018-0.0334 0-9.456-0.89205-26.472 0.62811-39.862-2.2053-7.0194-2.1099-13.335-5.8336-18.21-12.296v-164.66c0.32617-2.616 0.93683-5.0774 1.9046-7.3509 0.0364-0.0856 0.0628-0.18227 0.10024-0.2673 1.4852-2.894 3.6773-5.4152 6.1815-7.8521-4.7948 0.60384-9.6199 1.0636-14.435 1.1361-0.0111-0.00016-0.0224 0.00017-0.0334 0-4.8146-0.0724-9.6398-0.53221-14.435-1.1361z" />
  </g>
  <metadata
     id="metadata5">
    <rdf:RDF>
      <cc:Work>
        <dc:format>image/svg+xml</dc:format>
        <dc:type
           rdf:resource="http://purl.org/dc/dcmitype/StillImage" />
        <cc:license
           rdf:resource="http://creativecommons.org/licenses/publicdomain/" />
        <dc:publisher>
          <cc:Agent
             rdf:about="http://openclipart.org/">
            <dc:title>Openclipart</dc:title>
          </cc:Agent>
        </dc:publisher>
        <dc:title>white wine glass</dc:title>
        <dc:date>2010-03-07T19:03:51</dc:date>
        <dc:description />
        <dc:source>https://openclipart.org/detail/30097/white-wine-glass-by-spktkpkt</dc:source>
        <dc:creator>
          <cc:Agent>
            <dc:title>spktkpkt</dc:title>
          </cc:Agent>
        </dc:creator>
        <dc:subject>
          <rdf:Bag>
            <rdf:li>decorative</rdf:li>
            <rdf:li>glass</rdf:li>
            <rdf:li>white</rdf:li>
            <rdf:li>wine</rdf:li>
          </rdf:Bag>
        </dc:subject>
      </cc:Work>
      <cc:License
         rdf:about="http://creativecommons.org/licenses/publicdomain/">
        <cc:permits
           rdf:resource="http://creativecommons.org/ns#Reproduction" />
        <cc:permits
           rdf:resource="http://creativecommons.org/ns#Distribution" />
        <cc:permits
           rdf:resource="http://creativecommons.org/ns#DerivativeWorks" />
      </cc:License>
    </rdf:RDF>
  </metadata>
</svg>
