<?xml version="1.0" encoding="utf-8"?>
<!-- Generator: Adobe Illustrator 23.0.3, SVG Export Plug-In . SVG Version: 6.00 Build 0)  -->
<svg version="1.1" id="Layer_1" xmlns="http://www.w3.org/2000/svg" xmlns:xlink="http://www.w3.org/1999/xlink" x="0px" y="0px"
	 viewBox="0 0 84.8 94.1" style="enable-background:new 0 0 84.8 94.1;" xml:space="preserve">
<style type="text/css">
	.st0{fill:#F6F6F6;}
	.st1{fill:#BE202E;}
	.st2{fill:#FFFFFF;}
	.st3{fill:#010101;}
	.st4{fill:#231F20;}
	.st5{opacity:0.3;}
</style>
<g>
	<path class="st0" d="M64.3,87.8c0,0.8-0.7,1.5-1.5,1.5h-42c-0.8,0-1.5-0.7-1.5-1.5V23.2c0-0.8,0.7-1.5,1.5-1.5h42
		c0.8,0,1.5,0.7,1.5,1.5V87.8z"/>
	<path class="st1" d="M32.5,71.4c-2.8-0.3-3.7,1.5-3.9,2.1c-0.2-0.6-1.1-2.4-3.9-2.1c-2.6,0.5-3.4,2.8-3.1,4.9
		c0.5,3.5,5.8,5.7,7,7.9l0,0.1l0-0.1c1.1-2.1,6.4-4.4,7-7.9C35.9,74.2,35.1,71.9,32.5,71.4z"/>
	<path class="st1" d="M49.6,44.5c-5.6-0.6-7.4,3-7.8,4.2c-0.5-1.2-2.2-4.8-7.8-4.2c-5.2,1-6.9,5.5-6.2,9.9c1.1,7,11.7,11.5,14,15.8
		l0.1,0.2l0.1-0.2c2.2-4.3,12.9-8.9,14-15.8C56.5,50.1,54.8,45.5,49.6,44.5z"/>
	<path class="st1" d="M21.4,23.5h4.1v8.1h0.1l6.3-8.1H37l-7.3,9.1l7.6,10h-5l-6.8-9h-0.1v9h-4.1V23.5z"/>
</g>
</svg>
