<?xml version="1.0" encoding="utf-8"?>
<!-- Generator: Adobe Illustrator 23.0.3, SVG Export Plug-In . SVG Version: 6.00 Build 0)  -->
<svg version="1.1" id="Layer_1" xmlns="http://www.w3.org/2000/svg" xmlns:xlink="http://www.w3.org/1999/xlink" x="0px" y="0px"
	 viewBox="0 0 84.8 94.1" style="enable-background:new 0 0 84.8 94.1;" xml:space="preserve">
<style type="text/css">
	.st0{fill:#F6F6F6;}
	.st1{fill:#BE202E;}
	.st2{fill:#FFFFFF;}
	.st3{fill:#010101;}
	.st4{fill:#231F20;}
	.st5{opacity:0.3;}
</style>
<g>
	<path class="st0" d="M61,80.3c0,0.8-0.7,1.5-1.5,1.5h-42c-0.8,0-1.5-0.7-1.5-1.5V15.7c0-0.8,0.7-1.5,1.5-1.5h42
		c0.8,0,1.5,0.7,1.5,1.5V80.3z"/>
	<path class="st1" d="M48.4,34.3c-7-0.7-9.3,3.8-9.8,5.3c-0.6-1.5-2.8-6.1-9.8-5.3c-6.5,1.2-8.7,7-7.9,12.5
		c1.4,8.8,14.8,14.5,17.6,20l0.1,0.2l0.1-0.2c2.8-5.4,16.2-11.2,17.6-20C57.1,41.3,54.9,35.5,48.4,34.3z"/>
	<path class="st1" d="M23.6,15h2.8l6.8,16.7h-3.6l-1.3-3.3h-6.4l-1.3,3.3h-3.6L23.6,15z M25,20.5l-2,4.9h4L25,20.5z"/>
</g>
</svg>
