<?xml version="1.0" encoding="utf-8"?>
<!-- Generator: Adobe Illustrator 23.0.3, SVG Export Plug-In . SVG Version: 6.00 Build 0)  -->
<svg version="1.1" id="Layer_1" xmlns="http://www.w3.org/2000/svg" xmlns:xlink="http://www.w3.org/1999/xlink" x="0px" y="0px"
	 viewBox="0 0 84.8 94.1" style="enable-background:new 0 0 84.8 94.1;" xml:space="preserve">
<style type="text/css">
	.st0{fill:#F6F6F6;}
	.st1{fill:#BE202E;}
	.st2{fill:#FFFFFF;}
	.st3{fill:#010101;}
	.st4{fill:#231F20;}
	.st5{opacity:0.3;}
</style>
<g>
	<path class="st0" d="M57.7,12.5c1.2,0,2.3,1,2.3,2.3v63c0,1.2-1,2.3-2.3,2.3H17.1c-1.2,0-2.3-1-2.3-2.3v-63c0-1.2,1-2.3,2.3-2.3
		H57.7z"/>
	<g>
		<g>
			<g>
				<g>
					<g>
						<path class="st2" d="M20.3,74.2c0.7-0.1,1.3-0.5,1.2-0.8c-0.1-0.3-0.7-0.4-1.4-0.3c-0.7,0.1-1.3,0.5-1.2,0.8
							C18.9,74.2,19.6,74.3,20.3,74.2z"/>
						<path class="st4" d="M19.7,74.3L19.7,74.3c-0.5,0-0.9-0.2-0.9-0.4c0-0.2,0.1-0.4,0.3-0.5c0.2-0.2,0.6-0.3,0.9-0.3
							c0.2,0,0.4-0.1,0.6-0.1c0.5,0,0.9,0.2,0.9,0.4c0.1,0.3-0.5,0.7-1.3,0.9C20.1,74.3,19.9,74.3,19.7,74.3z M20.7,73.1
							c-0.2,0-0.4,0-0.6,0.1c-0.3,0.1-0.7,0.2-0.9,0.3c-0.2,0.1-0.3,0.3-0.3,0.4c0,0.2,0.3,0.3,0.8,0.3l0,0c0.2,0,0.4,0,0.6-0.1
							c0.7-0.1,1.2-0.5,1.2-0.7C21.4,73.2,21.1,73.1,20.7,73.1z"/>
					</g>
					<g>
						<path class="st2" d="M21.8,74.8c0.1-0.7,0-1.4-0.3-1.4c-0.3-0.1-0.7,0.5-0.8,1.2c-0.1,0.7,0,1.4,0.3,1.4
							C21.3,76.1,21.7,75.5,21.8,74.8z"/>
						<path class="st4" d="M21.1,76.1L21.1,76.1C21.1,76.1,21,76.1,21.1,76.1c-0.4-0.1-0.5-0.7-0.4-1.5c0.2-0.8,0.5-1.3,0.9-1.3
							c0.3,0.1,0.5,0.7,0.3,1.5C21.7,75.6,21.4,76.1,21.1,76.1z M21.5,73.4c-0.2,0-0.5,0.4-0.7,1.2c-0.1,0.7,0,1.3,0.2,1.4
							c0.2,0,0.6-0.4,0.7-1.2C21.9,74.1,21.8,73.5,21.5,73.4C21.5,73.4,21.5,73.4,21.5,73.4z"/>
					</g>
					<g>
						<path class="st2" d="M21,74.7c0.5-0.5,0.8-1.1,0.6-1.3c-0.2-0.2-0.8,0-1.3,0.6c-0.5,0.5-0.8,1.1-0.6,1.3
							C19.8,75.5,20.4,75.2,21,74.7z"/>
						<path class="st4" d="M19.8,75.4L19.8,75.4c-0.1,0-0.2,0-0.3-0.1c-0.1-0.1-0.1-0.3,0-0.6c0.1-0.3,0.3-0.5,0.6-0.8
							c0.4-0.4,0.9-0.7,1.2-0.7c0.1,0,0.2,0,0.3,0.1c0.1,0.1,0.1,0.3,0,0.6c-0.1,0.3-0.3,0.6-0.6,0.8C20.6,75.2,20.2,75.4,19.8,75.4
							z M21.3,73.4c-0.3,0-0.7,0.3-1.1,0.6c-0.2,0.2-0.4,0.5-0.5,0.8c-0.1,0.2-0.1,0.4,0,0.5c0,0,0.1,0.1,0.2,0.1
							c0.3,0,0.7-0.3,1.1-0.6c0.3-0.3,0.4-0.5,0.5-0.8c0.1-0.2,0.1-0.4,0-0.5C21.5,73.4,21.4,73.4,21.3,73.4z"/>
					</g>
				</g>
				<g>
					<path class="st2" d="M21.9,73.6c0.3-0.3,0.4-0.6,0.3-0.8c-0.1-0.1-0.5,0-0.8,0.3c-0.3,0.3-0.4,0.6-0.3,0.8
						C21.3,74,21.6,73.8,21.9,73.6z"/>
					<path class="st4" d="M21.3,73.9L21.3,73.9c-0.1,0-0.2,0-0.2-0.1C21,73.8,21,73.7,21,73.6c0-0.2,0.1-0.4,0.3-0.7
						c0.3-0.3,0.7-0.4,0.9-0.3c0.2,0.2,0.1,0.6-0.3,0.9C21.7,73.8,21.5,73.9,21.3,73.9z M22,72.8c-0.2,0-0.4,0.1-0.6,0.3
						c-0.2,0.2-0.3,0.4-0.3,0.6c0,0.1,0,0.1,0,0.1c0,0,0.1,0,0.1,0c0.2,0,0.4-0.1,0.6-0.3c0.3-0.3,0.4-0.6,0.3-0.7
						C22.1,72.8,22,72.8,22,72.8z"/>
				</g>
				<g>
					<g>
						<path class="st2" d="M22.1,74.3c0.2-0.2,0.2-0.5,0-0.8l-0.6-0.6c-0.2-0.2-0.6-0.2-0.8,0c-0.2,0.2-0.2,0.5,0,0.8l0.6,0.6
							C21.5,74.5,21.8,74.5,22.1,74.3z"/>
					</g>
					<g>
						<path class="st4" d="M21.7,74.5L21.7,74.5c-0.2,0-0.3-0.1-0.4-0.2l-0.6-0.6c-0.1-0.1-0.2-0.3-0.2-0.4c0-0.2,0.1-0.3,0.2-0.4
							c0.2-0.2,0.6-0.2,0.8,0l0.6,0.6c0.1,0.1,0.2,0.3,0.2,0.4c0,0.2-0.1,0.3-0.2,0.4C22,74.4,21.8,74.5,21.7,74.5z M21,72.8
							c-0.1,0-0.2,0-0.3,0.1c-0.1,0.1-0.1,0.2-0.1,0.3c0,0.1,0.1,0.2,0.1,0.3l0.6,0.6c0.2,0.2,0.5,0.2,0.7,0
							c0.1-0.1,0.1-0.2,0.1-0.3c0-0.1-0.1-0.2-0.1-0.3l-0.6-0.6C21.3,72.8,21.2,72.8,21,72.8z"/>
					</g>
				</g>
			</g>
			<path class="st4" d="M17.7,73.4c-1.1,0-2-0.9-2-2.1c0,0,0-0.1,0.1-0.1c0,0,0.1,0,0.1,0.1c0,1,0.8,1.9,1.9,1.9
				c1,0,1.9-0.9,1.9-1.9V31.5c0,0,0-0.1,0.1-0.1c0,0,0.1,0,0.1,0.1v39.9C19.7,72.5,18.8,73.4,17.7,73.4z"/>
			<path class="st4" d="M23.7,79.2c-1.1,0-2.1-0.9-2.1-2c0-1.1,0.9-2,2.1-2h25.7c0,0,0.1,0,0.1,0.1c0,0,0,0.1-0.1,0.1H23.7
				c-1,0-1.9,0.8-1.9,1.9c0,1,0.9,1.9,1.9,1.9C23.8,79.1,23.8,79.1,23.7,79.2C23.8,79.2,23.8,79.2,23.7,79.2z"/>
		</g>
		<g>
			<g>
				<g>
					<g>
						<path class="st2" d="M54.5,18.3c-0.7,0.1-1.3,0.5-1.2,0.8c0.1,0.3,0.7,0.4,1.4,0.3c0.7-0.1,1.3-0.5,1.2-0.8
							C55.9,18.3,55.2,18.1,54.5,18.3z"/>
						<path class="st4" d="M54.1,19.5c-0.5,0-0.9-0.2-0.9-0.4c-0.1-0.3,0.5-0.7,1.3-0.9c0.2,0,0.4-0.1,0.6-0.1
							c0.5,0,0.9,0.2,0.9,0.4c0,0.2-0.1,0.4-0.3,0.5c-0.2,0.2-0.6,0.3-0.9,0.4C54.5,19.5,54.3,19.5,54.1,19.5z M55.1,18.3
							c-0.2,0-0.4,0-0.6,0.1c-0.7,0.1-1.2,0.5-1.2,0.7c0,0.2,0.3,0.3,0.8,0.3c0.2,0,0.4,0,0.6-0.1c0.3-0.1,0.7-0.2,0.9-0.3
							c0.2-0.1,0.3-0.3,0.3-0.4C55.8,18.4,55.5,18.3,55.1,18.3z"/>
					</g>
					<g>
						<path class="st2" d="M53,17.6c-0.1,0.7,0,1.4,0.3,1.4c0.3,0.1,0.7-0.5,0.8-1.2c0.1-0.7,0-1.4-0.3-1.4
							C53.5,16.4,53.1,16.9,53,17.6z"/>
						<path class="st4" d="M53.3,19.2L53.3,19.2C53.3,19.2,53.3,19.2,53.3,19.2c-0.4-0.1-0.5-0.7-0.4-1.5c0.2-0.8,0.5-1.3,0.9-1.3
							c0.3,0.1,0.5,0.7,0.3,1.5C54,18.6,53.6,19.2,53.3,19.2z M53.7,16.5c-0.2,0-0.5,0.4-0.7,1.2c-0.1,0.7,0,1.3,0.2,1.4
							c0.2,0,0.6-0.4,0.7-1.2C54.1,17.1,54,16.5,53.7,16.5C53.8,16.5,53.8,16.5,53.7,16.5z"/>
					</g>
					<g>
						<path class="st2" d="M53.8,17.7c-0.5,0.5-0.8,1.1-0.6,1.3c0.2,0.2,0.8,0,1.3-0.6c0.5-0.5,0.8-1.1,0.6-1.3
							C55,17,54.4,17.2,53.8,17.7z"/>
						<path class="st4" d="M53.5,19.2L53.5,19.2c-0.1,0-0.2,0-0.3-0.1c-0.1-0.1-0.1-0.3,0-0.6c0.1-0.3,0.3-0.5,0.6-0.8
							c0.4-0.4,0.9-0.7,1.2-0.7c0.1,0,0.2,0,0.3,0.1c0.1,0.1,0.1,0.3,0,0.6c-0.1,0.3-0.3,0.5-0.6,0.8C54.3,19,53.8,19.2,53.5,19.2z
							 M55,17.2c-0.3,0-0.7,0.3-1.1,0.6c-0.3,0.2-0.4,0.5-0.5,0.8c-0.1,0.2-0.1,0.4,0,0.5c0,0,0.1,0.1,0.2,0.1
							c0.3,0,0.7-0.3,1.1-0.6c0.2-0.3,0.4-0.5,0.5-0.8c0.1-0.2,0.1-0.4,0-0.5C55.1,17.2,55,17.2,55,17.2z"/>
					</g>
				</g>
				<g>
					<path class="st2" d="M52.9,18.9c-0.3,0.3-0.4,0.6-0.3,0.8c0.1,0.1,0.5,0,0.8-0.3c0.3-0.3,0.4-0.6,0.3-0.8
						C53.6,18.5,53.2,18.6,52.9,18.9z"/>
					<path class="st4" d="M52.8,19.8L52.8,19.8c-0.1,0-0.2,0-0.2-0.1c-0.2-0.2-0.1-0.6,0.3-0.9c0.3-0.3,0.7-0.4,0.9-0.3
						c0.1,0.1,0.1,0.1,0.1,0.2c0,0.2-0.1,0.4-0.3,0.7C53.3,19.7,53,19.8,52.8,19.8z M53.5,18.6c-0.2,0-0.4,0.1-0.6,0.3
						c-0.3,0.3-0.4,0.6-0.3,0.7c0,0,0.1,0,0.1,0c0.2,0,0.4-0.1,0.6-0.3c0.2-0.2,0.3-0.4,0.3-0.6c0-0.1,0-0.1,0-0.1
						C53.6,18.7,53.6,18.6,53.5,18.6z"/>
				</g>
				<g>
					<g>
						<path class="st2" d="M52.8,18.2c-0.2,0.2-0.2,0.5,0,0.8l0.6,0.6c0.2,0.2,0.6,0.2,0.8,0c0.2-0.2,0.2-0.5,0-0.8l-0.6-0.6
							C53.3,18,53,18,52.8,18.2z"/>
					</g>
					<g>
						<path class="st4" d="M53.8,19.8L53.8,19.8c-0.2,0-0.3-0.1-0.4-0.2L52.7,19c-0.1-0.1-0.2-0.3-0.2-0.4c0-0.2,0.1-0.3,0.2-0.4
							C52.8,18,53,18,53.1,18c0.2,0,0.3,0.1,0.4,0.2l0.6,0.6c0.2,0.2,0.2,0.6,0,0.9C54.1,19.7,53.9,19.8,53.8,19.8z M53.1,18.1
							c-0.1,0-0.2,0-0.3,0.1c-0.1,0.1-0.1,0.2-0.1,0.3c0,0.1,0.1,0.2,0.1,0.3l0.6,0.6c0.2,0.2,0.5,0.2,0.7,0c0.2-0.2,0.2-0.5,0-0.7
							l-0.6-0.6C53.4,18.2,53.3,18.1,53.1,18.1z"/>
					</g>
				</g>
			</g>
			<path class="st4" d="M55.2,61.1C55.1,61.1,55.1,61,55.2,61.1l-0.1-39.9c0-1.1,0.9-2.1,2-2.1c1.1,0,2,0.9,2,2.1c0,0,0,0.1-0.1,0.1
				c0,0-0.1,0-0.1-0.1c0-1-0.8-1.9-1.9-1.9c-1,0-1.9,0.9-1.9,1.9L55.2,61.1C55.3,61,55.2,61.1,55.2,61.1z"/>
			<path class="st4" d="M51.1,17.3H25.4c0,0-0.1,0-0.1-0.1c0,0,0-0.1,0.1-0.1h25.7c1,0,1.9-0.8,1.9-1.9s-0.9-1.9-1.9-1.9
				c0,0-0.1,0-0.1-0.1c0,0,0-0.1,0.1-0.1c1.1,0,2.1,0.9,2.1,2C53.2,16.4,52.2,17.3,51.1,17.3z"/>
		</g>
		<g>
			<g>
				<path class="st3" d="M20.9,23.3c-0.2,0-0.3,0-0.4,0.1c0.2-0.2,0.3-0.5,0.3-0.8c0-0.7-0.5-1.2-1.2-1.2c-0.7,0-1.2,0.5-1.2,1.2
					c0,0.3,0.1,0.6,0.3,0.8c-0.1-0.1-0.3-0.1-0.4-0.1c-0.7,0-1.2,0.5-1.2,1.2c0,0.7,0.5,1.2,1.2,1.2c0.6,0,1.1-0.4,1.2-1
					c0,0.6,0.1,0.9-0.6,1.5c0.4,0,1.2,0,1.6,0c-0.7-0.6-0.6-1-0.6-1.5c0.1,0.6,0.6,1,1.2,1c0.7,0,1.2-0.5,1.2-1.2
					C22.1,23.8,21.6,23.3,20.9,23.3z"/>
				<path class="st3" d="M20.8,20.9l-0.3-1.2h-2l-0.3,1.2H17l1.7-5.8h1.5l1.7,5.8H20.8z M19.5,16.1l-0.8,2.7h1.5L19.5,16.1z"/>
			</g>
			<g>
				<path class="st3" d="M56.6,69.2c-0.2,0-0.3,0-0.4-0.1c0.2,0.2,0.3,0.5,0.3,0.8c0,0.7-0.5,1.2-1.2,1.2c-0.7,0-1.2-0.5-1.2-1.2
					c0-0.3,0.1-0.6,0.3-0.8c-0.1,0.1-0.3,0.1-0.4,0.1c-0.7,0-1.2-0.5-1.2-1.2c0-0.7,0.5-1.2,1.2-1.2c0.6,0,1.1,0.4,1.2,1
					c0-0.6,0.1-0.9-0.6-1.5c0.4,0,1.2,0,1.6,0c-0.7,0.6-0.6,1-0.6,1.5c0.1-0.6,0.6-1,1.2-1c0.7,0,1.2,0.5,1.2,1.2
					C57.8,68.7,57.3,69.2,56.6,69.2z"/>
				<path class="st3" d="M57.8,71.6L56,77.4h-1.5l-1.7-5.8h1.1l0.3,1.2h2l0.3-1.2H57.8z M56,73.6h-1.5l0.8,2.7L56,73.6z"/>
			</g>
		</g>
	</g>
	<g>
		<path class="st3" d="M45.1,43.2c-0.9,0-1.7,0.2-2.5,0.5c1-1.2,1.6-2.7,1.6-4.4c0-3.8-3.1-6.8-6.8-6.8s-6.8,3.1-6.8,6.8
			c0,1.7,0.6,3.2,1.6,4.4c-0.8-0.3-1.6-0.5-2.5-0.5c-3.8,0-6.8,3.1-6.8,6.8c0,3.8,3.1,6.8,6.8,6.8c3.3,0,6-2.3,6.7-5.4
			c0.1,3.2,0.3,5.2-3.4,8.7c2.3,0,6.9,0,8.8,0c-3.8-3.5-3.5-5.5-3.4-8.7c0.6,3.1,3.4,5.4,6.7,5.4c3.8,0,6.8-3.1,6.8-6.8
			C51.9,46.2,48.8,43.2,45.1,43.2z"/>
		<g>
			<g>
				<path class="st2" d="M37.4,33.3c3.7,0,6.7,3,6.8,6.6c0,0,0-0.1,0-0.1c0-3.8-3.1-6.8-6.8-6.8s-6.8,3-6.8,6.8c0,0,0,0.1,0,0.1
					C30.7,36.2,33.7,33.3,37.4,33.3z"/>
			</g>
			<g>
				<g>
					<g>
						<g>
							<g>
								<path class="st2" d="M37.6,46c0,0.6,0,1.3,0,1.9c0,0.2,0,0.4,0,0.6v0.3c0,4.5-0.1,7.8-0.2,7.8c-0.1,0-0.1-3.3-0.2-7.8v-0.3
									c0-0.2,0-0.4,0-0.6c0-0.6,0-1.2,0-1.9c0-5.8,0.1-10.5,0.2-10.5C37.5,35.5,37.6,40.2,37.6,46z"/>
							</g>
						</g>
						<g>
							<g>
								<g>
									<path class="st2" d="M37.4,51.3c-0.5,0-0.9-0.8-1-1.8c0,0.1,0,0.2,0,0.3c0,1.2,0.4,2.1,1,2.1c0.5,0,1-0.9,1-2.1
										c0-0.1,0-0.2,0-0.3C38.3,50.5,37.9,51.3,37.4,51.3z"/>
								</g>
								<g>
									<path class="st2" d="M37.4,53.5c-0.4,0-0.7-0.6-0.7-1.3c0,0.1,0,0.1,0,0.2c0,0.9,0.3,1.5,0.7,1.5s0.7-0.7,0.7-1.5
										c0-0.1,0-0.1,0-0.2C38.1,52.9,37.8,53.5,37.4,53.5z"/>
								</g>
							</g>
							<g>
								<g>
									<path class="st2" d="M37.6,48.5v0.2c0,0,0,0,0,0c-0.1,0-0.1,0-0.2-0.1c0-0.1-0.1-0.2-0.1-0.2c-0.2-0.4-0.4-0.7-0.6-1
										c-0.4,0.3-1.3-0.1-2.1-0.9c-0.1-0.1-0.1-0.1-0.2-0.2c0.7,0.7,1.5,1,1.9,0.7c-0.7-0.8-1.5-1.3-2.5-1.6
										c-0.3,0.4-1.1,0.6-2,0.6c-0.1,0-0.2,0-0.3,0c0.9,0,1.6-0.3,1.8-0.7c-0.9-0.2-1.9-0.2-2.9,0.1c0,0.5-0.4,1.2-1.2,1.8
										c-0.1,0.1-0.1,0.1-0.2,0.2c0.7-0.6,1.1-1.3,1-1.7c0,0,0,0-0.1,0c-0.9,0.4-1.7,1-2.1,1.8c0.4,0.3,0.4,1.3,0,2.2
										c0,0.1-0.1,0.2-0.1,0.2c0.3-0.9,0.3-1.7-0.1-2c-0.4,0.9-0.5,2-0.3,3c0.5,0,1.2,0.6,1.6,1.5c0,0.1,0.1,0.2,0.1,0.2
										c-0.5-0.8-1.1-1.3-1.5-1.3c0,0,0,0.1,0,0.1c0.7,1.8,2.8,2.7,4.7,2c0.7-0.3,1.3-0.8,1.5-1.5c0.3-0.7,0.3-1.5,0-2.2
										c-0.2-0.6-0.7-1-1.2-1.2c-0.6-0.2-1.2-0.2-1.7,0c-0.9,0.4-1.3,1.4-1,2.3c0.3,0.7,1.1,1.1,1.8,0.8c0.6-0.2,0.8-0.9,0.6-1.4
										c-0.2-0.4-0.7-0.6-1.1-0.5c-0.2,0.1-0.3,0.2-0.4,0.4c0.1,0,0.1,0,0.2,0c0.3,0,0.5,0.2,0.5,0.5c0,0.3-0.2,0.5-0.5,0.5
										c-0.2,0-0.3-0.1-0.4-0.3c0,0,0,0,0,0c-0.2-0.5,0-1,0.5-1.2c0.6-0.2,1.2,0,1.4,0.6c0.3,0.7-0.1,1.5-0.7,1.8
										c-0.8,0.3-1.8-0.1-2.2-0.9c-0.4-1,0.1-2.2,1.1-2.7c0.6-0.3,1.3-0.3,1.9,0c0.6,0.3,1.1,0.7,1.4,1.4c0.3,0.8,0.3,1.6,0,2.4
										c-0.3,0.8-0.9,1.4-1.7,1.7c-0.5,0.2-1,0.3-1.5,0.3c-1.5,0-3-0.9-3.6-2.4c0,0,0,0,0-0.1c-0.3,0.3-0.3,1.1,0.1,2
										c0-0.1-0.1-0.2-0.1-0.2c-0.5-1-0.5-2-0.1-2.3c-0.3-1.1-0.2-2.2,0.3-3.2c-0.4,0-1,0.5-1.4,1.4c0-0.1,0.1-0.2,0.1-0.3
										c0.4-1,1.1-1.7,1.6-1.6c0.5-0.9,1.3-1.6,2.3-2c-0.4-0.3-1.2-0.1-1.9,0.4c0.1-0.1,0.1-0.1,0.2-0.2c0.9-0.7,1.9-0.9,2.3-0.5
										c0,0,0,0,0,0c1-0.3,2-0.3,3-0.1c0-0.5-0.8-0.9-1.8-1c0.1,0,0.2,0,0.3,0c1.2,0.1,2.1,0.6,2,1.1c0,0,0,0,0,0
										c1,0.3,1.9,0.9,2.6,1.6c0.2-0.4-0.1-1.1-0.6-1.8c0.1,0.1,0.1,0.1,0.2,0.2c0.7,0.7,1,1.6,0.8,2c0.1,0.2,0.3,0.4,0.4,0.6
										C37.4,48.1,37.5,48.3,37.6,48.5z"/>
								</g>
								<g>
									<path class="st2" d="M47.5,47.8c0.4,1,0.6,2.1,0.3,3.2c0.4,0.3,0.4,1.3-0.1,2.3c0,0.1-0.1,0.2-0.1,0.2
										c0.4-0.9,0.4-1.7,0.1-2c0,0,0,0,0,0.1C47,53.1,45.5,54,44,54c-0.5,0-1-0.1-1.5-0.3c-0.8-0.3-1.4-0.9-1.7-1.7
										c-0.3-0.8-0.3-1.6,0-2.4c0.3-0.6,0.7-1.1,1.4-1.4c0.6-0.3,1.3-0.3,1.9,0c1,0.4,1.5,1.6,1.1,2.7c-0.3,0.8-1.3,1.3-2.2,0.9
										c-0.7-0.3-1-1.1-0.7-1.8c0.2-0.6,0.9-0.8,1.4-0.6c0.5,0.2,0.7,0.7,0.5,1.2c0,0,0,0,0,0c-0.1,0.2-0.2,0.3-0.4,0.3
										c-0.3,0-0.5-0.2-0.5-0.5c0-0.3,0.2-0.5,0.5-0.5c0.1,0,0.1,0,0.2,0c-0.1-0.2-0.2-0.3-0.4-0.4c-0.4-0.2-0.9,0-1.1,0.5
										c-0.2,0.6,0,1.2,0.6,1.4c0.7,0.3,1.5-0.1,1.8-0.8c0.4-0.9-0.1-1.9-1-2.3c-0.6-0.2-1.2-0.2-1.7,0c-0.6,0.2-1,0.7-1.2,1.2
										c-0.3,0.7-0.3,1.5,0,2.2c0.3,0.7,0.8,1.2,1.5,1.5c1.8,0.7,3.9-0.1,4.7-2c0,0,0-0.1,0-0.1c-0.4-0.1-1.1,0.4-1.5,1.3
										c0-0.1,0.1-0.2,0.1-0.2c0.4-0.9,1.1-1.5,1.6-1.5c0.3-1,0.1-2.1-0.3-3c-0.4,0.3-0.4,1.1-0.1,2c0-0.1-0.1-0.2-0.1-0.2
										c-0.4-1-0.4-1.9,0-2.2c-0.5-0.8-1.2-1.5-2.1-1.8c0,0,0,0-0.1,0c-0.2,0.4,0.2,1.1,1,1.7c-0.1,0-0.1-0.1-0.2-0.2
										c-0.8-0.6-1.2-1.3-1.2-1.8c-1-0.3-2-0.3-2.9-0.1c0.2,0.4,0.9,0.7,1.8,0.7c-0.1,0-0.2,0-0.3,0c-0.9,0.1-1.7-0.2-2-0.6
										c-0.9,0.3-1.8,0.9-2.5,1.6c0.4,0.3,1.2,0,1.9-0.7c-0.1,0.1-0.1,0.1-0.2,0.2c-0.7,0.8-1.6,1.2-2.1,0.9
										c-0.2,0.3-0.4,0.6-0.6,1c0,0.1-0.1,0.2-0.1,0.2c0,0.1-0.1,0.1-0.2,0.1c0,0,0,0,0,0v-0.2c0.1-0.2,0.2-0.4,0.3-0.6
										c0.1-0.2,0.3-0.4,0.4-0.6c-0.2-0.4,0.1-1.3,0.8-2c0.1-0.1,0.1-0.1,0.2-0.2c-0.6,0.7-0.8,1.4-0.6,1.8
										c0.7-0.8,1.6-1.3,2.6-1.6c0,0,0,0,0,0c0-0.5,0.9-1,2-1.1c0.1,0,0.2,0,0.3,0c-1,0.1-1.7,0.5-1.8,1c1-0.2,2-0.2,3,0.1
										c0,0,0,0,0,0c0.3-0.4,1.3-0.2,2.3,0.5c0.1,0.1,0.1,0.1,0.2,0.2c-0.8-0.5-1.6-0.7-1.9-0.4c1,0.4,1.8,1.1,2.3,2
										c0.5-0.1,1.2,0.6,1.6,1.6c0,0.1,0.1,0.2,0.1,0.3C48.5,48.4,48,47.8,47.5,47.8z"/>
								</g>
							</g>
						</g>
					</g>
				</g>
				<g>
					<g>
						<g>
							<path class="st2" d="M37.4,49.1l0.2-4.1c0,0,0-6,3.3-6c0,0,0.6,0,0.6,0.4c0,0.4-1,0.3-1-0.8c0-1.1,0.9-1.2,1.2-1.2
								c0.3,0,1.3,0.3,1.3,1.4c0,1.1-1.1,1.6-2,1.6c-1,0-3.4-0.7-3.4-3.4c0-2.3-0.2-2.7-0.2-2.7h0l0,2.7c0,0-0.1,3.7,3.5,3.7
								c1.8,0,2.4-1.5,2.4-2c0-0.5-0.3-1.5-1.6-1.5c-1.2,0-1.3,1.1-1.3,1.4c0,0.4,0.3,1.2,0.8,1.2c0.6,0,0.8-1-0.2-1
								c-1,0-3.6,1.1-3.6,6.3V49.1L37.4,49.1z"/>
						</g>
					</g>
					<g>
						<g>
							<path class="st2" d="M37.4,49.1l-0.2-4.1c0,0,0-6-3.3-6c0,0-0.6,0-0.6,0.4c0,0.4,1,0.3,1-0.8c0-1.1-0.9-1.2-1.2-1.2
								c-0.3,0-1.3,0.3-1.3,1.4c0,1.1,1.1,1.6,2,1.6c1,0,3.4-0.7,3.4-3.4c0-2.3,0.2-2.7,0.2-2.7h0l0,2.7c0,0,0.1,3.7-3.5,3.7
								c-1.8,0-2.4-1.5-2.4-2c0-0.5,0.3-1.5,1.6-1.5c1.2,0,1.3,1.1,1.3,1.4c0,0.4-0.3,1.2-0.8,1.2c-0.6,0-0.8-1,0.2-1
								c1,0,3.6,1.1,3.6,6.3V49.1L37.4,49.1z"/>
						</g>
					</g>
				</g>
			</g>
		</g>
	</g>
</g>
</svg>
