<?xml version="1.0" encoding="utf-8"?>
<!-- Generator: Adobe Illustrator 23.0.3, SVG Export Plug-In . SVG Version: 6.00 Build 0)  -->
<svg version="1.1" id="Layer_1" xmlns="http://www.w3.org/2000/svg" xmlns:xlink="http://www.w3.org/1999/xlink" x="0px" y="0px"
	 viewBox="0 0 84.8 94.1" style="enable-background:new 0 0 84.8 94.1;" xml:space="preserve">
<style type="text/css">
	.st0{fill:#F6F6F6;}
	.st1{fill:#BE202E;}
	.st2{fill:#FFFFFF;}
	.st3{fill:#010101;}
	.st4{fill:#231F20;}
	.st5{opacity:0.3;}
</style>
<g>
	<path class="st0" d="M62.5,84.9c0,0.8-0.7,1.5-1.5,1.5H19c-0.8,0-1.5-0.7-1.5-1.5V20.4c0-0.8,0.7-1.5,1.5-1.5h42
		c0.8,0,1.5,0.7,1.5,1.5V84.9z"/>
	<path class="st4" d="M25.1,19.6h2.8l6.8,16.7h-3.6l-1.3-3.3h-6.4L22,36.3h-3.6L25.1,19.6z M26.5,25.1l-2,4.9h4L26.5,25.1z"/>
	<path class="st3" d="M50,50.4c-1.2,0-2.2,0.2-3.3,0.6c1.3-1.6,2.1-3.6,2.1-5.8c0-4.9-4-8.9-8.9-8.9c-4.9,0-8.9,4-8.9,8.9
		c0,2.2,0.8,4.2,2.1,5.8c-1-0.4-2.1-0.6-3.3-0.6c-4.9,0-8.9,4-8.9,8.9c0,4.9,4,8.9,8.9,8.9c4.3,0,7.9-3,8.7-7.1
		c0.1,4.2,0.4,6.8-4.5,11.3c3,0,9.1,0,11.6,0c-5-4.6-4.6-7.2-4.5-11.4c0.8,4.1,4.4,7.1,8.7,7.1c4.9,0,8.9-4,8.9-8.9
		C59,54.4,55,50.4,50,50.4z"/>
</g>
</svg>
