<?xml version="1.0" encoding="utf-8"?>
<!-- Generator: Adobe Illustrator 23.0.3, SVG Export Plug-In . SVG Version: 6.00 Build 0)  -->
<svg version="1.1" id="Layer_1" xmlns="http://www.w3.org/2000/svg" xmlns:xlink="http://www.w3.org/1999/xlink" x="0px" y="0px"
	 viewBox="0 0 84.8 94.1" style="enable-background:new 0 0 84.8 94.1;" xml:space="preserve">
<style type="text/css">
	.st0{fill:#F6F6F6;}
	.st1{fill:#BE202E;}
	.st2{fill:#FFFFFF;}
	.st3{fill:#010101;}
	.st4{fill:#231F20;}
	.st5{opacity:0.3;}
</style>
<g>
	<path class="st0" d="M65.2,76.7c0,0.8-0.7,1.5-1.5,1.5h-42c-0.8,0-1.5-0.7-1.5-1.5V12.2c0-0.8,0.7-1.5,1.5-1.5h42
		c0.8,0,1.5,0.7,1.5,1.5V76.7z"/>
	<path class="st3" d="M34.2,41.8c-0.3-0.2-0.6-0.4-0.9-0.7c-2.1-1.8-3.8-4.2-3.8-4.2c0,0-1.7,2.4-3.8,4.2c-0.3,0.2-0.6,0.5-0.9,0.7
		c-1.4,1.1-2.6,2-2.6,3.8c0,1,0.4,2,1.1,2.7c0.7,0.7,1.7,1.1,2.8,1.1h0c1.1,0,2.1-0.4,2.8-1.2c-0.1,0.5-0.2,1.2-0.4,1.6
		c-0.6,1.6-1.5,2.2-1.5,2.2h4.8c0.1,0-0.9-0.7-1.5-2.2c-0.2-0.4-0.3-1.1-0.4-1.6c0.7,0.8,1.7,1.2,2.8,1.2h0c1,0,2-0.4,2.8-1.1
		c0.7-0.7,1.1-1.7,1.1-2.7C36.7,43.8,35.6,42.9,34.2,41.8z"/>
	<path class="st3" d="M46.7,58.2c-0.1-0.1-0.2-0.2-0.4-0.3c-0.9-0.8-1.7-1.8-1.7-1.8c0,0-0.7,1-1.7,1.8c-0.1,0.1-0.3,0.2-0.4,0.3
		c-0.6,0.5-1.1,0.9-1.1,1.6c0,0.4,0.2,0.9,0.5,1.2c0.3,0.3,0.7,0.5,1.2,0.5h0c0.5,0,0.9-0.2,1.2-0.5c-0.1,0.2-0.1,0.5-0.2,0.7
		c-0.2,0.7-0.7,1-0.6,1h2.1c0,0-0.4-0.3-0.6-1c-0.1-0.2-0.1-0.5-0.2-0.7c0.3,0.3,0.7,0.5,1.2,0.5h0c0.5,0,0.9-0.2,1.2-0.5
		c0.3-0.3,0.5-0.7,0.5-1.2C47.8,59.1,47.3,58.7,46.7,58.2z"/>
	<path class="st3" d="M46.7,28.3c-0.1-0.1-0.2-0.2-0.4-0.3c-0.9-0.8-1.7-1.8-1.7-1.8c0,0-0.7,1-1.7,1.8c-0.1,0.1-0.3,0.2-0.4,0.3
		c-0.6,0.5-1.1,0.9-1.1,1.6c0,0.4,0.2,0.9,0.5,1.2c0.3,0.3,0.7,0.5,1.2,0.5l0,0c0.5,0,0.9-0.2,1.2-0.5c-0.1,0.2-0.1,0.5-0.2,0.7
		c-0.2,0.7-0.7,1-0.6,1h2.1c0,0-0.4-0.3-0.6-1c-0.1-0.2-0.1-0.5-0.2-0.7c0.3,0.3,0.7,0.5,1.2,0.5l0,0c0.5,0,0.9-0.2,1.2-0.5
		c0.3-0.3,0.5-0.7,0.5-1.2C47.8,29.2,47.3,28.8,46.7,28.3z"/>
	<path class="st3" d="M46.7,43.3c-0.1-0.1-0.2-0.2-0.4-0.3c-0.9-0.8-1.7-1.8-1.7-1.8c0,0-0.7,1-1.7,1.8c-0.1,0.1-0.3,0.2-0.4,0.3
		c-0.6,0.5-1.1,0.9-1.1,1.6c0,0.4,0.2,0.9,0.5,1.2c0.3,0.3,0.7,0.5,1.2,0.5l0,0c0.5,0,0.9-0.2,1.2-0.5c-0.1,0.2-0.1,0.5-0.2,0.7
		c-0.2,0.7-0.7,1-0.6,1h2.1c0,0-0.4-0.3-0.6-1c-0.1-0.2-0.1-0.5-0.2-0.7c0.3,0.3,0.7,0.5,1.2,0.5l0,0c0.5,0,0.9-0.2,1.2-0.5
		c0.3-0.3,0.5-0.7,0.5-1.2C47.8,44.2,47.3,43.8,46.7,43.3z"/>
	<path class="st3" d="M59.1,58.2c-0.1-0.1-0.2-0.2-0.4-0.3c-0.9-0.8-1.7-1.8-1.7-1.8c0,0-0.7,1-1.7,1.8c-0.1,0.1-0.3,0.2-0.4,0.3
		c-0.6,0.5-1.1,0.9-1.1,1.6c0,0.4,0.2,0.9,0.5,1.2c0.3,0.3,0.7,0.5,1.2,0.5h0c0.5,0,0.9-0.2,1.2-0.5c-0.1,0.2-0.1,0.5-0.2,0.7
		c-0.2,0.7-0.7,1-0.6,1h2.1c0,0-0.4-0.3-0.6-1c-0.1-0.2-0.1-0.5-0.2-0.7c0.3,0.3,0.7,0.5,1.2,0.5h0c0.5,0,0.9-0.2,1.2-0.5
		c0.3-0.3,0.5-0.7,0.5-1.2C60.3,59.1,59.8,58.7,59.1,58.2z"/>
	<path class="st3" d="M59.1,28.3c-0.1-0.1-0.2-0.2-0.4-0.3c-0.9-0.8-1.7-1.8-1.7-1.8c0,0-0.7,1-1.7,1.8c-0.1,0.1-0.3,0.2-0.4,0.3
		c-0.6,0.5-1.1,0.9-1.1,1.6c0,0.4,0.2,0.9,0.5,1.2c0.3,0.3,0.7,0.5,1.2,0.5l0,0c0.5,0,0.9-0.2,1.2-0.5c-0.1,0.2-0.1,0.5-0.2,0.7
		c-0.2,0.7-0.7,1-0.6,1h2.1c0,0-0.4-0.3-0.6-1c-0.1-0.2-0.1-0.5-0.2-0.7c0.3,0.3,0.7,0.5,1.2,0.5l0,0c0.5,0,0.9-0.2,1.2-0.5
		c0.3-0.3,0.5-0.7,0.5-1.2C60.3,29.2,59.8,28.8,59.1,28.3z"/>
	<path class="st3" d="M59.1,43.3c-0.1-0.1-0.2-0.2-0.4-0.3c-0.9-0.8-1.7-1.8-1.7-1.8c0,0-0.7,1-1.7,1.8c-0.1,0.1-0.3,0.2-0.4,0.3
		c-0.6,0.5-1.1,0.9-1.1,1.6c0,0.4,0.2,0.9,0.5,1.2c0.3,0.3,0.7,0.5,1.2,0.5l0,0c0.5,0,0.9-0.2,1.2-0.5c-0.1,0.2-0.1,0.5-0.2,0.7
		c-0.2,0.7-0.7,1-0.6,1h2.1c0,0-0.4-0.3-0.6-1c-0.1-0.2-0.1-0.5-0.2-0.7c0.3,0.3,0.7,0.5,1.2,0.5l0,0c0.5,0,0.9-0.2,1.2-0.5
		c0.3-0.3,0.5-0.7,0.5-1.2C60.3,44.2,59.8,43.8,59.1,43.3z"/>
	<path class="st3" d="M52.9,35.8c-0.1-0.1-0.2-0.2-0.4-0.3c-0.9-0.8-1.7-1.8-1.7-1.8c0,0-0.7,1-1.7,1.8c-0.1,0.1-0.3,0.2-0.4,0.3
		c-0.6,0.5-1.1,0.9-1.1,1.6c0,0.4,0.2,0.9,0.5,1.2c0.3,0.3,0.7,0.5,1.2,0.5h0c0.5,0,0.9-0.2,1.2-0.5c-0.1,0.2-0.1,0.5-0.2,0.7
		c-0.2,0.7-0.7,1-0.6,1h2.1c0,0-0.4-0.3-0.6-1c-0.1-0.2-0.1-0.5-0.2-0.7c0.3,0.3,0.7,0.5,1.2,0.5h0c0.5,0,0.9-0.2,1.2-0.5
		c0.3-0.3,0.5-0.7,0.5-1.2C54,36.7,53.5,36.3,52.9,35.8z"/>
	<path class="st3" d="M52.9,50.7c-0.1-0.1-0.2-0.2-0.4-0.3c-0.9-0.8-1.7-1.8-1.7-1.8c0,0-0.7,1-1.7,1.8c-0.1,0.1-0.3,0.2-0.4,0.3
		c-0.6,0.5-1.1,0.9-1.1,1.6c0,0.4,0.2,0.9,0.5,1.2c0.3,0.3,0.7,0.5,1.2,0.5l0,0c0.5,0,0.9-0.2,1.2-0.5c-0.1,0.2-0.1,0.5-0.2,0.7
		c-0.2,0.7-0.7,1-0.6,1h2.1c0,0-0.4-0.3-0.6-1c-0.1-0.2-0.1-0.5-0.2-0.7c0.3,0.3,0.7,0.5,1.2,0.5l0,0c0.5,0,0.9-0.2,1.2-0.5
		c0.3-0.3,0.5-0.7,0.5-1.2C54,51.6,53.5,51.2,52.9,50.7z"/>
	<path class="st3" d="M32.5,21.5c1.8,1.2,2.7,2.7,2.7,4.6c0,1.6-0.6,2.9-1.7,3.9c-1.1,1-2.6,1.5-4.5,1.5c-1.9,0-3.4-0.5-4.6-1.5
		c-1.2-1-1.8-2.3-1.8-3.9c0-2,0.9-3.5,2.7-4.7c-0.8-0.7-1.3-1.3-1.7-2c-0.4-0.6-0.5-1.4-0.5-2.2c0-1.3,0.5-2.5,1.5-3.5
		c1-1,2.4-1.5,4.2-1.5c1.8,0,3.2,0.4,4.2,1.3c1.1,0.9,1.6,2.1,1.6,3.5C34.7,19,34,20.4,32.5,21.5z M31.3,25.6c0-0.7-0.2-1.2-0.7-1.7
		c-0.5-0.5-1-0.7-1.7-0.7c-0.6,0-1.2,0.2-1.6,0.7c-0.4,0.5-0.7,1.1-0.7,1.7c0,0.6,0.2,1.2,0.7,1.6c0.5,0.5,1,0.7,1.6,0.7
		c0.7,0,1.2-0.2,1.7-0.7C31,26.9,31.3,26.3,31.3,25.6z M31,17.9c0-0.6-0.2-1.1-0.6-1.5C30,16,29.5,15.8,29,15.8
		c-0.6,0-1,0.2-1.4,0.6c-0.4,0.4-0.6,0.8-0.6,1.4c0,0.6,0.2,1,0.6,1.4c0.4,0.4,0.8,0.6,1.4,0.6c0.5,0,1-0.2,1.4-0.6
		C30.7,18.8,31,18.4,31,17.9z"/>
</g>
</svg>
