<?xml version="1.0" encoding="utf-8"?>
<!-- Generator: Adobe Illustrator 23.0.3, SVG Export Plug-In . SVG Version: 6.00 Build 0)  -->
<svg version="1.1" id="Layer_1" xmlns="http://www.w3.org/2000/svg" xmlns:xlink="http://www.w3.org/1999/xlink" x="0px" y="0px"
	 viewBox="0 0 84.8 94.1" style="enable-background:new 0 0 84.8 94.1;" xml:space="preserve">
<style type="text/css">
	.st0{fill:#F6F6F6;}
	.st1{fill:#BE202E;}
	.st2{fill:#FFFFFF;}
	.st3{fill:#010101;}
	.st4{fill:#231F20;}
	.st5{opacity:0.3;}
</style>
<g>
	<path class="st0" d="M66.3,77.9c0,0.8-0.7,1.5-1.5,1.5h-42c-0.8,0-1.5-0.7-1.5-1.5V13.4c0-0.8,0.7-1.5,1.5-1.5h42
		c0.8,0,1.5,0.7,1.5,1.5V77.9z"/>
	<path class="st1" d="M28.9,12.7h2.8l6.8,16.7h-3.6l-1.3-3.3h-6.4l-1.3,3.3h-3.6L28.9,12.7z M30.3,18.1l-2,4.9h4L30.3,18.1z"/>
	<path class="st1" d="M57.8,45.7c-4.7,4.2-10.9,12.7-14,19.1c-3.1-6.4-9.3-14.8-14-19.1c4.7-4.2,10.9-12.7,14-19.1
		C46.9,33,53.2,41.4,57.8,45.7z"/>
</g>
</svg>
