<?xml version="1.0" encoding="utf-8"?>
<!-- Generator: Adobe Illustrator 23.0.3, SVG Export Plug-In . SVG Version: 6.00 Build 0)  -->
<svg version="1.1" id="Layer_1" xmlns="http://www.w3.org/2000/svg" xmlns:xlink="http://www.w3.org/1999/xlink" x="0px" y="0px"
	 viewBox="0 0 84.8 94.1" style="enable-background:new 0 0 84.8 94.1;" xml:space="preserve">
<style type="text/css">
	.st0{fill:#F6F6F6;}
	.st1{fill:#BE202E;}
	.st2{fill:#FFFFFF;}
	.st3{fill:#010101;}
	.st4{fill:#231F20;}
	.st5{opacity:0.3;}
</style>
<g>
	<path class="st0" d="M70.3,86.6c0,0.8-0.7,1.5-1.5,1.5h-42c-0.8,0-1.5-0.7-1.5-1.5V22.1c0-0.8,0.7-1.5,1.5-1.5h42
		c0.8,0,1.5,0.7,1.5,1.5V86.6z"/>
	<path class="st3" d="M38.5,75.2c-0.4,0-0.9,0.1-1.3,0.2c0.5-0.6,0.8-1.4,0.8-2.2c0-1.9-1.5-3.5-3.5-3.5c-1.9,0-3.5,1.5-3.5,3.5
		c0,0.9,0.3,1.6,0.8,2.2c-0.4-0.2-0.8-0.2-1.3-0.2c-1.9,0-3.5,1.5-3.5,3.5c0,1.9,1.5,3.5,3.5,3.5c1.7,0,3.1-1.2,3.4-2.7
		c0,1.6,0.2,2.6-1.7,4.4c1.2,0,3.5,0,4.5,0C35,82,35.1,81,35.2,79.4c0.3,1.6,1.7,2.8,3.4,2.8c1.9,0,3.5-1.5,3.5-3.5
		C42,76.8,40.4,75.2,38.5,75.2z"/>
	<path class="st3" d="M55.8,53.7c-0.9,0-1.8,0.2-2.6,0.5c1-1.2,1.7-2.8,1.7-4.5c0-3.9-3.1-7-7-7c-3.9,0-7,3.1-7,7
		c0,1.7,0.6,3.3,1.7,4.5c-0.8-0.3-1.7-0.5-2.6-0.5c-3.9,0-7,3.1-7,7c0,3.9,3.1,7,7,7c3.4,0,6.2-2.4,6.9-5.6c0.1,3.3,0.3,5.4-3.5,8.9
		c2.4,0,7.1,0,9.1,0c-3.9-3.6-3.6-5.7-3.5-9c0.6,3.2,3.5,5.6,6.9,5.6c3.9,0,7-3.1,7-7C62.8,56.8,59.6,53.7,55.8,53.7z"/>
	<path class="st3" d="M27.4,22.4h4.1v8.1h0.1l6.3-8.1H43l-7.3,9.1l7.6,10h-5l-6.8-9h-0.1v9h-4.1V22.4z"/>
</g>
</svg>
