<?xml version="1.0" encoding="utf-8"?>
<!-- Generator: Adobe Illustrator 23.0.3, SVG Export Plug-In . SVG Version: 6.00 Build 0)  -->
<svg version="1.1" id="Layer_1" xmlns="http://www.w3.org/2000/svg" xmlns:xlink="http://www.w3.org/1999/xlink" x="0px" y="0px"
	 viewBox="0 0 84.8 94.1" style="enable-background:new 0 0 84.8 94.1;" xml:space="preserve">
<style type="text/css">
	.st0{fill:#F6F6F6;}
	.st1{fill:#BE202E;}
	.st2{fill:#FFFFFF;}
	.st3{fill:#010101;}
	.st4{fill:#231F20;}
	.st5{opacity:0.3;}
</style>
<g>
	<path class="st0" d="M60.5,80.2c0,0.8-0.7,1.5-1.5,1.5h-42c-0.8,0-1.5-0.7-1.5-1.5V15.7c0-0.8,0.7-1.5,1.5-1.5h42
		c0.8,0,1.5,0.7,1.5,1.5V80.2z"/>
	<path class="st3" d="M28.7,45.3c-0.4,0-0.9,0.1-1.3,0.2c0.5-0.6,0.8-1.4,0.8-2.2c0-1.9-1.5-3.5-3.5-3.5c-1.9,0-3.5,1.5-3.5,3.5
		c0,0.9,0.3,1.6,0.8,2.2c-0.4-0.2-0.8-0.2-1.3-0.2c-1.9,0-3.5,1.5-3.5,3.5c0,1.9,1.5,3.5,3.5,3.5c1.7,0,3.1-1.2,3.4-2.7
		c0,1.6,0.2,2.6-1.7,4.4c1.2,0,3.5,0,4.5,0c-1.9-1.8-1.8-2.8-1.7-4.4c0.3,1.6,1.7,2.8,3.4,2.8c1.9,0,3.5-1.5,3.5-3.5
		C32.1,46.8,30.6,45.3,28.7,45.3z"/>
	<path class="st3" d="M41.6,36.2c-0.2,0-0.4,0-0.5,0.1c0.2-0.3,0.3-0.6,0.3-0.9c0-0.8-0.6-1.4-1.4-1.4c-0.8,0-1.4,0.6-1.4,1.4
		c0,0.4,0.1,0.7,0.3,0.9c-0.2-0.1-0.3-0.1-0.5-0.1c-0.8,0-1.4,0.6-1.4,1.4c0,0.8,0.6,1.4,1.4,1.4c0.7,0,1.3-0.5,1.4-1.1
		c0,0.7,0.1,1.1-0.7,1.8c0.5,0,1.5,0,1.9,0c-0.8-0.7-0.7-1.2-0.7-1.8c0.1,0.7,0.7,1.2,1.4,1.2c0.8,0,1.4-0.6,1.4-1.4
		C43,36.9,42.4,36.2,41.6,36.2z"/>
	<path class="st3" d="M47.8,47.3c-0.2,0-0.4,0-0.5,0.1c0.2-0.3,0.3-0.6,0.3-0.9c0-0.8-0.6-1.4-1.4-1.4c-0.8,0-1.4,0.6-1.4,1.4
		c0,0.4,0.1,0.7,0.3,0.9c-0.2-0.1-0.3-0.1-0.5-0.1c-0.8,0-1.4,0.6-1.4,1.4c0,0.8,0.6,1.4,1.4,1.4c0.7,0,1.3-0.5,1.4-1.1
		c0,0.7,0.1,1.1-0.7,1.8c0.5,0,1.5,0,1.9,0c-0.8-0.7-0.7-1.2-0.7-1.8c0.1,0.7,0.7,1.2,1.4,1.2c0.8,0,1.4-0.6,1.4-1.4
		C49.2,47.9,48.6,47.3,47.8,47.3z"/>
	<path class="st3" d="M41.6,58.7c-0.2,0-0.4,0-0.5,0.1c0.2-0.3,0.3-0.6,0.3-0.9c0-0.8-0.6-1.4-1.4-1.4c-0.8,0-1.4,0.6-1.4,1.4
		c0,0.4,0.1,0.7,0.3,0.9c-0.2-0.1-0.3-0.1-0.5-0.1c-0.8,0-1.4,0.6-1.4,1.4c0,0.8,0.6,1.4,1.4,1.4c0.7,0,1.3-0.5,1.4-1.1
		c0,0.7,0.1,1.1-0.7,1.8c0.5,0,1.5,0,1.9,0c-0.8-0.7-0.7-1.2-0.7-1.8c0.1,0.7,0.7,1.2,1.4,1.2c0.8,0,1.4-0.6,1.4-1.4
		C43,59.3,42.4,58.7,41.6,58.7z"/>
	<path class="st3" d="M54,36.2c-0.2,0-0.4,0-0.5,0.1c0.2-0.3,0.3-0.6,0.3-0.9c0-0.8-0.6-1.4-1.4-1.4c-0.8,0-1.4,0.6-1.4,1.4
		c0,0.4,0.1,0.7,0.3,0.9c-0.2-0.1-0.3-0.1-0.5-0.1c-0.8,0-1.4,0.6-1.4,1.4c0,0.8,0.6,1.4,1.4,1.4c0.7,0,1.3-0.5,1.4-1.1
		c0,0.7,0.1,1.1-0.7,1.8c0.5,0,1.5,0,1.9,0c-0.8-0.7-0.7-1.2-0.7-1.8c0.1,0.7,0.7,1.2,1.4,1.2c0.8,0,1.4-0.6,1.4-1.4
		C55.5,36.9,54.8,36.2,54,36.2z"/>
	<path class="st3" d="M54,58.7c-0.2,0-0.4,0-0.5,0.1c0.2-0.3,0.3-0.6,0.3-0.9c0-0.8-0.6-1.4-1.4-1.4c-0.8,0-1.4,0.6-1.4,1.4
		c0,0.4,0.1,0.7,0.3,0.9c-0.2-0.1-0.3-0.1-0.5-0.1c-0.8,0-1.4,0.6-1.4,1.4c0,0.8,0.6,1.4,1.4,1.4c0.7,0,1.3-0.5,1.4-1.1
		c0,0.7,0.1,1.1-0.7,1.8c0.5,0,1.5,0,1.9,0c-0.8-0.7-0.7-1.2-0.7-1.8c0.1,0.7,0.7,1.2,1.4,1.2c0.8,0,1.4-0.6,1.4-1.4
		C55.5,59.3,54.8,58.7,54,58.7z"/>
	<path class="st3" d="M20.5,16.1h9.2v3.4h-5.6l-0.2,2.2c2.1,0,3.8,0.6,4.9,1.9c1.1,1.2,1.7,2.7,1.7,4.4c0,1.9-0.7,3.6-2.2,5
		C26.8,34.3,25,35,23,35c-1,0-1.8-0.1-2.5-0.4c-0.7-0.3-1.5-0.7-2.4-1.3l0.4-4.2c2,1.4,3.6,2,4.8,2c0.8,0,1.6-0.3,2.2-0.9
		s0.9-1.3,0.9-2.1c0-0.9-0.3-1.6-0.9-2.2c-0.6-0.6-1.4-0.9-2.3-0.9c-1.1,0-2.3,0.3-3.6,0.8L20.5,16.1z"/>
</g>
</svg>
