<?xml version="1.0" encoding="utf-8"?>
<!-- Generator: Adobe Illustrator 23.0.3, SVG Export Plug-In . SVG Version: 6.00 Build 0)  -->
<svg version="1.1" id="Layer_1" xmlns="http://www.w3.org/2000/svg" xmlns:xlink="http://www.w3.org/1999/xlink" x="0px" y="0px"
	 viewBox="0 0 84.8 94.1" style="enable-background:new 0 0 84.8 94.1;" xml:space="preserve">
<style type="text/css">
	.st0{fill:#F6F6F6;}
	.st1{fill:#BE202E;}
	.st2{fill:#FFFFFF;}
	.st3{fill:#010101;}
	.st4{fill:#231F20;}
	.st5{opacity:0.3;}
</style>
<g>
	<path class="st0" d="M63.3,71.5c0,0.8-0.7,1.5-1.5,1.5h-42c-0.8,0-1.5-0.7-1.5-1.5V7c0-0.8,0.7-1.5,1.5-1.5h42
		c0.8,0,1.5,0.7,1.5,1.5V71.5z"/>
	<path class="st3" d="M28.3,7.1h4.1v13.6c0,1.8-0.5,3.2-1.5,4.2c-1,1.1-2.2,1.6-3.8,1.6c-1.1,0-2.2-0.3-3.1-1
		c-0.9-0.7-1.6-1.7-2.1-3.1l3-2.3v0.1c0,0,0.1,0.2,0.3,0.6c0.2,0.4,0.4,0.8,0.7,1.1c0.3,0.3,0.6,0.5,0.9,0.5c0.5,0,0.8-0.2,1.1-0.6
		c0.3-0.4,0.4-0.9,0.4-1.5V7.1z"/>
	<path class="st3" d="M31.5,60.1c-0.4,0-0.9,0.1-1.3,0.2c0.5-0.6,0.8-1.4,0.8-2.2c0-1.9-1.5-3.5-3.5-3.5c-1.9,0-3.5,1.5-3.5,3.5
		c0,0.9,0.3,1.6,0.8,2.2c-0.4-0.2-0.8-0.2-1.3-0.2c-1.9,0-3.5,1.5-3.5,3.5c0,1.9,1.5,3.5,3.5,3.5c1.7,0,3.1-1.2,3.4-2.7
		c0,1.6,0.2,2.6-1.7,4.4c1.2,0,3.5,0,4.5,0c-1.9-1.8-1.8-2.8-1.7-4.4c0.3,1.6,1.7,2.8,3.4,2.8c1.9,0,3.5-1.5,3.5-3.5
		C35,61.7,33.4,60.1,31.5,60.1z"/>
	<path class="st3" d="M48.7,36.1c-0.9,0-1.8,0.2-2.6,0.5c1-1.2,1.7-2.8,1.7-4.5c0-3.9-3.1-7-7-7c-3.9,0-7,3.1-7,7
		c0,1.7,0.6,3.3,1.7,4.5c-0.8-0.3-1.7-0.5-2.6-0.5c-3.9,0-7,3.1-7,7c0,3.9,3.1,7,7,7c3.4,0,6.2-2.4,6.9-5.6c0.1,3.3,0.3,5.4-3.5,8.9
		c2.4,0,7.1,0,9.1,0c-3.9-3.6-3.6-5.7-3.5-9c0.6,3.2,3.5,5.6,6.9,5.6c3.9,0,7-3.1,7-7C55.8,39.2,52.6,36.1,48.7,36.1z"/>
</g>
</svg>
