<?xml version="1.0" encoding="utf-8"?>
<!-- Generator: Adobe Illustrator 23.0.3, SVG Export Plug-In . SVG Version: 6.00 Build 0)  -->
<svg version="1.1" id="Layer_1" xmlns="http://www.w3.org/2000/svg" xmlns:xlink="http://www.w3.org/1999/xlink" x="0px" y="0px"
	 viewBox="0 0 84.8 94.1" style="enable-background:new 0 0 84.8 94.1;" xml:space="preserve">
<style type="text/css">
	.st0{fill:#F6F6F6;}
	.st1{fill:#BE202E;}
	.st2{fill:#FFFFFF;}
	.st3{fill:#010101;}
	.st4{fill:#231F20;}
	.st5{opacity:0.3;}
</style>
<g>
	<path class="st0" d="M69,84.4c0,0.8-0.7,1.5-1.5,1.5h-42c-0.8,0-1.5-0.7-1.5-1.5V19.9c0-0.8,0.7-1.5,1.5-1.5h42
		c0.8,0,1.5,0.7,1.5,1.5V84.4z"/>
	<path class="st3" d="M38,49.5c-0.3-0.2-0.6-0.4-0.9-0.7c-2.1-1.8-3.8-4.2-3.8-4.2c0,0-1.7,2.4-3.8,4.2c-0.3,0.2-0.6,0.5-0.9,0.7
		c-1.4,1.1-2.6,2-2.6,3.8c0,1,0.4,2,1.1,2.7c0.7,0.7,1.7,1.1,2.8,1.1h0c1.1,0,2.1-0.4,2.8-1.2c-0.1,0.5-0.2,1.2-0.4,1.6
		c-0.6,1.6-1.5,2.2-1.5,2.2h4.8c0.1,0-0.9-0.7-1.5-2.2c-0.2-0.4-0.3-1.1-0.4-1.6c0.7,0.8,1.7,1.2,2.8,1.2h0c1,0,2-0.4,2.8-1.1
		c0.7-0.7,1.1-1.7,1.1-2.7C40.6,51.5,39.5,50.6,38,49.5z"/>
	<path class="st3" d="M50.6,65.9c-0.1-0.1-0.2-0.2-0.4-0.3c-0.9-0.8-1.7-1.8-1.7-1.8c0,0-0.7,1-1.7,1.8c-0.1,0.1-0.3,0.2-0.4,0.3
		c-0.6,0.5-1.1,0.9-1.1,1.6c0,0.4,0.2,0.9,0.5,1.2c0.3,0.3,0.7,0.5,1.2,0.5h0c0.5,0,0.9-0.2,1.2-0.5c-0.1,0.2-0.1,0.5-0.2,0.7
		c-0.2,0.7-0.7,1-0.6,1h2.1c0,0-0.4-0.3-0.6-1c-0.1-0.2-0.1-0.5-0.2-0.7c0.3,0.3,0.7,0.5,1.2,0.5h0c0.5,0,0.9-0.2,1.2-0.5
		c0.3-0.3,0.5-0.7,0.5-1.2C51.7,66.8,51.2,66.4,50.6,65.9z"/>
	<path class="st3" d="M50.6,36c-0.1-0.1-0.2-0.2-0.4-0.3c-0.9-0.8-1.7-1.8-1.7-1.8c0,0-0.7,1-1.7,1.8c-0.1,0.1-0.3,0.2-0.4,0.3
		c-0.6,0.5-1.1,0.9-1.1,1.6c0,0.4,0.2,0.9,0.5,1.2c0.3,0.3,0.7,0.5,1.2,0.5l0,0c0.5,0,0.9-0.2,1.2-0.5c-0.1,0.2-0.1,0.5-0.2,0.7
		c-0.2,0.7-0.7,1-0.6,1h2.1c0,0-0.4-0.3-0.6-1c-0.1-0.2-0.1-0.5-0.2-0.7c0.3,0.3,0.7,0.5,1.2,0.5l0,0c0.5,0,0.9-0.2,1.2-0.5
		c0.3-0.3,0.5-0.7,0.5-1.2C51.7,36.9,51.2,36.5,50.6,36z"/>
	<path class="st3" d="M50.6,51c-0.1-0.1-0.2-0.2-0.4-0.3c-0.9-0.8-1.7-1.8-1.7-1.8c0,0-0.7,1-1.7,1.8c-0.1,0.1-0.3,0.2-0.4,0.3
		c-0.6,0.5-1.1,0.9-1.1,1.6c0,0.4,0.2,0.9,0.5,1.2c0.3,0.3,0.7,0.5,1.2,0.5l0,0c0.5,0,0.9-0.2,1.2-0.5c-0.1,0.2-0.1,0.5-0.2,0.7
		c-0.2,0.7-0.7,1-0.6,1h2.1c0,0-0.4-0.3-0.6-1c-0.1-0.2-0.1-0.5-0.2-0.7c0.3,0.3,0.7,0.5,1.2,0.5l0,0c0.5,0,0.9-0.2,1.2-0.5
		c0.3-0.3,0.5-0.7,0.5-1.2C51.7,51.9,51.2,51.5,50.6,51z"/>
	<path class="st3" d="M63,65.9c-0.1-0.1-0.2-0.2-0.4-0.3c-0.9-0.8-1.7-1.8-1.7-1.8c0,0-0.7,1-1.7,1.8c-0.1,0.1-0.3,0.2-0.4,0.3
		c-0.6,0.5-1.1,0.9-1.1,1.6c0,0.4,0.2,0.9,0.5,1.2c0.3,0.3,0.7,0.5,1.2,0.5h0c0.5,0,0.9-0.2,1.2-0.5c-0.1,0.2-0.1,0.5-0.2,0.7
		c-0.2,0.7-0.7,1-0.6,1H62c0,0-0.4-0.3-0.6-1c-0.1-0.2-0.1-0.5-0.2-0.7c0.3,0.3,0.7,0.5,1.2,0.5h0c0.5,0,0.9-0.2,1.2-0.5
		c0.3-0.3,0.5-0.7,0.5-1.2C64.1,66.8,63.6,66.4,63,65.9z"/>
	<path class="st3" d="M63,36c-0.1-0.1-0.2-0.2-0.4-0.3C61.7,35,61,33.9,61,33.9c0,0-0.7,1-1.7,1.8c-0.1,0.1-0.3,0.2-0.4,0.3
		c-0.6,0.5-1.1,0.9-1.1,1.6c0,0.4,0.2,0.9,0.5,1.2c0.3,0.3,0.7,0.5,1.2,0.5l0,0c0.5,0,0.9-0.2,1.2-0.5c-0.1,0.2-0.1,0.5-0.2,0.7
		c-0.2,0.7-0.7,1-0.6,1H62c0,0-0.4-0.3-0.6-1c-0.1-0.2-0.1-0.5-0.2-0.7c0.3,0.3,0.7,0.5,1.2,0.5l0,0c0.5,0,0.9-0.2,1.2-0.5
		c0.3-0.3,0.5-0.7,0.5-1.2C64.1,36.9,63.6,36.5,63,36z"/>
	<path class="st3" d="M63,51c-0.1-0.1-0.2-0.2-0.4-0.3c-0.9-0.8-1.7-1.8-1.7-1.8c0,0-0.7,1-1.7,1.8c-0.1,0.1-0.3,0.2-0.4,0.3
		c-0.6,0.5-1.1,0.9-1.1,1.6c0,0.4,0.2,0.9,0.5,1.2c0.3,0.3,0.7,0.5,1.2,0.5l0,0c0.5,0,0.9-0.2,1.2-0.5c-0.1,0.2-0.1,0.5-0.2,0.7
		c-0.2,0.7-0.7,1-0.6,1H62c0,0-0.4-0.3-0.6-1c-0.1-0.2-0.1-0.5-0.2-0.7c0.3,0.3,0.7,0.5,1.2,0.5l0,0c0.5,0,0.9-0.2,1.2-0.5
		c0.3-0.3,0.5-0.7,0.5-1.2C64.1,51.9,63.6,51.5,63,51z"/>
	<path class="st3" d="M31.9,20.3h4.9l-4.6,6.3c0.6-0.1,1.2-0.2,1.7-0.2c1.6,0,3,0.6,4.2,1.8c1.2,1.2,1.7,2.6,1.7,4.3
		c0,1.9-0.7,3.5-2.1,4.8c-1.4,1.3-3.1,1.9-5.2,1.9c-1.9,0-3.6-0.6-4.8-1.9c-1.3-1.2-1.9-2.8-1.9-4.7c0-1.4,0.3-2.8,0.9-4.2
		c0.6-1.4,1.3-2.7,2.1-3.8L31.9,20.3z M35.6,32.4c0-0.8-0.3-1.5-0.8-2.1c-0.5-0.6-1.2-0.9-2-0.9c-0.8,0-1.6,0.3-2.2,0.9
		c-0.6,0.6-0.9,1.3-0.9,2.1c0,0.8,0.3,1.5,0.9,2.1c0.6,0.6,1.3,0.9,2.2,0.9c0.8,0,1.4-0.3,2-0.9C35.3,34,35.6,33.3,35.6,32.4z"/>
</g>
</svg>
