<?xml version="1.0" encoding="utf-8"?>
<!-- Generator: Adobe Illustrator 23.0.3, SVG Export Plug-In . SVG Version: 6.00 Build 0)  -->
<svg version="1.1" id="Layer_1" xmlns="http://www.w3.org/2000/svg" xmlns:xlink="http://www.w3.org/1999/xlink" x="0px" y="0px"
	 viewBox="0 0 84.8 94.1" style="enable-background:new 0 0 84.8 94.1;" xml:space="preserve">
<style type="text/css">
	.st0{fill:#F6F6F6;}
	.st1{fill:#BE202E;}
	.st2{fill:#FFFFFF;}
	.st3{fill:#010101;}
	.st4{fill:#231F20;}
	.st5{opacity:0.3;}
</style>
<g>
	<path class="st0" d="M59.6,84.9c0,0.8-0.7,1.5-1.5,1.5h-42c-0.8,0-1.5-0.7-1.5-1.5V20.4c0-0.8,0.7-1.5,1.5-1.5h42
		c0.8,0,1.5,0.7,1.5,1.5V84.9z"/>
	<path class="st1" d="M27.8,46.2c-2.8-0.3-3.7,1.5-3.9,2.1c-0.2-0.6-1.1-2.4-3.9-2.1c-2.6,0.5-3.4,2.8-3.1,4.9
		c0.5,3.5,5.8,5.7,7,7.9l0,0.1l0-0.1c1.1-2.1,6.4-4.4,7-7.9C31.2,49,30.4,46.7,27.8,46.2z"/>
	<path class="st1" d="M40.9,38.9c-1.3-0.1-1.7,0.7-1.9,1c-0.1-0.3-0.5-1.1-1.9-1c-1.2,0.2-1.6,1.3-1.5,2.4C36,42.9,38.5,44,39,45
		l0,0l0,0c0.5-1,3.1-2.1,3.3-3.8C42.6,40.2,42.1,39.1,40.9,38.9z"/>
	<path class="st1" d="M47.1,49.6c-1.3-0.1-1.7,0.7-1.9,1c-0.1-0.3-0.5-1.1-1.9-1c-1.2,0.2-1.6,1.3-1.5,2.4c0.3,1.6,2.8,2.7,3.3,3.8
		l0,0l0,0c0.5-1,3.1-2.1,3.3-3.8C48.8,50.9,48.4,49.8,47.1,49.6z"/>
	<path class="st1" d="M40.9,61.3c-1.3-0.1-1.7,0.7-1.9,1c-0.1-0.3-0.5-1.1-1.9-1c-1.2,0.2-1.6,1.3-1.5,2.4c0.3,1.6,2.8,2.7,3.3,3.8
		l0,0l0,0c0.5-1,3.1-2.1,3.3-3.8C42.6,62.6,42.1,61.5,40.9,61.3z"/>
	<path class="st1" d="M53.4,38.9c-1.3-0.1-1.7,0.7-1.9,1c-0.1-0.3-0.5-1.1-1.9-1c-1.2,0.2-1.6,1.3-1.5,2.4c0.3,1.6,2.8,2.7,3.3,3.8
		l0,0l0,0c0.5-1,3.1-2.1,3.3-3.8C55,40.2,54.6,39.1,53.4,38.9z"/>
	<path class="st1" d="M53.4,61.3c-1.3-0.1-1.7,0.7-1.9,1c-0.1-0.3-0.5-1.1-1.9-1c-1.2,0.2-1.6,1.3-1.5,2.4c0.3,1.6,2.8,2.7,3.3,3.8
		l0,0l0,0c0.5-1,3.1-2.1,3.3-3.8C55,62.6,54.6,61.5,53.4,61.3z"/>
	<path class="st1" d="M19.6,20.8h9.2v3.4h-5.6L23,26.4c2.1,0,3.8,0.6,4.9,1.9c1.1,1.2,1.7,2.7,1.7,4.4c0,1.9-0.7,3.6-2.2,5
		c-1.5,1.4-3.2,2.1-5.2,2.1c-1,0-1.8-0.1-2.5-0.4c-0.7-0.3-1.5-0.7-2.4-1.3l0.4-4.2c2,1.4,3.6,2,4.8,2c0.8,0,1.6-0.3,2.2-0.9
		c0.6-0.6,0.9-1.3,0.9-2.1c0-0.9-0.3-1.6-0.9-2.2c-0.6-0.6-1.4-0.9-2.3-0.9c-1.1,0-2.3,0.3-3.6,0.8L19.6,20.8z"/>
</g>
</svg>
