<?xml version="1.0" encoding="utf-8"?>
<!-- Generator: Adobe Illustrator 23.0.3, SVG Export Plug-In . SVG Version: 6.00 Build 0)  -->
<svg version="1.1" id="Layer_1" xmlns="http://www.w3.org/2000/svg" xmlns:xlink="http://www.w3.org/1999/xlink" x="0px" y="0px"
	 viewBox="0 0 84.8 94.1" style="enable-background:new 0 0 84.8 94.1;" xml:space="preserve">
<style type="text/css">
	.st0{fill:#F6F6F6;}
	.st1{fill:#BE202E;}
	.st2{fill:#FFFFFF;}
	.st3{fill:#010101;}
	.st4{fill:#231F20;}
	.st5{opacity:0.3;}
</style>
<g>
	<path class="st0" d="M61.9,81c0,0.8-0.7,1.5-1.5,1.5h-42c-0.8,0-1.5-0.7-1.5-1.5V16.5c0-0.8,0.7-1.5,1.5-1.5h42
		c0.8,0,1.5,0.7,1.5,1.5V81z"/>
	<path class="st1" d="M32.6,48.8c-2.1,1.9-5,5.8-6.4,8.7c-1.4-2.9-4.3-6.8-6.4-8.7c2.1-1.9,5-5.8,6.4-8.7
		C27.6,43,30.4,46.8,32.6,48.8z"/>
	<path class="st1" d="M46.5,63.7c-0.9,0.8-2,2.4-2.6,3.6c-0.6-1.2-1.8-2.8-2.6-3.6c0.9-0.8,2.1-2.4,2.6-3.6
		C44.4,61.3,45.6,62.9,46.5,63.7z"/>
	<path class="st1" d="M46.5,33.8c-0.9,0.8-2,2.4-2.6,3.6c-0.6-1.2-1.8-2.8-2.6-3.6c0.9-0.8,2.1-2.4,2.6-3.6
		C44.4,31.4,45.6,33,46.5,33.8z"/>
	<path class="st1" d="M46.5,48.8c-0.9,0.8-2,2.4-2.6,3.6c-0.6-1.2-1.8-2.8-2.6-3.6c0.9-0.8,2.1-2.4,2.6-3.6
		C44.4,46.4,45.6,48,46.5,48.8z"/>
	<path class="st1" d="M23.1,22.4h-3.8c0.1-1.7,0.7-3.1,1.9-4.1c1.1-1,2.5-1.5,4.1-1.5c1.7,0,3.2,0.5,4.4,1.5c1.2,1,1.8,2.2,1.8,3.6
		c0,1.5-0.7,2.9-2.2,4.1c1,0.6,1.7,1.2,2.1,1.9c0.4,0.7,0.7,1.4,0.7,2.4c0,1.7-0.6,3.1-1.7,4.2c-1.2,1.1-2.7,1.6-4.6,1.6
		c-1.8,0-3.2-0.5-4.4-1.5c-1.2-1-1.9-2.4-2.2-4.2h3.9c0.5,1.8,1.3,2.7,2.6,2.7c0.7,0,1.2-0.2,1.6-0.7c0.4-0.5,0.7-1,0.7-1.7
		c0-0.8-0.3-1.5-0.8-2.1c-0.5-0.5-1.2-0.8-2.1-0.8h-0.7v-3.1h0.4c0.9,0,1.6-0.2,2.1-0.7c0.5-0.4,0.8-1,0.8-1.7
		c0-0.7-0.2-1.2-0.6-1.7c-0.4-0.5-0.9-0.7-1.6-0.7C24.2,19.8,23.3,20.6,23.1,22.4z"/>
</g>
</svg>
