<?xml version="1.0" encoding="utf-8"?>
<!-- Generator: Adobe Illustrator 23.0.3, SVG Export Plug-In . SVG Version: 6.00 Build 0)  -->
<svg version="1.1" id="Layer_1" xmlns="http://www.w3.org/2000/svg" xmlns:xlink="http://www.w3.org/1999/xlink" x="0px" y="0px"
	 viewBox="0 0 84.8 94.1" style="enable-background:new 0 0 84.8 94.1;" xml:space="preserve">
<style type="text/css">
	.st0{fill:#F6F6F6;}
	.st1{fill:#BE202E;}
	.st2{fill:#FFFFFF;}
	.st3{fill:#010101;}
	.st4{fill:#231F20;}
	.st5{opacity:0.3;}
</style>
<g>
	<path class="st0" d="M75.2,79.9c0,0.8-0.7,1.5-1.5,1.5h-42c-0.8,0-1.5-0.7-1.5-1.5V15.3c0-0.8,0.7-1.5,1.5-1.5h42
		c0.8,0,1.5,0.7,1.5,1.5V79.9z"/>
	<path class="st1" d="M45.9,47.6c-2.1,1.9-5,5.8-6.4,8.7c-1.4-2.9-4.3-6.8-6.4-8.7c2.1-1.9,5-5.8,6.4-8.7
		C40.9,41.8,43.8,45.7,45.9,47.6z"/>
	<path class="st1" d="M57.3,62.5c-0.9,0.8-2,2.4-2.6,3.6c-0.6-1.2-1.8-2.8-2.6-3.6c0.9-0.8,2.1-2.4,2.6-3.6
		C55.3,60.2,56.4,61.8,57.3,62.5z"/>
	<path class="st1" d="M57.3,32.7c-0.9,0.8-2,2.4-2.6,3.6c-0.6-1.2-1.8-2.8-2.6-3.6c0.9-0.8,2.1-2.4,2.6-3.6
		C55.3,30.3,56.4,31.9,57.3,32.7z"/>
	<path class="st1" d="M57.3,47.6c-0.9,0.8-2,2.4-2.6,3.6c-0.6-1.2-1.8-2.8-2.6-3.6c0.9-0.8,2.1-2.4,2.6-3.6
		C55.3,45.2,56.4,46.8,57.3,47.6z"/>
	<path class="st1" d="M69.8,62.5c-0.9,0.8-2,2.4-2.6,3.6c-0.6-1.2-1.8-2.8-2.6-3.6c0.9-0.8,2.1-2.4,2.6-3.6
		C67.7,60.2,68.9,61.8,69.8,62.5z"/>
	<path class="st1" d="M69.8,32.7c-0.9,0.8-2,2.4-2.6,3.6c-0.6-1.2-1.8-2.8-2.6-3.6c0.9-0.8,2.1-2.4,2.6-3.6
		C67.7,30.3,68.9,31.9,69.8,32.7z"/>
	<path class="st1" d="M69.8,47.6c-0.9,0.8-2,2.4-2.6,3.6c-0.6-1.2-1.8-2.8-2.6-3.6c0.9-0.8,2.1-2.4,2.6-3.6
		C67.7,45.2,68.9,46.8,69.8,47.6z"/>
	<path class="st1" d="M38.1,15.8H43l-4.6,6.3c0.6-0.1,1.2-0.2,1.7-0.2c1.6,0,3,0.6,4.2,1.8c1.2,1.2,1.7,2.6,1.7,4.3
		c0,1.9-0.7,3.5-2.1,4.8c-1.4,1.3-3.1,1.9-5.2,1.9c-1.9,0-3.6-0.6-4.8-1.9C32.6,31.5,32,30,32,28c0-1.4,0.3-2.8,0.9-4.2
		c0.6-1.4,1.3-2.7,2.1-3.8L38.1,15.8z M41.7,27.9c0-0.8-0.3-1.5-0.8-2.1c-0.5-0.6-1.2-0.9-2-0.9c-0.8,0-1.6,0.3-2.2,0.9
		c-0.6,0.6-0.9,1.3-0.9,2.1c0,0.8,0.3,1.5,0.9,2.1c0.6,0.6,1.3,0.9,2.2,0.9c0.8,0,1.4-0.3,2-0.9C41.5,29.4,41.7,28.7,41.7,27.9z"/>
</g>
</svg>
