<?xml version="1.0" encoding="utf-8"?>
<!-- Generator: Adobe Illustrator 23.0.3, SVG Export Plug-In . SVG Version: 6.00 Build 0)  -->
<svg version="1.1" id="Layer_1" xmlns="http://www.w3.org/2000/svg" xmlns:xlink="http://www.w3.org/1999/xlink" x="0px" y="0px"
	 viewBox="0 0 84.8 94.1" style="enable-background:new 0 0 84.8 94.1;" xml:space="preserve">
<style type="text/css">
	.st0{fill:#F6F6F6;}
	.st1{fill:#BE202E;}
	.st2{fill:#FFFFFF;}
	.st3{fill:#010101;}
	.st4{fill:#231F20;}
	.st5{opacity:0.3;}
</style>
<g>
	<path class="st0" d="M59.8,79c0,0.8-0.7,1.5-1.5,1.5h-42c-0.8,0-1.5-0.7-1.5-1.5V14.5c0-0.8,0.7-1.5,1.5-1.5h42
		c0.8,0,1.5,0.7,1.5,1.5V79z"/>
	<path class="st1" d="M28,40.3c-2.8-0.3-3.7,1.5-3.9,2.1c-0.2-0.6-1.1-2.4-3.9-2.1c-2.6,0.5-3.4,2.8-3.1,4.9c0.5,3.5,5.8,5.7,7,7.9
		l0,0.1l0-0.1c1.1-2.1,6.4-4.4,7-7.9C31.5,43.1,30.6,40.8,28,40.3z"/>
	<path class="st1" d="M41.2,33c-1.3-0.1-1.7,0.7-1.9,1c-0.1-0.3-0.5-1.1-1.9-1c-1.2,0.2-1.6,1.3-1.5,2.4c0.3,1.6,2.8,2.7,3.3,3.8
		l0,0l0,0c0.5-1,3.1-2.1,3.3-3.8C42.8,34.3,42.4,33.2,41.2,33z"/>
	<path class="st1" d="M41.2,55.4c-1.3-0.1-1.7,0.7-1.9,1c-0.1-0.3-0.5-1.1-1.9-1c-1.2,0.2-1.6,1.3-1.5,2.4c0.3,1.6,2.8,2.7,3.3,3.8
		l0,0l0,0c0.5-1,3.1-2.1,3.3-3.8C42.8,56.7,42.4,55.6,41.2,55.4z"/>
	<path class="st1" d="M53.6,33c-1.3-0.1-1.7,0.7-1.9,1c-0.1-0.3-0.5-1.1-1.9-1c-1.2,0.2-1.6,1.3-1.5,2.4c0.3,1.6,2.8,2.7,3.3,3.8
		l0,0l0,0c0.5-1,3.1-2.1,3.3-3.8C55.2,34.3,54.8,33.2,53.6,33z"/>
	<path class="st1" d="M53.6,55.4c-1.3-0.1-1.7,0.7-1.9,1c-0.1-0.3-0.5-1.1-1.9-1c-1.2,0.2-1.6,1.3-1.5,2.4c0.3,1.6,2.8,2.7,3.3,3.8
		l0,0l0,0c0.5-1,3.1-2.1,3.3-3.8C55.2,56.7,54.8,55.6,53.6,55.4z"/>
	<path class="st1" d="M47.4,60.4c-1.3-0.1-1.7,0.7-1.9,1c-0.1-0.3-0.5-1.1-1.9-1c-1.2,0.2-1.6,1.3-1.5,2.4c0.3,1.6,2.8,2.7,3.3,3.8
		l0,0l0,0c0.5-1,3.1-2.1,3.3-3.8C49,61.7,48.6,60.6,47.4,60.4z"/>
	<path class="st1" d="M41.2,44.2c-1.3-0.1-1.7,0.7-1.9,1c-0.1-0.3-0.5-1.1-1.9-1c-1.2,0.2-1.6,1.3-1.5,2.4c0.3,1.6,2.8,2.7,3.3,3.8
		l0,0l0,0c0.5-1,3.1-2.1,3.3-3.8C42.8,45.5,42.4,44.4,41.2,44.2z"/>
	<path class="st1" d="M41.2,66.6c-1.3-0.1-1.7,0.7-1.9,1c-0.1-0.3-0.5-1.1-1.9-1c-1.2,0.2-1.6,1.3-1.5,2.4c0.3,1.6,2.8,2.7,3.3,3.8
		l0,0l0,0c0.5-1,3.1-2.1,3.3-3.8C42.8,67.9,42.4,66.8,41.2,66.6z"/>
	<path class="st1" d="M53.6,44.2c-1.3-0.1-1.7,0.7-1.9,1c-0.1-0.3-0.5-1.1-1.9-1c-1.2,0.2-1.6,1.3-1.5,2.4c0.3,1.6,2.8,2.7,3.3,3.8
		l0,0l0,0c0.5-1,3.1-2.1,3.3-3.8C55.2,45.5,54.8,44.4,53.6,44.2z"/>
	<path class="st1" d="M47.4,39.2c-1.3-0.1-1.7,0.7-1.9,1c-0.1-0.3-0.5-1.1-1.9-1c-1.2,0.2-1.6,1.3-1.5,2.4c0.3,1.6,2.8,2.7,3.3,3.8
		l0,0l0,0c0.5-1,3.1-2.1,3.3-3.8C49,40.5,48.6,39.4,47.4,39.2z"/>
	<path class="st1" d="M53.6,66.6c-1.3-0.1-1.7,0.7-1.9,1c-0.1-0.3-0.5-1.1-1.9-1c-1.2,0.2-1.6,1.3-1.5,2.4c0.3,1.6,2.8,2.7,3.3,3.8
		l0,0l0,0c0.5-1,3.1-2.1,3.3-3.8C55.2,67.9,54.8,66.8,53.6,66.6z"/>
	<g>
		<path class="st1" d="M16.6,15.1h6.1v18.6h-4.1V18.5h-2.7L16.6,15.1z"/>
		<path class="st1" d="M31.6,14.8c2.2,0,4,0.8,5.3,2.5c1.3,1.7,2,4,2,6.8c0,3.3-0.7,5.8-2.2,7.4c-1.5,1.6-3.1,2.4-5.1,2.4
			c-2.2,0-4-0.9-5.3-2.6c-1.4-1.7-2-4-2-6.7c0-3,0.7-5.3,2-7.1c1.3-1.8,3.1-2.7,5.2-2.7H31.6z M34.9,24.5c0-1.9-0.3-3.4-0.9-4.4
			c-0.6-1.1-1.4-1.6-2.4-1.6c-1.1,0-1.9,0.5-2.5,1.6c-0.6,1.1-0.9,2.6-0.9,4.5c0,1.7,0.3,3.2,0.9,4.2c0.6,1.1,1.4,1.6,2.5,1.6
			c1,0,1.9-0.5,2.5-1.6C34.6,27.7,34.9,26.3,34.9,24.5z"/>
	</g>
</g>
</svg>
