<?xml version="1.0" encoding="utf-8"?>
<!-- Generator: Adobe Illustrator 23.0.3, SVG Export Plug-In . SVG Version: 6.00 Build 0)  -->
<svg version="1.1" id="Layer_1" xmlns="http://www.w3.org/2000/svg" xmlns:xlink="http://www.w3.org/1999/xlink" x="0px" y="0px"
	 viewBox="0 0 84.8 94.1" style="enable-background:new 0 0 84.8 94.1;" xml:space="preserve">
<style type="text/css">
	.st0{fill:#F6F6F6;}
	.st1{fill:#BE202E;}
	.st2{fill:#FFFFFF;}
	.st3{fill:#010101;}
	.st4{fill:#231F20;}
	.st5{opacity:0.3;}
</style>
<g>
	<path class="st0" d="M58.6,78.5c0,0.8-0.7,1.5-1.5,1.5h-42c-0.8,0-1.5-0.7-1.5-1.5V14c0-0.8,0.7-1.5,1.5-1.5h42
		c0.8,0,1.5,0.7,1.5,1.5V78.5z"/>
	<path class="st3" d="M26.8,43.6c-0.4,0-0.9,0.1-1.3,0.2c0.5-0.6,0.8-1.4,0.8-2.2c0-1.9-1.5-3.5-3.5-3.5c-1.9,0-3.5,1.5-3.5,3.5
		c0,0.9,0.3,1.6,0.8,2.2c-0.4-0.2-0.8-0.2-1.3-0.2c-1.9,0-3.5,1.5-3.5,3.5c0,1.9,1.5,3.5,3.5,3.5c1.7,0,3.1-1.2,3.4-2.7
		c0,1.6,0.2,2.6-1.7,4.4c1.2,0,3.5,0,4.5,0c-1.9-1.8-1.8-2.8-1.7-4.4c0.3,1.6,1.7,2.8,3.4,2.8c1.9,0,3.5-1.5,3.5-3.5
		C30.2,45.1,28.7,43.6,26.8,43.6z"/>
	<path class="st3" d="M39.7,30.6c-0.2,0-0.4,0-0.5,0.1c0.2-0.3,0.3-0.6,0.3-0.9c0-0.8-0.6-1.4-1.4-1.4c-0.8,0-1.4,0.6-1.4,1.4
		c0,0.4,0.1,0.7,0.3,0.9c-0.2-0.1-0.3-0.1-0.5-0.1c-0.8,0-1.4,0.6-1.4,1.4c0,0.8,0.6,1.4,1.4,1.4c0.7,0,1.3-0.5,1.4-1.1
		c0,0.7,0.1,1.1-0.7,1.8c0.5,0,1.5,0,1.9,0c-0.8-0.7-0.7-1.2-0.7-1.8c0.1,0.7,0.7,1.2,1.4,1.2c0.8,0,1.4-0.6,1.4-1.4
		C41.2,31.3,40.5,30.6,39.7,30.6z"/>
	<path class="st3" d="M39.7,45.6c-0.2,0-0.4,0-0.5,0.1c0.2-0.3,0.3-0.6,0.3-0.9c0-0.8-0.6-1.4-1.4-1.4c-0.8,0-1.4,0.6-1.4,1.4
		c0,0.4,0.1,0.7,0.3,0.9c-0.2-0.1-0.3-0.1-0.5-0.1c-0.8,0-1.4,0.6-1.4,1.4c0,0.8,0.6,1.4,1.4,1.4c0.7,0,1.3-0.5,1.4-1.1
		c0,0.7,0.1,1.1-0.7,1.8c0.5,0,1.5,0,1.9,0c-0.8-0.7-0.7-1.2-0.7-1.8c0.1,0.7,0.7,1.2,1.4,1.2c0.8,0,1.4-0.6,1.4-1.4
		C41.2,46.2,40.5,45.6,39.7,45.6z"/>
	<path class="st3" d="M39.7,60.5c-0.2,0-0.4,0-0.5,0.1c0.2-0.3,0.3-0.6,0.3-0.9c0-0.8-0.6-1.4-1.4-1.4c-0.8,0-1.4,0.6-1.4,1.4
		c0,0.4,0.1,0.7,0.3,0.9c-0.2-0.1-0.3-0.1-0.5-0.1c-0.8,0-1.4,0.6-1.4,1.4c0,0.8,0.6,1.4,1.4,1.4c0.7,0,1.3-0.5,1.4-1.1
		c0,0.7,0.1,1.1-0.7,1.8c0.5,0,1.5,0,1.9,0c-0.8-0.7-0.7-1.2-0.7-1.8c0.1,0.7,0.7,1.2,1.4,1.2c0.8,0,1.4-0.6,1.4-1.4
		C41.2,61.2,40.5,60.5,39.7,60.5z"/>
	<path class="st3" d="M52.2,30.6c-0.2,0-0.4,0-0.5,0.1c0.2-0.3,0.3-0.6,0.3-0.9c0-0.8-0.6-1.4-1.4-1.4c-0.8,0-1.4,0.6-1.4,1.4
		c0,0.4,0.1,0.7,0.3,0.9c-0.2-0.1-0.3-0.1-0.5-0.1c-0.8,0-1.4,0.6-1.4,1.4c0,0.8,0.6,1.4,1.4,1.4c0.7,0,1.3-0.5,1.4-1.1
		c0,0.7,0.1,1.1-0.7,1.8c0.5,0,1.5,0,1.9,0c-0.8-0.7-0.7-1.2-0.7-1.8c0.1,0.7,0.7,1.2,1.4,1.2c0.8,0,1.4-0.6,1.4-1.4
		C53.6,31.3,53,30.6,52.2,30.6z"/>
	<path class="st3" d="M52.2,45.6c-0.2,0-0.4,0-0.5,0.1c0.2-0.3,0.3-0.6,0.3-0.9c0-0.8-0.6-1.4-1.4-1.4c-0.8,0-1.4,0.6-1.4,1.4
		c0,0.4,0.1,0.7,0.3,0.9c-0.2-0.1-0.3-0.1-0.5-0.1c-0.8,0-1.4,0.6-1.4,1.4c0,0.8,0.6,1.4,1.4,1.4c0.7,0,1.3-0.5,1.4-1.1
		c0,0.7,0.1,1.1-0.7,1.8c0.5,0,1.5,0,1.9,0c-0.8-0.7-0.7-1.2-0.7-1.8c0.1,0.7,0.7,1.2,1.4,1.2c0.8,0,1.4-0.6,1.4-1.4
		C53.6,46.2,53,45.6,52.2,45.6z"/>
	<path class="st3" d="M45.9,38.1c-0.2,0-0.4,0-0.5,0.1c0.2-0.3,0.3-0.6,0.3-0.9c0-0.8-0.6-1.4-1.4-1.4c-0.8,0-1.4,0.6-1.4,1.4
		c0,0.4,0.1,0.7,0.3,0.9c-0.2-0.1-0.3-0.1-0.5-0.1c-0.8,0-1.4,0.6-1.4,1.4c0,0.8,0.6,1.4,1.4,1.4c0.7,0,1.3-0.5,1.4-1.1
		c0,0.7,0.1,1.1-0.7,1.8c0.5,0,1.5,0,1.9,0c-0.8-0.7-0.7-1.2-0.7-1.8c0.1,0.7,0.7,1.2,1.4,1.2c0.8,0,1.4-0.6,1.4-1.4
		C47.4,38.8,46.7,38.1,45.9,38.1z"/>
	<path class="st3" d="M52.2,60.5c-0.2,0-0.4,0-0.5,0.1c0.2-0.3,0.3-0.6,0.3-0.9c0-0.8-0.6-1.4-1.4-1.4c-0.8,0-1.4,0.6-1.4,1.4
		c0,0.4,0.1,0.7,0.3,0.9c-0.2-0.1-0.3-0.1-0.5-0.1c-0.8,0-1.4,0.6-1.4,1.4c0,0.8,0.6,1.4,1.4,1.4c0.7,0,1.3-0.5,1.4-1.1
		c0,0.7,0.1,1.1-0.7,1.8c0.5,0,1.5,0,1.9,0c-0.8-0.7-0.7-1.2-0.7-1.8c0.1,0.7,0.7,1.2,1.4,1.2c0.8,0,1.4-0.6,1.4-1.4
		C53.6,61.2,53,60.5,52.2,60.5z"/>
	<path class="st3" d="M16.5,14.2h14.7L19.4,33.4l-3.3-2.1l8.4-13.7h-8V14.2z"/>
</g>
</svg>
