<?xml version="1.0" encoding="utf-8"?>
<!-- Generator: Adobe Illustrator 23.0.3, SVG Export Plug-In . SVG Version: 6.00 Build 0)  -->
<svg version="1.1" id="Layer_1" xmlns="http://www.w3.org/2000/svg" xmlns:xlink="http://www.w3.org/1999/xlink" x="0px" y="0px"
	 viewBox="0 0 84.8 94.1" style="enable-background:new 0 0 84.8 94.1;" xml:space="preserve">
<style type="text/css">
	.st0{fill:#F6F6F6;}
	.st1{fill:#BE202E;}
	.st2{fill:#FFFFFF;}
	.st3{fill:#010101;}
	.st4{fill:#231F20;}
	.st5{opacity:0.3;}
</style>
<g>
	<path class="st0" d="M62,84.9c0,0.8-0.7,1.5-1.5,1.5h-42c-0.8,0-1.5-0.7-1.5-1.5V20.4c0-0.8,0.7-1.5,1.5-1.5h42
		c0.8,0,1.5,0.7,1.5,1.5V84.9z"/>
	<path class="st3" d="M51.5,45.9c-0.7-0.6-1.4-1.1-2.2-1.8c-5.4-4.5-9.7-10.6-9.7-10.6c0,0-4.3,6.1-9.7,10.6
		c-0.7,0.6-1.5,1.2-2.2,1.8c-3.7,2.9-6.6,5.2-6.6,9.5c0,2.6,1,5,2.9,6.8c1.9,1.8,4.4,2.8,7,2.9l0.1,0c2.8,0,5.3-1.1,7.1-3.1
		c-0.3,1.4-0.6,3-0.9,4c-1.5,4-3.9,5.6-3.7,5.6h12.2c0.2,0-2.3-1.7-3.7-5.6c-0.4-1-0.6-2.7-0.9-4c1.9,2,4.3,3.1,7.1,3.1l0.1,0
		c2.7,0,5.1-1,7-2.9c1.9-1.8,2.9-4.3,2.9-6.8C58,51.1,55.1,48.8,51.5,45.9z"/>
	<path class="st4" d="M24.6,19.6h2.8l6.8,16.7h-3.6l-1.3-3.3h-6.4l-1.3,3.3h-3.6L24.6,19.6z M26,25.1L24,30h4L26,25.1z"/>
</g>
</svg>
