<?xml version="1.0" encoding="utf-8"?>
<!-- Generator: Adobe Illustrator 23.0.3, SVG Export Plug-In . SVG Version: 6.00 Build 0)  -->
<svg version="1.1" id="Layer_1" xmlns="http://www.w3.org/2000/svg" xmlns:xlink="http://www.w3.org/1999/xlink" x="0px" y="0px"
	 viewBox="0 0 84.8 94.1" style="enable-background:new 0 0 84.8 94.1;" xml:space="preserve">
<style type="text/css">
	.st0{fill:#F6F6F6;}
	.st1{fill:#BE202E;}
	.st2{fill:#FFFFFF;}
	.st3{fill:#010101;}
	.st4{fill:#231F20;}
	.st5{opacity:0.3;}
</style>
<g>
	<path class="st0" d="M62.3,86.3c0,0.8-0.7,1.5-1.5,1.5h-42c-0.8,0-1.5-0.7-1.5-1.5V21.8c0-0.8,0.7-1.5,1.5-1.5h42
		c0.8,0,1.5,0.7,1.5,1.5V86.3z"/>
	<path class="st1" d="M33,54.1c-2.1,1.9-5,5.8-6.4,8.7c-1.4-2.9-4.3-6.8-6.4-8.7c2.1-1.9,5-5.8,6.4-8.7C28,48.3,30.9,52.1,33,54.1z"
		/>
	<path class="st1" d="M44.4,65.3c-0.9,0.8-2.1,2.4-2.6,3.6c-0.6-1.2-1.8-2.8-2.6-3.6c0.9-0.8,2-2.4,2.6-3.6
		C42.4,62.9,43.6,64.5,44.4,65.3z"/>
	<path class="st1" d="M44.4,42.9c-0.9,0.8-2.1,2.4-2.6,3.6c-0.6-1.2-1.8-2.8-2.6-3.6c0.9-0.8,2-2.4,2.6-3.6
		C42.4,40.5,43.6,42.1,44.4,42.9z"/>
	<path class="st1" d="M56.9,65.3c-0.9,0.8-2.1,2.4-2.6,3.6c-0.6-1.2-1.8-2.8-2.6-3.6c0.9-0.8,2-2.4,2.6-3.6
		C54.8,62.9,56,64.5,56.9,65.3z"/>
	<path class="st1" d="M56.9,42.9c-0.9,0.8-2.1,2.4-2.6,3.6c-0.6-1.2-1.8-2.8-2.6-3.6c0.9-0.8,2-2.4,2.6-3.6
		C54.8,40.5,56,42.1,56.9,42.9z"/>
	<path class="st1" d="M27.7,22.4h3.8v10.8h1.8v3.4h-1.8V41h-4.1v-4.4h-8.3v-3.4L27.7,22.4z M27.3,27l-4.8,6.1h4.9L27.3,27L27.3,27z"
		/>
</g>
</svg>
