<?xml version="1.0" encoding="utf-8"?>
<!-- Generator: Adobe Illustrator 23.0.3, SVG Export Plug-In . SVG Version: 6.00 Build 0)  -->
<svg version="1.1" id="Layer_1" xmlns="http://www.w3.org/2000/svg" xmlns:xlink="http://www.w3.org/1999/xlink" x="0px" y="0px"
	 viewBox="0 0 84.8 94.1" style="enable-background:new 0 0 84.8 94.1;" xml:space="preserve">
<style type="text/css">
	.st0{fill:#F6F6F6;}
	.st1{fill:#BE202E;}
	.st2{fill:#FFFFFF;}
	.st3{fill:#010101;}
	.st4{fill:#231F20;}
	.st5{opacity:0.3;}
</style>
<g>
	<g>
		<path class="st0" d="M71.8,81.3c0,0.8-0.7,1.5-1.5,1.5h-42c-0.8,0-1.5-0.7-1.5-1.5V16.8c0-0.8,0.7-1.5,1.5-1.5h42
			c0.8,0,1.5,0.7,1.5,1.5V81.3z"/>
		<path class="st3" d="M40.8,68.8c-0.3-0.2-0.6-0.4-0.9-0.7c-2.1-1.8-3.8-4.2-3.8-4.2c0,0-1.7,2.4-3.8,4.2c-0.3,0.2-0.6,0.5-0.9,0.7
			c-1.4,1.1-2.6,2-2.6,3.8c0,1,0.4,2,1.1,2.7c0.7,0.7,1.7,1.1,2.8,1.1l0,0c1.1,0,2.1-0.4,2.8-1.2c-0.1,0.5-0.2,1.2-0.4,1.6
			c-0.6,1.6-1.5,2.2-1.5,2.2h4.8c0.1,0-0.9-0.7-1.5-2.2c-0.2-0.4-0.3-1.1-0.4-1.6c0.7,0.8,1.7,1.2,2.8,1.2l0,0c1,0,2-0.4,2.8-1.1
			c0.7-0.7,1.1-1.7,1.1-2.7C43.4,70.8,42.3,69.9,40.8,68.8z"/>
		<path class="st3" d="M58.6,43.8c-0.6-0.4-1.1-0.9-1.7-1.4c-4.2-3.5-7.6-8.2-7.6-8.2c0,0-3.4,4.7-7.6,8.2c-0.6,0.5-1.2,0.9-1.7,1.4
			c-2.9,2.3-5.1,4-5.1,7.4c0,2,0.8,3.9,2.2,5.3c1.4,1.4,3.4,2.2,5.5,2.2l0.1,0c2.2,0,4.1-0.9,5.6-2.4c-0.2,1.1-0.4,2.3-0.7,3.1
			c-1.1,3.1-3,4.4-2.9,4.4h9.5c0.1,0-1.8-1.3-2.9-4.4c-0.3-0.8-0.5-2.1-0.7-3.1c1.5,1.5,3.4,2.4,5.6,2.4l0.1,0c2.1,0,4-0.8,5.5-2.2
			c1.5-1.4,2.2-3.3,2.2-5.3C63.7,47.8,61.5,46,58.6,43.8z"/>
	</g>
	<path class="st3" d="M46.5,34.8L45,33.2c1.8-1.9,2.7-4.3,2.7-7.1c0-2.7-0.9-5-2.8-6.9c-1.9-1.9-4.2-2.8-6.9-2.8c-2.9,0-5.2,1-7,2.9
		c-1.8,2-2.6,4.2-2.6,6.6c0,2.9,0.9,5.4,2.7,7.2c1.8,1.9,4.1,2.8,7,2.8c1.3,0,2.7-0.3,4.3-0.9l1.5,1.8L46.5,34.8z M42.3,30l-1.9-2.2
		l-2.7,1.8l2,2.4c-0.7,0.1-1.4,0.2-1.9,0.2c-1.5,0-2.7-0.6-3.6-1.7c-1-1.1-1.4-2.6-1.4-4.3c0-1.7,0.5-3.1,1.5-4.2
		c1-1.1,2.3-1.6,3.8-1.6c1.6,0,2.9,0.6,3.9,1.7c1,1.1,1.5,2.6,1.5,4.4C43.4,27.9,43.1,29.1,42.3,30z"/>
</g>
</svg>
