<?xml version="1.0" encoding="utf-8"?>
<!-- Generator: Adobe Illustrator 23.0.3, SVG Export Plug-In . SVG Version: 6.00 Build 0)  -->
<svg version="1.1" id="Layer_1" xmlns="http://www.w3.org/2000/svg" xmlns:xlink="http://www.w3.org/1999/xlink" x="0px" y="0px"
	 viewBox="0 0 84.8 94.1" style="enable-background:new 0 0 84.8 94.1;" xml:space="preserve">
<style type="text/css">
	.st0{fill:#F6F6F6;}
	.st1{fill:#BE202E;}
	.st2{fill:#FFFFFF;}
	.st3{fill:#010101;}
	.st4{fill:#231F20;}
	.st5{opacity:0.3;}
</style>
<g>
	<path class="st0" d="M52.3,79.6c0,0.8-0.7,1.5-1.5,1.5h-42c-0.8,0-1.5-0.7-1.5-1.5V15.1c0-0.8,0.7-1.5,1.5-1.5h42
		c0.8,0,1.5,0.7,1.5,1.5V79.6z"/>
	<path class="st1" d="M20.5,40.9c-2.8-0.3-3.7,1.5-3.9,2.1c-0.2-0.6-1.1-2.4-3.9-2.1c-2.6,0.5-3.4,2.8-3.1,4.9
		c0.5,3.5,5.8,5.7,7,7.9l0,0.1l0-0.1c1.1-2.1,6.4-4.4,7-7.9C24,43.7,23.1,41.4,20.5,40.9z"/>
	<path class="st1" d="M33.7,44.3c-1.3-0.1-1.7,0.7-1.9,1c-0.1-0.3-0.5-1.1-1.9-1c-1.2,0.2-1.6,1.3-1.5,2.4c0.3,1.6,2.8,2.7,3.3,3.8
		l0,0l0,0c0.5-1,3.1-2.1,3.3-3.8C35.3,45.6,34.9,44.5,33.7,44.3z"/>
	<path class="st1" d="M33.7,59.2c-1.3-0.1-1.7,0.7-1.9,1c-0.1-0.3-0.5-1.1-1.9-1c-1.2,0.2-1.6,1.3-1.5,2.4c0.3,1.6,2.8,2.7,3.3,3.8
		l0,0l0,0c0.5-1,3.1-2.1,3.3-3.8C35.3,60.5,34.9,59.5,33.7,59.2z"/>
	<path class="st1" d="M33.7,29.4c-1.3-0.1-1.7,0.7-1.9,1c-0.1-0.3-0.5-1.1-1.9-1c-1.2,0.2-1.6,1.3-1.5,2.4c0.3,1.6,2.8,2.7,3.3,3.8
		l0,0l0,0c0.5-1,3.1-2.1,3.3-3.8C35.3,30.7,34.9,29.6,33.7,29.4z"/>
	<path class="st1" d="M46.1,44.3c-1.3-0.1-1.7,0.7-1.9,1c-0.1-0.3-0.5-1.1-1.9-1c-1.2,0.2-1.6,1.3-1.5,2.4c0.3,1.6,2.8,2.7,3.3,3.8
		l0,0l0,0c0.5-1,3.1-2.1,3.3-3.8C47.8,45.6,47.4,44.5,46.1,44.3z"/>
	<path class="st1" d="M46.1,59.2c-1.3-0.1-1.7,0.7-1.9,1c-0.1-0.3-0.5-1.1-1.9-1c-1.2,0.2-1.6,1.3-1.5,2.4c0.3,1.6,2.8,2.7,3.3,3.8
		l0,0l0,0c0.5-1,3.1-2.1,3.3-3.8C47.8,60.5,47.4,59.5,46.1,59.2z"/>
	<path class="st1" d="M46.1,29.4c-1.3-0.1-1.7,0.7-1.9,1c-0.1-0.3-0.5-1.1-1.9-1c-1.2,0.2-1.6,1.3-1.5,2.4c0.3,1.6,2.8,2.7,3.3,3.8
		l0,0l0,0c0.5-1,3.1-2.1,3.3-3.8C47.8,30.7,47.4,29.6,46.1,29.4z"/>
	<path class="st1" d="M15.2,15.5h4.9l-4.6,6.3c0.6-0.1,1.2-0.2,1.7-0.2c1.6,0,3,0.6,4.2,1.8c1.2,1.2,1.7,2.6,1.7,4.3
		c0,1.9-0.7,3.5-2.1,4.8c-1.4,1.3-3.1,1.9-5.2,1.9c-1.9,0-3.6-0.6-4.8-1.9c-1.3-1.2-1.9-2.8-1.9-4.7c0-1.4,0.3-2.8,0.9-4.2
		c0.6-1.4,1.3-2.7,2.1-3.8L15.2,15.5z M18.9,27.7c0-0.8-0.3-1.5-0.8-2.1c-0.5-0.6-1.2-0.9-2-0.9c-0.8,0-1.6,0.3-2.2,0.9
		c-0.6,0.6-0.9,1.3-0.9,2.1c0,0.8,0.3,1.5,0.9,2.1c0.6,0.6,1.3,0.9,2.2,0.9c0.8,0,1.4-0.3,2-0.9C18.6,29.2,18.9,28.5,18.9,27.7z"/>
</g>
</svg>
