<?xml version="1.0" encoding="utf-8"?>
<!-- Generator: Adobe Illustrator 23.0.3, SVG Export Plug-In . SVG Version: 6.00 Build 0)  -->
<svg version="1.1" id="Layer_1" xmlns="http://www.w3.org/2000/svg" xmlns:xlink="http://www.w3.org/1999/xlink" x="0px" y="0px"
	 viewBox="0 0 84.8 94.1" style="enable-background:new 0 0 84.8 94.1;" xml:space="preserve">
<style type="text/css">
	.st0{fill:#F6F6F6;}
	.st1{fill:#BE202E;}
	.st2{fill:#FFFFFF;}
	.st3{fill:#010101;}
	.st4{fill:#231F20;}
	.st5{opacity:0.3;}
</style>
<g>
	<path class="st0" d="M70.6,82.5c0,0.8-0.7,1.5-1.5,1.5h-42c-0.8,0-1.5-0.7-1.5-1.5V18c0-0.8,0.7-1.5,1.5-1.5h42
		c0.8,0,1.5,0.7,1.5,1.5V82.5z"/>
	<path class="st1" d="M38.8,43.8c-2.8-0.3-3.7,1.5-3.9,2.1c-0.2-0.6-1.1-2.4-3.9-2.1c-2.6,0.5-3.4,2.8-3.1,4.9
		c0.5,3.5,5.8,5.7,7,7.9l0,0.1l0-0.1c1.1-2.1,6.4-4.4,7-7.9C42.2,46.6,41.3,44.3,38.8,43.8z"/>
	<path class="st1" d="M51.9,47.2c-1.3-0.1-1.7,0.7-1.9,1c-0.1-0.3-0.5-1.1-1.9-1c-1.2,0.2-1.6,1.3-1.5,2.4c0.3,1.6,2.8,2.7,3.3,3.8
		l0,0l0,0c0.5-1,3.1-2.1,3.3-3.8C53.5,48.5,53.1,47.4,51.9,47.2z"/>
	<path class="st1" d="M51.9,62.1c-1.3-0.1-1.7,0.7-1.9,1c-0.1-0.3-0.5-1.1-1.9-1c-1.2,0.2-1.6,1.3-1.5,2.4c0.3,1.6,2.8,2.7,3.3,3.8
		l0,0l0,0c0.5-1,3.1-2.1,3.3-3.8C53.5,63.5,53.1,62.4,51.9,62.1z"/>
	<path class="st1" d="M51.9,32.3c-1.3-0.1-1.7,0.7-1.9,1c-0.1-0.3-0.5-1.1-1.9-1c-1.2,0.2-1.6,1.3-1.5,2.4c0.3,1.6,2.8,2.7,3.3,3.8
		l0,0l0,0c0.5-1,3.1-2.1,3.3-3.8C53.5,33.6,53.1,32.5,51.9,32.3z"/>
	<path class="st1" d="M64.4,47.2c-1.3-0.1-1.7,0.7-1.9,1c-0.1-0.3-0.5-1.1-1.9-1c-1.2,0.2-1.6,1.3-1.5,2.4c0.3,1.6,2.8,2.7,3.3,3.8
		l0,0l0,0c0.5-1,3.1-2.1,3.3-3.8C66,48.5,65.6,47.4,64.4,47.2z"/>
	<path class="st1" d="M58.1,39.7c-1.3-0.1-1.7,0.7-1.9,1c-0.1-0.3-0.5-1.1-1.9-1c-1.2,0.2-1.6,1.3-1.5,2.4c0.3,1.6,2.8,2.7,3.3,3.8
		l0,0l0,0c0.5-1,3.1-2.1,3.3-3.8C59.8,41.1,59.4,40,58.1,39.7z"/>
	<path class="st1" d="M64.4,62.1c-1.3-0.1-1.7,0.7-1.9,1c-0.1-0.3-0.5-1.1-1.9-1c-1.2,0.2-1.6,1.3-1.5,2.4c0.3,1.6,2.8,2.7,3.3,3.8
		l0,0l0,0c0.5-1,3.1-2.1,3.3-3.8C66,63.5,65.6,62.4,64.4,62.1z"/>
	<path class="st1" d="M64.4,32.3c-1.3-0.1-1.7,0.7-1.9,1c-0.1-0.3-0.5-1.1-1.9-1c-1.2,0.2-1.6,1.3-1.5,2.4c0.3,1.6,2.8,2.7,3.3,3.8
		l0,0l0,0c0.5-1,3.1-2.1,3.3-3.8C66,33.6,65.6,32.5,64.4,32.3z"/>
	<path class="st1" d="M28.5,18.3h14.7L31.3,37.5L28,35.4l8.4-13.7h-8V18.3z"/>
</g>
</svg>
