<?xml version="1.0" encoding="utf-8"?>
<!-- Generator: Adobe Illustrator 23.0.3, SVG Export Plug-In . SVG Version: 6.00 Build 0)  -->
<svg version="1.1" id="Layer_1" xmlns="http://www.w3.org/2000/svg" xmlns:xlink="http://www.w3.org/1999/xlink" x="0px" y="0px"
	 viewBox="0 0 84.8 94.1" style="enable-background:new 0 0 84.8 94.1;" xml:space="preserve">
<style type="text/css">
	.st0{fill:#F6F6F6;}
	.st1{fill:#BE202E;}
	.st2{fill:#FFFFFF;}
	.st3{fill:#010101;}
	.st4{fill:#231F20;}
	.st5{opacity:0.3;}
</style>
<g>
	<path class="st0" d="M65.8,80.5c0,0.8-0.7,1.5-1.5,1.5h-42c-0.8,0-1.5-0.7-1.5-1.5V16c0-0.8,0.7-1.5,1.5-1.5h42
		c0.8,0,1.5,0.7,1.5,1.5V80.5z"/>
	<path class="st1" d="M30.7,16.2h4.1v13.6c0,1.8-0.5,3.2-1.5,4.2c-1,1.1-2.2,1.6-3.8,1.6c-1.1,0-2.2-0.3-3.1-1
		c-0.9-0.7-1.6-1.7-2.1-3.1l3-2.3v0.1c0,0,0.1,0.2,0.3,0.6c0.2,0.4,0.4,0.8,0.7,1.1c0.3,0.3,0.6,0.5,0.9,0.5c0.5,0,0.8-0.2,1.1-0.6
		c0.3-0.4,0.4-0.9,0.4-1.5V16.2z"/>
	<path class="st1" d="M34,64.2c-2.8-0.3-3.7,1.5-3.9,2.1c-0.2-0.6-1.1-2.4-3.9-2.1c-2.6,0.5-3.4,2.8-3.1,4.9c0.5,3.5,5.8,5.7,7,7.9
		l0,0.1l0-0.1c1.1-2.1,6.4-4.4,7-7.9C37.4,67,36.6,64.7,34,64.2z"/>
	<path class="st1" d="M51.1,37.3c-5.6-0.6-7.4,3-7.8,4.2c-0.5-1.2-2.2-4.8-7.8-4.2c-5.2,1-6.9,5.5-6.2,9.9c1.1,7,11.7,11.5,14,15.8
		l0.1,0.2l0.1-0.2c2.2-4.3,12.9-8.9,14-15.8C58,42.9,56.3,38.3,51.1,37.3z"/>
</g>
</svg>
