<?xml version="1.0" encoding="utf-8"?>
<!-- Generator: Adobe Illustrator 23.0.3, SVG Export Plug-In . SVG Version: 6.00 Build 0)  -->
<svg version="1.1" id="Layer_1" xmlns="http://www.w3.org/2000/svg" xmlns:xlink="http://www.w3.org/1999/xlink" x="0px" y="0px"
	 viewBox="0 0 84.8 94.1" style="enable-background:new 0 0 84.8 94.1;" xml:space="preserve">
<style type="text/css">
	.st0{fill:#F6F6F6;}
	.st1{fill:#BE202E;}
	.st2{fill:#FFFFFF;}
	.st3{fill:#010101;}
	.st4{fill:#231F20;}
	.st5{opacity:0.3;}
</style>
<g>
	<path class="st0" d="M62.1,81.3c0,0.8-0.7,1.5-1.5,1.5h-42c-0.8,0-1.5-0.7-1.5-1.5V16.8c0-0.8,0.7-1.5,1.5-1.5h42
		c0.8,0,1.5,0.7,1.5,1.5V81.3z"/>
	<path class="st1" d="M30.3,65c-2.8-0.3-3.7,1.5-3.9,2.1c-0.2-0.6-1.1-2.4-3.9-2.1c-2.6,0.5-3.4,2.8-3.1,4.9c0.5,3.5,5.8,5.7,7,7.9
		l0,0.1l0-0.1c1.1-2.1,6.4-4.4,7-7.9C33.7,67.8,32.9,65.5,30.3,65z"/>
	<path class="st1" d="M47.4,38.1c-5.6-0.6-7.4,3-7.8,4.2c-0.5-1.2-2.2-4.8-7.8-4.2c-5.2,1-6.9,5.5-6.2,9.9c1.1,7,11.7,11.5,14,15.8
		l0.1,0.2l0.1-0.2c2.2-4.3,12.9-8.9,14-15.8C54.3,43.6,52.6,39.1,47.4,38.1z"/>
	<path class="st1" d="M36.7,34.8l-1.4-1.6c1.8-1.9,2.7-4.3,2.7-7.1c0-2.7-0.9-5-2.8-6.9c-1.9-1.9-4.2-2.8-6.9-2.8
		c-2.9,0-5.2,1-7,2.9c-1.8,2-2.6,4.2-2.6,6.6c0,2.9,0.9,5.4,2.7,7.2c1.8,1.9,4.1,2.8,7,2.8c1.3,0,2.7-0.3,4.3-0.9l1.5,1.8L36.7,34.8
		z M32.6,30l-1.9-2.2L28,29.6l2,2.4c-0.7,0.1-1.4,0.2-1.9,0.2c-1.5,0-2.7-0.6-3.6-1.7c-1-1.1-1.4-2.6-1.4-4.3c0-1.7,0.5-3.1,1.5-4.2
		c1-1.1,2.3-1.6,3.8-1.6c1.6,0,2.9,0.6,3.9,1.7c1,1.1,1.5,2.6,1.5,4.4C33.7,27.9,33.3,29.1,32.6,30z"/>
</g>
</svg>
