<?xml version="1.0" encoding="utf-8"?>
<!-- Generator: Adobe Illustrator 23.0.3, SVG Export Plug-In . SVG Version: 6.00 Build 0)  -->
<svg version="1.1" id="Layer_1" xmlns="http://www.w3.org/2000/svg" xmlns:xlink="http://www.w3.org/1999/xlink" x="0px" y="0px"
	 viewBox="0 0 84.8 94.1" style="enable-background:new 0 0 84.8 94.1;" xml:space="preserve">
<style type="text/css">
	.st0{fill:#F6F6F6;}
	.st1{fill:#BE202E;}
	.st2{fill:#FFFFFF;}
	.st3{fill:#010101;}
	.st4{fill:#231F20;}
	.st5{opacity:0.3;}
</style>
<g>
	<g>
		<path class="st0" d="M64.5,78.2c0,0.8-0.7,1.5-1.5,1.5H21c-0.8,0-1.5-0.7-1.5-1.5V13.7c0-0.8,0.7-1.5,1.5-1.5h42
			c0.8,0,1.5,0.7,1.5,1.5V78.2z"/>
		<path class="st1" d="M29.3,29.6h5.3v3.5h-13l6.3-8.1c0.9-1.2,1.6-2.2,2-2.9c0.4-0.8,0.6-1.5,0.6-2.1c0-0.7-0.2-1.3-0.7-1.8
			c-0.5-0.5-1.1-0.7-1.8-0.7c-0.8,0-1.4,0.3-1.8,0.9c-0.4,0.6-0.6,1.5-0.7,2.8h-4.1c0-2.3,0.7-4,2-5.2c1.3-1.2,3-1.9,4.9-1.9
			c1.8,0,3.3,0.5,4.5,1.6c1.2,1.1,1.7,2.4,1.7,4.1c0,1.6-0.7,3.4-2,5.4l-1.1,1.6c-0.4,0.7-1,1.4-1.7,2.2L29.3,29.6z"/>
	</g>
	<path class="st1" d="M32.7,39.5c-2.8-0.3-3.7,1.5-3.9,2.1c-0.2-0.6-1.1-2.4-3.9-2.1c-2.6,0.5-3.4,2.8-3.1,4.9
		c0.5,3.5,5.8,5.7,7,7.9l0,0.1l0-0.1c1.1-2.1,6.4-4.4,7-7.9C36.1,42.3,35.3,40,32.7,39.5z"/>
	<path class="st1" d="M48.3,32.2c-1.3-0.1-1.7,0.7-1.9,1c-0.1-0.3-0.5-1.1-1.9-1c-1.2,0.2-1.6,1.3-1.5,2.4c0.3,1.6,2.8,2.7,3.3,3.8
		l0,0l0,0c0.5-1,3.1-2.1,3.3-3.8C49.9,33.5,49.5,32.4,48.3,32.2z"/>
	<path class="st1" d="M48.3,54.6c-1.3-0.1-1.7,0.7-1.9,1c-0.1-0.3-0.5-1.1-1.9-1c-1.2,0.2-1.6,1.3-1.5,2.4c0.3,1.6,2.8,2.7,3.3,3.8
		l0,0l0,0c0.5-1,3.1-2.1,3.3-3.8C49.9,55.9,49.5,54.8,48.3,54.6z"/>
</g>
</svg>
