<?xml version="1.0" encoding="utf-8"?>
<!-- Generator: Adobe Illustrator 23.0.3, SVG Export Plug-In . SVG Version: 6.00 Build 0)  -->
<svg version="1.1" id="Layer_1" xmlns="http://www.w3.org/2000/svg" xmlns:xlink="http://www.w3.org/1999/xlink" x="0px" y="0px"
	 viewBox="0 0 84.8 94.1" style="enable-background:new 0 0 84.8 94.1;" xml:space="preserve">
<style type="text/css">
	.st0{fill:#F6F6F6;}
	.st1{fill:#BE202E;}
	.st2{fill:#FFFFFF;}
	.st3{fill:#010101;}
	.st4{fill:#231F20;}
	.st5{opacity:0.3;}
</style>
<g>
	<g>
		<path class="st0" d="M68,74.5c0,0.8-0.7,1.5-1.5,1.5h-42c-0.8,0-1.5-0.7-1.5-1.5V9.9c0-0.8,0.7-1.5,1.5-1.5h42
			c0.8,0,1.5,0.7,1.5,1.5V74.5z"/>
		<path class="st1" d="M32.9,10.1H37v13.6c0,1.8-0.5,3.2-1.5,4.2c-1,1.1-2.2,1.6-3.8,1.6c-1.1,0-2.2-0.3-3.1-1
			c-0.9-0.7-1.6-1.7-2.1-3.1l3-2.3v0.1c0,0,0.1,0.2,0.3,0.6s0.4,0.8,0.7,1.1c0.3,0.3,0.6,0.5,0.9,0.5c0.5,0,0.8-0.2,1.1-0.6
			c0.3-0.4,0.4-0.9,0.4-1.5V10.1z"/>
	</g>
	<path class="st1" d="M38.7,64.6c-2.1,1.9-5,5.8-6.4,8.7c-1.4-2.9-4.3-6.8-6.4-8.7c2.1-1.9,5-5.8,6.4-8.7
		C33.7,58.8,36.6,62.7,38.7,64.6z"/>
	<path class="st1" d="M58.2,42.2c-4.2,3.8-9.9,11.5-12.7,17.3c-2.8-5.8-8.5-13.4-12.7-17.3c4.2-3.8,9.9-11.5,12.7-17.3
		C48.3,30.7,53.9,38.4,58.2,42.2z"/>
</g>
</svg>
