<?xml version="1.0" encoding="utf-8"?>
<!-- Generator: Adobe Illustrator 23.0.3, SVG Export Plug-In . SVG Version: 6.00 Build 0)  -->
<svg version="1.1" id="Layer_1" xmlns="http://www.w3.org/2000/svg" xmlns:xlink="http://www.w3.org/1999/xlink" x="0px" y="0px"
	 viewBox="0 0 84.8 94.1" style="enable-background:new 0 0 84.8 94.1;" xml:space="preserve">
<style type="text/css">
	.st0{fill:#F6F6F6;}
	.st1{fill:#BE202E;}
	.st2{fill:#FFFFFF;}
	.st3{fill:#010101;}
	.st4{fill:#231F20;}
	.st5{opacity:0.3;}
</style>
<g>
	<path class="st0" d="M54.2,10.2c1.2,0,2.3,1,2.3,2.3v63c0,1.2-1,2.3-2.3,2.3H13.7c-1.2,0-2.3-1-2.3-2.3v-63c0-1.2,1-2.3,2.3-2.3
		H54.2z"/>
	<path class="st3" d="M47.5,46c0,0.1,0,0.2,0,0.3v0c0,0.1,0,0.2,0,0.3v0c-0.1,1.6-0.9,3.2-2.1,4.4c-1.4,1.3-3.2,2.1-5.2,2.1h-0.1
		c-2,0-3.9-0.8-5.2-2.3c0.2,1,0.4,2.2,0.7,3c1.1,2.9,2.9,4.2,2.7,4.2h-9c-0.1,0,1.7-1.2,2.7-4.2c0.3-0.8,0.5-2,0.7-3
		c-1.4,1.4-3.2,2.3-5.2,2.3h-0.1c-2,0-3.8-0.8-5.2-2.1c-1.2-1.2-1.9-2.7-2.1-4.4v0l0,0l0-0.3l0,0v0c0-0.1,0-0.2,0-0.3
		c0-3.2,2.2-4.9,4.9-7c0.5-0.4,1.1-0.8,1.6-1.3c3.8-3.2,7.1-7.8,7.2-7.8c0,0,3.4,4.6,7.2,7.8c0.6,0.5,1.1,0.9,1.6,1.3
		C45.4,41.2,47.5,42.8,47.5,46z"/>
	<g>
		<g>
			<path class="st2" d="M47.5,46.4L47.5,46.4c0,0.1,0,0.2,0,0.3c-0.2-2.9-2.3-4.5-4.8-6.5c-0.5-0.4-1.1-0.8-1.6-1.3
				c-3.8-3.2-7.1-7.8-7.2-7.8c0,0-3.4,4.6-7.2,7.8c-0.6,0.5-1.1,0.9-1.6,1.3c-2.6,2-4.6,3.6-4.8,6.5l0,0l0-0.3l0,0v0
				c0.1-3,2.2-4.7,4.9-6.8c0.5-0.4,1.1-0.8,1.6-1.3c3.8-3.2,7.1-7.8,7.2-7.8c0,0,3.4,4.6,7.2,7.8c0.6,0.5,1.1,0.9,1.6,1.3
				C45.3,41.7,47.4,43.3,47.5,46.4z"/>
		</g>
	</g>
	<g>
		<g>
			<g>
				<path class="st2" d="M34.1,43.2c0,0.7,0,1.3,0,2c0,0.2,0,0.4,0,0.6v0.3c0,4.7-0.1,8.2-0.2,8.2c-0.1,0-0.1-3.5-0.2-8.2v-0.3
					c0-0.2,0-0.4,0-0.6c0-0.6,0-1.3,0-2c0-6.1,0.1-11.1,0.2-11.1C34,32.1,34.1,37.1,34.1,43.2z"/>
			</g>
			<g>
				<path class="st2" d="M33.9,31.9c-0.5,1.3-1.4,3.1-2.1,4c0.2,0.4,1.2,0.2,1.4-0.3c-0.5,0.2-0.7,0.3-0.9,0.1c0.5-0.8,1-2,1.4-2.9
					c0-0.1,0.1-0.2,0.1-0.3c0,0.1,0.1,0.3,0.1,0.3c0.4,1,0.9,2.1,1.4,2.9c-0.2,0.2-0.4,0.1-0.9-0.1c0.2,0.6,1.2,0.7,1.4,0.3
					C35.3,35,34.4,33.2,33.9,31.9z"/>
			</g>
		</g>
		<g>
			<g>
				<g>
					<path class="st2" d="M33.9,37c-0.4,1.3-1.1,3.1-1.6,4c0.2,0.4,0.9,0.2,1.1-0.3c-0.4,0.2-0.5,0.3-0.7,0.1c0.4-0.8,0.8-2,1.1-2.9
						c0-0.1,0.1-0.2,0.1-0.3c0,0.1,0.1,0.3,0.1,0.3c0.3,1,0.7,2.1,1.1,2.9c-0.2,0.2-0.3,0.1-0.7-0.1c0.2,0.6,0.9,0.7,1.1,0.3
						C35,40.1,34.3,38.3,33.9,37z"/>
				</g>
				<g>
					<path class="st2" d="M33.9,37c-0.2,1.3-0.5,3.1-0.7,4c0.1,0.4,0.7,0.2,0.8-0.3c-0.2,0.2-0.5,0.3-0.6,0.1c0.2-0.8,0.4-2,0.5-2.9
						c0-0.1,0-0.2,0-0.3c0,0.1,0,0.3,0,0.3c0.1,1,0.3,2.1,0.5,2.9c-0.1,0.2-0.4,0.1-0.6-0.1c0.1,0.6,0.7,0.7,0.8,0.3
						C34.4,40.1,34.1,38.3,33.9,37z"/>
				</g>
				<g>
					<path class="st2" d="M33.9,37c-0.8,1.3-2.4,3.1-3.6,4c0.4,0.4,2.1,0.2,2.5-0.3c-0.8,0.2-1.2,0.3-1.6,0.1c0.9-0.8,1.9-2,2.5-2.9
						c0.1-0.1,0.1-0.2,0.2-0.3c0.1,0.1,0.2,0.3,0.2,0.3c0.6,1,1.6,2.1,2.5,2.9c-0.4,0.2-0.7,0.1-1.6-0.1c0.4,0.6,2.1,0.7,2.5,0.3
						C36.4,40.1,34.7,38.3,33.9,37z"/>
				</g>
			</g>
			<g>
				<g>
					<path class="st2" d="M33.9,40.4c-1,0-1.8-0.8-1.8-1.8c0-1,0.8-1.8,1.8-1.8c1,0,1.8,0.8,1.8,1.8C35.8,39.6,34.9,40.4,33.9,40.4z
						"/>
				</g>
				<g>
					<path class="st4" d="M33.9,40.1c-0.9,0-1.6-0.7-1.6-1.6c0-0.9,0.7-1.6,1.6-1.6c0.9,0,1.6,0.7,1.6,1.6
						C35.5,39.4,34.8,40.1,33.9,40.1z"/>
				</g>
				<g>
					<path class="st2" d="M35.2,38.6c0,0.7-0.6,1.3-1.3,1.3c-0.7,0-1.3-0.6-1.3-1.3c0-0.7,0.6-1.3,1.3-1.3
						C34.6,37.3,35.2,37.9,35.2,38.6z"/>
				</g>
				<g>
					<path class="st4" d="M33.9,39.6c-0.5,0-1-0.4-1-1c0-0.5,0.4-1,1-1c0.5,0,1,0.4,1,1C34.9,39.1,34.5,39.6,33.9,39.6z"/>
				</g>
			</g>
		</g>
		<g>
			<g>
				<g>
					<path class="st2" d="M33.9,48.8c-0.5,0-1-0.8-1-1.9c0,0.1,0,0.2,0,0.3c0,1.2,0.5,2.2,1,2.2c0.6,0,1-1,1-2.2c0-0.1,0-0.2,0-0.3
						C34.9,47.9,34.4,48.8,33.9,48.8z"/>
				</g>
				<g>
					<path class="st2" d="M33.9,51.1c-0.4,0-0.7-0.6-0.8-1.4c0,0.1,0,0.1,0,0.2c0,0.9,0.3,1.6,0.8,1.6c0.4,0,0.8-0.7,0.8-1.6
						c0-0.1,0-0.1,0-0.2C34.6,50.5,34.3,51.1,33.9,51.1z"/>
				</g>
			</g>
			<g>
				<g>
					<path class="st2" d="M34.1,45.9v0.3c0,0,0,0,0,0c-0.1,0-0.2,0-0.2-0.1c0-0.1-0.1-0.2-0.1-0.2c-0.2-0.4-0.4-0.7-0.6-1
						c-0.5,0.3-1.4-0.1-2.2-1c-0.1-0.1-0.1-0.1-0.2-0.2c0.7,0.7,1.6,1,2,0.8c-0.7-0.8-1.6-1.4-2.6-1.7c-0.3,0.4-1.2,0.6-2.1,0.6
						c-0.1,0-0.2,0-0.3,0c0.9,0,1.7-0.3,1.9-0.7c-1-0.2-2-0.2-3,0.1c0,0.5-0.5,1.3-1.3,1.8c-0.1,0.1-0.2,0.1-0.2,0.2
						c0.8-0.6,1.2-1.4,1-1.8c0,0,0,0-0.1,0c-1,0.4-1.8,1.1-2.3,1.9c0.4,0.3,0.4,1.3,0,2.3c0,0.1-0.1,0.2-0.1,0.3
						c0.3-1,0.3-1.8-0.1-2.1c-0.4,1-0.6,2.1-0.3,3.2c0.5,0,1.2,0.6,1.7,1.6c0,0.1,0.1,0.2,0.1,0.3c-0.5-0.9-1.2-1.4-1.6-1.3
						c0,0,0,0.1,0,0.1c0.8,1.9,3,2.9,4.9,2.1c0.7-0.3,1.3-0.9,1.6-1.6c0.3-0.7,0.3-1.6,0-2.3c-0.2-0.6-0.7-1-1.3-1.3
						c-0.6-0.2-1.2-0.2-1.8,0c-1,0.4-1.4,1.5-1,2.4c0.3,0.7,1.2,1.1,1.9,0.8c0.6-0.2,0.9-0.9,0.6-1.5c-0.2-0.5-0.7-0.7-1.2-0.5
						c-0.2,0.1-0.3,0.2-0.4,0.4c0.1,0,0.1,0,0.2,0c0.3,0,0.5,0.2,0.5,0.5c0,0.3-0.2,0.5-0.5,0.5c-0.2,0-0.4-0.1-0.4-0.3c0,0,0,0,0,0
						c-0.2-0.5,0-1.1,0.5-1.3c0.6-0.2,1.3,0,1.5,0.6c0.3,0.7-0.1,1.6-0.8,1.9c-0.9,0.4-1.9-0.1-2.3-1c-0.4-1.1,0.1-2.4,1.2-2.8
						c0.7-0.3,1.4-0.3,2,0c0.7,0.3,1.2,0.8,1.4,1.4c0.3,0.8,0.3,1.7,0,2.5c-0.3,0.8-1,1.4-1.8,1.8c-0.5,0.2-1,0.3-1.5,0.3
						c-1.6,0-3.1-1-3.8-2.5c0,0,0,0,0-0.1c-0.3,0.3-0.3,1.2,0.1,2.1c0-0.1-0.1-0.2-0.1-0.3c-0.5-1-0.5-2.1-0.1-2.4
						c-0.3-1.1-0.2-2.3,0.3-3.3c-0.5,0-1.1,0.6-1.5,1.4c0-0.1,0.1-0.2,0.1-0.3c0.4-1,1.1-1.8,1.7-1.7c0.5-0.9,1.4-1.6,2.4-2.1
						c-0.4-0.3-1.2-0.1-2,0.4c0.1-0.1,0.1-0.1,0.2-0.2c1-0.7,2-0.9,2.4-0.5c0,0,0,0,0,0c1.1-0.3,2.2-0.3,3.2-0.1
						c-0.1-0.5-0.8-0.9-1.9-1.1c0.1,0,0.2,0,0.3,0c1.2,0.1,2.2,0.6,2.1,1.2c0,0,0,0,0,0c1,0.3,2,0.9,2.7,1.7
						c0.2-0.4-0.1-1.2-0.7-1.9c0.1,0.1,0.1,0.1,0.2,0.2c0.7,0.8,1.1,1.7,0.9,2.2c0.2,0.2,0.3,0.4,0.4,0.6
						C33.9,45.4,34,45.7,34.1,45.9z"/>
				</g>
				<g>
					<path class="st2" d="M44.6,45.1c0.5,1,0.6,2.2,0.3,3.3c0.4,0.3,0.4,1.3-0.1,2.4c0,0.1-0.1,0.2-0.1,0.3c0.4-0.9,0.4-1.7,0.1-2.1
						c0,0,0,0,0,0.1c-0.6,1.6-2.2,2.5-3.8,2.5c-0.5,0-1-0.1-1.5-0.3c-0.8-0.3-1.4-1-1.8-1.8c-0.3-0.8-0.3-1.7,0-2.5
						c0.3-0.7,0.8-1.2,1.4-1.4c0.7-0.3,1.4-0.3,2,0c1.1,0.4,1.6,1.7,1.2,2.8c-0.4,0.9-1.4,1.3-2.3,1c-0.7-0.3-1.1-1.1-0.8-1.9
						c0.2-0.6,0.9-0.9,1.5-0.6c0.5,0.2,0.7,0.8,0.5,1.3c0,0,0,0,0,0c-0.1,0.2-0.2,0.3-0.4,0.3c-0.3,0-0.5-0.2-0.5-0.5
						c0-0.3,0.2-0.5,0.5-0.5c0.1,0,0.1,0,0.2,0c-0.1-0.2-0.2-0.3-0.4-0.4c-0.5-0.2-1,0-1.2,0.5c-0.2,0.6,0,1.3,0.6,1.5
						c0.7,0.3,1.6-0.1,1.9-0.8c0.4-1-0.1-2-1-2.4c-0.6-0.2-1.2-0.2-1.8,0c-0.6,0.2-1,0.7-1.3,1.3c-0.3,0.7-0.3,1.6,0,2.3
						c0.3,0.7,0.9,1.3,1.6,1.6c1.9,0.8,4.1-0.1,4.9-2.1c0,0,0-0.1,0-0.1c-0.5-0.1-1.1,0.5-1.6,1.3c0-0.1,0.1-0.2,0.1-0.3
						c0.5-1,1.2-1.6,1.7-1.6c0.3-1.1,0.2-2.2-0.3-3.2c-0.4,0.3-0.5,1.2-0.1,2.1c0-0.1-0.1-0.2-0.1-0.3c-0.4-1-0.4-2,0-2.3
						c-0.5-0.8-1.3-1.5-2.3-1.9c0,0,0,0-0.1,0c-0.2,0.4,0.2,1.2,1,1.8c-0.1-0.1-0.2-0.1-0.2-0.2c-0.8-0.6-1.3-1.3-1.3-1.8
						c-1-0.3-2.1-0.3-3-0.1c0.2,0.4,1,0.7,1.9,0.7c-0.1,0-0.2,0-0.3,0c-1,0.1-1.8-0.2-2.1-0.6c-1,0.3-1.9,0.9-2.6,1.7
						c0.4,0.3,1.2,0,2-0.8c-0.1,0.1-0.1,0.1-0.2,0.2c-0.8,0.8-1.7,1.3-2.2,1c-0.2,0.3-0.4,0.7-0.6,1c0,0.1-0.1,0.2-0.1,0.2
						c0,0.1-0.1,0.1-0.2,0.1c0,0,0,0,0,0v-0.3c0.1-0.2,0.2-0.5,0.3-0.7c0.1-0.2,0.3-0.4,0.4-0.6c-0.2-0.5,0.1-1.4,0.9-2.2
						c0.1-0.1,0.1-0.1,0.2-0.2c-0.6,0.7-0.8,1.5-0.7,1.9c0.7-0.8,1.7-1.4,2.7-1.7c0,0,0,0,0,0c0-0.6,0.9-1.1,2.1-1.2
						c0.1,0,0.2,0,0.3,0c-1,0.1-1.8,0.6-1.9,1.1c1-0.2,2.1-0.2,3.2,0.1c0,0,0,0,0,0c0.3-0.5,1.4-0.2,2.4,0.5
						c0.1,0.1,0.2,0.1,0.2,0.2c-0.8-0.5-1.6-0.7-2-0.4c1,0.4,1.9,1.2,2.4,2.1c0.5-0.1,1.2,0.6,1.7,1.7c0,0.1,0.1,0.2,0.1,0.3
						C45.6,45.7,45,45.1,44.6,45.1z"/>
				</g>
			</g>
		</g>
	</g>
	<g>
		<g>
			<g>
				<g>
					<path class="st2" d="M16.5,71.2c0.4-0.4,1.1-0.4,1.6,0c0.4,0.4,0.4,1.1,0,1.6c-0.4,0.4-1.1,0.4-1.6,0
						C16.1,72.3,16.1,71.6,16.5,71.2z"/>
					<path class="st4" d="M17.3,73.1c-0.3,0-0.6-0.1-0.8-0.3c-0.5-0.5-0.5-1.2,0-1.7c0.2-0.2,0.5-0.3,0.8-0.3c0.3,0,0.6,0.1,0.8,0.3
						c0.2,0.2,0.3,0.5,0.3,0.8c0,0.3-0.1,0.6-0.3,0.8C17.9,73,17.6,73.1,17.3,73.1z M17.3,70.9c-0.3,0-0.5,0.1-0.7,0.3
						c-0.4,0.4-0.4,1.1,0,1.5c0.2,0.2,0.5,0.3,0.7,0.3c0.3,0,0.5-0.1,0.7-0.3c0.2-0.2,0.3-0.5,0.3-0.7c0-0.3-0.1-0.5-0.3-0.7
						C17.8,71,17.5,70.9,17.3,70.9z"/>
				</g>
				<g>
					<g>
						<g>
							<path class="st2" d="M17.5,72.5c0.5-0.5,0.8-1.1,0.6-1.3c-0.2-0.2-0.8,0-1.3,0.6c-0.5,0.5-0.8,1.1-0.6,1.3
								C16.4,73.3,17,73,17.5,72.5z"/>
							<path class="st4" d="M16.4,73.2L16.4,73.2c-0.1,0-0.2,0-0.3-0.1c-0.1-0.1-0.1-0.3,0-0.6c0.1-0.3,0.3-0.5,0.6-0.8
								c0.4-0.4,0.9-0.7,1.2-0.7c0.1,0,0.2,0,0.3,0.1c0.1,0.1,0.1,0.3,0,0.6c-0.1,0.3-0.3,0.5-0.6,0.8
								C17.1,72.9,16.7,73.2,16.4,73.2z M17.8,71.1c-0.3,0-0.7,0.3-1.1,0.6c-0.5,0.5-0.7,1.1-0.6,1.2c0,0,0.1,0.1,0.2,0.1
								c0.3,0,0.7-0.3,1.1-0.6c0.3-0.2,0.4-0.5,0.5-0.8c0.1-0.2,0.1-0.4,0-0.5C18,71.2,17.9,71.1,17.8,71.1z"/>
						</g>
					</g>
					<g>
						<path class="st2" d="M18.4,71.3c0.3-0.3,0.4-0.6,0.3-0.8c-0.1-0.1-0.5,0-0.8,0.3c-0.3,0.3-0.4,0.6-0.3,0.8
							C17.8,71.7,18.1,71.6,18.4,71.3z"/>
						<path class="st4" d="M17.8,71.7L17.8,71.7c-0.1,0-0.2,0-0.2-0.1c-0.1-0.1-0.1-0.2-0.1-0.4c0.1-0.2,0.2-0.3,0.3-0.5
							c0.3-0.3,0.7-0.4,0.9-0.3c0.1,0.1,0.1,0.2,0,0.4c-0.1,0.2-0.2,0.3-0.3,0.5C18.2,71.6,18,71.7,17.8,71.7z M18.5,70.6
							c-0.2,0-0.4,0.1-0.6,0.3c-0.1,0.1-0.2,0.3-0.3,0.4c0,0.1,0,0.2,0,0.3c0,0,0.1,0,0.1,0c0.2,0,0.4-0.1,0.6-0.3
							c0.1-0.1,0.2-0.3,0.3-0.4c0-0.1,0-0.2,0-0.3C18.6,70.6,18.5,70.6,18.5,70.6z"/>
					</g>
					<g>
						<g>
							<path class="st2" d="M18.6,72c0.2-0.2,0.2-0.5,0-0.8l-0.6-0.6c-0.2-0.2-0.6-0.2-0.8,0c-0.2,0.2-0.2,0.5,0,0.8l0.6,0.6
								C18,72.2,18.4,72.2,18.6,72z"/>
						</g>
						<g>
							<path class="st4" d="M18.2,72.3L18.2,72.3c-0.2,0-0.3-0.1-0.4-0.2l-0.6-0.6c-0.2-0.2-0.2-0.6,0-0.9c0.2-0.2,0.6-0.2,0.8,0
								l0.6,0.6c0.1,0.1,0.2,0.3,0.2,0.4c0,0.2-0.1,0.3-0.2,0.4C18.5,72.2,18.4,72.3,18.2,72.3z M17.5,70.6c-0.1,0-0.2,0-0.3,0.1
								c-0.2,0.2-0.2,0.5,0,0.7l0.6,0.6c0.2,0.2,0.5,0.2,0.7,0c0.1-0.1,0.1-0.2,0.1-0.3c0-0.1-0.1-0.3-0.1-0.3l-0.6-0.6
								C17.8,70.6,17.7,70.6,17.5,70.6z"/>
						</g>
					</g>
				</g>
			</g>
			<g>
				<g>
					<path class="st4" d="M14.2,71.2c-1.1,0-2-0.9-2-2.1c0,0,0-0.1,0.1-0.1c0,0,0.1,0,0.1,0.1c0,1,0.8,1.9,1.9,1.9
						c1,0,1.9-0.9,1.9-1.9V29.2c0,0,0-0.1,0.1-0.1c0,0,0.1,0,0.1,0.1v39.9C16.2,70.2,15.3,71.2,14.2,71.2z"/>
				</g>
			</g>
			<g>
				<g>
					<path class="st4" d="M20.2,77c-1.1,0-2.1-0.9-2.1-2c0-1.1,0.9-2,2.1-2h25.7c0,0,0.1,0,0.1,0.1c0,0,0,0.1-0.1,0.1H20.2
						c-1,0-1.9,0.8-1.9,1.9c0,1,0.9,1.9,1.9,1.9C20.3,76.8,20.3,76.9,20.2,77C20.3,77,20.3,77,20.2,77z"/>
				</g>
			</g>
		</g>
		<g>
			<g>
				<g>
					<path class="st2" d="M51.4,16.8c-0.4,0.4-1.1,0.4-1.6,0c-0.4-0.4-0.4-1.1,0-1.6c0.4-0.4,1.1-0.4,1.6,0
						C51.8,15.7,51.8,16.4,51.4,16.8z"/>
					<path class="st4" d="M50.6,17.2c-0.3,0-0.6-0.1-0.8-0.3c-0.2-0.2-0.3-0.5-0.3-0.8c0-0.3,0.1-0.6,0.3-0.8
						c0.2-0.2,0.5-0.3,0.8-0.3c0.3,0,0.6,0.1,0.8,0.3c0.5,0.5,0.5,1.2,0,1.7C51.2,17.1,50.9,17.2,50.6,17.2z M50.6,15
						c-0.3,0-0.5,0.1-0.7,0.3c-0.2,0.2-0.3,0.5-0.3,0.7c0,0.3,0.1,0.5,0.3,0.7c0.2,0.2,0.5,0.3,0.7,0.3c0.3,0,0.5-0.1,0.7-0.3
						c0.4-0.4,0.4-1.1,0-1.5C51.1,15.2,50.8,15,50.6,15z"/>
				</g>
				<g>
					<g>
						<g>
							<path class="st2" d="M50.4,15.5c-0.5,0.5-0.8,1.1-0.6,1.3c0.2,0.2,0.8,0,1.3-0.6c0.5-0.5,0.8-1.1,0.6-1.3
								C51.5,14.7,50.9,15,50.4,15.5z"/>
							<path class="st4" d="M50,17L50,17c-0.1,0-0.2,0-0.3-0.1c-0.1-0.1-0.1-0.3,0-0.6c0.1-0.3,0.3-0.6,0.6-0.8
								c0.4-0.4,0.9-0.7,1.2-0.7c0.1,0,0.2,0,0.3,0.1c0.1,0.1,0.1,0.3,0,0.6c-0.1,0.3-0.3,0.6-0.6,0.8C50.8,16.7,50.3,17,50,17z
								 M51.5,14.9c-0.3,0-0.7,0.3-1.1,0.6c-0.3,0.2-0.4,0.5-0.5,0.8c-0.1,0.2-0.1,0.4,0,0.5c0,0,0.1,0.1,0.2,0.1
								c0.3,0,0.7-0.3,1.1-0.6c0.5-0.5,0.7-1.1,0.6-1.2C51.6,15,51.6,14.9,51.5,14.9z"/>
						</g>
					</g>
					<g>
						<path class="st2" d="M49.4,16.7c-0.3,0.3-0.4,0.6-0.3,0.8c0.1,0.1,0.5,0,0.8-0.3c0.3-0.3,0.4-0.6,0.3-0.8
							C50.1,16.3,49.7,16.4,49.4,16.7z"/>
						<path class="st4" d="M49.4,17.6L49.4,17.6c-0.1,0-0.2,0-0.2-0.1c-0.2-0.2-0.1-0.6,0.3-0.9c0.3-0.3,0.7-0.4,0.9-0.3
							c0.1,0.1,0.1,0.1,0.1,0.2c0,0.2-0.1,0.4-0.3,0.7C49.8,17.5,49.6,17.6,49.4,17.6z M50.1,16.4c-0.2,0-0.4,0.1-0.6,0.3
							c-0.3,0.3-0.4,0.6-0.3,0.7c0,0,0.1,0,0.1,0c0.2,0,0.4-0.1,0.6-0.3c0.2-0.2,0.3-0.4,0.3-0.6c0-0.1,0-0.1,0-0.1
							C50.1,16.4,50.1,16.4,50.1,16.4z"/>
					</g>
					<g>
						<g>
							<path class="st2" d="M49.3,16c-0.2,0.2-0.2,0.5,0,0.8l0.6,0.6c0.2,0.2,0.6,0.2,0.8,0c0.2-0.2,0.2-0.5,0-0.8L50,16
								C49.8,15.8,49.5,15.8,49.3,16z"/>
						</g>
						<g>
							<path class="st4" d="M50.3,17.6L50.3,17.6c-0.2,0-0.3-0.1-0.4-0.2l-0.6-0.6c-0.1-0.1-0.2-0.3-0.2-0.4c0-0.2,0.1-0.3,0.2-0.4
								c0.2-0.2,0.6-0.2,0.8,0l0.6,0.6c0.2,0.2,0.2,0.6,0,0.9C50.6,17.5,50.5,17.6,50.3,17.6z M49.6,15.9c-0.1,0-0.2,0-0.3,0.1
								c-0.1,0.1-0.1,0.2-0.1,0.3c0,0.1,0.1,0.3,0.1,0.3l0.6,0.6c0.1,0.1,0.2,0.1,0.3,0.1l0,0c0.1,0,0.2,0,0.3-0.1
								c0.2-0.2,0.2-0.5,0-0.7L50,16C49.9,15.9,49.8,15.9,49.6,15.9z"/>
						</g>
					</g>
				</g>
			</g>
			<path class="st4" d="M51.7,58.9C51.6,58.9,51.6,58.8,51.7,58.9l-0.1-39.9c0-1.1,0.9-2.1,2-2.1c1.1,0,2,0.9,2,2.1
				c0,0,0,0.1-0.1,0.1c0,0-0.1,0-0.1-0.1c0-1-0.8-1.9-1.9-1.9c-1,0-1.9,0.9-1.9,1.9L51.7,58.9C51.8,58.8,51.7,58.9,51.7,58.9z"/>
			<path class="st4" d="M47.6,15H21.9c0,0-0.1,0-0.1-0.1c0,0,0-0.1,0.1-0.1h25.7c1,0,1.9-0.8,1.9-1.9c0-1-0.9-1.9-1.9-1.9
				c0,0-0.1,0-0.1-0.1c0,0,0-0.1,0.1-0.1c1.1,0,2.1,0.9,2.1,2C49.7,14.1,48.7,15,47.6,15z"/>
		</g>
		<g>
			<path class="st3" d="M18.6,21.9C18.6,22,18.6,22,18.6,21.9L18.6,21.9c0,0.1,0,0.1,0,0.1v0c0,0.3-0.2,0.6-0.4,0.8
				c-0.3,0.2-0.6,0.4-0.9,0.4h0c-0.4,0-0.7-0.2-1-0.4c0,0.2,0.1,0.4,0.1,0.5c0.2,0.5,0.5,0.8,0.5,0.8h-1.6c0,0,0.3-0.2,0.5-0.8
				c0.1-0.1,0.1-0.4,0.1-0.5c-0.3,0.3-0.6,0.4-1,0.4h0c-0.4,0-0.7-0.1-0.9-0.4c-0.2-0.2-0.4-0.5-0.4-0.8v0l0,0l0,0v0v0
				c0,0,0,0,0-0.1c0-0.6,0.4-0.9,0.9-1.3c0.1-0.1,0.2-0.2,0.3-0.2c0.7-0.6,1.3-1.4,1.3-1.4c0,0,0.6,0.8,1.3,1.4
				c0.1,0.1,0.2,0.2,0.3,0.2C18.2,21,18.6,21.3,18.6,21.9z"/>
			<path class="st3" d="M17.3,18.7L17,17.5h-2l-0.3,1.2h-1.1l1.7-5.8h1.5l1.7,5.8H17.3z M16,13.9l-0.8,2.7h1.5L16,13.9z"/>
		</g>
		<g>
			<path class="st3" d="M54.3,66.1C54.3,66.1,54.3,66,54.3,66.1L54.3,66.1c0-0.1,0-0.1,0-0.1v0c0-0.3-0.2-0.6-0.4-0.8
				c-0.3-0.2-0.6-0.4-0.9-0.4h0c-0.4,0-0.7,0.2-1,0.4c0-0.2,0.1-0.4,0.1-0.5c0.2-0.5,0.5-0.8,0.5-0.8H51c0,0,0.3,0.2,0.5,0.8
				c0.1,0.1,0.1,0.4,0.1,0.5c-0.3-0.3-0.6-0.4-1-0.4h0c-0.4,0-0.7,0.1-0.9,0.4c-0.2,0.2-0.4,0.5-0.4,0.8v0v0l0,0l0,0v0
				c0,0,0,0,0,0.1c0,0.6,0.4,0.9,0.9,1.3c0.1,0.1,0.2,0.2,0.3,0.2c0.7,0.6,1.3,1.4,1.3,1.4c0,0,0.6-0.8,1.3-1.4
				c0.1-0.1,0.2-0.2,0.3-0.2C53.9,67,54.3,66.7,54.3,66.1z"/>
			<path class="st3" d="M54.3,69.3l-1.7,5.8H51l-1.7-5.8h1.1l0.3,1.2h2l0.3-1.2H54.3z M52.5,71.4H51l0.8,2.7L52.5,71.4z"/>
		</g>
	</g>
</g>
</svg>
