<?xml version="1.0" encoding="utf-8"?>
<!-- Generator: Adobe Illustrator 23.0.3, SVG Export Plug-In . SVG Version: 6.00 Build 0)  -->
<svg version="1.1" id="Layer_1" xmlns="http://www.w3.org/2000/svg" xmlns:xlink="http://www.w3.org/1999/xlink" x="0px" y="0px"
	 viewBox="0 0 84.8 94.1" style="enable-background:new 0 0 84.8 94.1;" xml:space="preserve">
<style type="text/css">
	.st0{fill:#F6F6F6;}
	.st1{fill:#BE202E;}
	.st2{fill:#FFFFFF;}
	.st3{fill:#010101;}
	.st4{fill:#231F20;}
	.st5{opacity:0.3;}
</style>
<g>
	<path class="st0" d="M71,83.9c0,0.8-0.7,1.5-1.5,1.5h-42c-0.8,0-1.5-0.7-1.5-1.5V19.4c0-0.8,0.7-1.5,1.5-1.5h42
		c0.8,0,1.5,0.7,1.5,1.5V83.9z"/>
	<path class="st1" d="M39.2,45.2c-2.8-0.3-3.7,1.5-3.9,2.1c-0.2-0.6-1.1-2.4-3.9-2.1c-2.6,0.5-3.4,2.8-3.1,4.9
		c0.5,3.5,5.8,5.7,7,7.9l0,0.1l0-0.1c1.1-2.1,6.4-4.4,7-7.9C42.7,48,41.8,45.7,39.2,45.2z"/>
	<path class="st1" d="M52.4,37.9c-1.3-0.1-1.7,0.7-1.9,1c-0.1-0.3-0.5-1.1-1.9-1c-1.2,0.2-1.6,1.3-1.5,2.4c0.3,1.6,2.8,2.7,3.3,3.8
		l0,0l0,0c0.5-1,3.1-2.1,3.3-3.8C54,39.2,53.6,38.1,52.4,37.9z"/>
	<path class="st1" d="M52.4,60.3c-1.3-0.1-1.7,0.7-1.9,1c-0.1-0.3-0.5-1.1-1.9-1c-1.2,0.2-1.6,1.3-1.5,2.4c0.3,1.6,2.8,2.7,3.3,3.8
		l0,0l0,0c0.5-1,3.1-2.1,3.3-3.8C54,61.6,53.6,60.5,52.4,60.3z"/>
	<path class="st1" d="M64.8,37.9c-1.3-0.1-1.7,0.7-1.8,1c-0.1-0.3-0.5-1.1-1.9-1c-1.2,0.2-1.6,1.3-1.5,2.4c0.3,1.6,2.8,2.7,3.3,3.8
		l0,0l0,0c0.5-1,3.1-2.1,3.3-3.8C66.5,39.2,66.1,38.1,64.8,37.9z"/>
	<path class="st1" d="M64.8,60.3c-1.3-0.1-1.7,0.7-1.8,1c-0.1-0.3-0.5-1.1-1.9-1c-1.2,0.2-1.6,1.3-1.5,2.4c0.3,1.6,2.8,2.7,3.3,3.8
		l0,0l0,0c0.5-1,3.1-2.1,3.3-3.8C66.5,61.6,66.1,60.5,64.8,60.3z"/>
	<path class="st1" d="M52.4,49.1c-1.3-0.1-1.7,0.7-1.9,1c-0.1-0.3-0.5-1.1-1.9-1c-1.2,0.2-1.6,1.3-1.5,2.4c0.3,1.6,2.8,2.7,3.3,3.8
		l0,0l0,0c0.5-1,3.1-2.1,3.3-3.8C54,50.4,53.6,49.3,52.4,49.1z"/>
	<path class="st1" d="M52.4,71.5c-1.3-0.1-1.7,0.7-1.9,1c-0.1-0.3-0.5-1.1-1.9-1c-1.2,0.2-1.6,1.3-1.5,2.4c0.3,1.6,2.8,2.7,3.3,3.8
		l0,0l0,0c0.5-1,3.1-2.1,3.3-3.8C54,72.8,53.6,71.7,52.4,71.5z"/>
	<path class="st1" d="M64.8,49.1c-1.3-0.1-1.7,0.7-1.8,1c-0.1-0.3-0.5-1.1-1.9-1c-1.2,0.2-1.6,1.3-1.5,2.4c0.3,1.6,2.8,2.7,3.3,3.8
		l0,0l0,0c0.5-1,3.1-2.1,3.3-3.8C66.5,50.4,66.1,49.3,64.8,49.1z"/>
	<path class="st1" d="M58.6,44.1c-1.3-0.1-1.7,0.7-1.9,1c-0.1-0.3-0.5-1.1-1.8-1c-1.2,0.2-1.6,1.3-1.5,2.4c0.3,1.6,2.8,2.7,3.3,3.8
		l0,0l0,0c0.5-1,3.1-2.1,3.3-3.8C60.2,45.4,59.8,44.3,58.6,44.1z"/>
	<path class="st1" d="M64.8,71.5c-1.3-0.1-1.7,0.7-1.8,1c-0.1-0.3-0.5-1.1-1.9-1c-1.2,0.2-1.6,1.3-1.5,2.4c0.3,1.6,2.8,2.7,3.3,3.8
		l0,0l0,0c0.5-1,3.1-2.1,3.3-3.8C66.5,72.8,66.1,71.7,64.8,71.5z"/>
	<path class="st1" d="M35.7,38.7h-5l4.6-6.3c-0.9,0.1-1.4,0.1-1.7,0.1c-1.6,0-3-0.6-4.2-1.8c-1.1-1.2-1.7-2.7-1.7-4.4
		c0-1.8,0.7-3.4,2.1-4.6c1.4-1.3,3.1-1.9,5.2-1.9c2,0,3.6,0.6,4.8,1.9c1.2,1.3,1.9,2.9,1.9,4.9c0,1.5-0.4,2.9-1.1,4.4
		c-0.7,1.5-1.3,2.5-1.8,3.3L35.7,38.7z M37.9,26.5c0-0.8-0.3-1.5-0.9-2.1c-0.6-0.6-1.3-0.9-2.1-0.9c-0.7,0-1.4,0.3-1.9,0.9
		c-0.5,0.6-0.8,1.3-0.8,2.1c0,0.8,0.3,1.5,0.8,2c0.5,0.6,1.2,0.8,2,0.8c0.8,0,1.5-0.3,2.1-0.8C37.6,28,37.9,27.3,37.9,26.5z"/>
</g>
</svg>
