<?xml version="1.0" encoding="utf-8"?>
<!-- Generator: Adobe Illustrator 23.0.3, SVG Export Plug-In . SVG Version: 6.00 Build 0)  -->
<svg version="1.1" id="Layer_1" xmlns="http://www.w3.org/2000/svg" xmlns:xlink="http://www.w3.org/1999/xlink" x="0px" y="0px"
	 viewBox="0 0 84.8 94.1" style="enable-background:new 0 0 84.8 94.1;" xml:space="preserve">
<style type="text/css">
	.st0{fill:#F6F6F6;}
	.st1{fill:#BE202E;}
	.st2{fill:#FFFFFF;}
	.st3{fill:#010101;}
	.st4{fill:#231F20;}
	.st5{opacity:0.3;}
</style>
<g>
	<path class="st0" d="M62.1,78.6c0,0.8-0.7,1.5-1.5,1.5h-42c-0.8,0-1.5-0.7-1.5-1.5V14.1c0-0.8,0.7-1.5,1.5-1.5h42
		c0.8,0,1.5,0.7,1.5,1.5V78.6z"/>
	<path class="st3" d="M31.1,43.7c-0.3-0.2-0.6-0.4-0.9-0.7c-2.1-1.8-3.8-4.2-3.8-4.2c0,0-1.7,2.4-3.8,4.2c-0.3,0.2-0.6,0.5-0.9,0.7
		c-1.4,1.1-2.6,2-2.6,3.8c0,1,0.4,2,1.1,2.7c0.7,0.7,1.7,1.1,2.8,1.1h0c1.1,0,2.1-0.4,2.8-1.2c-0.1,0.5-0.2,1.2-0.4,1.6
		c-0.6,1.6-1.5,2.2-1.5,2.2h4.8c0.1,0-0.9-0.7-1.5-2.2c-0.1-0.4-0.3-1.1-0.4-1.6c0.7,0.8,1.7,1.2,2.8,1.2h0c1,0,2-0.4,2.8-1.1
		c0.7-0.7,1.1-1.7,1.1-2.7C33.7,45.7,32.5,44.8,31.1,43.7z"/>
	<path class="st3" d="M43.6,60.1c-0.1-0.1-0.2-0.2-0.4-0.3C42.3,59,41.6,58,41.6,58c0,0-0.7,1-1.7,1.8c-0.1,0.1-0.3,0.2-0.4,0.3
		c-0.6,0.5-1.1,0.9-1.1,1.6c0,0.4,0.2,0.9,0.5,1.2c0.3,0.3,0.7,0.5,1.2,0.5h0c0.5,0,0.9-0.2,1.2-0.5c-0.1,0.2-0.1,0.5-0.2,0.7
		c-0.2,0.7-0.7,1-0.6,1h2.1c0,0-0.4-0.3-0.6-1c-0.1-0.2-0.1-0.5-0.2-0.7c0.3,0.3,0.7,0.5,1.2,0.5h0c0.5,0,0.9-0.2,1.2-0.5
		c0.3-0.3,0.5-0.7,0.5-1.2C44.7,61,44.2,60.6,43.6,60.1z"/>
	<path class="st3" d="M43.6,30.2c-0.1-0.1-0.2-0.2-0.4-0.3c-0.9-0.8-1.7-1.8-1.7-1.8c0,0-0.7,1-1.7,1.8c-0.1,0.1-0.3,0.2-0.4,0.3
		c-0.6,0.5-1.1,0.9-1.1,1.6c0,0.4,0.2,0.9,0.5,1.2c0.3,0.3,0.7,0.5,1.2,0.5l0,0c0.5,0,0.9-0.2,1.2-0.5c-0.1,0.2-0.1,0.5-0.2,0.7
		c-0.2,0.7-0.7,1-0.6,1h2.1c0,0-0.4-0.3-0.6-1c-0.1-0.2-0.1-0.5-0.2-0.7c0.3,0.3,0.7,0.5,1.2,0.5l0,0c0.5,0,0.9-0.2,1.2-0.5
		c0.3-0.3,0.5-0.7,0.5-1.2C44.7,31.1,44.2,30.7,43.6,30.2z"/>
	<path class="st3" d="M43.6,45.2c-0.1-0.1-0.2-0.2-0.4-0.3c-0.9-0.8-1.7-1.8-1.7-1.8c0,0-0.7,1-1.7,1.8c-0.1,0.1-0.3,0.2-0.4,0.3
		c-0.6,0.5-1.1,0.9-1.1,1.6c0,0.4,0.2,0.9,0.5,1.2c0.3,0.3,0.7,0.5,1.2,0.5l0,0c0.5,0,0.9-0.2,1.2-0.5c-0.1,0.2-0.1,0.5-0.2,0.7
		c-0.2,0.7-0.7,1-0.6,1h2.1c0,0-0.4-0.3-0.6-1c-0.1-0.2-0.1-0.5-0.2-0.7c0.3,0.3,0.7,0.5,1.2,0.5l0,0c0.5,0,0.9-0.2,1.2-0.5
		c0.3-0.3,0.5-0.7,0.5-1.2C44.7,46.1,44.2,45.7,43.6,45.2z"/>
	<path class="st3" d="M56.1,60.1c-0.1-0.1-0.2-0.2-0.4-0.3C54.8,59,54,58,54,58c0,0-0.7,1-1.7,1.8c-0.1,0.1-0.3,0.2-0.4,0.3
		c-0.6,0.5-1.1,0.9-1.1,1.6c0,0.4,0.2,0.9,0.5,1.2c0.3,0.3,0.7,0.5,1.2,0.5h0c0.5,0,0.9-0.2,1.2-0.5c-0.1,0.2-0.1,0.5-0.2,0.7
		c-0.2,0.7-0.7,1-0.6,1h2.1c0,0-0.4-0.3-0.6-1c-0.1-0.2-0.1-0.5-0.2-0.7c0.3,0.3,0.7,0.5,1.2,0.5h0c0.5,0,0.9-0.2,1.2-0.5
		c0.3-0.3,0.5-0.7,0.5-1.2C57.2,61,56.7,60.6,56.1,60.1z"/>
	<path class="st3" d="M56.1,30.2c-0.1-0.1-0.2-0.2-0.4-0.3c-0.9-0.8-1.7-1.8-1.7-1.8c0,0-0.7,1-1.7,1.8c-0.1,0.1-0.3,0.2-0.4,0.3
		c-0.6,0.5-1.1,0.9-1.1,1.6c0,0.4,0.2,0.9,0.5,1.2c0.3,0.3,0.7,0.5,1.2,0.5l0,0c0.5,0,0.9-0.2,1.2-0.5c-0.1,0.2-0.1,0.5-0.2,0.7
		c-0.2,0.7-0.7,1-0.6,1h2.1c0,0-0.4-0.3-0.6-1c-0.1-0.2-0.1-0.5-0.2-0.7c0.3,0.3,0.7,0.5,1.2,0.5l0,0c0.5,0,0.9-0.2,1.2-0.5
		c0.3-0.3,0.5-0.7,0.5-1.2C57.2,31.1,56.7,30.7,56.1,30.2z"/>
	<path class="st3" d="M56.1,45.2c-0.1-0.1-0.2-0.2-0.4-0.3c-0.9-0.8-1.7-1.8-1.7-1.8c0,0-0.7,1-1.7,1.8c-0.1,0.1-0.3,0.2-0.4,0.3
		c-0.6,0.5-1.1,0.9-1.1,1.6c0,0.4,0.2,0.9,0.5,1.2c0.3,0.3,0.7,0.5,1.2,0.5l0,0c0.5,0,0.9-0.2,1.2-0.5c-0.1,0.2-0.1,0.5-0.2,0.7
		c-0.2,0.7-0.7,1-0.6,1h2.1c0,0-0.4-0.3-0.6-1c-0.1-0.2-0.1-0.5-0.2-0.7c0.3,0.3,0.7,0.5,1.2,0.5l0,0c0.5,0,0.9-0.2,1.2-0.5
		c0.3-0.3,0.5-0.7,0.5-1.2C57.2,46.1,56.7,45.7,56.1,45.2z"/>
	<path class="st3" d="M49.8,37.7c-0.1-0.1-0.2-0.2-0.4-0.3c-0.9-0.8-1.7-1.8-1.7-1.8c0,0-0.7,1-1.7,1.8c-0.1,0.1-0.3,0.2-0.4,0.3
		c-0.6,0.5-1.1,0.9-1.1,1.6c0,0.4,0.2,0.9,0.5,1.2c0.3,0.3,0.7,0.5,1.2,0.5h0c0.5,0,0.9-0.2,1.2-0.5c-0.1,0.2-0.1,0.5-0.2,0.7
		c-0.2,0.7-0.7,1-0.6,1h2.1c0,0-0.4-0.3-0.6-1c-0.1-0.2-0.1-0.5-0.2-0.7c0.3,0.3,0.7,0.5,1.2,0.5h0c0.5,0,0.9-0.2,1.2-0.5
		c0.3-0.3,0.5-0.7,0.5-1.2C51,38.6,50.5,38.2,49.8,37.7z"/>
	<path class="st3" d="M20,14.3h14.7L22.9,33.5l-3.3-2.1L28,17.7h-8V14.3z"/>
</g>
</svg>
