<?xml version="1.0" encoding="utf-8"?>
<!-- Generator: Adobe Illustrator 23.0.3, SVG Export Plug-In . SVG Version: 6.00 Build 0)  -->
<svg version="1.1" id="Layer_1" xmlns="http://www.w3.org/2000/svg" xmlns:xlink="http://www.w3.org/1999/xlink" x="0px" y="0px"
	 viewBox="0 0 84.8 94.1" style="enable-background:new 0 0 84.8 94.1;" xml:space="preserve">
<style type="text/css">
	.st0{fill:#F6F6F6;}
	.st1{fill:#BE202E;}
	.st2{fill:#FFFFFF;}
	.st3{fill:#010101;}
	.st4{fill:#231F20;}
	.st5{opacity:0.3;}
</style>
<g>
	<path class="st0" d="M64.3,72.7c0,0.8-0.7,1.5-1.5,1.5h-42c-0.8,0-1.5-0.7-1.5-1.5V8.2c0-0.8,0.7-1.5,1.5-1.5h42
		c0.8,0,1.5,0.7,1.5,1.5V72.7z"/>
	<path class="st3" d="M32.5,37.8c-0.4,0-0.9,0.1-1.3,0.2c0.5-0.6,0.8-1.4,0.8-2.2c0-1.9-1.5-3.5-3.5-3.5c-1.9,0-3.5,1.5-3.5,3.5
		c0,0.9,0.3,1.6,0.8,2.2c-0.4-0.2-0.8-0.2-1.3-0.2c-1.9,0-3.5,1.5-3.5,3.5c0,1.9,1.5,3.5,3.5,3.5c1.7,0,3.1-1.2,3.4-2.7
		c0,1.6,0.2,2.6-1.7,4.4c1.2,0,3.5,0,4.5,0c-1.9-1.8-1.8-2.8-1.7-4.4c0.3,1.6,1.7,2.8,3.4,2.8c1.9,0,3.5-1.5,3.5-3.5
		C36,39.3,34.4,37.8,32.5,37.8z"/>
	<path class="st3" d="M45.5,28.7c-0.2,0-0.4,0-0.5,0.1c0.2-0.3,0.3-0.6,0.3-0.9c0-0.8-0.6-1.4-1.4-1.4c-0.8,0-1.4,0.6-1.4,1.4
		c0,0.4,0.1,0.7,0.3,0.9c-0.2-0.1-0.3-0.1-0.5-0.1c-0.8,0-1.4,0.6-1.4,1.4c0,0.8,0.6,1.4,1.4,1.4c0.7,0,1.3-0.5,1.4-1.1
		c0,0.7,0.1,1.1-0.7,1.8c0.5,0,1.5,0,1.9,0C44,31.6,44,31.1,44,30.5c0.1,0.7,0.7,1.2,1.4,1.2c0.8,0,1.4-0.6,1.4-1.4
		C46.9,29.4,46.3,28.7,45.5,28.7z"/>
	<path class="st3" d="M45.5,51.1c-0.2,0-0.4,0-0.5,0.1c0.2-0.3,0.3-0.6,0.3-0.9c0-0.8-0.6-1.4-1.4-1.4c-0.8,0-1.4,0.6-1.4,1.4
		c0,0.4,0.1,0.7,0.3,0.9c-0.2-0.1-0.3-0.1-0.5-0.1c-0.8,0-1.4,0.6-1.4,1.4c0,0.8,0.6,1.4,1.4,1.4c0.7,0,1.3-0.5,1.4-1.1
		c0,0.7,0.1,1.1-0.7,1.8c0.5,0,1.5,0,1.9,0C44,54,44,53.5,44,52.9c0.1,0.7,0.7,1.2,1.4,1.2c0.8,0,1.4-0.6,1.4-1.4
		C46.9,51.8,46.3,51.1,45.5,51.1z"/>
	<path class="st3" d="M57.9,28.7c-0.2,0-0.4,0-0.5,0.1c0.2-0.3,0.3-0.6,0.3-0.9c0-0.8-0.6-1.4-1.4-1.4s-1.4,0.6-1.4,1.4
		c0,0.4,0.1,0.7,0.3,0.9c-0.2-0.1-0.3-0.1-0.5-0.1c-0.8,0-1.4,0.6-1.4,1.4c0,0.8,0.6,1.4,1.4,1.4c0.7,0,1.3-0.5,1.4-1.1
		c0,0.7,0.1,1.1-0.7,1.8c0.5,0,1.5,0,1.9,0c-0.8-0.7-0.7-1.2-0.7-1.8c0.1,0.7,0.7,1.2,1.4,1.2c0.8,0,1.4-0.6,1.4-1.4
		C59.3,29.4,58.7,28.7,57.9,28.7z"/>
	<path class="st3" d="M57.9,51.1c-0.2,0-0.4,0-0.5,0.1c0.2-0.3,0.3-0.6,0.3-0.9c0-0.8-0.6-1.4-1.4-1.4s-1.4,0.6-1.4,1.4
		c0,0.4,0.1,0.7,0.3,0.9c-0.2-0.1-0.3-0.1-0.5-0.1c-0.8,0-1.4,0.6-1.4,1.4c0,0.8,0.6,1.4,1.4,1.4c0.7,0,1.3-0.5,1.4-1.1
		c0,0.7,0.1,1.1-0.7,1.8c0.5,0,1.5,0,1.9,0c-0.8-0.7-0.7-1.2-0.7-1.8c0.1,0.7,0.7,1.2,1.4,1.2c0.8,0,1.4-0.6,1.4-1.4
		C59.3,51.8,58.7,51.1,57.9,51.1z"/>
	<path class="st3" d="M29.7,8.7h3.8v10.8h1.8v3.4h-1.8v4.4h-4.1v-4.4h-8.3v-3.4L29.7,8.7z M29.3,13.4l-4.8,6.1h4.9L29.3,13.4
		L29.3,13.4z"/>
</g>
</svg>
