<?xml version="1.0" encoding="utf-8"?>
<!-- Generator: Adobe Illustrator 23.0.3, SVG Export Plug-In . SVG Version: 6.00 Build 0)  -->
<svg version="1.1" id="Layer_1" xmlns="http://www.w3.org/2000/svg" xmlns:xlink="http://www.w3.org/1999/xlink" x="0px" y="0px"
	 viewBox="0 0 84.8 94.1" style="enable-background:new 0 0 84.8 94.1;" xml:space="preserve">
<style type="text/css">
	.st0{fill:#F6F6F6;}
	.st1{fill:#BE202E;}
	.st2{fill:#FFFFFF;}
	.st3{fill:#010101;}
	.st4{fill:#231F20;}
	.st5{opacity:0.3;}
</style>
<g>
	<path class="st0" d="M61.8,79.9c0,0.8-0.7,1.5-1.5,1.5h-42c-0.8,0-1.5-0.7-1.5-1.5V15.3c0-0.8,0.7-1.5,1.5-1.5h42
		c0.8,0,1.5,0.7,1.5,1.5V79.9z"/>
	<path class="st1" d="M26.6,31.3h5.3v3.5h-13l6.3-8.1c0.9-1.2,1.6-2.2,2-2.9c0.4-0.8,0.6-1.5,0.6-2.1c0-0.7-0.2-1.3-0.7-1.8
		c-0.5-0.5-1.1-0.7-1.8-0.7c-0.8,0-1.4,0.3-1.8,0.9c-0.4,0.6-0.6,1.5-0.7,2.8h-4.1c0-2.3,0.7-4,2-5.2c1.3-1.2,3-1.9,4.9-1.9
		c1.8,0,3.3,0.5,4.5,1.6c1.2,1.1,1.7,2.4,1.7,4.1c0,1.6-0.7,3.4-2,5.4l-1.1,1.6c-0.4,0.7-1,1.4-1.7,2.2L26.6,31.3z"/>
	<path class="st1" d="M32.5,47.6c-2.1,1.9-5,5.8-6.4,8.7c-1.4-2.9-4.3-6.8-6.4-8.7c2.1-1.9,5-5.8,6.4-8.7
		C27.5,41.8,30.4,45.7,32.5,47.6z"/>
	<path class="st1" d="M46.4,58.8c-0.9,0.8-2,2.4-2.6,3.6c-0.6-1.2-1.8-2.8-2.6-3.6c0.9-0.8,2.1-2.4,2.6-3.6
		C44.4,56.4,45.5,58,46.4,58.8z"/>
	<path class="st1" d="M46.4,36.4c-0.9,0.8-2,2.4-2.6,3.6c-0.6-1.2-1.8-2.8-2.6-3.6c0.9-0.8,2.1-2.4,2.6-3.6
		C44.4,34,45.5,35.6,46.4,36.4z"/>
</g>
</svg>
