<?xml version="1.0" encoding="utf-8"?>
<!-- Generator: Adobe Illustrator 23.0.3, SVG Export Plug-In . SVG Version: 6.00 Build 0)  -->
<svg version="1.1" id="Layer_1" xmlns="http://www.w3.org/2000/svg" xmlns:xlink="http://www.w3.org/1999/xlink" x="0px" y="0px"
	 viewBox="0 0 84.8 94.1" style="enable-background:new 0 0 84.8 94.1;" xml:space="preserve">
<style type="text/css">
	.st0{fill:#F6F6F6;}
	.st1{fill:#BE202E;}
	.st2{fill:#FFFFFF;}
	.st3{fill:#010101;}
	.st4{fill:#231F20;}
	.st5{opacity:0.3;}
</style>
<g>
	<path class="st0" d="M69.3,79.1c0,0.8-0.7,1.5-1.5,1.5h-42c-0.8,0-1.5-0.7-1.5-1.5V14.5c0-0.8,0.7-1.5,1.5-1.5h42
		c0.8,0,1.5,0.7,1.5,1.5V79.1z"/>
	<path class="st1" d="M37.5,40.3c-2.8-0.3-3.7,1.5-3.9,2.1c-0.2-0.6-1.1-2.4-3.9-2.1c-2.6,0.5-3.4,2.8-3.1,4.9
		c0.5,3.5,5.8,5.7,7,7.9l0,0.1l0-0.1c1.1-2.1,6.4-4.4,7-7.9C41,43.1,40.1,40.8,37.5,40.3z"/>
	<path class="st1" d="M53.2,43.7c-1.3-0.1-1.7,0.7-1.8,1c-0.1-0.3-0.5-1.1-1.9-1c-1.2,0.2-1.6,1.3-1.5,2.4c0.3,1.6,2.8,2.7,3.3,3.8
		l0,0l0,0c0.5-1,3.1-2.1,3.3-3.8C54.8,45,54.4,43.9,53.2,43.7z"/>
	<path class="st1" d="M53.2,58.7c-1.3-0.1-1.7,0.7-1.8,1c-0.1-0.3-0.5-1.1-1.9-1C48.2,58.9,47.8,60,48,61c0.3,1.6,2.8,2.7,3.3,3.8
		l0,0l0,0c0.5-1,3.1-2.1,3.3-3.8C54.8,60,54.4,58.9,53.2,58.7z"/>
	<path class="st1" d="M53.2,28.8c-1.3-0.1-1.7,0.7-1.8,1c-0.1-0.3-0.5-1.1-1.9-1c-1.2,0.2-1.6,1.3-1.5,2.4c0.3,1.6,2.8,2.7,3.3,3.8
		l0,0l0,0c0.5-1,3.1-2.1,3.3-3.8C54.8,30.1,54.4,29,53.2,28.8z"/>
	<path class="st1" d="M30.6,20.4h-3.8c0.1-1.7,0.7-3.1,1.9-4.1c1.1-1,2.5-1.5,4.1-1.5c1.7,0,3.2,0.5,4.4,1.5c1.2,1,1.8,2.2,1.8,3.6
		c0,1.5-0.7,2.9-2.2,4.1c1,0.6,1.7,1.2,2.1,1.9c0.4,0.7,0.7,1.4,0.7,2.4c0,1.7-0.6,3.1-1.7,4.2c-1.2,1.1-2.7,1.6-4.6,1.6
		c-1.8,0-3.2-0.5-4.4-1.5c-1.2-1-1.9-2.4-2.2-4.2h3.9c0.5,1.8,1.3,2.7,2.6,2.7c0.7,0,1.2-0.2,1.6-0.7c0.4-0.5,0.7-1,0.7-1.7
		c0-0.8-0.3-1.5-0.8-2.1c-0.5-0.5-1.2-0.8-2.1-0.8h-0.7v-3.1h0.4c0.9,0,1.6-0.2,2.1-0.7c0.5-0.4,0.8-1,0.8-1.7
		c0-0.6-0.2-1.2-0.6-1.7c-0.4-0.5-0.9-0.7-1.6-0.7C31.7,17.8,30.8,18.7,30.6,20.4z"/>
</g>
</svg>
