<?xml version="1.0" encoding="utf-8"?>
<!-- Generator: Adobe Illustrator 23.0.3, SVG Export Plug-In . SVG Version: 6.00 Build 0)  -->
<svg version="1.1" id="Layer_1" xmlns="http://www.w3.org/2000/svg" xmlns:xlink="http://www.w3.org/1999/xlink" x="0px" y="0px"
	 viewBox="0 0 84.8 94.1" style="enable-background:new 0 0 84.8 94.1;" xml:space="preserve">
<style type="text/css">
	.st0{fill:#F6F6F6;}
	.st1{fill:#BE202E;}
	.st2{fill:#FFFFFF;}
	.st3{fill:#010101;}
	.st4{fill:#231F20;}
	.st5{opacity:0.3;}
</style>
<g>
	<path class="st0" d="M66.7,86c0,0.8-0.7,1.5-1.5,1.5h-42c-0.8,0-1.5-0.7-1.5-1.5V21.5c0-0.8,0.7-1.5,1.5-1.5h42
		c0.8,0,1.5,0.7,1.5,1.5V86z"/>
	<path class="st1" d="M34.9,47.3c-2.8-0.3-3.7,1.5-3.9,2.1c-0.2-0.6-1.1-2.4-3.9-2.1c-2.6,0.5-3.4,2.8-3.1,4.9
		c0.5,3.5,5.8,5.7,7,7.9l0,0.1l0-0.1c1.1-2.1,6.4-4.4,7-7.9C38.3,50,37.4,47.8,34.9,47.3z"/>
	<path class="st1" d="M48,40c-1.3-0.1-1.7,0.7-1.9,1c-0.1-0.3-0.5-1.1-1.9-1c-1.2,0.2-1.6,1.3-1.5,2.4c0.3,1.6,2.8,2.7,3.3,3.8l0,0
		l0,0c0.5-1,3.1-2.1,3.3-3.8C49.6,41.3,49.2,40.2,48,40z"/>
	<path class="st1" d="M48,62.4c-1.3-0.1-1.7,0.7-1.9,1c-0.1-0.3-0.5-1.1-1.9-1c-1.2,0.2-1.6,1.3-1.5,2.4c0.3,1.6,2.8,2.7,3.3,3.8
		l0,0l0,0c0.5-1,3.1-2.1,3.3-3.8C49.6,63.7,49.2,62.6,48,62.4z"/>
	<path class="st1" d="M60.4,40c-1.3-0.1-1.7,0.7-1.9,1c-0.1-0.3-0.5-1.1-1.9-1c-1.2,0.2-1.6,1.3-1.5,2.4c0.3,1.6,2.8,2.7,3.3,3.8
		l0,0l0,0c0.5-1,3.1-2.1,3.3-3.8C62.1,41.3,61.7,40.2,60.4,40z"/>
	<path class="st1" d="M60.4,62.4c-1.3-0.1-1.7,0.7-1.9,1c-0.1-0.3-0.5-1.1-1.9-1c-1.2,0.2-1.6,1.3-1.5,2.4c0.3,1.6,2.8,2.7,3.3,3.8
		l0,0l0,0c0.5-1,3.1-2.1,3.3-3.8C62.1,63.7,61.7,62.6,60.4,62.4z"/>
	<path class="st1" d="M32,22h3.8v10.7h1.8v3.4h-1.8v4.4h-4.1v-4.4h-8.3v-3.4L32,22z M31.6,26.7l-4.8,6.1h4.9L31.6,26.7L31.6,26.7z"
		/>
</g>
</svg>
