<?xml version="1.0" encoding="utf-8"?>
<!-- Generator: Adobe Illustrator 23.0.3, SVG Export Plug-In . SVG Version: 6.00 Build 0)  -->
<svg version="1.1" id="Layer_1" xmlns="http://www.w3.org/2000/svg" xmlns:xlink="http://www.w3.org/1999/xlink" x="0px" y="0px"
	 viewBox="0 0 84.8 94.1" style="enable-background:new 0 0 84.8 94.1;" xml:space="preserve">
<style type="text/css">
	.st0{fill:#F6F6F6;}
	.st1{fill:#BE202E;}
	.st2{fill:#FFFFFF;}
	.st3{fill:#010101;}
	.st4{fill:#231F20;}
	.st5{opacity:0.3;}
</style>
<g>
	<path class="st0" d="M69.1,75.1c0,0.8-0.7,1.5-1.5,1.5h-42c-0.8,0-1.5-0.7-1.5-1.5V10.6c0-0.8,0.7-1.5,1.5-1.5h42
		c0.8,0,1.5,0.7,1.5,1.5V75.1z"/>
	<path class="st3" d="M38.1,62.6c-0.3-0.2-0.6-0.4-0.9-0.7c-2.1-1.8-3.8-4.2-3.8-4.2c0,0-1.7,2.4-3.8,4.2c-0.3,0.2-0.6,0.5-0.9,0.7
		c-1.4,1.1-2.6,2-2.6,3.8c0,1,0.4,2,1.1,2.7c0.7,0.7,1.7,1.1,2.8,1.1l0,0c1.1,0,2.1-0.4,2.8-1.2c-0.1,0.5-0.2,1.2-0.4,1.6
		c-0.6,1.6-1.5,2.2-1.5,2.2h4.8c0.1,0-0.9-0.7-1.5-2.2c-0.1-0.4-0.3-1.1-0.4-1.6c0.7,0.8,1.7,1.2,2.8,1.2l0,0c1,0,2-0.4,2.8-1.1
		c0.7-0.7,1.1-1.7,1.1-2.7C40.7,64.6,39.6,63.7,38.1,62.6z"/>
	<path class="st3" d="M55.9,37.6c-0.6-0.4-1.1-0.9-1.7-1.4C50,32.7,46.6,28,46.6,28c0,0-3.4,4.7-7.6,8.2c-0.6,0.5-1.2,0.9-1.7,1.4
		c-2.9,2.3-5.1,4-5.1,7.4c0,2,0.8,3.9,2.2,5.3c1.5,1.4,3.4,2.2,5.5,2.2l0.1,0c2.2,0,4.1-0.9,5.6-2.4c-0.2,1.1-0.4,2.3-0.7,3.1
		c-1.1,3.1-3,4.4-2.9,4.4h9.5c0.1,0-1.8-1.3-2.9-4.4c-0.3-0.8-0.5-2.1-0.7-3.1c1.5,1.5,3.4,2.4,5.6,2.4l0.1,0c2.1,0,4-0.8,5.5-2.2
		c1.5-1.4,2.2-3.3,2.2-5.3C61.1,41.6,58.8,39.8,55.9,37.6z"/>
	<path class="st3" d="M34.1,10.7h4.1v13.6c0,1.8-0.5,3.2-1.5,4.2c-1,1.1-2.2,1.6-3.8,1.6c-1.1,0-2.2-0.3-3.1-1
		c-0.9-0.7-1.6-1.7-2.1-3.1l3-2.3v0.1c0,0,0.1,0.2,0.3,0.6s0.4,0.8,0.7,1.1c0.3,0.3,0.6,0.5,0.9,0.5c0.5,0,0.8-0.2,1.1-0.6
		c0.3-0.4,0.4-0.9,0.4-1.5V10.7z"/>
</g>
</svg>
