<?xml version="1.0" encoding="utf-8"?>
<!-- Generator: Adobe Illustrator 23.0.3, SVG Export Plug-In . SVG Version: 6.00 Build 0)  -->
<svg version="1.1" id="Layer_1" xmlns="http://www.w3.org/2000/svg" xmlns:xlink="http://www.w3.org/1999/xlink" x="0px" y="0px"
	 viewBox="0 0 84.8 94.1" style="enable-background:new 0 0 84.8 94.1;" xml:space="preserve">
<style type="text/css">
	.st0{fill:#F6F6F6;}
	.st1{fill:#BE202E;}
	.st2{fill:#FFFFFF;}
	.st3{fill:#010101;}
	.st4{fill:#231F20;}
	.st5{opacity:0.3;}
</style>
<g>
	<path class="st0" d="M70.3,76.8c0,0.8-0.7,1.5-1.5,1.5h-42c-0.8,0-1.5-0.7-1.5-1.5V12.3c0-0.8,0.7-1.5,1.5-1.5h42
		c0.8,0,1.5,0.7,1.5,1.5V76.8z"/>
	<path class="st1" d="M41,66.9c-2.1,1.9-5,5.8-6.4,8.7c-1.4-2.9-4.3-6.8-6.4-8.7c2.1-1.9,5-5.8,6.4-8.7C36,61.1,38.9,65,41,66.9z"/>
	<path class="st1" d="M60.5,44.5c-4.2,3.8-9.9,11.5-12.7,17.3c-2.8-5.8-8.5-13.4-12.7-17.3C39.4,40.7,45,33,47.8,27.3
		C50.6,33,56.3,40.7,60.5,44.5z"/>
	<path class="st1" d="M44.9,30.3l-1.4-1.6c1.8-1.9,2.7-4.3,2.7-7.1c0-2.7-0.9-5-2.8-6.9c-1.9-1.9-4.2-2.8-6.9-2.8
		c-2.9,0-5.2,1-7,2.9c-1.8,2-2.6,4.2-2.6,6.6c0,2.9,0.9,5.4,2.7,7.2c1.8,1.9,4.1,2.8,7,2.8c1.3,0,2.7-0.3,4.3-0.9l1.5,1.8L44.9,30.3
		z M40.8,25.5L39,23.3l-2.7,1.8l2,2.4c-0.7,0.1-1.4,0.2-1.9,0.2c-1.5,0-2.7-0.6-3.6-1.7c-1-1.1-1.4-2.6-1.4-4.3
		c0-1.7,0.5-3.1,1.5-4.2c1-1.1,2.3-1.6,3.8-1.6c1.6,0,2.9,0.6,3.9,1.7c1,1.1,1.5,2.6,1.5,4.4C41.9,23.4,41.6,24.6,40.8,25.5z"/>
</g>
</svg>
