<?xml version="1.0" encoding="utf-8"?>
<!-- Generator: Adobe Illustrator 23.0.3, SVG Export Plug-In . SVG Version: 6.00 Build 0)  -->
<svg version="1.1" id="Layer_1" xmlns="http://www.w3.org/2000/svg" xmlns:xlink="http://www.w3.org/1999/xlink" x="0px" y="0px"
	 viewBox="0 0 84.8 94.1" style="enable-background:new 0 0 84.8 94.1;" xml:space="preserve">
<style type="text/css">
	.st0{fill:#F6F6F6;}
	.st1{fill:#BE202E;}
	.st2{fill:#FFFFFF;}
	.st3{fill:#010101;}
	.st4{fill:#231F20;}
	.st5{opacity:0.3;}
</style>
<g>
	<path class="st0" d="M61.6,77c0,0.8-0.7,1.5-1.5,1.5h-42c-0.8,0-1.5-0.7-1.5-1.5V12.4c0-0.8,0.7-1.5,1.5-1.5h42
		c0.8,0,1.5,0.7,1.5,1.5V77z"/>
	<path class="st1" d="M29.8,38.3c-2.8-0.3-3.7,1.5-3.9,2.1c-0.2-0.6-1.1-2.4-3.9-2.1c-2.6,0.5-3.4,2.8-3.1,4.9
		c0.5,3.5,5.8,5.7,7,7.9l0,0.1l0-0.1c1.1-2.1,6.4-4.4,7-7.9C33.3,41,32.4,38.7,29.8,38.3z"/>
	<path class="st1" d="M43,41.6c-1.3-0.1-1.7,0.7-1.9,1c-0.1-0.3-0.5-1.1-1.9-1C38,41.9,37.6,43,37.8,44c0.3,1.6,2.8,2.7,3.3,3.8l0,0
		l0,0c0.5-1,3.1-2.1,3.3-3.8C44.6,43,44.2,41.9,43,41.6z"/>
	<path class="st1" d="M43,56.6c-1.3-0.1-1.7,0.7-1.9,1c-0.1-0.3-0.5-1.1-1.9-1c-1.2,0.2-1.6,1.3-1.5,2.4c0.3,1.6,2.8,2.7,3.3,3.8
		l0,0l0,0c0.5-1,3.1-2.1,3.3-3.8C44.6,57.9,44.2,56.8,43,56.6z"/>
	<path class="st1" d="M43,26.7c-1.3-0.1-1.7,0.7-1.9,1c-0.1-0.3-0.5-1.1-1.9-1c-1.2,0.2-1.6,1.3-1.5,2.4c0.3,1.6,2.8,2.7,3.3,3.8
		l0,0l0,0c0.5-1,3.1-2.1,3.3-3.8C44.6,28,44.2,26.9,43,26.7z"/>
	<path class="st1" d="M55.4,41.6c-1.3-0.1-1.7,0.7-1.9,1c-0.1-0.3-0.5-1.1-1.8-1c-1.2,0.2-1.6,1.3-1.5,2.4c0.3,1.6,2.8,2.7,3.3,3.8
		l0,0l0,0c0.5-1,3.1-2.1,3.3-3.8C57.1,43,56.6,41.9,55.4,41.6z"/>
	<path class="st1" d="M49.2,34.2c-1.3-0.1-1.7,0.7-1.9,1c-0.1-0.3-0.5-1.1-1.9-1c-1.2,0.2-1.6,1.3-1.5,2.4c0.3,1.6,2.8,2.7,3.3,3.8
		l0,0l0,0c0.5-1,3.1-2.1,3.3-3.8C50.8,35.5,50.4,34.4,49.2,34.2z"/>
	<path class="st1" d="M49.2,49.1c-1.3-0.1-1.7,0.7-1.9,1c-0.1-0.3-0.5-1.1-1.9-1c-1.2,0.2-1.6,1.3-1.5,2.4c0.3,1.6,2.8,2.7,3.3,3.8
		l0,0l0,0c0.5-1,3.1-2.1,3.3-3.8C50.8,50.4,50.4,49.3,49.2,49.1z"/>
	<path class="st1" d="M55.4,56.6c-1.3-0.1-1.7,0.7-1.9,1c-0.1-0.3-0.5-1.1-1.8-1c-1.2,0.2-1.6,1.3-1.5,2.4c0.3,1.6,2.8,2.7,3.3,3.8
		l0,0l0,0c0.5-1,3.1-2.1,3.3-3.8C57.1,57.9,56.6,56.8,55.4,56.6z"/>
	<path class="st1" d="M55.4,26.7c-1.3-0.1-1.7,0.7-1.9,1c-0.1-0.3-0.5-1.1-1.8-1c-1.2,0.2-1.6,1.3-1.5,2.4c0.3,1.6,2.8,2.7,3.3,3.8
		l0,0l0,0c0.5-1,3.1-2.1,3.3-3.8C57.1,28,56.6,26.9,55.4,26.7z"/>
	<path class="st1" d="M29,21.8c1.8,1.2,2.7,2.7,2.7,4.6c0,1.6-0.6,2.9-1.7,3.9c-1.1,1-2.6,1.5-4.5,1.5c-1.9,0-3.4-0.5-4.6-1.5
		c-1.2-1-1.8-2.3-1.8-3.9c0-2,0.9-3.5,2.7-4.7c-0.8-0.7-1.3-1.3-1.7-2c-0.4-0.6-0.5-1.4-0.5-2.2c0-1.3,0.5-2.5,1.5-3.5
		c1-1,2.4-1.5,4.2-1.5c1.8,0,3.2,0.4,4.2,1.3c1.1,0.9,1.6,2.1,1.6,3.5C31.2,19.3,30.5,20.7,29,21.8z M27.8,25.9
		c0-0.7-0.2-1.2-0.7-1.7c-0.5-0.5-1-0.7-1.7-0.7c-0.6,0-1.2,0.2-1.6,0.7c-0.4,0.5-0.7,1.1-0.7,1.7c0,0.6,0.2,1.2,0.7,1.6
		c0.5,0.5,1,0.7,1.6,0.7c0.7,0,1.2-0.2,1.7-0.7C27.5,27.2,27.8,26.6,27.8,25.9z M27.4,18.2c0-0.6-0.2-1.1-0.6-1.5
		c-0.4-0.4-0.8-0.6-1.4-0.6c-0.6,0-1,0.2-1.4,0.6c-0.4,0.4-0.6,0.8-0.6,1.4c0,0.6,0.2,1,0.6,1.4c0.4,0.4,0.8,0.6,1.4,0.6
		c0.5,0,1-0.2,1.4-0.6C27.2,19.1,27.4,18.7,27.4,18.2z"/>
</g>
</svg>
