<?xml version="1.0" encoding="utf-8"?>
<!-- Generator: Adobe Illustrator 23.0.3, SVG Export Plug-In . SVG Version: 6.00 Build 0)  -->
<svg version="1.1" id="Layer_1" xmlns="http://www.w3.org/2000/svg" xmlns:xlink="http://www.w3.org/1999/xlink" x="0px" y="0px"
	 viewBox="0 0 84.8 94.1" style="enable-background:new 0 0 84.8 94.1;" xml:space="preserve">
<style type="text/css">
	.st0{fill:#F6F6F6;}
	.st1{fill:#BE202E;}
	.st2{fill:#FFFFFF;}
	.st3{fill:#010101;}
	.st4{fill:#231F20;}
	.st5{opacity:0.3;}
</style>
<g>
	<path class="st0" d="M63.2,79.9c0,0.8-0.7,1.5-1.5,1.5h-42c-0.8,0-1.5-0.7-1.5-1.5V15.4c0-0.8,0.7-1.5,1.5-1.5h42
		c0.8,0,1.5,0.7,1.5,1.5V79.9z"/>
	<path class="st3" d="M32.2,45c-0.3-0.2-0.6-0.4-0.9-0.7c-2.1-1.8-3.8-4.2-3.8-4.2c0,0-1.7,2.4-3.8,4.2c-0.3,0.2-0.6,0.5-0.9,0.7
		c-1.4,1.1-2.6,2-2.6,3.8c0,1,0.4,2,1.1,2.7c0.7,0.7,1.7,1.1,2.8,1.1h0c1.1,0,2.1-0.4,2.8-1.2c-0.1,0.5-0.2,1.2-0.4,1.6
		c-0.6,1.6-1.5,2.2-1.5,2.2h4.8c0.1,0-0.9-0.7-1.5-2.2c-0.2-0.4-0.3-1.1-0.4-1.6c0.7,0.8,1.7,1.2,2.8,1.2h0c1,0,2-0.4,2.8-1.1
		c0.7-0.7,1.1-1.7,1.1-2.7C34.8,47.1,33.7,46.2,32.2,45z"/>
	<path class="st3" d="M47.2,61.5c-0.1-0.1-0.2-0.2-0.4-0.3c-0.9-0.8-1.7-1.8-1.7-1.8c0,0-0.7,1-1.7,1.8c-0.1,0.1-0.3,0.2-0.4,0.3
		C42.5,62,42,62.3,42,63.1c0,0.4,0.2,0.9,0.5,1.2c0.3,0.3,0.7,0.5,1.2,0.5h0c0.5,0,0.9-0.2,1.2-0.5c-0.1,0.2-0.1,0.5-0.2,0.7
		c-0.2,0.7-0.7,1-0.6,1h2.1c0,0-0.4-0.3-0.6-1c-0.1-0.2-0.1-0.5-0.2-0.7c0.3,0.3,0.7,0.5,1.2,0.5h0c0.5,0,0.9-0.2,1.2-0.5
		c0.3-0.3,0.5-0.7,0.5-1.2C48.4,62.3,47.9,62,47.2,61.5z"/>
	<path class="st3" d="M47.2,31.6c-0.1-0.1-0.2-0.2-0.4-0.3c-0.9-0.8-1.7-1.8-1.7-1.8c0,0-0.7,1-1.7,1.8c-0.1,0.1-0.3,0.2-0.4,0.3
		c-0.6,0.5-1.1,0.9-1.1,1.6c0,0.4,0.2,0.9,0.5,1.2c0.3,0.3,0.7,0.5,1.2,0.5l0,0c0.5,0,0.9-0.2,1.2-0.5c-0.1,0.2-0.1,0.5-0.2,0.7
		c-0.2,0.7-0.7,1-0.6,1h2.1c0,0-0.4-0.3-0.6-1c-0.1-0.2-0.1-0.5-0.2-0.7c0.3,0.3,0.7,0.5,1.2,0.5l0,0c0.5,0,0.9-0.2,1.2-0.5
		c0.3-0.3,0.5-0.7,0.5-1.2C48.4,32.5,47.9,32.1,47.2,31.6z"/>
	<path class="st3" d="M47.2,46.5c-0.1-0.1-0.2-0.2-0.4-0.3c-0.9-0.8-1.7-1.8-1.7-1.8c0,0-0.7,1-1.7,1.8c-0.1,0.1-0.3,0.2-0.4,0.3
		C42.5,47,42,47.4,42,48.2c0,0.4,0.2,0.9,0.5,1.2c0.3,0.3,0.7,0.5,1.2,0.5l0,0c0.5,0,0.9-0.2,1.2-0.5c-0.1,0.2-0.1,0.5-0.2,0.7
		c-0.2,0.7-0.7,1-0.6,1h2.1c0,0-0.4-0.3-0.6-1c-0.1-0.2-0.1-0.5-0.2-0.7c0.3,0.3,0.7,0.5,1.2,0.5l0,0c0.5,0,0.9-0.2,1.2-0.5
		c0.3-0.3,0.5-0.7,0.5-1.2C48.4,47.4,47.9,47,47.2,46.5z"/>
	<path class="st3" d="M24.5,21.3h-3.8c0.1-1.7,0.7-3.1,1.9-4.1c1.1-1,2.5-1.5,4.1-1.5c1.7,0,3.2,0.5,4.4,1.5c1.2,1,1.8,2.2,1.8,3.6
		c0,1.5-0.7,2.9-2.2,4.1c1,0.6,1.7,1.2,2.1,1.9c0.4,0.7,0.7,1.4,0.7,2.4c0,1.7-0.6,3.1-1.7,4.2c-1.2,1.1-2.7,1.6-4.6,1.6
		c-1.8,0-3.2-0.5-4.4-1.5c-1.2-1-1.9-2.4-2.2-4.2h3.9c0.5,1.8,1.3,2.7,2.6,2.7c0.7,0,1.2-0.2,1.6-0.7c0.4-0.5,0.7-1,0.7-1.7
		c0-0.8-0.3-1.5-0.8-2.1c-0.5-0.5-1.2-0.8-2.1-0.8h-0.7v-3.1h0.4c0.9,0,1.6-0.2,2.1-0.7c0.5-0.4,0.8-1,0.8-1.7
		c0-0.6-0.2-1.2-0.6-1.7c-0.4-0.5-0.9-0.7-1.6-0.7C25.5,18.7,24.7,19.6,24.5,21.3z"/>
</g>
</svg>
