<?xml version="1.0" encoding="utf-8"?>
<!-- Generator: Adobe Illustrator 23.0.3, SVG Export Plug-In . SVG Version: 6.00 Build 0)  -->
<svg version="1.1" id="Layer_1" xmlns="http://www.w3.org/2000/svg" xmlns:xlink="http://www.w3.org/1999/xlink" x="0px" y="0px"
	 viewBox="0 0 84.8 94.1" style="enable-background:new 0 0 84.8 94.1;" xml:space="preserve">
<style type="text/css">
	.st0{fill:#F6F6F6;}
	.st1{fill:#BE202E;}
	.st2{fill:#FFFFFF;}
	.st3{fill:#010101;}
	.st4{fill:#231F20;}
	.st5{opacity:0.3;}
</style>
<g>
	<path class="st0" d="M58.5,73.7c0,0.8-0.7,1.5-1.5,1.5H15c-0.8,0-1.5-0.7-1.5-1.5V9.1c0-0.8,0.7-1.5,1.5-1.5h42
		c0.8,0,1.5,0.7,1.5,1.5V73.7z"/>
	<path class="st1" d="M29.2,41.4c-2.1,1.9-5,5.8-6.4,8.7c-1.4-2.9-4.3-6.8-6.4-8.7c2.1-1.9,5-5.8,6.4-8.7
		C24.2,35.6,27.1,39.5,29.2,41.4z"/>
	<path class="st1" d="M40.6,52.6c-0.9,0.8-2.1,2.4-2.6,3.6c-0.6-1.2-1.8-2.8-2.6-3.6c0.9-0.8,2.1-2.4,2.6-3.6
		C38.6,50.2,39.8,51.8,40.6,52.6z"/>
	<path class="st1" d="M40.6,30.2c-0.9,0.8-2.1,2.4-2.6,3.6c-0.6-1.2-1.8-2.8-2.6-3.6c0.9-0.8,2.1-2.4,2.6-3.6
		C38.6,27.8,39.8,29.4,40.6,30.2z"/>
	<path class="st1" d="M46.9,41.4c-0.9,0.8-2,2.4-2.6,3.6c-0.6-1.2-1.8-2.8-2.6-3.6c0.9-0.8,2.1-2.4,2.6-3.6
		C44.8,39,46,40.6,46.9,41.4z"/>
	<path class="st1" d="M53.1,52.6c-0.9,0.8-2.1,2.4-2.6,3.6c-0.6-1.2-1.8-2.8-2.6-3.6c0.9-0.8,2-2.4,2.6-3.6
		C51,50.2,52.2,51.8,53.1,52.6z"/>
	<path class="st1" d="M53.1,30.2c-0.9,0.8-2.1,2.4-2.6,3.6c-0.6-1.2-1.8-2.8-2.6-3.6c0.9-0.8,2-2.4,2.6-3.6
		C51,27.8,52.2,29.4,53.1,30.2z"/>
	<path class="st1" d="M18.5,9.5h9.2V13h-5.6l-0.2,2.2c2.1,0,3.8,0.6,4.9,1.9c1.1,1.2,1.7,2.7,1.7,4.4c0,1.9-0.7,3.6-2.2,5
		c-1.5,1.4-3.2,2.1-5.2,2.1c-1,0-1.8-0.1-2.5-0.4c-0.7-0.3-1.5-0.7-2.4-1.3l0.4-4.2c2,1.4,3.6,2,4.8,2c0.8,0,1.6-0.3,2.2-0.9
		c0.6-0.6,0.9-1.3,0.9-2.1c0-0.9-0.3-1.6-0.9-2.2c-0.6-0.6-1.4-0.9-2.3-0.9c-1.1,0-2.3,0.3-3.6,0.8L18.5,9.5z"/>
</g>
</svg>
