<?xml version="1.0" encoding="utf-8"?>
<!-- Generator: Adobe Illustrator 23.0.3, SVG Export Plug-In . SVG Version: 6.00 Build 0)  -->
<svg version="1.1" id="Layer_1" xmlns="http://www.w3.org/2000/svg" xmlns:xlink="http://www.w3.org/1999/xlink" x="0px" y="0px"
	 viewBox="0 0 84.8 94.1" style="enable-background:new 0 0 84.8 94.1;" xml:space="preserve">
<style type="text/css">
	.st0{fill:#F6F6F6;}
	.st1{fill:#BE202E;}
	.st2{fill:#FFFFFF;}
	.st3{fill:#010101;}
	.st4{fill:#231F20;}
	.st5{opacity:0.3;}
</style>
<g>
	<path class="st0" d="M58.1,76.7c0,0.8-0.7,1.5-1.5,1.5h-42c-0.8,0-1.5-0.7-1.5-1.5V12.2c0-0.8,0.7-1.5,1.5-1.5h42
		c0.8,0,1.5,0.7,1.5,1.5V76.7z"/>
	<path class="st1" d="M28.8,44.5c-2.1,1.9-5,5.8-6.4,8.7c-1.4-2.9-4.3-6.8-6.4-8.7c2.1-1.9,5-5.8,6.4-8.7
		C23.8,38.6,26.7,42.5,28.8,44.5z"/>
	<path class="st1" d="M40.2,55.7c-0.9,0.8-2.1,2.4-2.6,3.6c-0.6-1.2-1.8-2.8-2.6-3.6c0.9-0.8,2.1-2.4,2.6-3.6
		C38.2,53.3,39.3,54.9,40.2,55.7z"/>
	<path class="st1" d="M40.2,33.3c-0.9,0.8-2.1,2.4-2.6,3.6c-0.6-1.2-1.8-2.8-2.6-3.6c0.9-0.8,2.1-2.4,2.6-3.6
		C38.2,30.9,39.3,32.5,40.2,33.3z"/>
	<path class="st1" d="M52.7,55.7c-0.9,0.8-2.1,2.4-2.6,3.6c-0.6-1.2-1.8-2.8-2.6-3.6c0.9-0.8,2.1-2.4,2.6-3.6
		C50.6,53.3,51.8,54.9,52.7,55.7z"/>
	<path class="st1" d="M46.5,60.6c-0.9,0.8-2.1,2.4-2.6,3.6c-0.6-1.2-1.8-2.8-2.6-3.6c0.9-0.8,2.1-2.4,2.6-3.6
		C44.4,58.3,45.6,59.8,46.5,60.6z"/>
	<path class="st1" d="M52.7,33.3c-0.9,0.8-2.1,2.4-2.6,3.6c-0.6-1.2-1.8-2.8-2.6-3.6c0.9-0.8,2.1-2.4,2.6-3.6
		C50.6,30.9,51.8,32.5,52.7,33.3z"/>
	<path class="st1" d="M40.2,66.9c-0.9,0.8-2.1,2.4-2.6,3.6c-0.6-1.2-1.8-2.8-2.6-3.6c0.9-0.8,2.1-2.4,2.6-3.6
		C38.2,64.5,39.3,66.1,40.2,66.9z"/>
	<path class="st1" d="M40.2,44.5c-0.9,0.8-2.1,2.4-2.6,3.6c-0.6-1.2-1.8-2.8-2.6-3.6c0.9-0.8,2.1-2.4,2.6-3.6
		C38.2,42.1,39.3,43.7,40.2,44.5z"/>
	<path class="st1" d="M52.7,66.9c-0.9,0.8-2.1,2.4-2.6,3.6c-0.6-1.2-1.8-2.8-2.6-3.6c0.9-0.8,2.1-2.4,2.6-3.6
		C50.6,64.5,51.8,66.1,52.7,66.9z"/>
	<path class="st1" d="M52.7,44.5c-0.9,0.8-2.1,2.4-2.6,3.6c-0.6-1.2-1.8-2.8-2.6-3.6c0.9-0.8,2.1-2.4,2.6-3.6
		C50.6,42.1,51.8,43.7,52.7,44.5z"/>
	<path class="st1" d="M46.5,39.5c-0.9,0.8-2.1,2.4-2.6,3.6c-0.6-1.2-1.8-2.8-2.6-3.6c0.9-0.8,2.1-2.4,2.6-3.6
		C44.4,37.1,45.6,38.7,46.5,39.5z"/>
	<g>
		<path class="st1" d="M14.9,12.8H21v18.6h-4.1V16.2h-2.7L14.9,12.8z"/>
		<path class="st1" d="M29.8,12.5c2.2,0,4,0.8,5.3,2.5c1.3,1.7,2,4,2,6.8c0,3.3-0.7,5.8-2.2,7.4c-1.5,1.6-3.1,2.4-5.1,2.4
			c-2.2,0-4-0.9-5.3-2.6c-1.4-1.7-2-4-2-6.7c0-3,0.7-5.3,2-7.1c1.3-1.8,3.1-2.7,5.2-2.7H29.8z M33.2,22.2c0-1.9-0.3-3.4-0.9-4.4
			c-0.6-1.1-1.4-1.6-2.4-1.6c-1.1,0-1.9,0.5-2.5,1.6c-0.6,1.1-0.9,2.6-0.9,4.5c0,1.8,0.3,3.2,0.9,4.2c0.6,1.1,1.4,1.6,2.5,1.6
			c1,0,1.9-0.5,2.5-1.6C32.9,25.4,33.2,24,33.2,22.2z"/>
	</g>
</g>
</svg>
