<?xml version="1.0" encoding="utf-8"?>
<!-- Generator: Adobe Illustrator 23.0.3, SVG Export Plug-In . SVG Version: 6.00 Build 0)  -->
<svg version="1.1" id="Layer_1" xmlns="http://www.w3.org/2000/svg" xmlns:xlink="http://www.w3.org/1999/xlink" x="0px" y="0px"
	 viewBox="0 0 84.8 94.1" style="enable-background:new 0 0 84.8 94.1;" xml:space="preserve">
<style type="text/css">
	.st0{fill:#F6F6F6;}
	.st1{fill:#BE202E;}
	.st2{fill:#FFFFFF;}
	.st3{fill:#010101;}
	.st4{fill:#231F20;}
	.st5{opacity:0.3;}
</style>
<g>
	<path class="st0" d="M61.3,15.8c1.2,0,2.3,1,2.3,2.3v63c0,1.2-1,2.3-2.3,2.3H20.8c-1.2,0-2.3-1-2.3-2.3V18c0-1.2,1-2.3,2.3-2.3
		H61.3z"/>
	<g>
		<g>
			<g>
				<g>
					<g>
						<g>
							<path class="st2" d="M25.2,77.7c1-1,1.2-2.3,1.2-2.3s-1.3,0.3-2.3,1.2c-1,1-1.8,1.7-1.2,2.3C23.6,79.5,24.3,78.6,25.2,77.7z"
								/>
							<path class="st1" d="M23.4,79.2L23.4,79.2c-0.2,0-0.3-0.1-0.5-0.2c-0.1-0.2-0.2-0.3-0.2-0.5c0-0.5,0.5-0.9,1.1-1.5
								c0.1-0.1,0.2-0.2,0.3-0.3c1-1,2.2-1.2,2.3-1.2l0.1,0l0,0.1c0,0.1-0.3,1.3-1.2,2.3c-0.1,0.1-0.2,0.2-0.3,0.3
								C24.3,78.7,23.9,79.2,23.4,79.2z M26.4,75.5c-0.3,0.1-1.3,0.4-2.1,1.2c-0.1,0.1-0.2,0.2-0.3,0.3c-0.6,0.6-1.1,1-1.1,1.4
								c0,0.1,0.1,0.3,0.2,0.4c0.1,0.1,0.2,0.2,0.4,0.2c0.4,0,0.9-0.5,1.4-1.1c0.1-0.1,0.2-0.2,0.3-0.3
								C25.9,76.8,26.3,75.8,26.4,75.5z"/>
						</g>
					</g>
					<g>
						<g>
							<path class="st2" d="M24.7,77.6c-1.1,0.3-2.1-0.1-2.1-0.1s0.7-0.8,1.8-1.1c1.1-0.3,1.9-0.6,2.1,0.1
								C26.7,77.2,25.8,77.4,24.7,77.6z"/>
							<path class="st1" d="M23.8,77.8c-0.7,0-1.2-0.2-1.2-0.2l-0.1,0l0.1-0.1c0,0,0.7-0.8,1.8-1.1c0.1,0,0.3-0.1,0.4-0.1
								c0.5-0.1,0.8-0.2,1.1-0.2c0.3,0,0.5,0.1,0.6,0.4c0,0.2,0,0.3,0,0.4c-0.2,0.3-0.7,0.5-1.4,0.6c-0.1,0-0.2,0.1-0.4,0.1
								C24.5,77.8,24.2,77.8,23.8,77.8z M22.8,77.6c0.2,0,0.6,0.1,1,0.1c0.3,0,0.6,0,0.9-0.1c0.1,0,0.3-0.1,0.4-0.1
								c0.6-0.2,1.1-0.3,1.3-0.6c0.1-0.1,0.1-0.2,0-0.3c-0.1-0.2-0.2-0.3-0.5-0.3c-0.3,0-0.7,0.1-1.1,0.2c-0.1,0-0.2,0.1-0.4,0.1
								C23.6,76.8,23,77.3,22.8,77.6z"/>
						</g>
					</g>
					<g>
						<g>
							<path class="st2" d="M25.3,77.4c-0.3,1.1-1.1,1.8-1.1,1.8s-0.3-1-0.1-2.1c0.3-1.1,0.4-1.9,1.1-1.8
								C25.9,75.5,25.6,76.4,25.3,77.4z"/>
							<path class="st1" d="M24.2,79.3l0-0.1c0,0-0.3-1-0.1-2.1c0-0.1,0.1-0.3,0.1-0.4c0.2-0.8,0.4-1.5,0.9-1.5c0.1,0,0.1,0,0.2,0
								c0.2,0,0.3,0.1,0.4,0.3c0.2,0.3,0,0.8-0.2,1.5c0,0.1-0.1,0.2-0.1,0.4C25.1,78.5,24.3,79.2,24.2,79.3L24.2,79.3z M25.1,75.4
								c-0.4,0-0.6,0.6-0.7,1.4c0,0.1-0.1,0.2-0.1,0.4c-0.2,0.8-0.1,1.6,0,1.9c0.2-0.2,0.8-0.8,1-1.6c0-0.1,0.1-0.3,0.1-0.4
								c0.2-0.6,0.3-1.1,0.2-1.4c-0.1-0.1-0.1-0.2-0.3-0.2C25.2,75.4,25.2,75.4,25.1,75.4z"/>
						</g>
					</g>
					<g>
						<g>
							<path class="st2" d="M25.6,78.1c0.3-0.3,0.3-0.7,0-1l-0.8-0.8c-0.3-0.3-0.7-0.3-1,0c-0.3,0.3-0.3,0.7,0,1l0.8,0.8
								C24.9,78.3,25.4,78.3,25.6,78.1z"/>
							<path class="st1" d="M25.2,78.3L25.2,78.3c-0.2,0-0.4-0.1-0.6-0.2l-0.8-0.8c-0.3-0.3-0.3-0.8,0-1.1c0.1-0.1,0.3-0.2,0.5-0.2
								c0.2,0,0.4,0.1,0.6,0.2l0.8,0.8c0.2,0.2,0.2,0.4,0.2,0.6c0,0.2-0.1,0.4-0.2,0.5C25.5,78.3,25.4,78.3,25.2,78.3z M24.3,76.1
								c-0.2,0-0.3,0.1-0.4,0.2c-0.2,0.2-0.2,0.7,0,0.9l0.8,0.8c0.1,0.1,0.3,0.2,0.5,0.2c0.2,0,0.3-0.1,0.4-0.2
								c0.1-0.1,0.2-0.3,0.2-0.4c0-0.2-0.1-0.3-0.2-0.5l-0.8-0.8C24.6,76.2,24.4,76.1,24.3,76.1z"/>
						</g>
						<g>
							<path class="st1" d="M25.2,78.3L25.2,78.3c-0.2,0-0.4-0.1-0.6-0.2l-0.8-0.8c-0.3-0.3-0.3-0.8,0-1.1c0.1-0.1,0.3-0.2,0.5-0.2
								c0.2,0,0.4,0.1,0.6,0.2l0.8,0.8c0.2,0.2,0.2,0.4,0.2,0.6c0,0.2-0.1,0.4-0.2,0.5C25.5,78.3,25.4,78.3,25.2,78.3z M24.3,76.1
								c-0.2,0-0.3,0.1-0.4,0.2c-0.2,0.2-0.2,0.7,0,0.9l0.8,0.8c0.1,0.1,0.3,0.2,0.5,0.2c0.2,0,0.3-0.1,0.4-0.2
								c0.1-0.1,0.2-0.3,0.2-0.4c0-0.2-0.1-0.3-0.2-0.5l-0.8-0.8C24.6,76.2,24.4,76.1,24.3,76.1z"/>
						</g>
					</g>
				</g>
				<path class="st1" d="M21.3,76.7c-1.1,0-2-0.9-2-2.1c0,0,0-0.1,0.1-0.1c0,0,0.1,0,0.1,0.1c0,1,0.8,1.9,1.9,1.9
					c1,0,1.9-0.9,1.9-1.9V34.8c0,0,0-0.1,0.1-0.1c0,0,0.1,0,0.1,0.1v39.9C23.3,75.8,22.4,76.7,21.3,76.7z"/>
				<path class="st1" d="M27.3,82.6c-1.1,0-2.1-0.9-2.1-2c0-1.1,0.9-2,2.1-2H53c0,0,0.1,0,0.1,0.1c0,0,0,0.1-0.1,0.1H27.3
					c-1,0-1.9,0.8-1.9,1.9c0,1,0.9,1.9,1.9,1.9C27.4,82.4,27.4,82.4,27.3,82.6C27.4,82.5,27.4,82.6,27.3,82.6z"/>
			</g>
			<g>
				<g>
					<g>
						<g>
							<path class="st2" d="M56.3,21.9c-1,1-1.2,2.3-1.2,2.3s1.3-0.3,2.3-1.2c1-1,1.8-1.7,1.2-2.3C58,20,57.3,20.9,56.3,21.9z"/>
							<path class="st1" d="M55,24.2l0-0.1c0-0.1,0.3-1.3,1.2-2.3c0.1-0.1,0.2-0.2,0.3-0.3c0.6-0.6,1.1-1.1,1.5-1.1
								c0.2,0,0.3,0.1,0.5,0.2c0.1,0.1,0.2,0.3,0.2,0.5c0,0.5-0.5,0.9-1.1,1.5c-0.1,0.1-0.2,0.2-0.3,0.3c-1,1-2.2,1.2-2.3,1.2
								L55,24.2z M58.1,20.5c-0.4,0-0.9,0.5-1.4,1.1c-0.1,0.1-0.2,0.2-0.3,0.3c-0.8,0.8-1.1,1.8-1.2,2.1c0.3-0.1,1.3-0.4,2.1-1.2
								c0.1-0.1,0.2-0.2,0.3-0.3c0.6-0.6,1.1-1,1.1-1.4c0-0.1-0.1-0.3-0.2-0.4C58.4,20.6,58.3,20.5,58.1,20.5z"/>
						</g>
					</g>
					<g>
						<g>
							<path class="st2" d="M56.8,21.9c1.1-0.3,2.1,0.1,2.1,0.1s-0.7,0.8-1.8,1.1C56,23.3,55.2,23.6,55,23
								C54.9,22.3,55.7,22.2,56.8,21.9z"/>
							<path class="st1" d="M55.6,23.4c-0.3,0-0.5-0.1-0.6-0.4c0-0.2,0-0.3,0-0.4c0.2-0.3,0.7-0.5,1.4-0.6c0.1,0,0.2-0.1,0.4-0.1
								c0.3-0.1,0.6-0.1,0.9-0.1c0.7,0,1.2,0.2,1.2,0.2l0.1,0L58.9,22c0,0-0.7,0.8-1.8,1.1c-0.1,0-0.3,0.1-0.4,0.1
								C56.3,23.3,55.9,23.4,55.6,23.4z M57.7,21.8c-0.3,0-0.6,0-0.9,0.1c-0.1,0-0.3,0.1-0.4,0.1c-0.6,0.2-1.1,0.3-1.3,0.6
								c-0.1,0.1-0.1,0.2,0,0.3c0.1,0.2,0.2,0.3,0.5,0.3c0.3,0,0.7-0.1,1.1-0.2c0.1,0,0.2-0.1,0.4-0.1c0.8-0.2,1.4-0.8,1.6-1
								C58.5,21.9,58.2,21.8,57.7,21.8z"/>
						</g>
					</g>
					<g>
						<g>
							<path class="st2" d="M56.2,22.1c0.3-1.1,1.1-1.8,1.1-1.8s0.3,1,0.1,2.1c-0.3,1.1-0.4,1.9-1.1,1.8
								C55.6,24,55.9,23.2,56.2,22.1z"/>
							<path class="st1" d="M56.4,24.3c-0.1,0-0.1,0-0.2,0c-0.2,0-0.3-0.1-0.4-0.3c-0.2-0.3,0-0.8,0.2-1.5c0-0.1,0.1-0.2,0.1-0.4
								c0.3-1.1,1.1-1.8,1.1-1.8l0.1-0.1l0,0.1c0,0,0.3,1,0.1,2.1c0,0.1-0.1,0.3-0.1,0.4C57.1,23.6,56.9,24.3,56.4,24.3z M57.2,20.5
								c-0.2,0.2-0.8,0.8-1,1.6c0,0.1-0.1,0.3-0.1,0.4c-0.2,0.6-0.3,1.1-0.2,1.4c0.1,0.1,0.1,0.2,0.3,0.2c0.1,0,0.1,0,0.1,0
								c0.4,0,0.6-0.6,0.7-1.4c0-0.1,0.1-0.2,0.1-0.4C57.5,21.6,57.3,20.8,57.2,20.5z"/>
						</g>
					</g>
					<g>
						<g>
							<path class="st2" d="M55.9,21.5c-0.3,0.3-0.3,0.7,0,1l0.8,0.8c0.3,0.3,0.7,0.3,1,0c0.3-0.3,0.3-0.7,0-1l-0.8-0.8
								C56.6,21.2,56.2,21.2,55.9,21.5z"/>
							<path class="st1" d="M57.3,23.6L57.3,23.6c-0.2,0-0.4-0.1-0.6-0.2l-0.8-0.8c-0.2-0.2-0.2-0.4-0.2-0.6c0-0.2,0.1-0.4,0.2-0.5
								c0.1-0.1,0.3-0.2,0.5-0.2c0.2,0,0.4,0.1,0.6,0.2l0.8,0.8c0.2,0.2,0.2,0.3,0.2,0.6c0,0.2-0.1,0.4-0.2,0.6
								C57.7,23.5,57.5,23.6,57.3,23.6z M56.4,21.3c-0.2,0-0.3,0.1-0.4,0.2c-0.1,0.1-0.2,0.3-0.2,0.4c0,0.2,0.1,0.3,0.2,0.5l0.8,0.8
								c0.1,0.1,0.3,0.2,0.5,0.2l0,0c0.2,0,0.3-0.1,0.4-0.2c0.1-0.1,0.2-0.3,0.2-0.4c0-0.2-0.1-0.3-0.2-0.5l-0.8-0.8
								C56.7,21.4,56.6,21.3,56.4,21.3z"/>
						</g>
						<g>
							<path class="st1" d="M57.3,23.6L57.3,23.6c-0.2,0-0.4-0.1-0.6-0.2l-0.8-0.8c-0.2-0.2-0.2-0.4-0.2-0.6c0-0.2,0.1-0.4,0.2-0.5
								c0.1-0.1,0.3-0.2,0.5-0.2c0.2,0,0.4,0.1,0.6,0.2l0.8,0.8c0.2,0.2,0.2,0.3,0.2,0.6c0,0.2-0.1,0.4-0.2,0.6
								C57.7,23.5,57.5,23.6,57.3,23.6z M56.4,21.3c-0.2,0-0.3,0.1-0.4,0.2c-0.1,0.1-0.2,0.3-0.2,0.4c0,0.2,0.1,0.3,0.2,0.5l0.8,0.8
								c0.1,0.1,0.3,0.2,0.5,0.2l0,0c0.2,0,0.3-0.1,0.4-0.2c0.1-0.1,0.2-0.3,0.2-0.4c0-0.2-0.1-0.3-0.2-0.5l-0.8-0.8
								C56.7,21.4,56.6,21.3,56.4,21.3z"/>
						</g>
					</g>
				</g>
				<path class="st1" d="M58.8,64.4C58.7,64.4,58.7,64.4,58.8,64.4l-0.1-39.9c0-1.1,0.9-2.1,2-2.1c1.1,0,2,0.9,2,2.1
					c0,0,0,0.1-0.1,0.1c0,0-0.1,0-0.1-0.1c0-1-0.8-1.9-1.9-1.9c-1,0-1.9,0.9-1.9,1.9L58.8,64.4C58.9,64.4,58.8,64.4,58.8,64.4z"/>
				<path class="st1" d="M54.7,20.6H29c0,0-0.1,0-0.1-0.1c0,0,0-0.1,0.1-0.1h25.7c1,0,1.9-0.8,1.9-1.9c0-1-0.9-1.9-1.9-1.9
					c0,0-0.1,0-0.1-0.1c0,0,0-0.1,0.1-0.1c1.1,0,2.1,0.9,2.1,2C56.8,19.7,55.8,20.6,54.7,20.6z"/>
			</g>
			<g>
				<g>
					<path class="st1" d="M24.8,25c-1.1-0.1-1.5,0.6-1.6,0.9c-0.1-0.2-0.5-1-1.6-0.9c-1.1,0.2-1.4,1.1-1.3,2
						c0.2,1.4,2.4,2.4,2.9,3.2l0,0l0,0c0.5-0.9,2.6-1.8,2.9-3.2C26.2,26.1,25.8,25.2,24.8,25z"/>
					<path class="st1" d="M24.4,24.2l-0.3-1.2h-2l-0.3,1.2h-1.1l1.7-5.8h1.5l1.7,5.8H24.4z M23.1,19.4l-0.8,2.7h1.5L23.1,19.4z"/>
				</g>
				<g>
					<path class="st1" d="M60.5,74c-1.1,0.1-1.5-0.6-1.6-0.9c-0.1,0.2-0.5,1-1.6,0.9c-1.1-0.2-1.4-1.1-1.3-2
						c0.2-1.4,2.4-2.4,2.9-3.2l0,0l0,0c0.5,0.9,2.6,1.8,2.9,3.2C61.9,72.9,61.6,73.8,60.5,74z"/>
					<path class="st1" d="M61.4,74.9l-1.7,5.8h-1.5l-1.7-5.8h1.1l0.3,1.2h2l0.3-1.2H61.4z M59.6,76.9h-1.5l0.8,2.7L59.6,76.9z"/>
				</g>
			</g>
		</g>
	</g>
	<g>
		<path class="st1" d="M48.1,39c-5-0.5-6.6,2.7-7.1,3.8c-0.4-1.1-2-4.4-7.1-3.8c-4.7,0.9-6.2,5-5.6,9c1,6.3,10.6,10.4,12.6,14.3
			l0.1,0.2l0.1-0.2c2-3.9,11.6-8,12.6-14.3C54.3,44,52.8,39.9,48.1,39z"/>
		<g>
			<g>
				<path class="st2" d="M34,39.9c5-0.5,6.6,2.7,7.1,3.8c0.4-1.1,2-4.4,7.1-3.8c4,0.7,5.7,3.9,5.8,7.2c0.1-3.5-1.6-6.8-5.8-7.5
					c-5-0.5-6.6,2.7-7.1,3.8c-0.4-1.1-2-4.4-7.1-3.8c-4.1,0.8-5.8,4.1-5.8,7.5C28.2,43.7,30,40.6,34,39.9z"/>
			</g>
			<g>
				<g>
					<g>
						<path class="st2" d="M41,48.4c-0.5,0-1-0.8-1-1.9c0,0.1,0,0.2,0,0.3c0,1.2,0.5,2.2,1,2.2c0.6,0,1-1,1-2.2c0-0.1,0-0.2,0-0.3
							C42,47.5,41.5,48.4,41,48.4z"/>
					</g>
					<g>
						<path class="st2" d="M41,50.7c-0.4,0-0.7-0.6-0.8-1.4c0,0.1,0,0.1,0,0.2c0,0.9,0.3,1.6,0.8,1.6c0.4,0,0.8-0.7,0.8-1.6
							c0-0.1,0-0.1,0-0.2C41.7,50.1,41.4,50.7,41,50.7z"/>
					</g>
				</g>
				<g>
					<g>
						<path class="st2" d="M41.2,45.5c0,0.1-0.1,0.1-0.1,0.2c0,0,0,0.1-0.1,0.1c0,0,0,0-0.1-0.1c0-0.1-0.1-0.1-0.1-0.2c0,0,0,0,0,0
							c-0.2-0.4-0.4-0.7-0.6-1c-0.5,0.3-1.4-0.1-2.2-1c-0.1-0.1-0.1-0.1-0.2-0.2c0.7,0.7,1.6,1,2,0.8c-0.7-0.8-1.6-1.4-2.6-1.7
							c-0.3,0.4-1.2,0.6-2.1,0.6c-0.1,0-0.2,0-0.3,0c0.9,0,1.7-0.3,1.9-0.7c-1-0.2-2-0.2-3,0.1c0,0.5-0.5,1.3-1.3,1.8
							c-0.1,0.1-0.2,0.1-0.2,0.2c0.8-0.6,1.2-1.4,1-1.8c0,0,0,0-0.1,0c-1,0.4-1.8,1.1-2.3,1.9c0.4,0.3,0.4,1.3,0,2.3
							c0,0.1-0.1,0.2-0.1,0.3c0.3-1,0.3-1.8-0.1-2.1c-0.4,1-0.6,2.1-0.3,3.2c0.5,0,1.2,0.6,1.7,1.6c0,0.1,0.1,0.2,0.1,0.3
							c-0.5-0.9-1.2-1.4-1.6-1.3c0,0,0,0.1,0,0.1c0.8,1.9,3,2.9,4.9,2.1c0.7-0.3,1.3-0.9,1.6-1.6c0.3-0.7,0.3-1.6,0-2.3
							c-0.2-0.6-0.7-1-1.3-1.3c-0.6-0.2-1.2-0.2-1.8,0c-1,0.4-1.4,1.5-1,2.4c0.3,0.7,1.2,1.1,1.9,0.8c0.6-0.2,0.9-0.9,0.6-1.5
							c-0.2-0.5-0.7-0.7-1.2-0.5c-0.2,0.1-0.3,0.2-0.4,0.4c0.1,0,0.1,0,0.2,0c0.3,0,0.5,0.2,0.5,0.5c0,0.3-0.2,0.5-0.5,0.5
							c-0.2,0-0.4-0.1-0.4-0.3c0,0,0,0,0,0c-0.2-0.5,0-1.1,0.5-1.3c0.6-0.2,1.3,0,1.5,0.6c0.3,0.7-0.1,1.6-0.8,1.9
							c-0.9,0.4-1.9-0.1-2.3-1c-0.4-1.1,0.1-2.4,1.2-2.8c0.7-0.3,1.4-0.3,2,0c0.7,0.3,1.2,0.8,1.4,1.4c0.3,0.8,0.3,1.7,0,2.5
							c-0.3,0.8-1,1.4-1.8,1.8c-0.5,0.2-1,0.3-1.5,0.3c-1.6,0-3.1-1-3.8-2.5c0,0,0,0,0-0.1c-0.3,0.3-0.3,1.2,0.1,2.1
							c0-0.1-0.1-0.2-0.1-0.3c-0.5-1-0.5-2.1-0.1-2.4c-0.3-1.1-0.2-2.3,0.3-3.3c-0.5,0-1.1,0.6-1.5,1.4c0-0.1,0.1-0.2,0.1-0.3
							c0.4-1.1,1.1-1.8,1.7-1.7c0.5-0.9,1.4-1.6,2.4-2.1c-0.4-0.3-1.2-0.1-2,0.4c0.1-0.1,0.1-0.1,0.2-0.2c1-0.7,2-0.9,2.4-0.5
							c0,0,0,0,0,0c1.1-0.3,2.2-0.3,3.2-0.1c-0.1-0.5-0.8-0.9-1.9-1.1c0.1,0,0.2,0,0.3,0c1.2,0.1,2.2,0.6,2.1,1.2c0,0,0,0,0,0
							c1,0.3,2,0.9,2.7,1.7c0.2-0.4-0.1-1.2-0.7-1.9c0.1,0.1,0.1,0.1,0.2,0.2c0.7,0.8,1.1,1.7,0.9,2.2c0.2,0.2,0.3,0.4,0.4,0.6
							c0.1,0.1,0.1,0.2,0.2,0.3C41.1,45.2,41.1,45.3,41.2,45.5z"/>
					</g>
					<g>
						<path class="st2" d="M51.7,44.7c0.5,1,0.6,2.2,0.3,3.3c0.4,0.3,0.4,1.3-0.1,2.4c0,0.1-0.1,0.2-0.1,0.3
							c0.4-0.9,0.4-1.7,0.1-2.1c0,0,0,0,0,0.1c-0.6,1.6-2.2,2.5-3.8,2.5c-0.5,0-1-0.1-1.5-0.3c-0.8-0.3-1.4-1-1.8-1.8
							c-0.3-0.8-0.3-1.7,0-2.5c0.3-0.7,0.8-1.2,1.4-1.4c0.7-0.3,1.4-0.3,2,0c1.1,0.4,1.6,1.7,1.2,2.8c-0.4,0.9-1.4,1.3-2.3,1
							c-0.7-0.3-1.1-1.1-0.8-1.9c0.2-0.6,0.9-0.9,1.5-0.6c0.5,0.2,0.7,0.8,0.5,1.3c0,0,0,0,0,0C48.2,47.9,48,48,47.8,48
							c-0.3,0-0.5-0.2-0.5-0.5c0-0.3,0.2-0.5,0.5-0.5c0.1,0,0.1,0,0.2,0c-0.1-0.2-0.2-0.3-0.4-0.4c-0.5-0.2-1,0-1.2,0.5
							c-0.2,0.6,0,1.3,0.6,1.5c0.7,0.3,1.6-0.1,1.9-0.8c0.4-1-0.1-2-1-2.4c-0.6-0.2-1.2-0.2-1.8,0c-0.6,0.2-1,0.7-1.3,1.3
							c-0.3,0.7-0.3,1.6,0,2.3c0.3,0.7,0.9,1.3,1.6,1.6c1.9,0.8,4.1-0.1,4.9-2.1c0,0,0-0.1,0-0.1c-0.5-0.1-1.1,0.5-1.6,1.3
							c0-0.1,0.1-0.2,0.1-0.3c0.5-1,1.2-1.6,1.7-1.6c0.3-1.1,0.2-2.2-0.3-3.2c-0.4,0.3-0.5,1.2-0.1,2.1c0-0.1-0.1-0.2-0.1-0.3
							c-0.4-1-0.4-2,0-2.3c-0.5-0.8-1.3-1.5-2.3-1.9c0,0,0,0-0.1,0c-0.2,0.4,0.2,1.2,1,1.8c-0.1-0.1-0.2-0.1-0.2-0.2
							c-0.8-0.6-1.3-1.3-1.3-1.8c-1-0.3-2.1-0.3-3-0.1c0.2,0.4,1,0.7,1.9,0.7c-0.1,0-0.2,0-0.3,0c-1,0.1-1.8-0.2-2.1-0.6
							c-1,0.3-1.9,0.9-2.6,1.7c0.4,0.3,1.2,0,2-0.8c-0.1,0.1-0.1,0.1-0.2,0.2c-0.8,0.8-1.7,1.3-2.2,1c-0.2,0.3-0.4,0.7-0.6,1
							c0,0,0,0,0,0c0,0.1-0.1,0.1-0.1,0.2c0,0,0,0.1-0.1,0.1c0,0,0,0-0.1-0.1c0-0.1-0.1-0.1-0.1-0.2c0-0.1,0.1-0.2,0.2-0.3
							c0.1-0.1,0.1-0.2,0.2-0.3c0.1-0.2,0.3-0.4,0.4-0.6c-0.2-0.5,0.1-1.4,0.9-2.2c0.1-0.1,0.1-0.1,0.2-0.2
							c-0.6,0.7-0.8,1.5-0.7,1.9c0.7-0.8,1.7-1.4,2.7-1.7c0,0,0,0,0,0c0-0.6,0.9-1.1,2.1-1.2c0.1,0,0.2,0,0.3,0
							c-1,0.1-1.8,0.6-1.9,1.1c1-0.2,2.1-0.2,3.2,0.1c0,0,0,0,0,0c0.3-0.5,1.4-0.2,2.4,0.5c0.1,0.1,0.2,0.1,0.2,0.2
							c-0.8-0.5-1.6-0.7-2-0.4c1,0.4,1.9,1.2,2.4,2.1c0.5-0.1,1.2,0.6,1.7,1.7c0,0.1,0.1,0.2,0.1,0.3C52.7,45.3,52.1,44.7,51.7,44.7
							z"/>
					</g>
				</g>
			</g>
			<g>
				<g>
					<g>
						<path class="st2" d="M41,44.9l0.2,4.2c0,0,0,6,3.3,6c0,0,0.6,0,0.6-0.4c0-0.4-1-0.3-1,0.8c0,1.1,0.9,1.2,1.2,1.2
							c0.3,0,1.3-0.3,1.3-1.4s-1.1-1.6-2-1.6c-1,0-3.4,0.7-3.4,3.4c0,2.3-0.2,2.7-0.2,2.7h0l0-2.7c0,0-0.1-3.7,3.5-3.7
							c1.8,0,2.4,1.5,2.4,2c0,0.5-0.3,1.5-1.6,1.5c-1.2,0-1.3-1.1-1.3-1.4c0-0.4,0.3-1.2,0.8-1.2c0.6,0,0.8,1-0.2,1
							c-1,0-3.6-1.1-3.6-6.3V44.9L41,44.9z"/>
					</g>
				</g>
				<g>
					<g>
						<path class="st2" d="M41,44.9l-0.2,4.2c0,0,0,6-3.3,6c0,0-0.6,0-0.6-0.4c0-0.4,1-0.3,1,0.8c0,1.1-0.9,1.2-1.2,1.2
							c-0.3,0-1.3-0.3-1.3-1.4s1.1-1.6,2-1.6c1,0,3.4,0.7,3.4,3.4c0,2.3,0.2,2.7,0.2,2.7h0l0-2.7c0,0,0.1-3.7-3.5-3.7
							c-1.8,0-2.4,1.5-2.4,2c0,0.5,0.3,1.5,1.6,1.5c1.2,0,1.3-1.1,1.3-1.4c0-0.4-0.3-1.2-0.8-1.2c-0.6,0-0.8,1,0.2,1
							c1,0,3.6-1.1,3.6-6.3V44.9L41,44.9z"/>
					</g>
				</g>
			</g>
		</g>
	</g>
</g>
</svg>
