<?xml version="1.0" encoding="utf-8"?>
<!-- Generator: Adobe Illustrator 23.0.3, SVG Export Plug-In . SVG Version: 6.00 Build 0)  -->
<svg version="1.1" id="Layer_1" xmlns="http://www.w3.org/2000/svg" xmlns:xlink="http://www.w3.org/1999/xlink" x="0px" y="0px"
	 viewBox="0 0 84.8 94.1" style="enable-background:new 0 0 84.8 94.1;" xml:space="preserve">
<style type="text/css">
	.st0{fill:#F6F6F6;}
	.st1{fill:#BE202E;}
	.st2{fill:#FFFFFF;}
	.st3{fill:#010101;}
	.st4{fill:#231F20;}
	.st5{opacity:0.3;}
</style>
<g>
	<path class="st0" d="M55.2,76.8c0,0.8-0.7,1.5-1.5,1.5h-42c-0.8,0-1.5-0.7-1.5-1.5V12.3c0-0.8,0.7-1.5,1.5-1.5h42
		c0.8,0,1.5,0.7,1.5,1.5V76.8z"/>
	<path class="st1" d="M25.9,44.5c-2.1,1.9-5,5.8-6.4,8.7c-1.4-2.9-4.3-6.8-6.4-8.7c2.1-1.9,5-5.8,6.4-8.7
		C20.9,38.7,23.7,42.6,25.9,44.5z"/>
	<path class="st1" d="M37.3,55.7c-0.9,0.8-2,2.4-2.6,3.6c-0.6-1.2-1.8-2.8-2.6-3.6c0.9-0.8,2-2.4,2.6-3.6
		C35.2,53.3,36.4,54.9,37.3,55.7z"/>
	<path class="st1" d="M37.3,33.3c-0.9,0.8-2,2.4-2.6,3.6c-0.6-1.2-1.8-2.8-2.6-3.6c0.9-0.8,2-2.4,2.6-3.6
		C35.2,30.9,36.4,32.5,37.3,33.3z"/>
	<path class="st1" d="M49.7,55.7c-0.9,0.8-2,2.4-2.6,3.6c-0.6-1.2-1.8-2.8-2.6-3.6c0.9-0.8,2-2.4,2.6-3.6
		C47.7,53.3,48.9,54.9,49.7,55.7z"/>
	<path class="st1" d="M49.7,33.3c-0.9,0.8-2,2.4-2.6,3.6c-0.6-1.2-1.8-2.8-2.6-3.6c0.9-0.8,2-2.4,2.6-3.6
		C47.7,30.9,48.9,32.5,49.7,33.3z"/>
	<path class="st1" d="M37.3,66.9c-0.9,0.8-2,2.4-2.6,3.6c-0.6-1.2-1.8-2.8-2.6-3.6c0.9-0.8,2-2.4,2.6-3.6
		C35.2,64.6,36.4,66.1,37.3,66.9z"/>
	<path class="st1" d="M37.3,44.5c-0.9,0.8-2,2.4-2.6,3.6c-0.6-1.2-1.8-2.8-2.6-3.6c0.9-0.8,2-2.4,2.6-3.6
		C35.2,42.1,36.4,43.7,37.3,44.5z"/>
	<path class="st1" d="M49.7,66.9c-0.9,0.8-2,2.4-2.6,3.6c-0.6-1.2-1.8-2.8-2.6-3.6c0.9-0.8,2-2.4,2.6-3.6
		C47.7,64.6,48.9,66.1,49.7,66.9z"/>
	<path class="st1" d="M49.7,44.5c-0.9,0.8-2,2.4-2.6,3.6c-0.6-1.2-1.8-2.8-2.6-3.6c0.9-0.8,2-2.4,2.6-3.6
		C47.7,42.1,48.9,43.7,49.7,44.5z"/>
	<path class="st1" d="M43.5,39.6c-0.9,0.8-2,2.4-2.6,3.6c-0.6-1.2-1.8-2.8-2.6-3.6c0.9-0.8,2-2.4,2.6-3.6
		C41.5,37.2,42.6,38.8,43.5,39.6z"/>
	<path class="st1" d="M19.9,31.6h-5l4.6-6.3c-0.9,0.1-1.4,0.1-1.7,0.1c-1.6,0-3-0.6-4.2-1.8c-1.1-1.2-1.7-2.7-1.7-4.4
		c0-1.8,0.7-3.4,2.1-4.6c1.4-1.2,3.1-1.9,5.2-1.9c2,0,3.6,0.6,4.8,1.9c1.2,1.3,1.9,2.9,1.9,4.9c0,1.5-0.4,2.9-1.1,4.4
		c-0.7,1.5-1.3,2.5-1.8,3.3L19.9,31.6z M22,19.4c0-0.8-0.3-1.5-0.9-2.1c-0.6-0.6-1.3-0.9-2.1-0.9c-0.7,0-1.4,0.3-1.9,0.9
		c-0.5,0.6-0.8,1.3-0.8,2.1c0,0.8,0.3,1.5,0.8,2c0.5,0.6,1.2,0.8,2,0.8c0.8,0,1.5-0.3,2.1-0.8C21.7,20.9,22,20.2,22,19.4z"/>
</g>
</svg>
