<?xml version="1.0" encoding="utf-8"?>
<!-- Generator: Adobe Illustrator 23.0.3, SVG Export Plug-In . SVG Version: 6.00 Build 0)  -->
<svg version="1.1" id="Layer_1" xmlns="http://www.w3.org/2000/svg" xmlns:xlink="http://www.w3.org/1999/xlink" x="0px" y="0px"
	 viewBox="0 0 84.8 94.1" style="enable-background:new 0 0 84.8 94.1;" xml:space="preserve">
<style type="text/css">
	.st0{fill:#F6F6F6;}
	.st1{fill:#BE202E;}
	.st2{fill:#FFFFFF;}
	.st3{fill:#010101;}
	.st4{fill:#231F20;}
	.st5{opacity:0.3;}
</style>
<g>
	<path class="st0" d="M67.5,78c0,0.8-0.7,1.5-1.5,1.5h-42c-0.8,0-1.5-0.7-1.5-1.5V13.4c0-0.8,0.7-1.5,1.5-1.5h42
		c0.8,0,1.5,0.7,1.5,1.5V78z"/>
	<path class="st3" d="M35.7,43c-0.4,0-0.9,0.1-1.3,0.2c0.5-0.6,0.8-1.4,0.8-2.2c0-1.9-1.5-3.5-3.5-3.5c-1.9,0-3.5,1.5-3.5,3.5
		c0,0.9,0.3,1.6,0.8,2.2c-0.4-0.2-0.8-0.2-1.3-0.2c-1.9,0-3.5,1.5-3.5,3.5c0,1.9,1.5,3.5,3.5,3.5c1.7,0,3.1-1.2,3.4-2.7
		c0,1.6,0.2,2.6-1.7,4.4c1.2,0,3.5,0,4.5,0c-1.9-1.8-1.8-2.8-1.7-4.4c0.3,1.6,1.7,2.8,3.4,2.8c1.9,0,3.5-1.5,3.5-3.5
		C39.1,44.6,37.6,43,35.7,43z"/>
	<path class="st3" d="M48.6,30.1c-0.2,0-0.4,0-0.5,0.1c0.2-0.3,0.3-0.6,0.3-0.9c0-0.8-0.6-1.4-1.4-1.4c-0.8,0-1.4,0.6-1.4,1.4
		c0,0.4,0.1,0.7,0.3,0.9c-0.2-0.1-0.3-0.1-0.5-0.1c-0.8,0-1.4,0.6-1.4,1.4c0,0.8,0.6,1.4,1.4,1.4c0.7,0,1.3-0.5,1.4-1.1
		c0,0.7,0.1,1.1-0.7,1.8c0.5,0,1.5,0,1.9,0c-0.8-0.7-0.7-1.2-0.7-1.8c0.1,0.7,0.7,1.2,1.4,1.2c0.8,0,1.4-0.6,1.4-1.4
		C50,30.7,49.4,30.1,48.6,30.1z"/>
	<path class="st3" d="M48.6,45c-0.2,0-0.4,0-0.5,0.1c0.2-0.3,0.3-0.6,0.3-0.9c0-0.8-0.6-1.4-1.4-1.4c-0.8,0-1.4,0.6-1.4,1.4
		c0,0.4,0.1,0.7,0.3,0.9c-0.2-0.1-0.3-0.1-0.5-0.1c-0.8,0-1.4,0.6-1.4,1.4c0,0.8,0.6,1.4,1.4,1.4c0.7,0,1.3-0.5,1.4-1.1
		c0,0.7,0.1,1.1-0.7,1.8c0.5,0,1.5,0,1.9,0c-0.8-0.7-0.7-1.2-0.7-1.8c0.1,0.7,0.7,1.2,1.4,1.2c0.8,0,1.4-0.6,1.4-1.4
		C50,45.7,49.4,45,48.6,45z"/>
	<path class="st3" d="M48.6,60c-0.2,0-0.4,0-0.5,0.1c0.2-0.3,0.3-0.6,0.3-0.9c0-0.8-0.6-1.4-1.4-1.4c-0.8,0-1.4,0.6-1.4,1.4
		c0,0.4,0.1,0.7,0.3,0.9C45.7,60,45.5,60,45.3,60c-0.8,0-1.4,0.6-1.4,1.4c0,0.8,0.6,1.4,1.4,1.4c0.7,0,1.3-0.5,1.4-1.1
		c0,0.7,0.1,1.1-0.7,1.8c0.5,0,1.5,0,1.9,0c-0.8-0.7-0.7-1.2-0.7-1.8c0.1,0.7,0.7,1.2,1.4,1.2c0.8,0,1.4-0.6,1.4-1.4
		C50,60.6,49.4,60,48.6,60z"/>
	<path class="st3" d="M61,30.1c-0.2,0-0.4,0-0.5,0.1c0.2-0.3,0.3-0.6,0.3-0.9c0-0.8-0.6-1.4-1.4-1.4c-0.8,0-1.4,0.6-1.4,1.4
		c0,0.4,0.1,0.7,0.3,0.9c-0.2-0.1-0.3-0.1-0.5-0.1c-0.8,0-1.4,0.6-1.4,1.4c0,0.8,0.6,1.4,1.4,1.4c0.7,0,1.3-0.5,1.4-1.1
		c0,0.7,0.1,1.1-0.7,1.8c0.5,0,1.5,0,1.9,0c-0.8-0.7-0.7-1.2-0.7-1.8c0.1,0.7,0.7,1.2,1.4,1.2c0.8,0,1.4-0.6,1.4-1.4
		C62.5,30.7,61.8,30.1,61,30.1z"/>
	<path class="st3" d="M61,45c-0.2,0-0.4,0-0.5,0.1c0.2-0.3,0.3-0.6,0.3-0.9c0-0.8-0.6-1.4-1.4-1.4c-0.8,0-1.4,0.6-1.4,1.4
		c0,0.4,0.1,0.7,0.3,0.9C58.1,45.1,58,45,57.8,45c-0.8,0-1.4,0.6-1.4,1.4c0,0.8,0.6,1.4,1.4,1.4c0.7,0,1.3-0.5,1.4-1.1
		c0,0.7,0.1,1.1-0.7,1.8c0.5,0,1.5,0,1.9,0c-0.8-0.7-0.7-1.2-0.7-1.8c0.1,0.7,0.7,1.2,1.4,1.2c0.8,0,1.4-0.6,1.4-1.4
		C62.5,45.7,61.8,45,61,45z"/>
	<path class="st3" d="M54.8,37.6c-0.2,0-0.4,0-0.5,0.1c0.2-0.3,0.3-0.6,0.3-0.9c0-0.8-0.6-1.4-1.4-1.4s-1.4,0.6-1.4,1.4
		c0,0.4,0.1,0.7,0.3,0.9c-0.2-0.1-0.3-0.1-0.5-0.1c-0.8,0-1.4,0.6-1.4,1.4c0,0.8,0.6,1.4,1.4,1.4c0.7,0,1.3-0.5,1.4-1.1
		c0,0.7,0.1,1.1-0.7,1.8c0.5,0,1.5,0,1.9,0c-0.8-0.7-0.7-1.2-0.7-1.8c0.1,0.7,0.7,1.2,1.4,1.2c0.8,0,1.4-0.6,1.4-1.4
		C56.2,38.2,55.6,37.6,54.8,37.6z"/>
	<path class="st3" d="M54.8,52.5c-0.2,0-0.4,0-0.5,0.1c0.2-0.3,0.3-0.6,0.3-0.9c0-0.8-0.6-1.4-1.4-1.4s-1.4,0.6-1.4,1.4
		c0,0.4,0.1,0.7,0.3,0.9c-0.2-0.1-0.3-0.1-0.5-0.1c-0.8,0-1.4,0.6-1.4,1.4c0,0.8,0.6,1.4,1.4,1.4c0.7,0,1.3-0.5,1.4-1.1
		c0,0.7,0.1,1.1-0.7,1.8c0.5,0,1.5,0,1.9,0c-0.8-0.7-0.7-1.2-0.7-1.8c0.1,0.7,0.7,1.2,1.4,1.2c0.8,0,1.4-0.6,1.4-1.4
		C56.2,53.1,55.6,52.5,54.8,52.5z"/>
	<path class="st3" d="M61,60c-0.2,0-0.4,0-0.5,0.1c0.2-0.3,0.3-0.6,0.3-0.9c0-0.8-0.6-1.4-1.4-1.4c-0.8,0-1.4,0.6-1.4,1.4
		c0,0.4,0.1,0.7,0.3,0.9C58.1,60,58,60,57.8,60c-0.8,0-1.4,0.6-1.4,1.4c0,0.8,0.6,1.4,1.4,1.4c0.7,0,1.3-0.5,1.4-1.1
		c0,0.7,0.1,1.1-0.7,1.8c0.5,0,1.5,0,1.9,0c-0.8-0.7-0.7-1.2-0.7-1.8c0.1,0.7,0.7,1.2,1.4,1.2c0.8,0,1.4-0.6,1.4-1.4
		C62.5,60.6,61.8,60,61,60z"/>
	<path class="st3" d="M34.8,22.8c1.8,1.2,2.7,2.7,2.7,4.6c0,1.6-0.6,2.9-1.7,3.9c-1.1,1-2.6,1.5-4.5,1.5c-1.9,0-3.4-0.5-4.6-1.5
		c-1.2-1-1.8-2.3-1.8-3.9c0-2,0.9-3.5,2.7-4.7c-0.8-0.7-1.3-1.3-1.7-2c-0.4-0.6-0.5-1.4-0.5-2.2c0-1.3,0.5-2.5,1.5-3.5
		c1-1,2.4-1.5,4.2-1.5c1.8,0,3.2,0.4,4.2,1.3c1.1,0.9,1.6,2.1,1.6,3.5C37.1,20.3,36.3,21.7,34.8,22.8z M33.6,26.9
		c0-0.7-0.2-1.2-0.7-1.7c-0.5-0.5-1-0.7-1.7-0.7c-0.6,0-1.2,0.2-1.6,0.7C29.2,25.7,29,26.3,29,27c0,0.6,0.2,1.2,0.7,1.6
		c0.5,0.5,1,0.7,1.6,0.7c0.7,0,1.2-0.2,1.7-0.7C33.4,28.1,33.6,27.6,33.6,26.9z M33.3,19.2c0-0.6-0.2-1.1-0.6-1.5
		c-0.4-0.4-0.8-0.6-1.4-0.6c-0.6,0-1,0.2-1.4,0.6c-0.4,0.4-0.6,0.8-0.6,1.4c0,0.6,0.2,1,0.6,1.4c0.4,0.4,0.8,0.6,1.4,0.6
		c0.5,0,1-0.2,1.4-0.6C33.1,20.1,33.3,19.7,33.3,19.2z"/>
</g>
</svg>
