<?xml version="1.0" encoding="utf-8"?>
<!-- Generator: Adobe Illustrator 23.0.3, SVG Export Plug-In . SVG Version: 6.00 Build 0)  -->
<svg version="1.1" id="Layer_1" xmlns="http://www.w3.org/2000/svg" xmlns:xlink="http://www.w3.org/1999/xlink" x="0px" y="0px"
	 viewBox="0 0 84.8 94.1" style="enable-background:new 0 0 84.8 94.1;" xml:space="preserve">
<style type="text/css">
	.st0{fill:#F6F6F6;}
	.st1{fill:#BE202E;}
	.st2{fill:#FFFFFF;}
	.st3{fill:#010101;}
	.st4{fill:#231F20;}
	.st5{opacity:0.3;}
</style>
<g>
	<path class="st0" d="M64.5,8.7c1.2,0,2.3,1,2.3,2.3v63c0,1.2-1,2.3-2.3,2.3H24c-1.2,0-2.3-1-2.3-2.3V11c0-1.2,1-2.3,2.3-2.3H64.5z"
		/>
	<g>
		<g>
			<g>
				<g>
					<g>
						<path class="st2" d="M27.5,69.8c-1,1-1.4,2.2-1.4,2.2s1.2-0.4,2.2-1.4c1-1,1.4-2.2,1.4-2.2S28.4,68.8,27.5,69.8z"/>
						<path class="st1" d="M25.9,72.1l0-0.1c0,0,0.4-1.2,1.4-2.2c1-1,2.2-1.4,2.2-1.4l0.1,0l0,0.1c0,0-0.4,1.2-1.4,2.2
							c-1,1-2.2,1.4-2.2,1.4L25.9,72.1z M29.5,68.5c-0.3,0.1-1.2,0.6-2,1.3c-0.8,0.8-1.2,1.6-1.3,2c0.3-0.1,1.2-0.6,2-1.3
							C28.9,69.8,29.4,68.9,29.5,68.5z"/>
					</g>
				</g>
				<g>
					<g>
						<path class="st2" d="M27.2,69.4c-0.2,0.2-0.2,0.5,0,0.8l0.6,0.6c0.2,0.2,0.6,0.2,0.8,0c0.2-0.2,0.2-0.5,0-0.8L28,69.5
							C27.8,69.2,27.4,69.2,27.2,69.4z"/>
						<path class="st1" d="M28.2,71L28.2,71c-0.2,0-0.3-0.1-0.4-0.2l-0.6-0.6C27.1,70.1,27,70,27,69.8c0-0.2,0.1-0.3,0.2-0.4
							c0.2-0.2,0.6-0.2,0.9,0l0.6,0.6c0.2,0.2,0.2,0.6,0,0.9C28.5,71,28.4,71,28.2,71z M27.6,69.4c-0.1,0-0.2,0-0.3,0.1
							c-0.1,0.1-0.1,0.2-0.1,0.3c0,0.1,0.1,0.2,0.1,0.3l0.6,0.6c0.2,0.2,0.5,0.2,0.7,0c0.2-0.2,0.2-0.5,0-0.7l-0.6-0.6
							C27.8,69.4,27.7,69.4,27.6,69.4z"/>
					</g>
					<g>
						<path class="st1" d="M28.2,71L28.2,71c-0.2,0-0.3-0.1-0.4-0.2l-0.6-0.6C27.1,70.1,27,70,27,69.8c0-0.2,0.1-0.3,0.2-0.4
							c0.2-0.2,0.6-0.2,0.9,0l0.6,0.6c0.2,0.2,0.2,0.6,0,0.9C28.5,71,28.4,71,28.2,71z M27.6,69.4c-0.1,0-0.2,0-0.3,0.1
							c-0.1,0.1-0.1,0.2-0.1,0.3c0,0.1,0.1,0.2,0.1,0.3l0.6,0.6c0.2,0.2,0.5,0.2,0.7,0c0.2-0.2,0.2-0.5,0-0.7l-0.6-0.6
							C27.8,69.4,27.7,69.4,27.6,69.4z"/>
					</g>
				</g>
			</g>
			<path class="st1" d="M24.6,69.6c-1.1,0-2-0.9-2-2.1c0,0,0-0.1,0.1-0.1c0,0,0.1,0,0.1,0.1c0,1,0.8,1.9,1.9,1.9
				c1,0,1.9-0.9,1.9-1.9V27.7c0,0,0-0.1,0.1-0.1c0,0,0.1,0,0.1,0.1v39.9C26.6,68.7,25.7,69.6,24.6,69.6z"/>
			<path class="st1" d="M30.6,75.5c-1.1,0-2.1-0.9-2.1-2c0-1.1,0.9-2,2.1-2h25.7c0,0,0.1,0,0.1,0.1c0,0,0,0.1-0.1,0.1H30.6
				c-1,0-1.9,0.8-1.9,1.9c0,1,0.9,1.9,1.9,1.9C30.6,75.3,30.7,75.4,30.6,75.5C30.7,75.5,30.6,75.5,30.6,75.5z"/>
		</g>
		<g>
			<g>
				<g>
					<g>
						<path class="st2" d="M59.9,14.8c-1,1-1.4,2.2-1.4,2.2s1.2-0.4,2.2-1.4c1-1,1.4-2.2,1.4-2.2S60.9,13.8,59.9,14.8z"/>
						<path class="st1" d="M58.4,17.1l0-0.1c0,0,0.4-1.2,1.4-2.2c1-1,2.2-1.4,2.2-1.4l0.1,0l0,0.1c0,0-0.4,1.2-1.4,2.2
							c-1,1-2.2,1.4-2.2,1.4L58.4,17.1z M61.9,13.6c-0.3,0.1-1.2,0.6-2,1.3c-0.8,0.8-1.2,1.7-1.3,2c0.3-0.1,1.2-0.6,2-1.3
							C61.4,14.8,61.8,13.9,61.9,13.6z"/>
					</g>
				</g>
				<g>
					<g>
						<path class="st2" d="M59.6,14.5c-0.2,0.2-0.2,0.5,0,0.8l0.6,0.6c0.2,0.2,0.6,0.2,0.8,0c0.2-0.2,0.2-0.5,0-0.8l-0.6-0.6
							C60.2,14.3,59.8,14.3,59.6,14.5z"/>
						<path class="st1" d="M60.7,16.1L60.7,16.1c-0.2,0-0.3-0.1-0.4-0.2l-0.6-0.6c-0.1-0.1-0.2-0.3-0.2-0.4c0-0.2,0.1-0.3,0.2-0.4
							c0.2-0.2,0.6-0.2,0.9,0l0.6,0.6c0.2,0.2,0.2,0.6,0,0.9C61,16,60.8,16.1,60.7,16.1z M60,14.4c-0.1,0-0.2,0-0.3,0.1
							c-0.1,0.1-0.1,0.2-0.1,0.3c0,0.1,0.1,0.2,0.1,0.3l0.6,0.6c0.2,0.2,0.5,0.2,0.7,0c0.2-0.2,0.2-0.5,0-0.7l-0.6-0.6
							C60.2,14.4,60.1,14.4,60,14.4z"/>
					</g>
					<g>
						<path class="st1" d="M60.7,16.1L60.7,16.1c-0.2,0-0.3-0.1-0.4-0.2l-0.6-0.6c-0.1-0.1-0.2-0.3-0.2-0.4c0-0.2,0.1-0.3,0.2-0.4
							c0.2-0.2,0.6-0.2,0.9,0l0.6,0.6c0.2,0.2,0.2,0.6,0,0.9C61,16,60.8,16.1,60.7,16.1z M60,14.4c-0.1,0-0.2,0-0.3,0.1
							c-0.1,0.1-0.1,0.2-0.1,0.3c0,0.1,0.1,0.2,0.1,0.3l0.6,0.6c0.2,0.2,0.5,0.2,0.7,0c0.2-0.2,0.2-0.5,0-0.7l-0.6-0.6
							C60.2,14.4,60.1,14.4,60,14.4z"/>
					</g>
				</g>
			</g>
			<path class="st1" d="M62,57.3C62,57.3,61.9,57.3,62,57.3l-0.1-39.9c0-1.1,0.9-2.1,2-2.1c1.1,0,2,0.9,2,2.1c0,0,0,0.1-0.1,0.1
				c0,0-0.1,0-0.1-0.1c0-1-0.8-1.9-1.9-1.9c-1,0-1.9,0.9-1.9,1.9L62,57.3C62.1,57.3,62.1,57.3,62,57.3z"/>
			<path class="st1" d="M58,13.5H32.3c0,0-0.1,0-0.1-0.1c0,0,0-0.1,0.1-0.1H58c1,0,1.9-0.8,1.9-1.9c0-1-0.9-1.9-1.9-1.9
				c0,0-0.1,0-0.1-0.1c0,0,0-0.1,0.1-0.1c1.1,0,2.1,0.9,2.1,2C60,12.6,59.1,13.5,58,13.5z"/>
		</g>
		<g>
			<g>
				<g>
					<path class="st1" d="M28.5,20.7c-0.7,0.7-1.6,2.2-2.1,3.2c-0.5-1.1-1.4-2.5-2.1-3.2c0.7-0.7,1.6-2.2,2.1-3.2
						C26.9,18.5,27.8,20,28.5,20.7z"/>
				</g>
				<g>
					<path class="st1" d="M27.7,17.2L27.4,16h-2L25,17.2h-1.1l1.7-5.8h1.5l1.7,5.8H27.7z M26.4,12.4l-0.8,2.7h1.5L26.4,12.4z"/>
				</g>
			</g>
			<g>
				<g>
					<path class="st1" d="M64.1,64.3c-0.7,0.7-1.6,2.2-2.1,3.2c-0.5-1.1-1.4-2.5-2.1-3.2c0.7-0.7,1.6-2.2,2.1-3.2
						C62.5,62.1,63.4,63.6,64.1,64.3z"/>
				</g>
				<g>
					<path class="st1" d="M64.6,67.8l-1.7,5.8h-1.5l-1.7-5.8h1.1l0.3,1.2h2l0.3-1.2H64.6z M62.9,69.9h-1.5l0.8,2.7L62.9,69.9z"/>
				</g>
			</g>
		</g>
	</g>
	<g>
		<g>
			<path class="st1" d="M54.1,42.5c-3.3,3.4-7.6,10.3-9.8,15.5c-2.2-5.2-6.6-12.1-9.8-15.5c3.3-3.4,7.6-10.3,9.8-15.5
				C46.5,32.2,50.8,39,54.1,42.5z"/>
		</g>
		<g>
			<g>
				<g>
					<path class="st2" d="M44.6,41.8c0.3-2.5,1.8-3.3,1.8-3.3s-0.4-1,0.4-1.8C44.5,37.8,44.6,41.8,44.6,41.8z M46,38.3
						c-0.3,0.1-0.4,0.4-0.6,0.7c0.2-0.4,0.3-0.7,0.6-1.1C45.9,38.1,45.9,38.1,46,38.3z"/>
				</g>
				<g>
					<path class="st2" d="M41.7,36.7c0.8,0.8,0.4,1.8,0.4,1.8s1.5,0.8,1.8,3.3C43.9,41.8,44,37.8,41.7,36.7z M42.6,37.9
						c0.2,0.3,0.4,0.7,0.6,1.1c-0.2-0.3-0.4-0.5-0.6-0.7C42.6,38.1,42.6,38.1,42.6,37.9z"/>
				</g>
				<g>
					<path class="st2" d="M43.3,36.9c0.6,0.5,0.9,5.3,0.9,5.6l0,0c0-0.3,0.3-5,1-5.6c-0.9-0.5-1-2.6-1-2.6S44.2,36.3,43.3,36.9z
						 M44.5,37.2c0,0.4-0.3,1.3-0.3,1.3S44,37.6,44,37.2c0-0.4,0.3-0.4,0.3-0.4S44.5,36.8,44.5,37.2z"/>
				</g>
			</g>
			<g>
				<g>
					<path class="st2" d="M46.8,48.2c-0.8-0.8-0.4-1.8-0.4-1.8s-1.5-0.8-1.8-3.3C44.6,43.1,44.5,47.1,46.8,48.2z M45.9,47
						c-0.2-0.3-0.4-0.7-0.6-1.1c0.2,0.3,0.4,0.5,0.6,0.7C45.9,46.8,45.9,46.8,45.9,47z"/>
				</g>
				<g>
					<path class="st2" d="M43.9,43.1c-0.3,2.5-1.8,3.3-1.8,3.3s0.4,1-0.4,1.8C44,47.1,43.9,43.1,43.9,43.1z M42.6,46.6
						c0.3-0.1,0.4-0.4,0.6-0.7c-0.2,0.4-0.3,0.7-0.6,1.1C42.6,46.8,42.6,46.8,42.6,46.6z"/>
				</g>
				<g>
					<path class="st2" d="M44.3,50.7c0,0,0.1-2.1,1-2.6c-0.7-0.6-1-5.3-1-5.6l0,0c0,0.3-0.3,5.1-0.9,5.6
						C44.2,48.6,44.3,50.7,44.3,50.7z M44.3,48.1c0,0-0.3,0-0.3-0.4c0-0.4,0.3-1.3,0.3-1.3s0.3,0.9,0.3,1.3
						C44.5,48.1,44.3,48.1,44.3,48.1z"/>
				</g>
			</g>
		</g>
		<g>
			<g>
				<g class="st5">
					<path class="st2" d="M43.5,31.8l-7.3,10.9l7.3,10.9l0.5-3.4v5.3c-2.4-4.7-5.6-9.5-8.4-12.8c2.8-3.3,6-8.1,8.4-12.8v5.3
						L43.5,31.8z"/>
				</g>
				<g>
					<path class="st2" d="M43.5,31.5l-7.3,10.9l7.3,10.9l0.5-3.4v5.3c-2.4-4.7-5.6-9.5-8.4-12.8c2.8-3.3,6-8.1,8.4-12.8v5.3
						L43.5,31.5z"/>
				</g>
			</g>
			<g>
				<g class="st5">
					<path class="st2" d="M45.1,31.8l7.3,10.9l-7.3,10.9l-0.5-3.4v5.3C47,50.8,50.2,46,53,42.7c-2.8-3.3-6-8.1-8.4-12.8v5.3
						L45.1,31.8z"/>
				</g>
				<g>
					<path class="st2" d="M45.1,31.5l7.3,10.9l-7.3,10.9l-0.5-3.4v5.3c2.4-4.7,5.6-9.5,8.4-12.8c-2.8-3.3-6-8.1-8.4-12.8v5.3
						L45.1,31.5z"/>
				</g>
			</g>
		</g>
	</g>
</g>
</svg>
