<?xml version="1.0" encoding="utf-8"?>
<!-- Generator: Adobe Illustrator 23.0.3, SVG Export Plug-In . SVG Version: 6.00 Build 0)  -->
<svg version="1.1" id="Layer_1" xmlns="http://www.w3.org/2000/svg" xmlns:xlink="http://www.w3.org/1999/xlink" x="0px" y="0px"
	 viewBox="0 0 84.8 94.1" style="enable-background:new 0 0 84.8 94.1;" xml:space="preserve">
<style type="text/css">
	.st0{fill:#F6F6F6;}
	.st1{fill:#BE202E;}
	.st2{fill:#FFFFFF;}
	.st3{fill:#010101;}
	.st4{fill:#231F20;}
	.st5{opacity:0.3;}
</style>
<g>
	<path class="st0" d="M65.6,82.1c0,0.8-0.7,1.5-1.5,1.5h-42c-0.8,0-1.5-0.7-1.5-1.5V17.5c0-0.8,0.7-1.5,1.5-1.5h42
		c0.8,0,1.5,0.7,1.5,1.5V82.1z"/>
	<path class="st3" d="M34.6,47.2c-0.3-0.2-0.6-0.4-0.9-0.7c-2.1-1.8-3.8-4.2-3.8-4.2c0,0-1.7,2.4-3.8,4.2c-0.3,0.2-0.6,0.5-0.9,0.7
		c-1.4,1.1-2.6,2-2.6,3.8c0,1,0.4,2,1.1,2.7c0.7,0.7,1.7,1.1,2.8,1.1l0,0c1.1,0,2.1-0.4,2.8-1.2c-0.1,0.5-0.2,1.2-0.4,1.6
		c-0.6,1.6-1.5,2.2-1.5,2.2h4.8c0.1,0-0.9-0.7-1.5-2.2c-0.1-0.4-0.3-1.1-0.4-1.6c0.7,0.8,1.7,1.2,2.8,1.2l0,0c1,0,2-0.4,2.8-1.1
		c0.7-0.7,1.1-1.7,1.1-2.7C37.2,49.2,36.1,48.3,34.6,47.2z"/>
	<path class="st3" d="M47.2,59.9c-0.1-0.1-0.2-0.2-0.4-0.3c-0.9-0.8-1.7-1.8-1.7-1.8c0,0-0.7,1-1.7,1.8c-0.1,0.1-0.3,0.2-0.4,0.3
		c-0.6,0.5-1.1,0.9-1.1,1.6c0,0.4,0.2,0.9,0.5,1.2c0.3,0.3,0.7,0.5,1.2,0.5h0c0.5,0,0.9-0.2,1.2-0.5c-0.1,0.2-0.1,0.5-0.2,0.7
		c-0.2,0.7-0.7,1-0.6,1h2.1c0,0-0.4-0.3-0.6-1c-0.1-0.2-0.1-0.5-0.2-0.7c0.3,0.3,0.7,0.5,1.2,0.5h0c0.5,0,0.9-0.2,1.2-0.5
		c0.3-0.3,0.5-0.7,0.5-1.2C48.3,60.7,47.8,60.4,47.2,59.9z"/>
	<path class="st3" d="M47.2,37.5c-0.1-0.1-0.2-0.2-0.4-0.3c-0.9-0.8-1.7-1.8-1.7-1.8c0,0-0.7,1-1.7,1.8c-0.1,0.1-0.3,0.2-0.4,0.3
		c-0.6,0.5-1.1,0.9-1.1,1.6c0,0.4,0.2,0.9,0.5,1.2c0.3,0.3,0.7,0.5,1.2,0.5l0,0c0.5,0,0.9-0.2,1.2-0.5c-0.1,0.2-0.1,0.5-0.2,0.7
		c-0.2,0.7-0.7,1-0.6,1h2.1c0,0-0.4-0.3-0.6-1c-0.1-0.2-0.1-0.5-0.2-0.7c0.3,0.3,0.7,0.5,1.2,0.5l0,0c0.5,0,0.9-0.2,1.2-0.5
		c0.3-0.3,0.5-0.7,0.5-1.2C48.3,38.3,47.8,38,47.2,37.5z"/>
	<path class="st3" d="M59.6,59.9c-0.1-0.1-0.2-0.2-0.4-0.3c-0.9-0.8-1.7-1.8-1.7-1.8c0,0-0.7,1-1.7,1.8c-0.1,0.1-0.3,0.2-0.4,0.3
		c-0.6,0.5-1.1,0.9-1.1,1.6c0,0.4,0.2,0.9,0.5,1.2c0.3,0.3,0.7,0.5,1.2,0.5h0c0.5,0,0.9-0.2,1.2-0.5c-0.1,0.2-0.1,0.5-0.2,0.7
		c-0.2,0.7-0.7,1-0.6,1h2.1c0,0-0.4-0.3-0.6-1c-0.1-0.2-0.1-0.5-0.2-0.7c0.3,0.3,0.7,0.5,1.2,0.5h0c0.5,0,0.9-0.2,1.2-0.5
		c0.3-0.3,0.5-0.7,0.5-1.2C60.7,60.7,60.2,60.4,59.6,59.9z"/>
	<path class="st3" d="M53.4,64.8c-0.1-0.1-0.2-0.2-0.4-0.3c-0.9-0.8-1.7-1.8-1.7-1.8c0,0-0.7,1-1.7,1.8c-0.1,0.1-0.3,0.2-0.4,0.3
		c-0.6,0.5-1.1,0.9-1.1,1.6c0,0.4,0.2,0.9,0.5,1.2c0.3,0.3,0.7,0.5,1.2,0.5h0c0.5,0,0.9-0.2,1.2-0.5c-0.1,0.2-0.1,0.5-0.2,0.7
		c-0.3,0.7-0.7,1-0.6,1h2.1c0,0-0.4-0.3-0.6-1c-0.1-0.2-0.1-0.5-0.2-0.7c0.3,0.3,0.7,0.5,1.2,0.5h0c0.5,0,0.9-0.2,1.2-0.5
		c0.3-0.3,0.5-0.7,0.5-1.2C54.5,65.7,54,65.3,53.4,64.8z"/>
	<path class="st3" d="M59.6,37.5c-0.1-0.1-0.2-0.2-0.4-0.3c-0.9-0.8-1.7-1.8-1.7-1.8c0,0-0.7,1-1.7,1.8c-0.1,0.1-0.3,0.2-0.4,0.3
		c-0.6,0.5-1.1,0.9-1.1,1.6c0,0.4,0.2,0.9,0.5,1.2c0.3,0.3,0.7,0.5,1.2,0.5l0,0c0.5,0,0.9-0.2,1.2-0.5c-0.1,0.2-0.1,0.5-0.2,0.7
		c-0.2,0.7-0.7,1-0.6,1h2.1c0,0-0.4-0.3-0.6-1c-0.1-0.2-0.1-0.5-0.2-0.7c0.3,0.3,0.7,0.5,1.2,0.5l0,0c0.5,0,0.9-0.2,1.2-0.5
		c0.3-0.3,0.5-0.7,0.5-1.2C60.7,38.3,60.2,38,59.6,37.5z"/>
	<path class="st3" d="M47.2,71.1c-0.1-0.1-0.2-0.2-0.4-0.3C45.9,70,45.1,69,45.1,69c0,0-0.7,1-1.7,1.8c-0.1,0.1-0.3,0.2-0.4,0.3
		c-0.6,0.5-1.1,0.9-1.1,1.6c0,0.4,0.2,0.9,0.5,1.2c0.3,0.3,0.7,0.5,1.2,0.5h0c0.5,0,0.9-0.2,1.2-0.5c-0.1,0.2-0.1,0.5-0.2,0.7
		c-0.2,0.7-0.7,1-0.6,1h2.1c0,0-0.4-0.3-0.6-1c-0.1-0.2-0.1-0.5-0.2-0.7c0.3,0.3,0.7,0.5,1.2,0.5h0c0.5,0,0.9-0.2,1.2-0.5
		c0.3-0.3,0.5-0.7,0.5-1.2C48.3,72,47.8,71.6,47.2,71.1z"/>
	<path class="st3" d="M47.2,48.7c-0.1-0.1-0.2-0.2-0.4-0.3c-0.9-0.8-1.7-1.8-1.7-1.8c0,0-0.7,1-1.7,1.8c-0.1,0.1-0.3,0.2-0.4,0.3
		c-0.6,0.5-1.1,0.9-1.1,1.6c0,0.4,0.2,0.9,0.5,1.2c0.3,0.3,0.7,0.5,1.2,0.5l0,0c0.5,0,0.9-0.2,1.2-0.5c-0.1,0.2-0.1,0.5-0.2,0.7
		c-0.2,0.7-0.7,1-0.6,1h2.1c0,0-0.4-0.3-0.6-1c-0.1-0.2-0.1-0.5-0.2-0.7c0.3,0.3,0.7,0.5,1.2,0.5l0,0c0.5,0,0.9-0.2,1.2-0.5
		c0.3-0.3,0.5-0.7,0.5-1.2C48.3,49.5,47.8,49.2,47.2,48.7z"/>
	<path class="st3" d="M59.6,71.1c-0.1-0.1-0.2-0.2-0.4-0.3C58.3,70,57.6,69,57.6,69c0,0-0.7,1-1.7,1.8c-0.1,0.1-0.3,0.2-0.4,0.3
		c-0.6,0.5-1.1,0.9-1.1,1.6c0,0.4,0.2,0.9,0.5,1.2c0.3,0.3,0.7,0.5,1.2,0.5h0c0.5,0,0.9-0.2,1.2-0.5c-0.1,0.2-0.1,0.5-0.2,0.7
		c-0.2,0.7-0.7,1-0.6,1h2.1c0,0-0.4-0.3-0.6-1c-0.1-0.2-0.1-0.5-0.2-0.7c0.3,0.3,0.7,0.5,1.2,0.5h0c0.5,0,0.9-0.2,1.2-0.5
		c0.3-0.3,0.5-0.7,0.5-1.2C60.7,72,60.2,71.6,59.6,71.1z"/>
	<path class="st3" d="M59.6,48.7c-0.1-0.1-0.2-0.2-0.4-0.3c-0.9-0.8-1.7-1.8-1.7-1.8c0,0-0.7,1-1.7,1.8c-0.1,0.1-0.3,0.2-0.4,0.3
		c-0.6,0.5-1.1,0.9-1.1,1.6c0,0.4,0.2,0.9,0.5,1.2c0.3,0.3,0.7,0.5,1.2,0.5l0,0c0.5,0,0.9-0.2,1.2-0.5c-0.1,0.2-0.1,0.5-0.2,0.7
		c-0.2,0.7-0.7,1-0.6,1h2.1c0,0-0.4-0.3-0.6-1c-0.1-0.2-0.1-0.5-0.2-0.7c0.3,0.3,0.7,0.5,1.2,0.5l0,0c0.5,0,0.9-0.2,1.2-0.5
		c0.3-0.3,0.5-0.7,0.5-1.2C60.7,49.5,60.2,49.2,59.6,48.7z"/>
	<path class="st3" d="M53.4,43.7c-0.1-0.1-0.2-0.2-0.4-0.3c-0.9-0.8-1.7-1.8-1.7-1.8c0,0-0.7,1-1.7,1.8c-0.1,0.1-0.3,0.2-0.4,0.3
		c-0.6,0.5-1.1,0.9-1.1,1.6c0,0.4,0.2,0.9,0.5,1.2c0.3,0.3,0.7,0.5,1.2,0.5l0,0c0.5,0,0.9-0.2,1.2-0.5C51,46.7,51,47,50.9,47.1
		c-0.3,0.7-0.7,1-0.6,1h2.1c0,0-0.4-0.3-0.6-1c-0.1-0.2-0.1-0.5-0.2-0.7c0.3,0.3,0.7,0.5,1.2,0.5l0,0c0.5,0,0.9-0.2,1.2-0.5
		c0.3-0.3,0.5-0.7,0.5-1.2C54.5,44.6,54,44.2,53.4,43.7z"/>
	<g>
		<path class="st3" d="M22.4,18.2h6.1v18.6h-4.1V21.5h-2.7L22.4,18.2z"/>
		<path class="st3" d="M37.4,17.9c2.2,0,4,0.8,5.3,2.5c1.3,1.7,2,4,2,6.8c0,3.3-0.7,5.8-2.2,7.4c-1.5,1.6-3.1,2.4-5.1,2.4
			c-2.2,0-4-0.9-5.3-2.6c-1.4-1.7-2-4-2-6.7c0-3,0.7-5.3,2-7.1c1.3-1.8,3.1-2.7,5.2-2.7H37.4z M40.7,27.5c0-1.9-0.3-3.4-0.9-4.4
			c-0.6-1.1-1.4-1.6-2.4-1.6c-1.1,0-1.9,0.5-2.5,1.6c-0.6,1.1-0.9,2.6-0.9,4.5c0,1.8,0.3,3.2,0.9,4.2c0.6,1.1,1.4,1.6,2.5,1.6
			c1,0,1.9-0.5,2.5-1.6C40.4,30.7,40.7,29.3,40.7,27.5z"/>
	</g>
</g>
</svg>
