<?xml version="1.0" encoding="utf-8"?>
<!-- Generator: Adobe Illustrator 23.0.3, SVG Export Plug-In . SVG Version: 6.00 Build 0)  -->
<svg version="1.1" id="Layer_1" xmlns="http://www.w3.org/2000/svg" xmlns:xlink="http://www.w3.org/1999/xlink" x="0px" y="0px"
	 viewBox="0 0 84.8 94.1" style="enable-background:new 0 0 84.8 94.1;" xml:space="preserve">
<style type="text/css">
	.st0{fill:#F6F6F6;}
	.st1{fill:#BE202E;}
	.st2{fill:#FFFFFF;}
	.st3{fill:#010101;}
	.st4{fill:#231F20;}
	.st5{opacity:0.3;}
</style>
<g>
	<path class="st0" d="M67.1,79.3c0,0.8-0.7,1.5-1.5,1.5h-42c-0.8,0-1.5-0.7-1.5-1.5V14.8c0-0.8,0.7-1.5,1.5-1.5h42
		c0.8,0,1.5,0.7,1.5,1.5V79.3z"/>
	<path class="st1" d="M37.8,47c-2.1,1.9-5,5.8-6.4,8.7c-1.4-2.9-4.3-6.8-6.4-8.7c2.1-1.9,5-5.8,6.4-8.7C32.8,41.2,35.6,45.1,37.8,47
		z"/>
	<path class="st1" d="M49.2,62c-0.9,0.8-2.1,2.4-2.6,3.6c-0.6-1.2-1.8-2.8-2.6-3.6c0.9-0.8,2.1-2.4,2.6-3.6
		C47.1,59.6,48.3,61.2,49.2,62z"/>
	<path class="st1" d="M49.2,32.1c-0.9,0.8-2.1,2.4-2.6,3.6c-0.6-1.2-1.8-2.8-2.6-3.6c0.9-0.8,2.1-2.4,2.6-3.6
		C47.1,29.7,48.3,31.3,49.2,32.1z"/>
	<path class="st1" d="M49.2,47c-0.9,0.8-2.1,2.4-2.6,3.6c-0.6-1.2-1.8-2.8-2.6-3.6c0.9-0.8,2.1-2.4,2.6-3.6
		C47.1,44.6,48.3,46.2,49.2,47z"/>
	<path class="st1" d="M61.6,62c-0.9,0.8-2,2.4-2.6,3.6c-0.6-1.2-1.8-2.8-2.6-3.6c0.9-0.8,2.1-2.4,2.6-3.6
		C59.6,59.6,60.7,61.2,61.6,62z"/>
	<path class="st1" d="M61.6,32.1c-0.9,0.8-2,2.4-2.6,3.6c-0.6-1.2-1.8-2.8-2.6-3.6c0.9-0.8,2.1-2.4,2.6-3.6
		C59.6,29.7,60.7,31.3,61.6,32.1z"/>
	<path class="st1" d="M61.6,47c-0.9,0.8-2,2.4-2.6,3.6c-0.6-1.2-1.8-2.8-2.6-3.6c0.9-0.8,2.1-2.4,2.6-3.6
		C59.6,44.6,60.7,46.2,61.6,47z"/>
	<path class="st1" d="M55.4,39.5c-0.9,0.8-2.1,2.4-2.6,3.6c-0.6-1.2-1.8-2.8-2.6-3.6c0.9-0.8,2.1-2.4,2.6-3.6
		C53.3,37.2,54.5,38.8,55.4,39.5z"/>
	<path class="st1" d="M25,15h14.7L27.8,34.2l-3.3-2.1L33,18.4h-8V15z"/>
</g>
</svg>
