<?xml version="1.0" encoding="utf-8"?>
<!-- Generator: Adobe Illustrator 23.0.3, SVG Export Plug-In . SVG Version: 6.00 Build 0)  -->
<svg version="1.1" id="Layer_1" xmlns="http://www.w3.org/2000/svg" xmlns:xlink="http://www.w3.org/1999/xlink" x="0px" y="0px"
	 viewBox="0 0 84.8 94.1" style="enable-background:new 0 0 84.8 94.1;" xml:space="preserve">
<style type="text/css">
	.st0{fill:#F6F6F6;}
	.st1{fill:#BE202E;}
	.st2{fill:#FFFFFF;}
	.st3{fill:#010101;}
	.st4{fill:#231F20;}
	.st5{opacity:0.3;}
</style>
<g>
	<path class="st0" d="M67.8,79.7c0,0.8-0.7,1.5-1.5,1.5h-42c-0.8,0-1.5-0.7-1.5-1.5V15.1c0-0.8,0.7-1.5,1.5-1.5h42
		c0.8,0,1.5,0.7,1.5,1.5V79.7z"/>
	<path class="st3" d="M36,44.7c-0.4,0-0.9,0.1-1.3,0.2c0.5-0.6,0.8-1.4,0.8-2.2c0-1.9-1.5-3.5-3.5-3.5c-1.9,0-3.5,1.5-3.5,3.5
		c0,0.9,0.3,1.6,0.8,2.2c-0.4-0.2-0.8-0.2-1.3-0.2c-1.9,0-3.5,1.5-3.5,3.5c0,1.9,1.5,3.5,3.5,3.5c1.7,0,3.1-1.2,3.4-2.7
		c0,1.6,0.2,2.6-1.7,4.4c1.2,0,3.5,0,4.5,0c-1.9-1.8-1.8-2.8-1.7-4.4c0.3,1.6,1.7,2.8,3.4,2.8c1.9,0,3.5-1.5,3.5-3.5
		C39.5,46.3,37.9,44.7,36,44.7z"/>
	<path class="st3" d="M51.4,31.8c-0.2,0-0.4,0-0.5,0.1c0.2-0.3,0.3-0.6,0.3-0.9c0-0.8-0.6-1.4-1.4-1.4c-0.8,0-1.4,0.6-1.4,1.4
		c0,0.4,0.1,0.7,0.3,0.9c-0.2-0.1-0.3-0.1-0.5-0.1c-0.8,0-1.4,0.6-1.4,1.4c0,0.8,0.6,1.4,1.4,1.4c0.7,0,1.3-0.5,1.4-1.1
		c0,0.7,0.1,1.1-0.7,1.8c0.5,0,1.5,0,1.9,0c-0.8-0.7-0.7-1.2-0.7-1.8c0.1,0.7,0.7,1.2,1.4,1.2c0.8,0,1.4-0.6,1.4-1.4
		C52.9,32.4,52.2,31.8,51.4,31.8z"/>
	<path class="st3" d="M51.4,46.7c-0.2,0-0.4,0-0.5,0.1c0.2-0.3,0.3-0.6,0.3-0.9c0-0.8-0.6-1.4-1.4-1.4c-0.8,0-1.4,0.6-1.4,1.4
		c0,0.4,0.1,0.7,0.3,0.9c-0.2-0.1-0.3-0.1-0.5-0.1c-0.8,0-1.4,0.6-1.4,1.4c0,0.8,0.6,1.4,1.4,1.4c0.7,0,1.3-0.5,1.4-1.1
		c0,0.7,0.1,1.1-0.7,1.8c0.5,0,1.5,0,1.9,0c-0.8-0.7-0.7-1.2-0.7-1.8c0.1,0.7,0.7,1.2,1.4,1.2c0.8,0,1.4-0.6,1.4-1.4
		C52.9,47.4,52.2,46.7,51.4,46.7z"/>
	<path class="st3" d="M51.4,61.7c-0.2,0-0.4,0-0.5,0.1c0.2-0.3,0.3-0.6,0.3-0.9c0-0.8-0.6-1.4-1.4-1.4c-0.8,0-1.4,0.6-1.4,1.4
		c0,0.4,0.1,0.7,0.3,0.9c-0.2-0.1-0.3-0.1-0.5-0.1c-0.8,0-1.4,0.6-1.4,1.4c0,0.8,0.6,1.4,1.4,1.4c0.7,0,1.3-0.5,1.4-1.1
		c0,0.7,0.1,1.1-0.7,1.8c0.5,0,1.5,0,1.9,0c-0.8-0.7-0.7-1.2-0.7-1.8c0.1,0.7,0.7,1.2,1.4,1.2c0.8,0,1.4-0.6,1.4-1.4
		C52.9,62.3,52.2,61.7,51.4,61.7z"/>
	<path class="st3" d="M29.1,21h-3.8c0.1-1.7,0.7-3.1,1.9-4.1c1.1-1,2.5-1.5,4.1-1.5c1.7,0,3.2,0.5,4.4,1.5c1.2,1,1.8,2.2,1.8,3.6
		c0,1.5-0.7,2.9-2.2,4.1c1,0.6,1.7,1.2,2.1,1.9c0.4,0.7,0.7,1.4,0.7,2.4c0,1.7-0.6,3.1-1.7,4.2c-1.2,1.1-2.7,1.6-4.6,1.6
		c-1.8,0-3.2-0.5-4.4-1.5c-1.2-1-1.9-2.4-2.2-4.2H29c0.5,1.8,1.3,2.7,2.6,2.7c0.7,0,1.2-0.2,1.6-0.7c0.4-0.5,0.7-1,0.7-1.7
		c0-0.8-0.3-1.5-0.8-2.1c-0.5-0.5-1.2-0.8-2.1-0.8h-0.7v-3.1h0.4c0.9,0,1.6-0.2,2.1-0.7c0.5-0.4,0.8-1,0.8-1.7
		c0-0.6-0.2-1.2-0.6-1.7c-0.4-0.5-0.9-0.7-1.6-0.7C30.1,18.4,29.3,19.3,29.1,21z"/>
</g>
</svg>
