<?xml version="1.0" encoding="utf-8"?>
<!-- Generator: Adobe Illustrator 23.0.3, SVG Export Plug-In . SVG Version: 6.00 Build 0)  -->
<svg version="1.1" id="Layer_1" xmlns="http://www.w3.org/2000/svg" xmlns:xlink="http://www.w3.org/1999/xlink" x="0px" y="0px"
	 viewBox="0 0 84.8 94.1" style="enable-background:new 0 0 84.8 94.1;" xml:space="preserve">
<style type="text/css">
	.st0{fill:#F6F6F6;}
	.st1{fill:#BE202E;}
	.st2{fill:#FFFFFF;}
	.st3{fill:#010101;}
	.st4{fill:#231F20;}
	.st5{opacity:0.3;}
</style>
<g>
	<path class="st0" d="M64.4,74.9c0,0.8-0.7,1.5-1.5,1.5h-42c-0.8,0-1.5-0.7-1.5-1.5V10.3c0-0.8,0.7-1.5,1.5-1.5h42
		c0.8,0,1.5,0.7,1.5,1.5V74.9z"/>
	<path class="st1" d="M35.1,42.6c-2.1,1.9-5,5.8-6.4,8.7c-1.4-2.9-4.3-6.8-6.4-8.7c2.1-1.9,5-5.8,6.4-8.7
		C30.1,36.8,33,40.7,35.1,42.6z"/>
	<path class="st1" d="M46.5,57.5c-0.9,0.8-2.1,2.4-2.6,3.6c-0.6-1.2-1.8-2.8-2.6-3.6c0.9-0.8,2.1-2.4,2.6-3.6
		C44.5,55.1,45.6,56.7,46.5,57.5z"/>
	<path class="st1" d="M46.5,27.7c-0.9,0.8-2.1,2.4-2.6,3.6c-0.6-1.2-1.8-2.8-2.6-3.6c0.9-0.8,2.1-2.4,2.6-3.6
		C44.5,25.3,45.6,26.9,46.5,27.7z"/>
	<path class="st1" d="M46.5,42.6c-0.9,0.8-2.1,2.4-2.6,3.6c-0.6-1.2-1.8-2.8-2.6-3.6c0.9-0.8,2.1-2.4,2.6-3.6
		C44.5,40.2,45.6,41.8,46.5,42.6z"/>
	<path class="st1" d="M59,57.5c-0.9,0.8-2,2.4-2.6,3.6c-0.6-1.2-1.8-2.8-2.6-3.6c0.9-0.8,2.1-2.4,2.6-3.6
		C56.9,55.1,58.1,56.7,59,57.5z"/>
	<path class="st1" d="M59,27.7c-0.9,0.8-2,2.4-2.6,3.6c-0.6-1.2-1.8-2.8-2.6-3.6c0.9-0.8,2.1-2.4,2.6-3.6
		C56.9,25.3,58.1,26.9,59,27.7z"/>
	<path class="st1" d="M59,42.6c-0.9,0.8-2,2.4-2.6,3.6c-0.6-1.2-1.8-2.8-2.6-3.6c0.9-0.8,2.1-2.4,2.6-3.6
		C56.9,40.2,58.1,41.8,59,42.6z"/>
	<path class="st1" d="M52.8,35.1c-0.9,0.8-2,2.4-2.6,3.6c-0.6-1.2-1.8-2.8-2.6-3.6c0.9-0.8,2.1-2.4,2.6-3.6
		C50.7,32.7,51.9,34.3,52.8,35.1z"/>
	<path class="st1" d="M52.8,50.1c-0.9,0.8-2,2.4-2.6,3.6c-0.6-1.2-1.8-2.8-2.6-3.6c0.9-0.8,2.1-2.4,2.6-3.6
		C50.7,47.7,51.9,49.3,52.8,50.1z"/>
	<path class="st1" d="M31.8,19.7c1.8,1.2,2.7,2.7,2.7,4.6c0,1.6-0.6,2.9-1.7,3.9c-1.1,1-2.6,1.5-4.5,1.5c-1.9,0-3.4-0.5-4.6-1.5
		c-1.2-1-1.8-2.3-1.8-3.9c0-2,0.9-3.5,2.7-4.7c-0.8-0.7-1.3-1.3-1.7-2c-0.4-0.6-0.5-1.4-0.5-2.2c0-1.3,0.5-2.5,1.5-3.5
		c1-1,2.4-1.5,4.2-1.5c1.8,0,3.2,0.4,4.2,1.3c1.1,0.9,1.6,2.1,1.6,3.5C34,17.2,33.3,18.6,31.8,19.7z M30.5,23.8
		c0-0.7-0.2-1.2-0.7-1.7c-0.5-0.5-1-0.7-1.7-0.7c-0.6,0-1.2,0.2-1.6,0.7c-0.4,0.5-0.7,1.1-0.7,1.7c0,0.6,0.2,1.2,0.7,1.6
		c0.5,0.5,1,0.7,1.6,0.7c0.7,0,1.2-0.2,1.7-0.7C30.3,25.1,30.5,24.5,30.5,23.8z M30.2,16.1c0-0.6-0.2-1.1-0.6-1.5
		c-0.4-0.4-0.8-0.6-1.4-0.6c-0.6,0-1,0.2-1.4,0.6c-0.4,0.4-0.6,0.8-0.6,1.4c0,0.6,0.2,1,0.6,1.4c0.4,0.4,0.8,0.6,1.4,0.6
		c0.5,0,1-0.2,1.4-0.6C30,17,30.2,16.6,30.2,16.1z"/>
</g>
</svg>
